%TF.GenerationSoftware,KiCad,Pcbnew,9.0.3*%
%TF.CreationDate,2026-08-02T02:37:07-04:00*%
%TF.ProjectId,HackPad,4861636b-5061-4642-9e6b-696361645f70,rev?*%
%TF.SameCoordinates,Original*%
%TF.FileFunction,Legend,Top*%
%TF.FilePolarity,Positive*%
%FSLAX46Y46*%
G04 Gerber Fmt 4.6, Leading zero omitted, Abs format (unit mm)*
G04 Created by KiCad (PCBNEW 9.0.3) date 2026-08-02 02:37:07*
%MOMM*%
%LPD*%
G01*
G04 APERTURE LIST*
%ADD10C,0.150000*%
%ADD11C,0.100000*%
%ADD12C,0.120000*%
%ADD13C,0.200000*%
%ADD14R,1.752600X1.752600*%
%ADD15C,1.752600*%
G04 APERTURE END LIST*
D10*
X121694095Y-109254374D02*
X121836952Y-109301993D01*
X121836952Y-109301993D02*
X122075047Y-109301993D01*
X122075047Y-109301993D02*
X122170285Y-109254374D01*
X122170285Y-109254374D02*
X122217904Y-109206754D01*
X122217904Y-109206754D02*
X122265523Y-109111516D01*
X122265523Y-109111516D02*
X122265523Y-109016278D01*
X122265523Y-109016278D02*
X122217904Y-108921040D01*
X122217904Y-108921040D02*
X122170285Y-108873421D01*
X122170285Y-108873421D02*
X122075047Y-108825802D01*
X122075047Y-108825802D02*
X121884571Y-108778183D01*
X121884571Y-108778183D02*
X121789333Y-108730564D01*
X121789333Y-108730564D02*
X121741714Y-108682945D01*
X121741714Y-108682945D02*
X121694095Y-108587707D01*
X121694095Y-108587707D02*
X121694095Y-108492469D01*
X121694095Y-108492469D02*
X121741714Y-108397231D01*
X121741714Y-108397231D02*
X121789333Y-108349612D01*
X121789333Y-108349612D02*
X121884571Y-108301993D01*
X121884571Y-108301993D02*
X122122666Y-108301993D01*
X122122666Y-108301993D02*
X122265523Y-108349612D01*
X122598857Y-108301993D02*
X123265523Y-108301993D01*
X123265523Y-108301993D02*
X122836952Y-109301993D01*
X159794095Y-90154374D02*
X159936952Y-90201993D01*
X159936952Y-90201993D02*
X160175047Y-90201993D01*
X160175047Y-90201993D02*
X160270285Y-90154374D01*
X160270285Y-90154374D02*
X160317904Y-90106754D01*
X160317904Y-90106754D02*
X160365523Y-90011516D01*
X160365523Y-90011516D02*
X160365523Y-89916278D01*
X160365523Y-89916278D02*
X160317904Y-89821040D01*
X160317904Y-89821040D02*
X160270285Y-89773421D01*
X160270285Y-89773421D02*
X160175047Y-89725802D01*
X160175047Y-89725802D02*
X159984571Y-89678183D01*
X159984571Y-89678183D02*
X159889333Y-89630564D01*
X159889333Y-89630564D02*
X159841714Y-89582945D01*
X159841714Y-89582945D02*
X159794095Y-89487707D01*
X159794095Y-89487707D02*
X159794095Y-89392469D01*
X159794095Y-89392469D02*
X159841714Y-89297231D01*
X159841714Y-89297231D02*
X159889333Y-89249612D01*
X159889333Y-89249612D02*
X159984571Y-89201993D01*
X159984571Y-89201993D02*
X160222666Y-89201993D01*
X160222666Y-89201993D02*
X160365523Y-89249612D01*
X161222666Y-89201993D02*
X161032190Y-89201993D01*
X161032190Y-89201993D02*
X160936952Y-89249612D01*
X160936952Y-89249612D02*
X160889333Y-89297231D01*
X160889333Y-89297231D02*
X160794095Y-89440088D01*
X160794095Y-89440088D02*
X160746476Y-89630564D01*
X160746476Y-89630564D02*
X160746476Y-90011516D01*
X160746476Y-90011516D02*
X160794095Y-90106754D01*
X160794095Y-90106754D02*
X160841714Y-90154374D01*
X160841714Y-90154374D02*
X160936952Y-90201993D01*
X160936952Y-90201993D02*
X161127428Y-90201993D01*
X161127428Y-90201993D02*
X161222666Y-90154374D01*
X161222666Y-90154374D02*
X161270285Y-90106754D01*
X161270285Y-90106754D02*
X161317904Y-90011516D01*
X161317904Y-90011516D02*
X161317904Y-89773421D01*
X161317904Y-89773421D02*
X161270285Y-89678183D01*
X161270285Y-89678183D02*
X161222666Y-89630564D01*
X161222666Y-89630564D02*
X161127428Y-89582945D01*
X161127428Y-89582945D02*
X160936952Y-89582945D01*
X160936952Y-89582945D02*
X160841714Y-89630564D01*
X160841714Y-89630564D02*
X160794095Y-89678183D01*
X160794095Y-89678183D02*
X160746476Y-89773421D01*
X187141666Y-109199819D02*
X187141666Y-109914104D01*
X187141666Y-109914104D02*
X187094047Y-110056961D01*
X187094047Y-110056961D02*
X186998809Y-110152200D01*
X186998809Y-110152200D02*
X186855952Y-110199819D01*
X186855952Y-110199819D02*
X186760714Y-110199819D01*
X187522619Y-109199819D02*
X188141666Y-109199819D01*
X188141666Y-109199819D02*
X187808333Y-109580771D01*
X187808333Y-109580771D02*
X187951190Y-109580771D01*
X187951190Y-109580771D02*
X188046428Y-109628390D01*
X188046428Y-109628390D02*
X188094047Y-109676009D01*
X188094047Y-109676009D02*
X188141666Y-109771247D01*
X188141666Y-109771247D02*
X188141666Y-110009342D01*
X188141666Y-110009342D02*
X188094047Y-110104580D01*
X188094047Y-110104580D02*
X188046428Y-110152200D01*
X188046428Y-110152200D02*
X187951190Y-110199819D01*
X187951190Y-110199819D02*
X187665476Y-110199819D01*
X187665476Y-110199819D02*
X187570238Y-110152200D01*
X187570238Y-110152200D02*
X187522619Y-110104580D01*
X177403524Y-71337295D02*
X177403524Y-70537295D01*
X177403524Y-70537295D02*
X177594000Y-70537295D01*
X177594000Y-70537295D02*
X177708286Y-70575390D01*
X177708286Y-70575390D02*
X177784476Y-70651580D01*
X177784476Y-70651580D02*
X177822571Y-70727771D01*
X177822571Y-70727771D02*
X177860667Y-70880152D01*
X177860667Y-70880152D02*
X177860667Y-70994438D01*
X177860667Y-70994438D02*
X177822571Y-71146819D01*
X177822571Y-71146819D02*
X177784476Y-71223009D01*
X177784476Y-71223009D02*
X177708286Y-71299200D01*
X177708286Y-71299200D02*
X177594000Y-71337295D01*
X177594000Y-71337295D02*
X177403524Y-71337295D01*
X178622571Y-71337295D02*
X178165428Y-71337295D01*
X178394000Y-71337295D02*
X178394000Y-70537295D01*
X178394000Y-70537295D02*
X178317809Y-70651580D01*
X178317809Y-70651580D02*
X178241619Y-70727771D01*
X178241619Y-70727771D02*
X178165428Y-70765866D01*
X188649333Y-78538247D02*
X188382667Y-78538247D01*
X188382667Y-78957295D02*
X188382667Y-78157295D01*
X188382667Y-78157295D02*
X188763619Y-78157295D01*
X188992190Y-78157295D02*
X189525524Y-78157295D01*
X189525524Y-78157295D02*
X189182666Y-78957295D01*
X177403524Y-76417295D02*
X177403524Y-75617295D01*
X177403524Y-75617295D02*
X177594000Y-75617295D01*
X177594000Y-75617295D02*
X177708286Y-75655390D01*
X177708286Y-75655390D02*
X177784476Y-75731580D01*
X177784476Y-75731580D02*
X177822571Y-75807771D01*
X177822571Y-75807771D02*
X177860667Y-75960152D01*
X177860667Y-75960152D02*
X177860667Y-76074438D01*
X177860667Y-76074438D02*
X177822571Y-76226819D01*
X177822571Y-76226819D02*
X177784476Y-76303009D01*
X177784476Y-76303009D02*
X177708286Y-76379200D01*
X177708286Y-76379200D02*
X177594000Y-76417295D01*
X177594000Y-76417295D02*
X177403524Y-76417295D01*
X178546381Y-75883961D02*
X178546381Y-76417295D01*
X178355905Y-75579200D02*
X178165428Y-76150628D01*
X178165428Y-76150628D02*
X178660667Y-76150628D01*
X177670190Y-88698247D02*
X177784476Y-88736342D01*
X177784476Y-88736342D02*
X177822571Y-88774438D01*
X177822571Y-88774438D02*
X177860667Y-88850628D01*
X177860667Y-88850628D02*
X177860667Y-88964914D01*
X177860667Y-88964914D02*
X177822571Y-89041104D01*
X177822571Y-89041104D02*
X177784476Y-89079200D01*
X177784476Y-89079200D02*
X177708286Y-89117295D01*
X177708286Y-89117295D02*
X177403524Y-89117295D01*
X177403524Y-89117295D02*
X177403524Y-88317295D01*
X177403524Y-88317295D02*
X177670190Y-88317295D01*
X177670190Y-88317295D02*
X177746381Y-88355390D01*
X177746381Y-88355390D02*
X177784476Y-88393485D01*
X177784476Y-88393485D02*
X177822571Y-88469676D01*
X177822571Y-88469676D02*
X177822571Y-88545866D01*
X177822571Y-88545866D02*
X177784476Y-88622057D01*
X177784476Y-88622057D02*
X177746381Y-88660152D01*
X177746381Y-88660152D02*
X177670190Y-88698247D01*
X177670190Y-88698247D02*
X177403524Y-88698247D01*
X178584476Y-88317295D02*
X178203524Y-88317295D01*
X178203524Y-88317295D02*
X178165428Y-88698247D01*
X178165428Y-88698247D02*
X178203524Y-88660152D01*
X178203524Y-88660152D02*
X178279714Y-88622057D01*
X178279714Y-88622057D02*
X178470190Y-88622057D01*
X178470190Y-88622057D02*
X178546381Y-88660152D01*
X178546381Y-88660152D02*
X178584476Y-88698247D01*
X178584476Y-88698247D02*
X178622571Y-88774438D01*
X178622571Y-88774438D02*
X178622571Y-88964914D01*
X178622571Y-88964914D02*
X178584476Y-89041104D01*
X178584476Y-89041104D02*
X178546381Y-89079200D01*
X178546381Y-89079200D02*
X178470190Y-89117295D01*
X178470190Y-89117295D02*
X178279714Y-89117295D01*
X178279714Y-89117295D02*
X178203524Y-89079200D01*
X178203524Y-89079200D02*
X178165428Y-89041104D01*
X177403524Y-73877295D02*
X177403524Y-73077295D01*
X177403524Y-73077295D02*
X177594000Y-73077295D01*
X177594000Y-73077295D02*
X177708286Y-73115390D01*
X177708286Y-73115390D02*
X177784476Y-73191580D01*
X177784476Y-73191580D02*
X177822571Y-73267771D01*
X177822571Y-73267771D02*
X177860667Y-73420152D01*
X177860667Y-73420152D02*
X177860667Y-73534438D01*
X177860667Y-73534438D02*
X177822571Y-73686819D01*
X177822571Y-73686819D02*
X177784476Y-73763009D01*
X177784476Y-73763009D02*
X177708286Y-73839200D01*
X177708286Y-73839200D02*
X177594000Y-73877295D01*
X177594000Y-73877295D02*
X177403524Y-73877295D01*
X178355905Y-73077295D02*
X178432095Y-73077295D01*
X178432095Y-73077295D02*
X178508286Y-73115390D01*
X178508286Y-73115390D02*
X178546381Y-73153485D01*
X178546381Y-73153485D02*
X178584476Y-73229676D01*
X178584476Y-73229676D02*
X178622571Y-73382057D01*
X178622571Y-73382057D02*
X178622571Y-73572533D01*
X178622571Y-73572533D02*
X178584476Y-73724914D01*
X178584476Y-73724914D02*
X178546381Y-73801104D01*
X178546381Y-73801104D02*
X178508286Y-73839200D01*
X178508286Y-73839200D02*
X178432095Y-73877295D01*
X178432095Y-73877295D02*
X178355905Y-73877295D01*
X178355905Y-73877295D02*
X178279714Y-73839200D01*
X178279714Y-73839200D02*
X178241619Y-73801104D01*
X178241619Y-73801104D02*
X178203524Y-73724914D01*
X178203524Y-73724914D02*
X178165428Y-73572533D01*
X178165428Y-73572533D02*
X178165428Y-73382057D01*
X178165428Y-73382057D02*
X178203524Y-73229676D01*
X178203524Y-73229676D02*
X178241619Y-73153485D01*
X178241619Y-73153485D02*
X178279714Y-73115390D01*
X178279714Y-73115390D02*
X178355905Y-73077295D01*
X187849333Y-67997295D02*
X188116000Y-68797295D01*
X188116000Y-68797295D02*
X188382666Y-67997295D01*
X189106476Y-68721104D02*
X189068380Y-68759200D01*
X189068380Y-68759200D02*
X188954095Y-68797295D01*
X188954095Y-68797295D02*
X188877904Y-68797295D01*
X188877904Y-68797295D02*
X188763618Y-68759200D01*
X188763618Y-68759200D02*
X188687428Y-68683009D01*
X188687428Y-68683009D02*
X188649333Y-68606819D01*
X188649333Y-68606819D02*
X188611237Y-68454438D01*
X188611237Y-68454438D02*
X188611237Y-68340152D01*
X188611237Y-68340152D02*
X188649333Y-68187771D01*
X188649333Y-68187771D02*
X188687428Y-68111580D01*
X188687428Y-68111580D02*
X188763618Y-68035390D01*
X188763618Y-68035390D02*
X188877904Y-67997295D01*
X188877904Y-67997295D02*
X188954095Y-67997295D01*
X188954095Y-67997295D02*
X189068380Y-68035390D01*
X189068380Y-68035390D02*
X189106476Y-68073485D01*
X189906476Y-68721104D02*
X189868380Y-68759200D01*
X189868380Y-68759200D02*
X189754095Y-68797295D01*
X189754095Y-68797295D02*
X189677904Y-68797295D01*
X189677904Y-68797295D02*
X189563618Y-68759200D01*
X189563618Y-68759200D02*
X189487428Y-68683009D01*
X189487428Y-68683009D02*
X189449333Y-68606819D01*
X189449333Y-68606819D02*
X189411237Y-68454438D01*
X189411237Y-68454438D02*
X189411237Y-68340152D01*
X189411237Y-68340152D02*
X189449333Y-68187771D01*
X189449333Y-68187771D02*
X189487428Y-68111580D01*
X189487428Y-68111580D02*
X189563618Y-68035390D01*
X189563618Y-68035390D02*
X189677904Y-67997295D01*
X189677904Y-67997295D02*
X189754095Y-67997295D01*
X189754095Y-67997295D02*
X189868380Y-68035390D01*
X189868380Y-68035390D02*
X189906476Y-68073485D01*
X188592190Y-86158247D02*
X188706476Y-86196342D01*
X188706476Y-86196342D02*
X188744571Y-86234438D01*
X188744571Y-86234438D02*
X188782667Y-86310628D01*
X188782667Y-86310628D02*
X188782667Y-86424914D01*
X188782667Y-86424914D02*
X188744571Y-86501104D01*
X188744571Y-86501104D02*
X188706476Y-86539200D01*
X188706476Y-86539200D02*
X188630286Y-86577295D01*
X188630286Y-86577295D02*
X188325524Y-86577295D01*
X188325524Y-86577295D02*
X188325524Y-85777295D01*
X188325524Y-85777295D02*
X188592190Y-85777295D01*
X188592190Y-85777295D02*
X188668381Y-85815390D01*
X188668381Y-85815390D02*
X188706476Y-85853485D01*
X188706476Y-85853485D02*
X188744571Y-85929676D01*
X188744571Y-85929676D02*
X188744571Y-86005866D01*
X188744571Y-86005866D02*
X188706476Y-86082057D01*
X188706476Y-86082057D02*
X188668381Y-86120152D01*
X188668381Y-86120152D02*
X188592190Y-86158247D01*
X188592190Y-86158247D02*
X188325524Y-86158247D01*
X189087428Y-85853485D02*
X189125524Y-85815390D01*
X189125524Y-85815390D02*
X189201714Y-85777295D01*
X189201714Y-85777295D02*
X189392190Y-85777295D01*
X189392190Y-85777295D02*
X189468381Y-85815390D01*
X189468381Y-85815390D02*
X189506476Y-85853485D01*
X189506476Y-85853485D02*
X189544571Y-85929676D01*
X189544571Y-85929676D02*
X189544571Y-86005866D01*
X189544571Y-86005866D02*
X189506476Y-86120152D01*
X189506476Y-86120152D02*
X189049333Y-86577295D01*
X189049333Y-86577295D02*
X189544571Y-86577295D01*
X188306476Y-62955390D02*
X188230286Y-62917295D01*
X188230286Y-62917295D02*
X188116000Y-62917295D01*
X188116000Y-62917295D02*
X188001714Y-62955390D01*
X188001714Y-62955390D02*
X187925524Y-63031580D01*
X187925524Y-63031580D02*
X187887429Y-63107771D01*
X187887429Y-63107771D02*
X187849333Y-63260152D01*
X187849333Y-63260152D02*
X187849333Y-63374438D01*
X187849333Y-63374438D02*
X187887429Y-63526819D01*
X187887429Y-63526819D02*
X187925524Y-63603009D01*
X187925524Y-63603009D02*
X188001714Y-63679200D01*
X188001714Y-63679200D02*
X188116000Y-63717295D01*
X188116000Y-63717295D02*
X188192191Y-63717295D01*
X188192191Y-63717295D02*
X188306476Y-63679200D01*
X188306476Y-63679200D02*
X188344572Y-63641104D01*
X188344572Y-63641104D02*
X188344572Y-63374438D01*
X188344572Y-63374438D02*
X188192191Y-63374438D01*
X188687429Y-63717295D02*
X188687429Y-62917295D01*
X188687429Y-62917295D02*
X189144572Y-63717295D01*
X189144572Y-63717295D02*
X189144572Y-62917295D01*
X189525524Y-63717295D02*
X189525524Y-62917295D01*
X189525524Y-62917295D02*
X189716000Y-62917295D01*
X189716000Y-62917295D02*
X189830286Y-62955390D01*
X189830286Y-62955390D02*
X189906476Y-63031580D01*
X189906476Y-63031580D02*
X189944571Y-63107771D01*
X189944571Y-63107771D02*
X189982667Y-63260152D01*
X189982667Y-63260152D02*
X189982667Y-63374438D01*
X189982667Y-63374438D02*
X189944571Y-63526819D01*
X189944571Y-63526819D02*
X189906476Y-63603009D01*
X189906476Y-63603009D02*
X189830286Y-63679200D01*
X189830286Y-63679200D02*
X189716000Y-63717295D01*
X189716000Y-63717295D02*
X189525524Y-63717295D01*
X177403524Y-63717295D02*
X177403524Y-62917295D01*
X177403524Y-62917295D02*
X177594000Y-62917295D01*
X177594000Y-62917295D02*
X177708286Y-62955390D01*
X177708286Y-62955390D02*
X177784476Y-63031580D01*
X177784476Y-63031580D02*
X177822571Y-63107771D01*
X177822571Y-63107771D02*
X177860667Y-63260152D01*
X177860667Y-63260152D02*
X177860667Y-63374438D01*
X177860667Y-63374438D02*
X177822571Y-63526819D01*
X177822571Y-63526819D02*
X177784476Y-63603009D01*
X177784476Y-63603009D02*
X177708286Y-63679200D01*
X177708286Y-63679200D02*
X177594000Y-63717295D01*
X177594000Y-63717295D02*
X177403524Y-63717295D01*
X178165428Y-62993485D02*
X178203524Y-62955390D01*
X178203524Y-62955390D02*
X178279714Y-62917295D01*
X178279714Y-62917295D02*
X178470190Y-62917295D01*
X178470190Y-62917295D02*
X178546381Y-62955390D01*
X178546381Y-62955390D02*
X178584476Y-62993485D01*
X178584476Y-62993485D02*
X178622571Y-63069676D01*
X178622571Y-63069676D02*
X178622571Y-63145866D01*
X178622571Y-63145866D02*
X178584476Y-63260152D01*
X178584476Y-63260152D02*
X178127333Y-63717295D01*
X178127333Y-63717295D02*
X178622571Y-63717295D01*
X188592190Y-88698247D02*
X188706476Y-88736342D01*
X188706476Y-88736342D02*
X188744571Y-88774438D01*
X188744571Y-88774438D02*
X188782667Y-88850628D01*
X188782667Y-88850628D02*
X188782667Y-88964914D01*
X188782667Y-88964914D02*
X188744571Y-89041104D01*
X188744571Y-89041104D02*
X188706476Y-89079200D01*
X188706476Y-89079200D02*
X188630286Y-89117295D01*
X188630286Y-89117295D02*
X188325524Y-89117295D01*
X188325524Y-89117295D02*
X188325524Y-88317295D01*
X188325524Y-88317295D02*
X188592190Y-88317295D01*
X188592190Y-88317295D02*
X188668381Y-88355390D01*
X188668381Y-88355390D02*
X188706476Y-88393485D01*
X188706476Y-88393485D02*
X188744571Y-88469676D01*
X188744571Y-88469676D02*
X188744571Y-88545866D01*
X188744571Y-88545866D02*
X188706476Y-88622057D01*
X188706476Y-88622057D02*
X188668381Y-88660152D01*
X188668381Y-88660152D02*
X188592190Y-88698247D01*
X188592190Y-88698247D02*
X188325524Y-88698247D01*
X189468381Y-88317295D02*
X189316000Y-88317295D01*
X189316000Y-88317295D02*
X189239809Y-88355390D01*
X189239809Y-88355390D02*
X189201714Y-88393485D01*
X189201714Y-88393485D02*
X189125524Y-88507771D01*
X189125524Y-88507771D02*
X189087428Y-88660152D01*
X189087428Y-88660152D02*
X189087428Y-88964914D01*
X189087428Y-88964914D02*
X189125524Y-89041104D01*
X189125524Y-89041104D02*
X189163619Y-89079200D01*
X189163619Y-89079200D02*
X189239809Y-89117295D01*
X189239809Y-89117295D02*
X189392190Y-89117295D01*
X189392190Y-89117295D02*
X189468381Y-89079200D01*
X189468381Y-89079200D02*
X189506476Y-89041104D01*
X189506476Y-89041104D02*
X189544571Y-88964914D01*
X189544571Y-88964914D02*
X189544571Y-88774438D01*
X189544571Y-88774438D02*
X189506476Y-88698247D01*
X189506476Y-88698247D02*
X189468381Y-88660152D01*
X189468381Y-88660152D02*
X189392190Y-88622057D01*
X189392190Y-88622057D02*
X189239809Y-88622057D01*
X189239809Y-88622057D02*
X189163619Y-88660152D01*
X189163619Y-88660152D02*
X189125524Y-88698247D01*
X189125524Y-88698247D02*
X189087428Y-88774438D01*
X177384476Y-65495390D02*
X177308286Y-65457295D01*
X177308286Y-65457295D02*
X177194000Y-65457295D01*
X177194000Y-65457295D02*
X177079714Y-65495390D01*
X177079714Y-65495390D02*
X177003524Y-65571580D01*
X177003524Y-65571580D02*
X176965429Y-65647771D01*
X176965429Y-65647771D02*
X176927333Y-65800152D01*
X176927333Y-65800152D02*
X176927333Y-65914438D01*
X176927333Y-65914438D02*
X176965429Y-66066819D01*
X176965429Y-66066819D02*
X177003524Y-66143009D01*
X177003524Y-66143009D02*
X177079714Y-66219200D01*
X177079714Y-66219200D02*
X177194000Y-66257295D01*
X177194000Y-66257295D02*
X177270191Y-66257295D01*
X177270191Y-66257295D02*
X177384476Y-66219200D01*
X177384476Y-66219200D02*
X177422572Y-66181104D01*
X177422572Y-66181104D02*
X177422572Y-65914438D01*
X177422572Y-65914438D02*
X177270191Y-65914438D01*
X177765429Y-66257295D02*
X177765429Y-65457295D01*
X177765429Y-65457295D02*
X178222572Y-66257295D01*
X178222572Y-66257295D02*
X178222572Y-65457295D01*
X178603524Y-66257295D02*
X178603524Y-65457295D01*
X178603524Y-65457295D02*
X178794000Y-65457295D01*
X178794000Y-65457295D02*
X178908286Y-65495390D01*
X178908286Y-65495390D02*
X178984476Y-65571580D01*
X178984476Y-65571580D02*
X179022571Y-65647771D01*
X179022571Y-65647771D02*
X179060667Y-65800152D01*
X179060667Y-65800152D02*
X179060667Y-65914438D01*
X179060667Y-65914438D02*
X179022571Y-66066819D01*
X179022571Y-66066819D02*
X178984476Y-66143009D01*
X178984476Y-66143009D02*
X178908286Y-66219200D01*
X178908286Y-66219200D02*
X178794000Y-66257295D01*
X178794000Y-66257295D02*
X178603524Y-66257295D01*
X177670190Y-86158247D02*
X177784476Y-86196342D01*
X177784476Y-86196342D02*
X177822571Y-86234438D01*
X177822571Y-86234438D02*
X177860667Y-86310628D01*
X177860667Y-86310628D02*
X177860667Y-86424914D01*
X177860667Y-86424914D02*
X177822571Y-86501104D01*
X177822571Y-86501104D02*
X177784476Y-86539200D01*
X177784476Y-86539200D02*
X177708286Y-86577295D01*
X177708286Y-86577295D02*
X177403524Y-86577295D01*
X177403524Y-86577295D02*
X177403524Y-85777295D01*
X177403524Y-85777295D02*
X177670190Y-85777295D01*
X177670190Y-85777295D02*
X177746381Y-85815390D01*
X177746381Y-85815390D02*
X177784476Y-85853485D01*
X177784476Y-85853485D02*
X177822571Y-85929676D01*
X177822571Y-85929676D02*
X177822571Y-86005866D01*
X177822571Y-86005866D02*
X177784476Y-86082057D01*
X177784476Y-86082057D02*
X177746381Y-86120152D01*
X177746381Y-86120152D02*
X177670190Y-86158247D01*
X177670190Y-86158247D02*
X177403524Y-86158247D01*
X178546381Y-86043961D02*
X178546381Y-86577295D01*
X178355905Y-85739200D02*
X178165428Y-86310628D01*
X178165428Y-86310628D02*
X178660667Y-86310628D01*
X188363619Y-61177295D02*
X188096952Y-60796342D01*
X187906476Y-61177295D02*
X187906476Y-60377295D01*
X187906476Y-60377295D02*
X188211238Y-60377295D01*
X188211238Y-60377295D02*
X188287428Y-60415390D01*
X188287428Y-60415390D02*
X188325523Y-60453485D01*
X188325523Y-60453485D02*
X188363619Y-60529676D01*
X188363619Y-60529676D02*
X188363619Y-60643961D01*
X188363619Y-60643961D02*
X188325523Y-60720152D01*
X188325523Y-60720152D02*
X188287428Y-60758247D01*
X188287428Y-60758247D02*
X188211238Y-60796342D01*
X188211238Y-60796342D02*
X187906476Y-60796342D01*
X188668380Y-60948723D02*
X189049333Y-60948723D01*
X188592190Y-61177295D02*
X188858857Y-60377295D01*
X188858857Y-60377295D02*
X189125523Y-61177295D01*
X189315999Y-60377295D02*
X189506475Y-61177295D01*
X189506475Y-61177295D02*
X189658856Y-60605866D01*
X189658856Y-60605866D02*
X189811237Y-61177295D01*
X189811237Y-61177295D02*
X190001714Y-60377295D01*
X177692651Y-60377295D02*
X178149794Y-60377295D01*
X177921222Y-61177295D02*
X177921222Y-60377295D01*
X178340270Y-60377295D02*
X178873604Y-61177295D01*
X178873604Y-60377295D02*
X178340270Y-61177295D01*
X179330747Y-60377295D02*
X179406937Y-60377295D01*
X179406937Y-60377295D02*
X179483128Y-60415390D01*
X179483128Y-60415390D02*
X179521223Y-60453485D01*
X179521223Y-60453485D02*
X179559318Y-60529676D01*
X179559318Y-60529676D02*
X179597413Y-60682057D01*
X179597413Y-60682057D02*
X179597413Y-60872533D01*
X179597413Y-60872533D02*
X179559318Y-61024914D01*
X179559318Y-61024914D02*
X179521223Y-61101104D01*
X179521223Y-61101104D02*
X179483128Y-61139200D01*
X179483128Y-61139200D02*
X179406937Y-61177295D01*
X179406937Y-61177295D02*
X179330747Y-61177295D01*
X179330747Y-61177295D02*
X179254556Y-61139200D01*
X179254556Y-61139200D02*
X179216461Y-61101104D01*
X179216461Y-61101104D02*
X179178366Y-61024914D01*
X179178366Y-61024914D02*
X179140270Y-60872533D01*
X179140270Y-60872533D02*
X179140270Y-60682057D01*
X179140270Y-60682057D02*
X179178366Y-60529676D01*
X179178366Y-60529676D02*
X179216461Y-60453485D01*
X179216461Y-60453485D02*
X179254556Y-60415390D01*
X179254556Y-60415390D02*
X179330747Y-60377295D01*
X180511699Y-60339200D02*
X179825985Y-61367771D01*
X180778366Y-61177295D02*
X180778366Y-60377295D01*
X180778366Y-60377295D02*
X180968842Y-60377295D01*
X180968842Y-60377295D02*
X181083128Y-60415390D01*
X181083128Y-60415390D02*
X181159318Y-60491580D01*
X181159318Y-60491580D02*
X181197413Y-60567771D01*
X181197413Y-60567771D02*
X181235509Y-60720152D01*
X181235509Y-60720152D02*
X181235509Y-60834438D01*
X181235509Y-60834438D02*
X181197413Y-60986819D01*
X181197413Y-60986819D02*
X181159318Y-61063009D01*
X181159318Y-61063009D02*
X181083128Y-61139200D01*
X181083128Y-61139200D02*
X180968842Y-61177295D01*
X180968842Y-61177295D02*
X180778366Y-61177295D01*
X181502175Y-60377295D02*
X181997413Y-60377295D01*
X181997413Y-60377295D02*
X181730747Y-60682057D01*
X181730747Y-60682057D02*
X181845032Y-60682057D01*
X181845032Y-60682057D02*
X181921223Y-60720152D01*
X181921223Y-60720152D02*
X181959318Y-60758247D01*
X181959318Y-60758247D02*
X181997413Y-60834438D01*
X181997413Y-60834438D02*
X181997413Y-61024914D01*
X181997413Y-61024914D02*
X181959318Y-61101104D01*
X181959318Y-61101104D02*
X181921223Y-61139200D01*
X181921223Y-61139200D02*
X181845032Y-61177295D01*
X181845032Y-61177295D02*
X181616461Y-61177295D01*
X181616461Y-61177295D02*
X181540270Y-61139200D01*
X181540270Y-61139200D02*
X181502175Y-61101104D01*
X177860667Y-78881104D02*
X177822571Y-78919200D01*
X177822571Y-78919200D02*
X177708286Y-78957295D01*
X177708286Y-78957295D02*
X177632095Y-78957295D01*
X177632095Y-78957295D02*
X177517809Y-78919200D01*
X177517809Y-78919200D02*
X177441619Y-78843009D01*
X177441619Y-78843009D02*
X177403524Y-78766819D01*
X177403524Y-78766819D02*
X177365428Y-78614438D01*
X177365428Y-78614438D02*
X177365428Y-78500152D01*
X177365428Y-78500152D02*
X177403524Y-78347771D01*
X177403524Y-78347771D02*
X177441619Y-78271580D01*
X177441619Y-78271580D02*
X177517809Y-78195390D01*
X177517809Y-78195390D02*
X177632095Y-78157295D01*
X177632095Y-78157295D02*
X177708286Y-78157295D01*
X177708286Y-78157295D02*
X177822571Y-78195390D01*
X177822571Y-78195390D02*
X177860667Y-78233485D01*
X178546381Y-78157295D02*
X178394000Y-78157295D01*
X178394000Y-78157295D02*
X178317809Y-78195390D01*
X178317809Y-78195390D02*
X178279714Y-78233485D01*
X178279714Y-78233485D02*
X178203524Y-78347771D01*
X178203524Y-78347771D02*
X178165428Y-78500152D01*
X178165428Y-78500152D02*
X178165428Y-78804914D01*
X178165428Y-78804914D02*
X178203524Y-78881104D01*
X178203524Y-78881104D02*
X178241619Y-78919200D01*
X178241619Y-78919200D02*
X178317809Y-78957295D01*
X178317809Y-78957295D02*
X178470190Y-78957295D01*
X178470190Y-78957295D02*
X178546381Y-78919200D01*
X178546381Y-78919200D02*
X178584476Y-78881104D01*
X178584476Y-78881104D02*
X178622571Y-78804914D01*
X178622571Y-78804914D02*
X178622571Y-78614438D01*
X178622571Y-78614438D02*
X178584476Y-78538247D01*
X178584476Y-78538247D02*
X178546381Y-78500152D01*
X178546381Y-78500152D02*
X178470190Y-78462057D01*
X178470190Y-78462057D02*
X178317809Y-78462057D01*
X178317809Y-78462057D02*
X178241619Y-78500152D01*
X178241619Y-78500152D02*
X178203524Y-78538247D01*
X178203524Y-78538247D02*
X178165428Y-78614438D01*
X177384476Y-68035390D02*
X177308286Y-67997295D01*
X177308286Y-67997295D02*
X177194000Y-67997295D01*
X177194000Y-67997295D02*
X177079714Y-68035390D01*
X177079714Y-68035390D02*
X177003524Y-68111580D01*
X177003524Y-68111580D02*
X176965429Y-68187771D01*
X176965429Y-68187771D02*
X176927333Y-68340152D01*
X176927333Y-68340152D02*
X176927333Y-68454438D01*
X176927333Y-68454438D02*
X176965429Y-68606819D01*
X176965429Y-68606819D02*
X177003524Y-68683009D01*
X177003524Y-68683009D02*
X177079714Y-68759200D01*
X177079714Y-68759200D02*
X177194000Y-68797295D01*
X177194000Y-68797295D02*
X177270191Y-68797295D01*
X177270191Y-68797295D02*
X177384476Y-68759200D01*
X177384476Y-68759200D02*
X177422572Y-68721104D01*
X177422572Y-68721104D02*
X177422572Y-68454438D01*
X177422572Y-68454438D02*
X177270191Y-68454438D01*
X177765429Y-68797295D02*
X177765429Y-67997295D01*
X177765429Y-67997295D02*
X178222572Y-68797295D01*
X178222572Y-68797295D02*
X178222572Y-67997295D01*
X178603524Y-68797295D02*
X178603524Y-67997295D01*
X178603524Y-67997295D02*
X178794000Y-67997295D01*
X178794000Y-67997295D02*
X178908286Y-68035390D01*
X178908286Y-68035390D02*
X178984476Y-68111580D01*
X178984476Y-68111580D02*
X179022571Y-68187771D01*
X179022571Y-68187771D02*
X179060667Y-68340152D01*
X179060667Y-68340152D02*
X179060667Y-68454438D01*
X179060667Y-68454438D02*
X179022571Y-68606819D01*
X179022571Y-68606819D02*
X178984476Y-68683009D01*
X178984476Y-68683009D02*
X178908286Y-68759200D01*
X178908286Y-68759200D02*
X178794000Y-68797295D01*
X178794000Y-68797295D02*
X178603524Y-68797295D01*
X188649333Y-70918247D02*
X188382667Y-70918247D01*
X188382667Y-71337295D02*
X188382667Y-70537295D01*
X188382667Y-70537295D02*
X188763619Y-70537295D01*
X189411238Y-70803961D02*
X189411238Y-71337295D01*
X189220762Y-70499200D02*
X189030285Y-71070628D01*
X189030285Y-71070628D02*
X189525524Y-71070628D01*
X177441619Y-83618247D02*
X177708285Y-83618247D01*
X177822571Y-84037295D02*
X177441619Y-84037295D01*
X177441619Y-84037295D02*
X177441619Y-83237295D01*
X177441619Y-83237295D02*
X177822571Y-83237295D01*
X178508286Y-83237295D02*
X178355905Y-83237295D01*
X178355905Y-83237295D02*
X178279714Y-83275390D01*
X178279714Y-83275390D02*
X178241619Y-83313485D01*
X178241619Y-83313485D02*
X178165429Y-83427771D01*
X178165429Y-83427771D02*
X178127333Y-83580152D01*
X178127333Y-83580152D02*
X178127333Y-83884914D01*
X178127333Y-83884914D02*
X178165429Y-83961104D01*
X178165429Y-83961104D02*
X178203524Y-83999200D01*
X178203524Y-83999200D02*
X178279714Y-84037295D01*
X178279714Y-84037295D02*
X178432095Y-84037295D01*
X178432095Y-84037295D02*
X178508286Y-83999200D01*
X178508286Y-83999200D02*
X178546381Y-83961104D01*
X178546381Y-83961104D02*
X178584476Y-83884914D01*
X178584476Y-83884914D02*
X178584476Y-83694438D01*
X178584476Y-83694438D02*
X178546381Y-83618247D01*
X178546381Y-83618247D02*
X178508286Y-83580152D01*
X178508286Y-83580152D02*
X178432095Y-83542057D01*
X178432095Y-83542057D02*
X178279714Y-83542057D01*
X178279714Y-83542057D02*
X178203524Y-83580152D01*
X178203524Y-83580152D02*
X178165429Y-83618247D01*
X178165429Y-83618247D02*
X178127333Y-83694438D01*
X188654786Y-66189200D02*
X188769072Y-66227295D01*
X188769072Y-66227295D02*
X188959548Y-66227295D01*
X188959548Y-66227295D02*
X189035739Y-66189200D01*
X189035739Y-66189200D02*
X189073834Y-66151104D01*
X189073834Y-66151104D02*
X189111929Y-66074914D01*
X189111929Y-66074914D02*
X189111929Y-65998723D01*
X189111929Y-65998723D02*
X189073834Y-65922533D01*
X189073834Y-65922533D02*
X189035739Y-65884438D01*
X189035739Y-65884438D02*
X188959548Y-65846342D01*
X188959548Y-65846342D02*
X188807167Y-65808247D01*
X188807167Y-65808247D02*
X188730977Y-65770152D01*
X188730977Y-65770152D02*
X188692882Y-65732057D01*
X188692882Y-65732057D02*
X188654786Y-65655866D01*
X188654786Y-65655866D02*
X188654786Y-65579676D01*
X188654786Y-65579676D02*
X188692882Y-65503485D01*
X188692882Y-65503485D02*
X188730977Y-65465390D01*
X188730977Y-65465390D02*
X188807167Y-65427295D01*
X188807167Y-65427295D02*
X188997644Y-65427295D01*
X188997644Y-65427295D02*
X189111929Y-65465390D01*
X189340501Y-65427295D02*
X189797644Y-65427295D01*
X189569072Y-66227295D02*
X189569072Y-65427295D01*
X188592190Y-81078247D02*
X188706476Y-81116342D01*
X188706476Y-81116342D02*
X188744571Y-81154438D01*
X188744571Y-81154438D02*
X188782667Y-81230628D01*
X188782667Y-81230628D02*
X188782667Y-81344914D01*
X188782667Y-81344914D02*
X188744571Y-81421104D01*
X188744571Y-81421104D02*
X188706476Y-81459200D01*
X188706476Y-81459200D02*
X188630286Y-81497295D01*
X188630286Y-81497295D02*
X188325524Y-81497295D01*
X188325524Y-81497295D02*
X188325524Y-80697295D01*
X188325524Y-80697295D02*
X188592190Y-80697295D01*
X188592190Y-80697295D02*
X188668381Y-80735390D01*
X188668381Y-80735390D02*
X188706476Y-80773485D01*
X188706476Y-80773485D02*
X188744571Y-80849676D01*
X188744571Y-80849676D02*
X188744571Y-80925866D01*
X188744571Y-80925866D02*
X188706476Y-81002057D01*
X188706476Y-81002057D02*
X188668381Y-81040152D01*
X188668381Y-81040152D02*
X188592190Y-81078247D01*
X188592190Y-81078247D02*
X188325524Y-81078247D01*
X189544571Y-81497295D02*
X189087428Y-81497295D01*
X189316000Y-81497295D02*
X189316000Y-80697295D01*
X189316000Y-80697295D02*
X189239809Y-80811580D01*
X189239809Y-80811580D02*
X189163619Y-80887771D01*
X189163619Y-80887771D02*
X189087428Y-80925866D01*
X188649333Y-73458247D02*
X188382667Y-73458247D01*
X188382667Y-73877295D02*
X188382667Y-73077295D01*
X188382667Y-73077295D02*
X188763619Y-73077295D01*
X189449333Y-73077295D02*
X189068381Y-73077295D01*
X189068381Y-73077295D02*
X189030285Y-73458247D01*
X189030285Y-73458247D02*
X189068381Y-73420152D01*
X189068381Y-73420152D02*
X189144571Y-73382057D01*
X189144571Y-73382057D02*
X189335047Y-73382057D01*
X189335047Y-73382057D02*
X189411238Y-73420152D01*
X189411238Y-73420152D02*
X189449333Y-73458247D01*
X189449333Y-73458247D02*
X189487428Y-73534438D01*
X189487428Y-73534438D02*
X189487428Y-73724914D01*
X189487428Y-73724914D02*
X189449333Y-73801104D01*
X189449333Y-73801104D02*
X189411238Y-73839200D01*
X189411238Y-73839200D02*
X189335047Y-73877295D01*
X189335047Y-73877295D02*
X189144571Y-73877295D01*
X189144571Y-73877295D02*
X189068381Y-73839200D01*
X189068381Y-73839200D02*
X189030285Y-73801104D01*
X188592190Y-83618247D02*
X188706476Y-83656342D01*
X188706476Y-83656342D02*
X188744571Y-83694438D01*
X188744571Y-83694438D02*
X188782667Y-83770628D01*
X188782667Y-83770628D02*
X188782667Y-83884914D01*
X188782667Y-83884914D02*
X188744571Y-83961104D01*
X188744571Y-83961104D02*
X188706476Y-83999200D01*
X188706476Y-83999200D02*
X188630286Y-84037295D01*
X188630286Y-84037295D02*
X188325524Y-84037295D01*
X188325524Y-84037295D02*
X188325524Y-83237295D01*
X188325524Y-83237295D02*
X188592190Y-83237295D01*
X188592190Y-83237295D02*
X188668381Y-83275390D01*
X188668381Y-83275390D02*
X188706476Y-83313485D01*
X188706476Y-83313485D02*
X188744571Y-83389676D01*
X188744571Y-83389676D02*
X188744571Y-83465866D01*
X188744571Y-83465866D02*
X188706476Y-83542057D01*
X188706476Y-83542057D02*
X188668381Y-83580152D01*
X188668381Y-83580152D02*
X188592190Y-83618247D01*
X188592190Y-83618247D02*
X188325524Y-83618247D01*
X189049333Y-83237295D02*
X189544571Y-83237295D01*
X189544571Y-83237295D02*
X189277905Y-83542057D01*
X189277905Y-83542057D02*
X189392190Y-83542057D01*
X189392190Y-83542057D02*
X189468381Y-83580152D01*
X189468381Y-83580152D02*
X189506476Y-83618247D01*
X189506476Y-83618247D02*
X189544571Y-83694438D01*
X189544571Y-83694438D02*
X189544571Y-83884914D01*
X189544571Y-83884914D02*
X189506476Y-83961104D01*
X189506476Y-83961104D02*
X189468381Y-83999200D01*
X189468381Y-83999200D02*
X189392190Y-84037295D01*
X189392190Y-84037295D02*
X189163619Y-84037295D01*
X189163619Y-84037295D02*
X189087428Y-83999200D01*
X189087428Y-83999200D02*
X189049333Y-83961104D01*
X188649333Y-75998247D02*
X188382667Y-75998247D01*
X188382667Y-76417295D02*
X188382667Y-75617295D01*
X188382667Y-75617295D02*
X188763619Y-75617295D01*
X189411238Y-75617295D02*
X189258857Y-75617295D01*
X189258857Y-75617295D02*
X189182666Y-75655390D01*
X189182666Y-75655390D02*
X189144571Y-75693485D01*
X189144571Y-75693485D02*
X189068381Y-75807771D01*
X189068381Y-75807771D02*
X189030285Y-75960152D01*
X189030285Y-75960152D02*
X189030285Y-76264914D01*
X189030285Y-76264914D02*
X189068381Y-76341104D01*
X189068381Y-76341104D02*
X189106476Y-76379200D01*
X189106476Y-76379200D02*
X189182666Y-76417295D01*
X189182666Y-76417295D02*
X189335047Y-76417295D01*
X189335047Y-76417295D02*
X189411238Y-76379200D01*
X189411238Y-76379200D02*
X189449333Y-76341104D01*
X189449333Y-76341104D02*
X189487428Y-76264914D01*
X189487428Y-76264914D02*
X189487428Y-76074438D01*
X189487428Y-76074438D02*
X189449333Y-75998247D01*
X189449333Y-75998247D02*
X189411238Y-75960152D01*
X189411238Y-75960152D02*
X189335047Y-75922057D01*
X189335047Y-75922057D02*
X189182666Y-75922057D01*
X189182666Y-75922057D02*
X189106476Y-75960152D01*
X189106476Y-75960152D02*
X189068381Y-75998247D01*
X189068381Y-75998247D02*
X189030285Y-76074438D01*
X177403524Y-81497295D02*
X177403524Y-80697295D01*
X177403524Y-80697295D02*
X177594000Y-80697295D01*
X177594000Y-80697295D02*
X177708286Y-80735390D01*
X177708286Y-80735390D02*
X177784476Y-80811580D01*
X177784476Y-80811580D02*
X177822571Y-80887771D01*
X177822571Y-80887771D02*
X177860667Y-81040152D01*
X177860667Y-81040152D02*
X177860667Y-81154438D01*
X177860667Y-81154438D02*
X177822571Y-81306819D01*
X177822571Y-81306819D02*
X177784476Y-81383009D01*
X177784476Y-81383009D02*
X177708286Y-81459200D01*
X177708286Y-81459200D02*
X177594000Y-81497295D01*
X177594000Y-81497295D02*
X177403524Y-81497295D01*
X178127333Y-80697295D02*
X178660667Y-80697295D01*
X178660667Y-80697295D02*
X178317809Y-81497295D01*
X121694095Y-90154374D02*
X121836952Y-90201993D01*
X121836952Y-90201993D02*
X122075047Y-90201993D01*
X122075047Y-90201993D02*
X122170285Y-90154374D01*
X122170285Y-90154374D02*
X122217904Y-90106754D01*
X122217904Y-90106754D02*
X122265523Y-90011516D01*
X122265523Y-90011516D02*
X122265523Y-89916278D01*
X122265523Y-89916278D02*
X122217904Y-89821040D01*
X122217904Y-89821040D02*
X122170285Y-89773421D01*
X122170285Y-89773421D02*
X122075047Y-89725802D01*
X122075047Y-89725802D02*
X121884571Y-89678183D01*
X121884571Y-89678183D02*
X121789333Y-89630564D01*
X121789333Y-89630564D02*
X121741714Y-89582945D01*
X121741714Y-89582945D02*
X121694095Y-89487707D01*
X121694095Y-89487707D02*
X121694095Y-89392469D01*
X121694095Y-89392469D02*
X121741714Y-89297231D01*
X121741714Y-89297231D02*
X121789333Y-89249612D01*
X121789333Y-89249612D02*
X121884571Y-89201993D01*
X121884571Y-89201993D02*
X122122666Y-89201993D01*
X122122666Y-89201993D02*
X122265523Y-89249612D01*
X123122666Y-89535326D02*
X123122666Y-90201993D01*
X122884571Y-89154374D02*
X122646476Y-89868659D01*
X122646476Y-89868659D02*
X123265523Y-89868659D01*
X156961667Y-53762200D02*
X157104524Y-53809819D01*
X157104524Y-53809819D02*
X157342619Y-53809819D01*
X157342619Y-53809819D02*
X157437857Y-53762200D01*
X157437857Y-53762200D02*
X157485476Y-53714580D01*
X157485476Y-53714580D02*
X157533095Y-53619342D01*
X157533095Y-53619342D02*
X157533095Y-53524104D01*
X157533095Y-53524104D02*
X157485476Y-53428866D01*
X157485476Y-53428866D02*
X157437857Y-53381247D01*
X157437857Y-53381247D02*
X157342619Y-53333628D01*
X157342619Y-53333628D02*
X157152143Y-53286009D01*
X157152143Y-53286009D02*
X157056905Y-53238390D01*
X157056905Y-53238390D02*
X157009286Y-53190771D01*
X157009286Y-53190771D02*
X156961667Y-53095533D01*
X156961667Y-53095533D02*
X156961667Y-53000295D01*
X156961667Y-53000295D02*
X157009286Y-52905057D01*
X157009286Y-52905057D02*
X157056905Y-52857438D01*
X157056905Y-52857438D02*
X157152143Y-52809819D01*
X157152143Y-52809819D02*
X157390238Y-52809819D01*
X157390238Y-52809819D02*
X157533095Y-52857438D01*
X157866429Y-52809819D02*
X158104524Y-53809819D01*
X158104524Y-53809819D02*
X158295000Y-53095533D01*
X158295000Y-53095533D02*
X158485476Y-53809819D01*
X158485476Y-53809819D02*
X158723572Y-52809819D01*
X159628333Y-53809819D02*
X159056905Y-53809819D01*
X159342619Y-53809819D02*
X159342619Y-52809819D01*
X159342619Y-52809819D02*
X159247381Y-52952676D01*
X159247381Y-52952676D02*
X159152143Y-53047914D01*
X159152143Y-53047914D02*
X159056905Y-53095533D01*
X177721666Y-91869819D02*
X177721666Y-92584104D01*
X177721666Y-92584104D02*
X177674047Y-92726961D01*
X177674047Y-92726961D02*
X177578809Y-92822200D01*
X177578809Y-92822200D02*
X177435952Y-92869819D01*
X177435952Y-92869819D02*
X177340714Y-92869819D01*
X178626428Y-92203152D02*
X178626428Y-92869819D01*
X178388333Y-91822200D02*
X178150238Y-92536485D01*
X178150238Y-92536485D02*
X178769285Y-92536485D01*
X121679095Y-70944374D02*
X121821952Y-70991993D01*
X121821952Y-70991993D02*
X122060047Y-70991993D01*
X122060047Y-70991993D02*
X122155285Y-70944374D01*
X122155285Y-70944374D02*
X122202904Y-70896754D01*
X122202904Y-70896754D02*
X122250523Y-70801516D01*
X122250523Y-70801516D02*
X122250523Y-70706278D01*
X122250523Y-70706278D02*
X122202904Y-70611040D01*
X122202904Y-70611040D02*
X122155285Y-70563421D01*
X122155285Y-70563421D02*
X122060047Y-70515802D01*
X122060047Y-70515802D02*
X121869571Y-70468183D01*
X121869571Y-70468183D02*
X121774333Y-70420564D01*
X121774333Y-70420564D02*
X121726714Y-70372945D01*
X121726714Y-70372945D02*
X121679095Y-70277707D01*
X121679095Y-70277707D02*
X121679095Y-70182469D01*
X121679095Y-70182469D02*
X121726714Y-70087231D01*
X121726714Y-70087231D02*
X121774333Y-70039612D01*
X121774333Y-70039612D02*
X121869571Y-69991993D01*
X121869571Y-69991993D02*
X122107666Y-69991993D01*
X122107666Y-69991993D02*
X122250523Y-70039612D01*
X123202904Y-70991993D02*
X122631476Y-70991993D01*
X122917190Y-70991993D02*
X122917190Y-69991993D01*
X122917190Y-69991993D02*
X122821952Y-70134850D01*
X122821952Y-70134850D02*
X122726714Y-70230088D01*
X122726714Y-70230088D02*
X122631476Y-70277707D01*
X159839095Y-70954374D02*
X159981952Y-71001993D01*
X159981952Y-71001993D02*
X160220047Y-71001993D01*
X160220047Y-71001993D02*
X160315285Y-70954374D01*
X160315285Y-70954374D02*
X160362904Y-70906754D01*
X160362904Y-70906754D02*
X160410523Y-70811516D01*
X160410523Y-70811516D02*
X160410523Y-70716278D01*
X160410523Y-70716278D02*
X160362904Y-70621040D01*
X160362904Y-70621040D02*
X160315285Y-70573421D01*
X160315285Y-70573421D02*
X160220047Y-70525802D01*
X160220047Y-70525802D02*
X160029571Y-70478183D01*
X160029571Y-70478183D02*
X159934333Y-70430564D01*
X159934333Y-70430564D02*
X159886714Y-70382945D01*
X159886714Y-70382945D02*
X159839095Y-70287707D01*
X159839095Y-70287707D02*
X159839095Y-70192469D01*
X159839095Y-70192469D02*
X159886714Y-70097231D01*
X159886714Y-70097231D02*
X159934333Y-70049612D01*
X159934333Y-70049612D02*
X160029571Y-70001993D01*
X160029571Y-70001993D02*
X160267666Y-70001993D01*
X160267666Y-70001993D02*
X160410523Y-70049612D01*
X160743857Y-70001993D02*
X161362904Y-70001993D01*
X161362904Y-70001993D02*
X161029571Y-70382945D01*
X161029571Y-70382945D02*
X161172428Y-70382945D01*
X161172428Y-70382945D02*
X161267666Y-70430564D01*
X161267666Y-70430564D02*
X161315285Y-70478183D01*
X161315285Y-70478183D02*
X161362904Y-70573421D01*
X161362904Y-70573421D02*
X161362904Y-70811516D01*
X161362904Y-70811516D02*
X161315285Y-70906754D01*
X161315285Y-70906754D02*
X161267666Y-70954374D01*
X161267666Y-70954374D02*
X161172428Y-71001993D01*
X161172428Y-71001993D02*
X160886714Y-71001993D01*
X160886714Y-71001993D02*
X160791476Y-70954374D01*
X160791476Y-70954374D02*
X160743857Y-70906754D01*
X140799095Y-109204374D02*
X140941952Y-109251993D01*
X140941952Y-109251993D02*
X141180047Y-109251993D01*
X141180047Y-109251993D02*
X141275285Y-109204374D01*
X141275285Y-109204374D02*
X141322904Y-109156754D01*
X141322904Y-109156754D02*
X141370523Y-109061516D01*
X141370523Y-109061516D02*
X141370523Y-108966278D01*
X141370523Y-108966278D02*
X141322904Y-108871040D01*
X141322904Y-108871040D02*
X141275285Y-108823421D01*
X141275285Y-108823421D02*
X141180047Y-108775802D01*
X141180047Y-108775802D02*
X140989571Y-108728183D01*
X140989571Y-108728183D02*
X140894333Y-108680564D01*
X140894333Y-108680564D02*
X140846714Y-108632945D01*
X140846714Y-108632945D02*
X140799095Y-108537707D01*
X140799095Y-108537707D02*
X140799095Y-108442469D01*
X140799095Y-108442469D02*
X140846714Y-108347231D01*
X140846714Y-108347231D02*
X140894333Y-108299612D01*
X140894333Y-108299612D02*
X140989571Y-108251993D01*
X140989571Y-108251993D02*
X141227666Y-108251993D01*
X141227666Y-108251993D02*
X141370523Y-108299612D01*
X141941952Y-108680564D02*
X141846714Y-108632945D01*
X141846714Y-108632945D02*
X141799095Y-108585326D01*
X141799095Y-108585326D02*
X141751476Y-108490088D01*
X141751476Y-108490088D02*
X141751476Y-108442469D01*
X141751476Y-108442469D02*
X141799095Y-108347231D01*
X141799095Y-108347231D02*
X141846714Y-108299612D01*
X141846714Y-108299612D02*
X141941952Y-108251993D01*
X141941952Y-108251993D02*
X142132428Y-108251993D01*
X142132428Y-108251993D02*
X142227666Y-108299612D01*
X142227666Y-108299612D02*
X142275285Y-108347231D01*
X142275285Y-108347231D02*
X142322904Y-108442469D01*
X142322904Y-108442469D02*
X142322904Y-108490088D01*
X142322904Y-108490088D02*
X142275285Y-108585326D01*
X142275285Y-108585326D02*
X142227666Y-108632945D01*
X142227666Y-108632945D02*
X142132428Y-108680564D01*
X142132428Y-108680564D02*
X141941952Y-108680564D01*
X141941952Y-108680564D02*
X141846714Y-108728183D01*
X141846714Y-108728183D02*
X141799095Y-108775802D01*
X141799095Y-108775802D02*
X141751476Y-108871040D01*
X141751476Y-108871040D02*
X141751476Y-109061516D01*
X141751476Y-109061516D02*
X141799095Y-109156754D01*
X141799095Y-109156754D02*
X141846714Y-109204374D01*
X141846714Y-109204374D02*
X141941952Y-109251993D01*
X141941952Y-109251993D02*
X142132428Y-109251993D01*
X142132428Y-109251993D02*
X142227666Y-109204374D01*
X142227666Y-109204374D02*
X142275285Y-109156754D01*
X142275285Y-109156754D02*
X142322904Y-109061516D01*
X142322904Y-109061516D02*
X142322904Y-108871040D01*
X142322904Y-108871040D02*
X142275285Y-108775802D01*
X142275285Y-108775802D02*
X142227666Y-108728183D01*
X142227666Y-108728183D02*
X142132428Y-108680564D01*
X140779095Y-90144374D02*
X140921952Y-90191993D01*
X140921952Y-90191993D02*
X141160047Y-90191993D01*
X141160047Y-90191993D02*
X141255285Y-90144374D01*
X141255285Y-90144374D02*
X141302904Y-90096754D01*
X141302904Y-90096754D02*
X141350523Y-90001516D01*
X141350523Y-90001516D02*
X141350523Y-89906278D01*
X141350523Y-89906278D02*
X141302904Y-89811040D01*
X141302904Y-89811040D02*
X141255285Y-89763421D01*
X141255285Y-89763421D02*
X141160047Y-89715802D01*
X141160047Y-89715802D02*
X140969571Y-89668183D01*
X140969571Y-89668183D02*
X140874333Y-89620564D01*
X140874333Y-89620564D02*
X140826714Y-89572945D01*
X140826714Y-89572945D02*
X140779095Y-89477707D01*
X140779095Y-89477707D02*
X140779095Y-89382469D01*
X140779095Y-89382469D02*
X140826714Y-89287231D01*
X140826714Y-89287231D02*
X140874333Y-89239612D01*
X140874333Y-89239612D02*
X140969571Y-89191993D01*
X140969571Y-89191993D02*
X141207666Y-89191993D01*
X141207666Y-89191993D02*
X141350523Y-89239612D01*
X142255285Y-89191993D02*
X141779095Y-89191993D01*
X141779095Y-89191993D02*
X141731476Y-89668183D01*
X141731476Y-89668183D02*
X141779095Y-89620564D01*
X141779095Y-89620564D02*
X141874333Y-89572945D01*
X141874333Y-89572945D02*
X142112428Y-89572945D01*
X142112428Y-89572945D02*
X142207666Y-89620564D01*
X142207666Y-89620564D02*
X142255285Y-89668183D01*
X142255285Y-89668183D02*
X142302904Y-89763421D01*
X142302904Y-89763421D02*
X142302904Y-90001516D01*
X142302904Y-90001516D02*
X142255285Y-90096754D01*
X142255285Y-90096754D02*
X142207666Y-90144374D01*
X142207666Y-90144374D02*
X142112428Y-90191993D01*
X142112428Y-90191993D02*
X141874333Y-90191993D01*
X141874333Y-90191993D02*
X141779095Y-90144374D01*
X141779095Y-90144374D02*
X141731476Y-90096754D01*
X159799095Y-109229374D02*
X159941952Y-109276993D01*
X159941952Y-109276993D02*
X160180047Y-109276993D01*
X160180047Y-109276993D02*
X160275285Y-109229374D01*
X160275285Y-109229374D02*
X160322904Y-109181754D01*
X160322904Y-109181754D02*
X160370523Y-109086516D01*
X160370523Y-109086516D02*
X160370523Y-108991278D01*
X160370523Y-108991278D02*
X160322904Y-108896040D01*
X160322904Y-108896040D02*
X160275285Y-108848421D01*
X160275285Y-108848421D02*
X160180047Y-108800802D01*
X160180047Y-108800802D02*
X159989571Y-108753183D01*
X159989571Y-108753183D02*
X159894333Y-108705564D01*
X159894333Y-108705564D02*
X159846714Y-108657945D01*
X159846714Y-108657945D02*
X159799095Y-108562707D01*
X159799095Y-108562707D02*
X159799095Y-108467469D01*
X159799095Y-108467469D02*
X159846714Y-108372231D01*
X159846714Y-108372231D02*
X159894333Y-108324612D01*
X159894333Y-108324612D02*
X159989571Y-108276993D01*
X159989571Y-108276993D02*
X160227666Y-108276993D01*
X160227666Y-108276993D02*
X160370523Y-108324612D01*
X160846714Y-109276993D02*
X161037190Y-109276993D01*
X161037190Y-109276993D02*
X161132428Y-109229374D01*
X161132428Y-109229374D02*
X161180047Y-109181754D01*
X161180047Y-109181754D02*
X161275285Y-109038897D01*
X161275285Y-109038897D02*
X161322904Y-108848421D01*
X161322904Y-108848421D02*
X161322904Y-108467469D01*
X161322904Y-108467469D02*
X161275285Y-108372231D01*
X161275285Y-108372231D02*
X161227666Y-108324612D01*
X161227666Y-108324612D02*
X161132428Y-108276993D01*
X161132428Y-108276993D02*
X160941952Y-108276993D01*
X160941952Y-108276993D02*
X160846714Y-108324612D01*
X160846714Y-108324612D02*
X160799095Y-108372231D01*
X160799095Y-108372231D02*
X160751476Y-108467469D01*
X160751476Y-108467469D02*
X160751476Y-108705564D01*
X160751476Y-108705564D02*
X160799095Y-108800802D01*
X160799095Y-108800802D02*
X160846714Y-108848421D01*
X160846714Y-108848421D02*
X160941952Y-108896040D01*
X160941952Y-108896040D02*
X161132428Y-108896040D01*
X161132428Y-108896040D02*
X161227666Y-108848421D01*
X161227666Y-108848421D02*
X161275285Y-108800802D01*
X161275285Y-108800802D02*
X161322904Y-108705564D01*
X181601666Y-118089819D02*
X181601666Y-118804104D01*
X181601666Y-118804104D02*
X181554047Y-118946961D01*
X181554047Y-118946961D02*
X181458809Y-119042200D01*
X181458809Y-119042200D02*
X181315952Y-119089819D01*
X181315952Y-119089819D02*
X181220714Y-119089819D01*
X182030238Y-118185057D02*
X182077857Y-118137438D01*
X182077857Y-118137438D02*
X182173095Y-118089819D01*
X182173095Y-118089819D02*
X182411190Y-118089819D01*
X182411190Y-118089819D02*
X182506428Y-118137438D01*
X182506428Y-118137438D02*
X182554047Y-118185057D01*
X182554047Y-118185057D02*
X182601666Y-118280295D01*
X182601666Y-118280295D02*
X182601666Y-118375533D01*
X182601666Y-118375533D02*
X182554047Y-118518390D01*
X182554047Y-118518390D02*
X181982619Y-119089819D01*
X181982619Y-119089819D02*
X182601666Y-119089819D01*
X140729095Y-70944374D02*
X140871952Y-70991993D01*
X140871952Y-70991993D02*
X141110047Y-70991993D01*
X141110047Y-70991993D02*
X141205285Y-70944374D01*
X141205285Y-70944374D02*
X141252904Y-70896754D01*
X141252904Y-70896754D02*
X141300523Y-70801516D01*
X141300523Y-70801516D02*
X141300523Y-70706278D01*
X141300523Y-70706278D02*
X141252904Y-70611040D01*
X141252904Y-70611040D02*
X141205285Y-70563421D01*
X141205285Y-70563421D02*
X141110047Y-70515802D01*
X141110047Y-70515802D02*
X140919571Y-70468183D01*
X140919571Y-70468183D02*
X140824333Y-70420564D01*
X140824333Y-70420564D02*
X140776714Y-70372945D01*
X140776714Y-70372945D02*
X140729095Y-70277707D01*
X140729095Y-70277707D02*
X140729095Y-70182469D01*
X140729095Y-70182469D02*
X140776714Y-70087231D01*
X140776714Y-70087231D02*
X140824333Y-70039612D01*
X140824333Y-70039612D02*
X140919571Y-69991993D01*
X140919571Y-69991993D02*
X141157666Y-69991993D01*
X141157666Y-69991993D02*
X141300523Y-70039612D01*
X141681476Y-70087231D02*
X141729095Y-70039612D01*
X141729095Y-70039612D02*
X141824333Y-69991993D01*
X141824333Y-69991993D02*
X142062428Y-69991993D01*
X142062428Y-69991993D02*
X142157666Y-70039612D01*
X142157666Y-70039612D02*
X142205285Y-70087231D01*
X142205285Y-70087231D02*
X142252904Y-70182469D01*
X142252904Y-70182469D02*
X142252904Y-70277707D01*
X142252904Y-70277707D02*
X142205285Y-70420564D01*
X142205285Y-70420564D02*
X141633857Y-70991993D01*
X141633857Y-70991993D02*
X142252904Y-70991993D01*
D11*
%TO.C,D9*%
X169536000Y-116052174D02*
X170636000Y-116052174D01*
X169686000Y-115452174D02*
X170486000Y-115452174D01*
X170086000Y-115452174D02*
X170086000Y-114952174D01*
X170086000Y-116052174D02*
X169686000Y-115452174D01*
X170086000Y-116452174D02*
X170086000Y-116052174D01*
X170486000Y-115452174D02*
X170086000Y-116052174D01*
D12*
%TO.C,S7*%
X115356000Y-109747174D02*
X115356000Y-123947174D01*
X115356000Y-123947174D02*
X129556000Y-123947174D01*
X129556000Y-109747174D02*
X115356000Y-109747174D01*
X129556000Y-123947174D02*
X129556000Y-109747174D01*
D11*
%TO.C,D4*%
X131376000Y-96902174D02*
X132476000Y-96902174D01*
X131526000Y-96302174D02*
X132326000Y-96302174D01*
X131926000Y-96302174D02*
X131926000Y-95802174D01*
X131926000Y-96902174D02*
X131526000Y-96302174D01*
X131926000Y-97302174D02*
X131926000Y-96902174D01*
X132326000Y-96302174D02*
X131926000Y-96902174D01*
%TO.C,D5*%
X150476000Y-96902174D02*
X151576000Y-96902174D01*
X150626000Y-96302174D02*
X151426000Y-96302174D01*
X151026000Y-96302174D02*
X151026000Y-95802174D01*
X151026000Y-96902174D02*
X150626000Y-96302174D01*
X151026000Y-97302174D02*
X151026000Y-96902174D01*
X151426000Y-96302174D02*
X151026000Y-96902174D01*
%TO.C,D8*%
X150516000Y-116052174D02*
X151616000Y-116052174D01*
X150666000Y-115452174D02*
X151466000Y-115452174D01*
X151066000Y-115452174D02*
X151066000Y-114952174D01*
X151066000Y-116052174D02*
X150666000Y-115452174D01*
X151066000Y-116452174D02*
X151066000Y-116052174D01*
X151466000Y-115452174D02*
X151066000Y-116052174D01*
D12*
%TO.C,S6*%
X153456000Y-90647174D02*
X153456000Y-104847174D01*
X153456000Y-104847174D02*
X167656000Y-104847174D01*
X167656000Y-90647174D02*
X153456000Y-90647174D01*
X167656000Y-104847174D02*
X167656000Y-90647174D01*
D11*
%TO.C,D7*%
X131456000Y-116052174D02*
X132556000Y-116052174D01*
X131606000Y-115452174D02*
X132406000Y-115452174D01*
X132006000Y-115452174D02*
X132006000Y-114952174D01*
X132006000Y-116052174D02*
X131606000Y-115452174D01*
X132006000Y-116452174D02*
X132006000Y-116052174D01*
X132406000Y-115452174D02*
X132006000Y-116052174D01*
D12*
%TO.C,J3*%
X186095000Y-106095000D02*
X186095000Y-93285000D01*
X188855000Y-93285000D02*
X186095000Y-93285000D01*
X188855000Y-106095000D02*
X186095000Y-106095000D01*
X188855000Y-106095000D02*
X188855000Y-93285000D01*
X188855000Y-107365000D02*
X188855000Y-108745000D01*
X188855000Y-108745000D02*
X187475000Y-108745000D01*
D13*
%TO.C,U1*%
X174565000Y-57005000D02*
X174565000Y-90025000D01*
X174565000Y-90025000D02*
X192345000Y-90025000D01*
X177105000Y-59545000D02*
X174565000Y-59545000D01*
X177105000Y-59545000D02*
X177105000Y-62085000D01*
X177105000Y-62085000D02*
X174565000Y-62085000D01*
X192345000Y-57005000D02*
X174565000Y-57005000D01*
X192345000Y-90025000D02*
X192345000Y-57005000D01*
D10*
X187986568Y-66224360D02*
X187886568Y-66224360D01*
X187886568Y-65424360D01*
X187986568Y-65424360D01*
X187986568Y-66224360D01*
G36*
X187986568Y-66224360D02*
G01*
X187886568Y-66224360D01*
X187886568Y-65424360D01*
X187986568Y-65424360D01*
X187986568Y-66224360D01*
G37*
X188186568Y-65924360D02*
X188086568Y-65924360D01*
X188086568Y-65824360D01*
X188186568Y-65824360D01*
X188186568Y-65924360D01*
G36*
X188186568Y-65924360D02*
G01*
X188086568Y-65924360D01*
X188086568Y-65824360D01*
X188186568Y-65824360D01*
X188186568Y-65924360D01*
G37*
X188386568Y-65524360D02*
X187886568Y-65524360D01*
X187886568Y-65424360D01*
X188386568Y-65424360D01*
X188386568Y-65524360D01*
G36*
X188386568Y-65524360D02*
G01*
X187886568Y-65524360D01*
X187886568Y-65424360D01*
X188386568Y-65424360D01*
X188386568Y-65524360D01*
G37*
X188386568Y-65724360D02*
X188286568Y-65724360D01*
X188286568Y-65424360D01*
X188386568Y-65424360D01*
X188386568Y-65724360D01*
G36*
X188386568Y-65724360D02*
G01*
X188286568Y-65724360D01*
X188286568Y-65424360D01*
X188386568Y-65424360D01*
X188386568Y-65724360D01*
G37*
X188386568Y-66224360D02*
X188286568Y-66224360D01*
X188286568Y-66024360D01*
X188386568Y-66024360D01*
X188386568Y-66224360D01*
G36*
X188386568Y-66224360D02*
G01*
X188286568Y-66224360D01*
X188286568Y-66024360D01*
X188386568Y-66024360D01*
X188386568Y-66224360D01*
G37*
D12*
%TO.C,S4*%
X115356000Y-90647174D02*
X115356000Y-104847174D01*
X115356000Y-104847174D02*
X129556000Y-104847174D01*
X129556000Y-90647174D02*
X115356000Y-90647174D01*
X129556000Y-104847174D02*
X129556000Y-90647174D01*
%TO.C,SW1*%
X155195000Y-56455000D02*
X155795000Y-56455000D01*
X155495000Y-56755000D02*
X155195000Y-56455000D01*
X155795000Y-56455000D02*
X155495000Y-56755000D01*
X156895000Y-54655000D02*
X156895000Y-66455000D01*
X160995000Y-54655000D02*
X156895000Y-54655000D01*
X160995000Y-66455000D02*
X156895000Y-66455000D01*
X162495000Y-60555000D02*
X163495000Y-60555000D01*
X162995000Y-60055000D02*
X162995000Y-61055000D01*
X164995000Y-54655000D02*
X169095000Y-54655000D01*
X169095000Y-54655000D02*
X169095000Y-57055000D01*
X169095000Y-59255000D02*
X169095000Y-61855000D01*
X169095000Y-64055000D02*
X169095000Y-66455000D01*
X169095000Y-66455000D02*
X164995000Y-66455000D01*
X165995000Y-60555000D02*
G75*
G02*
X159995000Y-60555000I-3000000J0D01*
G01*
X159995000Y-60555000D02*
G75*
G02*
X165995000Y-60555000I3000000J0D01*
G01*
%TO.C,J4*%
X176675000Y-93415000D02*
X178055000Y-93415000D01*
X176675000Y-94795000D02*
X176675000Y-93415000D01*
X176675000Y-96065000D02*
X176675000Y-108875000D01*
X176675000Y-96065000D02*
X179435000Y-96065000D01*
X176675000Y-108875000D02*
X179435000Y-108875000D01*
X179435000Y-96065000D02*
X179435000Y-108875000D01*
%TO.C,S1*%
X115341000Y-71437174D02*
X115341000Y-85637174D01*
X115341000Y-85637174D02*
X129541000Y-85637174D01*
X129541000Y-71437174D02*
X115341000Y-71437174D01*
X129541000Y-85637174D02*
X129541000Y-71437174D01*
D11*
%TO.C,D1*%
X131416000Y-77562174D02*
X132516000Y-77562174D01*
X131566000Y-76962174D02*
X132366000Y-76962174D01*
X131966000Y-76962174D02*
X131966000Y-76462174D01*
X131966000Y-77562174D02*
X131566000Y-76962174D01*
X131966000Y-77962174D02*
X131966000Y-77562174D01*
X132366000Y-76962174D02*
X131966000Y-77562174D01*
%TO.C,D3*%
X169586000Y-77562174D02*
X170686000Y-77562174D01*
X169736000Y-76962174D02*
X170536000Y-76962174D01*
X170136000Y-76962174D02*
X170136000Y-76462174D01*
X170136000Y-77562174D02*
X169736000Y-76962174D01*
X170136000Y-77962174D02*
X170136000Y-77562174D01*
X170536000Y-76962174D02*
X170136000Y-77562174D01*
D12*
%TO.C,S3*%
X153501000Y-71447174D02*
X153501000Y-85647174D01*
X153501000Y-85647174D02*
X167701000Y-85647174D01*
X167701000Y-71447174D02*
X153501000Y-71447174D01*
X167701000Y-85647174D02*
X167701000Y-71447174D01*
%TO.C,S8*%
X134461000Y-109697174D02*
X134461000Y-123897174D01*
X134461000Y-123897174D02*
X148661000Y-123897174D01*
X148661000Y-109697174D02*
X134461000Y-109697174D01*
X148661000Y-123897174D02*
X148661000Y-109697174D01*
%TO.C,S5*%
X134441000Y-90637174D02*
X134441000Y-104837174D01*
X134441000Y-104837174D02*
X148641000Y-104837174D01*
X148641000Y-90637174D02*
X134441000Y-90637174D01*
X148641000Y-104837174D02*
X148641000Y-90637174D01*
%TO.C,S9*%
X153461000Y-109722174D02*
X153461000Y-123922174D01*
X153461000Y-123922174D02*
X167661000Y-123922174D01*
X167661000Y-109722174D02*
X153461000Y-109722174D01*
X167661000Y-123922174D02*
X167661000Y-109722174D01*
D11*
%TO.C,D2*%
X150646000Y-77562174D02*
X151746000Y-77562174D01*
X150796000Y-76962174D02*
X151596000Y-76962174D01*
X151196000Y-76962174D02*
X151196000Y-76462174D01*
X151196000Y-77562174D02*
X150796000Y-76962174D01*
X151196000Y-77962174D02*
X151196000Y-77562174D01*
X151596000Y-76962174D02*
X151196000Y-77562174D01*
%TO.C,D6*%
X169506000Y-96902174D02*
X170606000Y-96902174D01*
X169656000Y-96302174D02*
X170456000Y-96302174D01*
X170056000Y-96302174D02*
X170056000Y-95802174D01*
X170056000Y-96902174D02*
X169656000Y-96302174D01*
X170056000Y-97302174D02*
X170056000Y-96902174D01*
X170456000Y-96302174D02*
X170056000Y-96902174D01*
D12*
%TO.C,J2*%
X178085000Y-119385000D02*
X185885000Y-119385000D01*
X178085000Y-125435000D02*
X178085000Y-119385000D01*
X179435000Y-124325000D02*
X184515000Y-124325000D01*
X179435000Y-125335000D02*
X179435000Y-124325000D01*
X184515000Y-124325000D02*
X184515000Y-125335000D01*
X185885000Y-119385000D02*
X185885000Y-125435000D01*
X185885000Y-125435000D02*
X178085000Y-125435000D01*
%TO.C,S2*%
X134391000Y-71437174D02*
X134391000Y-85637174D01*
X134391000Y-85637174D02*
X148591000Y-85637174D01*
X148591000Y-71437174D02*
X134391000Y-71437174D01*
X148591000Y-85637174D02*
X148591000Y-71437174D01*
%TD*%
D14*
%TO.C,U1*%
X175835000Y-60815000D03*
D15*
X175835000Y-63355000D03*
X175835000Y-65895000D03*
X175835000Y-68435000D03*
X175835000Y-70975000D03*
X175835000Y-73515000D03*
X175835000Y-76055000D03*
X175835000Y-78595000D03*
X175835000Y-81135000D03*
X175835000Y-83675000D03*
X175835000Y-86215000D03*
X175835000Y-88755000D03*
X191075000Y-88755000D03*
X191075000Y-86215000D03*
X191075000Y-83675000D03*
X191075000Y-81135000D03*
X191075000Y-78595000D03*
X191075000Y-76055000D03*
X191075000Y-73515000D03*
X191075000Y-70975000D03*
X191075000Y-68435000D03*
X191075000Y-65895000D03*
X191075000Y-63355000D03*
X191075000Y-60815000D03*
%TD*%
M02*
