M48
; DRILL file {KiCad 9.0.3} date 2026-08-02T02:37:20-0400
; FORMAT={-:-/ absolute / metric / decimal}
; #@! TF.CreationDate,2026-08-02T02:37:20-04:00
; #@! TF.GenerationSoftware,Kicad,Pcbnew,9.0.3
; #@! TF.FileFunction,Plated,1,2,PTH
FMAT,2
METRIC
; #@! TA.AperFunction,Plated,PTH,ComponentDrill
T1C0.800
; #@! TA.AperFunction,Plated,PTH,ComponentDrill
T2C1.000
; #@! TA.AperFunction,Plated,PTH,ComponentDrill
T3C1.020
; #@! TA.AperFunction,Plated,PTH,ComponentDrill
T4C1.092
; #@! TA.AperFunction,Plated,PTH,ComponentDrill
T5C1.500
%
G90
G05
T1
X131.926Y-92.742
X131.926Y-100.362
X131.966Y-73.402
X131.966Y-81.022
X132.006Y-111.892
X132.006Y-119.512
X151.026Y-92.742
X151.026Y-100.362
X151.066Y-111.892
X151.066Y-119.512
X151.196Y-73.402
X151.196Y-81.022
X170.056Y-92.742
X170.056Y-100.362
X170.086Y-111.892
X170.086Y-119.512
X170.136Y-73.402
X170.136Y-81.022
T2
X115.385Y-56.075
X115.385Y-58.615
X115.385Y-61.155
X115.385Y-63.695
X155.495Y-58.055
X155.495Y-60.555
X155.495Y-63.055
X169.995Y-58.055
X169.995Y-63.055
X178.055Y-94.795
X178.055Y-97.335
X178.055Y-99.875
X178.055Y-102.415
X178.055Y-104.955
X178.055Y-107.495
X187.475Y-94.665
X187.475Y-97.205
X187.475Y-99.745
X187.475Y-102.285
X187.475Y-104.825
X187.475Y-107.365
T3
X179.435Y-122.035
X181.975Y-122.035
X184.515Y-122.035
T4
X175.835Y-60.815
X175.835Y-63.355
X175.835Y-65.895
X175.835Y-68.435
X175.835Y-70.975
X175.835Y-73.515
X175.835Y-76.055
X175.835Y-78.595
X175.835Y-81.135
X175.835Y-83.675
X175.835Y-86.215
X175.835Y-88.755
X191.075Y-60.815
X191.075Y-63.355
X191.075Y-65.895
X191.075Y-68.435
X191.075Y-70.975
X191.075Y-73.515
X191.075Y-76.055
X191.075Y-78.595
X191.075Y-81.135
X191.075Y-83.675
X191.075Y-86.215
X191.075Y-88.755
T5
X118.631Y-75.997
X118.646Y-95.207
X118.646Y-114.307
X124.981Y-73.457
X124.996Y-92.667
X124.996Y-111.767
X137.681Y-75.997
X137.731Y-95.197
X137.751Y-114.257
X144.031Y-73.457
X144.081Y-92.657
X144.101Y-111.717
X156.746Y-95.207
X156.751Y-114.282
X156.791Y-76.007
X163.096Y-92.667
X163.101Y-111.742
X163.141Y-73.467
T5
G00X162.345Y-54.955
M15
G01X163.645Y-54.955
M16
G05
G00X162.345Y-66.155
M15
G01X163.645Y-66.155
M16
G05
M30
