%TF.GenerationSoftware,KiCad,Pcbnew,9.0.3*%
%TF.CreationDate,2026-08-02T02:37:07-04:00*%
%TF.ProjectId,HackPad,4861636b-5061-4642-9e6b-696361645f70,rev?*%
%TF.SameCoordinates,Original*%
%TF.FileFunction,Copper,L1,Top*%
%TF.FilePolarity,Positive*%
%FSLAX46Y46*%
G04 Gerber Fmt 4.6, Leading zero omitted, Abs format (unit mm)*
G04 Created by KiCad (PCBNEW 9.0.3) date 2026-08-02 02:37:07*
%MOMM*%
%LPD*%
G01*
G04 APERTURE LIST*
%TA.AperFunction,ComponentPad*%
%ADD10R,1.600000X1.600000*%
%TD*%
%TA.AperFunction,ComponentPad*%
%ADD11O,1.600000X1.600000*%
%TD*%
%TA.AperFunction,ComponentPad*%
%ADD12R,1.700000X1.700000*%
%TD*%
%TA.AperFunction,ComponentPad*%
%ADD13O,1.700000X1.700000*%
%TD*%
%TA.AperFunction,ComponentPad*%
%ADD14C,2.500000*%
%TD*%
%TA.AperFunction,ComponentPad*%
%ADD15C,1.700000*%
%TD*%
%TA.AperFunction,ComponentPad*%
%ADD16R,1.752600X1.752600*%
%TD*%
%TA.AperFunction,ComponentPad*%
%ADD17C,1.752600*%
%TD*%
%TA.AperFunction,ComponentPad*%
%ADD18R,2.000000X2.000000*%
%TD*%
%TA.AperFunction,ComponentPad*%
%ADD19C,2.000000*%
%TD*%
%TA.AperFunction,ComponentPad*%
%ADD20R,3.200000X2.000000*%
%TD*%
%TA.AperFunction,ComponentPad*%
%ADD21R,1.730000X2.030000*%
%TD*%
%TA.AperFunction,ComponentPad*%
%ADD22O,1.730000X2.030000*%
%TD*%
%TA.AperFunction,Conductor*%
%ADD23C,0.200000*%
%TD*%
G04 APERTURE END LIST*
D10*
%TO.P,D9,1,K*%
%TO.N,Row 2*%
X170086000Y-119512174D03*
D11*
%TO.P,D9,2,A*%
%TO.N,Net-(D9-A)*%
X170086000Y-111892174D03*
%TD*%
D12*
%TO.P,J1,1,GND*%
%TO.N,Net-(J1-GND)*%
X115385000Y-63695000D03*
D13*
%TO.P,J1,2,VCC*%
%TO.N,Net-(J1-VCC)*%
X115385000Y-61155000D03*
%TO.P,J1,3,SCL*%
%TO.N,Net-(J1-SCL)*%
X115385000Y-58615000D03*
%TO.P,J1,4,SDA*%
%TO.N,Net-(J1-SDA)*%
X115385000Y-56075000D03*
%TD*%
D14*
%TO.P,S7,1,1*%
%TO.N,Column 0*%
X118646000Y-114307174D03*
%TO.P,S7,2,2*%
%TO.N,Net-(D7-A)*%
X124996000Y-111767174D03*
%TD*%
D10*
%TO.P,D4,1,K*%
%TO.N,Row 1*%
X131926000Y-100362174D03*
D11*
%TO.P,D4,2,A*%
%TO.N,Net-(D4-A)*%
X131926000Y-92742174D03*
%TD*%
D10*
%TO.P,D5,1,K*%
%TO.N,Row 1*%
X151026000Y-100362174D03*
D11*
%TO.P,D5,2,A*%
%TO.N,Net-(D5-A)*%
X151026000Y-92742174D03*
%TD*%
D10*
%TO.P,D8,1,K*%
%TO.N,Row 2*%
X151066000Y-119512174D03*
D11*
%TO.P,D8,2,A*%
%TO.N,Net-(D8-A)*%
X151066000Y-111892174D03*
%TD*%
D14*
%TO.P,S6,1,1*%
%TO.N,Column  2*%
X156746000Y-95207174D03*
%TO.P,S6,2,2*%
%TO.N,Net-(D6-A)*%
X163096000Y-92667174D03*
%TD*%
D10*
%TO.P,D7,1,K*%
%TO.N,Row 2*%
X132006000Y-119512174D03*
D11*
%TO.P,D7,2,A*%
%TO.N,Net-(D7-A)*%
X132006000Y-111892174D03*
%TD*%
D12*
%TO.P,J3,1,Pin_1*%
%TO.N,VCC*%
X187475000Y-107365000D03*
D15*
%TO.P,J3,2,Pin_2*%
%TO.N,Net-(J2-Pin_1)*%
X187475000Y-104825000D03*
%TO.P,J3,3,Pin_3*%
%TO.N,Net-(J1-VCC)*%
X187475000Y-102285000D03*
%TO.P,J3,4,Pin_4*%
%TO.N,unconnected-(J3-Pin_4-Pad4)*%
X187475000Y-99745000D03*
%TO.P,J3,5,Pin_5*%
%TO.N,unconnected-(J3-Pin_5-Pad5)*%
X187475000Y-97205000D03*
%TO.P,J3,6,Pin_6*%
%TO.N,Net-(J3-Pin_6)*%
X187475000Y-94665000D03*
%TD*%
D16*
%TO.P,U1,1,TX0/PD3*%
%TO.N,unconnected-(U1-TX0{slash}PD3-Pad1)*%
X175835000Y-60815000D03*
D17*
%TO.P,U1,2,RX1/PD2*%
%TO.N,unconnected-(U1-RX1{slash}PD2-Pad2)*%
X175835000Y-63355000D03*
%TO.P,U1,3,GND*%
%TO.N,unconnected-(U1-GND-Pad3)*%
X175835000Y-65895000D03*
%TO.P,U1,4,GND*%
%TO.N,unconnected-(U1-GND-Pad4)*%
X175835000Y-68435000D03*
%TO.P,U1,5,2/PD1*%
%TO.N,Column 0*%
X175835000Y-70975000D03*
%TO.P,U1,6,3/PD0*%
%TO.N,Column  1*%
X175835000Y-73515000D03*
%TO.P,U1,7,4/PD4*%
%TO.N,Column  2*%
X175835000Y-76055000D03*
%TO.P,U1,8,5/PC6*%
%TO.N,Row 0*%
X175835000Y-78595000D03*
%TO.P,U1,9,6/PD7*%
%TO.N,Row 1*%
X175835000Y-81135000D03*
%TO.P,U1,10,7/PE6*%
%TO.N,Row 2*%
X175835000Y-83675000D03*
%TO.P,U1,11,8/PB4*%
%TO.N,Net-(U1-8{slash}PB4)*%
X175835000Y-86215000D03*
%TO.P,U1,12,9/PB5*%
%TO.N,Net-(U1-9{slash}PB5)*%
X175835000Y-88755000D03*
%TO.P,U1,13,10/PB6*%
%TO.N,Net-(U1-10{slash}PB6)*%
X191075000Y-88755000D03*
%TO.P,U1,14,16/PB2*%
%TO.N,unconnected-(U1-16{slash}PB2-Pad14)*%
X191075000Y-86215000D03*
%TO.P,U1,15,14/PB3*%
%TO.N,Net-(J2-Pin_3)*%
X191075000Y-83675000D03*
%TO.P,U1,16,15/PB1*%
%TO.N,unconnected-(U1-15{slash}PB1-Pad16)*%
X191075000Y-81135000D03*
%TO.P,U1,17,A0/PF7*%
%TO.N,Net-(J1-SDA)*%
X191075000Y-78595000D03*
%TO.P,U1,18,A1/PF6*%
%TO.N,Net-(J1-SCL)*%
X191075000Y-76055000D03*
%TO.P,U1,19,A2/PF5*%
%TO.N,unconnected-(U1-A2{slash}PF5-Pad19)*%
X191075000Y-73515000D03*
%TO.P,U1,20,A3/PF4*%
%TO.N,unconnected-(U1-A3{slash}PF4-Pad20)*%
X191075000Y-70975000D03*
%TO.P,U1,21,VCC*%
%TO.N,VCC*%
X191075000Y-68435000D03*
%TO.P,U1,22,RST*%
%TO.N,unconnected-(U1-RST-Pad22)*%
X191075000Y-65895000D03*
%TO.P,U1,23,GND*%
%TO.N,GND*%
X191075000Y-63355000D03*
%TO.P,U1,24,RAW*%
%TO.N,unconnected-(U1-RAW-Pad24)*%
X191075000Y-60815000D03*
%TD*%
D14*
%TO.P,S4,1,1*%
%TO.N,Column 0*%
X118646000Y-95207174D03*
%TO.P,S4,2,2*%
%TO.N,Net-(D4-A)*%
X124996000Y-92667174D03*
%TD*%
D18*
%TO.P,SW1,A,A*%
%TO.N,Net-(U1-8{slash}PB4)*%
X155495000Y-58055000D03*
D19*
%TO.P,SW1,B,B*%
%TO.N,Net-(U1-9{slash}PB5)*%
X155495000Y-63055000D03*
%TO.P,SW1,C,C*%
%TO.N,Net-(J3-Pin_6)*%
X155495000Y-60555000D03*
D20*
%TO.P,SW1,MP,MP*%
%TO.N,unconnected-(SW1-PadMP)*%
X162995000Y-54955000D03*
X162995000Y-66155000D03*
D19*
%TO.P,SW1,S1,S1*%
%TO.N,Net-(J4-Pin_2)*%
X169995000Y-63055000D03*
%TO.P,SW1,S2,S2*%
%TO.N,Net-(U1-10{slash}PB6)*%
X169995000Y-58055000D03*
%TD*%
D12*
%TO.P,J4,1,Pin_1*%
%TO.N,GND*%
X178055000Y-94795000D03*
D15*
%TO.P,J4,2,Pin_2*%
%TO.N,Net-(J4-Pin_2)*%
X178055000Y-97335000D03*
%TO.P,J4,3,Pin_3*%
%TO.N,Net-(J1-GND)*%
X178055000Y-99875000D03*
%TO.P,J4,4,Pin_4*%
%TO.N,Net-(J2-Pin_2)*%
X178055000Y-102415000D03*
%TO.P,J4,5,Pin_5*%
%TO.N,unconnected-(J4-Pin_5-Pad5)*%
X178055000Y-104955000D03*
%TO.P,J4,6,Pin_6*%
%TO.N,unconnected-(J4-Pin_6-Pad6)*%
X178055000Y-107495000D03*
%TD*%
D14*
%TO.P,S1,1,1*%
%TO.N,Column 0*%
X118631000Y-75997174D03*
%TO.P,S1,2,2*%
%TO.N,Net-(D1-A)*%
X124981000Y-73457174D03*
%TD*%
D10*
%TO.P,D1,1,K*%
%TO.N,Row 0*%
X131966000Y-81022174D03*
D11*
%TO.P,D1,2,A*%
%TO.N,Net-(D1-A)*%
X131966000Y-73402174D03*
%TD*%
D10*
%TO.P,D3,1,K*%
%TO.N,Row 0*%
X170136000Y-81022174D03*
D11*
%TO.P,D3,2,A*%
%TO.N,Net-(D3-A)*%
X170136000Y-73402174D03*
%TD*%
D14*
%TO.P,S3,1,1*%
%TO.N,Column  2*%
X156791000Y-76007174D03*
%TO.P,S3,2,2*%
%TO.N,Net-(D3-A)*%
X163141000Y-73467174D03*
%TD*%
%TO.P,S8,1,1*%
%TO.N,Column  1*%
X137751000Y-114257174D03*
%TO.P,S8,2,2*%
%TO.N,Net-(D8-A)*%
X144101000Y-111717174D03*
%TD*%
%TO.P,S5,1,1*%
%TO.N,Column  1*%
X137731000Y-95197174D03*
%TO.P,S5,2,2*%
%TO.N,Net-(D5-A)*%
X144081000Y-92657174D03*
%TD*%
%TO.P,S9,1,1*%
%TO.N,Column  2*%
X156751000Y-114282174D03*
%TO.P,S9,2,2*%
%TO.N,Net-(D9-A)*%
X163101000Y-111742174D03*
%TD*%
D10*
%TO.P,D2,1,K*%
%TO.N,Row 0*%
X151196000Y-81022174D03*
D11*
%TO.P,D2,2,A*%
%TO.N,Net-(D2-A)*%
X151196000Y-73402174D03*
%TD*%
D10*
%TO.P,D6,1,K*%
%TO.N,Row 1*%
X170056000Y-100362174D03*
D11*
%TO.P,D6,2,A*%
%TO.N,Net-(D6-A)*%
X170056000Y-92742174D03*
%TD*%
D21*
%TO.P,J2,1,Pin_1*%
%TO.N,Net-(J2-Pin_1)*%
X179435000Y-122035000D03*
D22*
%TO.P,J2,2,Pin_2*%
%TO.N,Net-(J2-Pin_2)*%
X181975000Y-122035000D03*
%TO.P,J2,3,Pin_3*%
%TO.N,Net-(J2-Pin_3)*%
X184515000Y-122035000D03*
%TD*%
D14*
%TO.P,S2,1,1*%
%TO.N,Column  1*%
X137681000Y-75997174D03*
%TO.P,S2,2,2*%
%TO.N,Net-(D2-A)*%
X144031000Y-73457174D03*
%TD*%
D23*
%TO.N,Row 0*%
X131966000Y-81022174D02*
X170136000Y-81022174D01*
X173407826Y-81022174D02*
X175835000Y-78595000D01*
X170136000Y-81022174D02*
X173407826Y-81022174D01*
%TO.N,Net-(D1-A)*%
X124981000Y-73457174D02*
X131911000Y-73457174D01*
X131911000Y-73457174D02*
X131966000Y-73402174D01*
%TO.N,Net-(D2-A)*%
X144031000Y-73457174D02*
X151141000Y-73457174D01*
X151141000Y-73457174D02*
X151196000Y-73402174D01*
%TO.N,Net-(D3-A)*%
X170071000Y-73467174D02*
X170136000Y-73402174D01*
X163141000Y-73467174D02*
X170071000Y-73467174D01*
%TO.N,Row 1*%
X171157000Y-85813000D02*
X175835000Y-81135000D01*
X170056000Y-100362174D02*
X171216000Y-100362174D01*
X131926000Y-100362174D02*
X170056000Y-100362174D01*
X171157000Y-99261174D02*
X171157000Y-85813000D01*
X170056000Y-100362174D02*
X171157000Y-99261174D01*
%TO.N,Net-(D4-A)*%
X124996000Y-92667174D02*
X131851000Y-92667174D01*
X131851000Y-92667174D02*
X131926000Y-92742174D01*
%TO.N,Net-(D5-A)*%
X144081000Y-92657174D02*
X150941000Y-92657174D01*
X150941000Y-92657174D02*
X151026000Y-92742174D01*
%TO.N,Net-(D6-A)*%
X163096000Y-92667174D02*
X169981000Y-92667174D01*
X169981000Y-92667174D02*
X170056000Y-92742174D01*
%TO.N,Net-(D7-A)*%
X131881000Y-111767174D02*
X132006000Y-111892174D01*
X124996000Y-111767174D02*
X131881000Y-111767174D01*
%TO.N,Row 2*%
X170086000Y-119512174D02*
X170086000Y-118246014D01*
X171617000Y-87893000D02*
X175835000Y-83675000D01*
X171617000Y-117981174D02*
X171617000Y-87893000D01*
X170086000Y-119512174D02*
X171617000Y-117981174D01*
X132006000Y-119512174D02*
X170086000Y-119512174D01*
%TO.N,Net-(D8-A)*%
X150891000Y-111717174D02*
X151066000Y-111892174D01*
X144101000Y-111717174D02*
X150891000Y-111717174D01*
%TO.N,Net-(D9-A)*%
X169936000Y-111742174D02*
X170086000Y-111892174D01*
X163101000Y-111742174D02*
X169936000Y-111742174D01*
%TO.N,GND*%
X178055000Y-94795000D02*
X178055000Y-76375000D01*
X178055000Y-76375000D02*
X191075000Y-63355000D01*
%TO.N,VCC*%
X188626000Y-70884000D02*
X191075000Y-68435000D01*
X187475000Y-107365000D02*
X188626000Y-106214000D01*
X188626000Y-106214000D02*
X188626000Y-70884000D01*
%TO.N,Net-(U1-8{slash}PB4)*%
X130825000Y-101463174D02*
X133107000Y-103745174D01*
X174657700Y-117142474D02*
X174657700Y-87392300D01*
X174657700Y-87392300D02*
X175835000Y-86215000D01*
X133107000Y-116209174D02*
X130905000Y-118411174D01*
X152731174Y-58055000D02*
X130865000Y-79921174D01*
X155495000Y-58055000D02*
X152731174Y-58055000D01*
X171187000Y-120613174D02*
X174657700Y-117142474D01*
X133107000Y-103745174D02*
X133107000Y-116209174D01*
X130825000Y-99261174D02*
X130825000Y-101463174D01*
X130865000Y-82123174D02*
X133027000Y-84285174D01*
X133027000Y-84285174D02*
X133027000Y-97059174D01*
X130865000Y-79921174D02*
X130865000Y-82123174D01*
X130905000Y-118411174D02*
X130905000Y-120613174D01*
X130905000Y-120613174D02*
X171187000Y-120613174D01*
X133027000Y-97059174D02*
X130825000Y-99261174D01*
%TO.N,Net-(U1-9{slash}PB5)*%
X176226128Y-77321174D02*
X177012300Y-78107346D01*
X177012300Y-78107346D02*
X177012300Y-87577700D01*
X155495000Y-68014620D02*
X164801554Y-77321174D01*
X155495000Y-63055000D02*
X155495000Y-68014620D01*
X177012300Y-87577700D02*
X175835000Y-88755000D01*
X164801554Y-77321174D02*
X176226128Y-77321174D01*
%TO.N,Net-(U1-10{slash}PB6)*%
X189979954Y-58055000D02*
X192653300Y-60728346D01*
X169995000Y-58055000D02*
X189979954Y-58055000D01*
X192653300Y-60728346D02*
X192653300Y-68521654D01*
X189027000Y-86707000D02*
X191075000Y-88755000D01*
X189027000Y-71050100D02*
X189027000Y-86707000D01*
X191562654Y-69612300D02*
X190464800Y-69612300D01*
X192653300Y-68521654D02*
X191562654Y-69612300D01*
X190464800Y-69612300D02*
X189027000Y-71050100D01*
%TO.N,Net-(J2-Pin_3)*%
X192252300Y-84852300D02*
X191075000Y-83675000D01*
X192252300Y-114297700D02*
X192252300Y-84852300D01*
X184515000Y-122035000D02*
X192252300Y-114297700D01*
%TO.N,Net-(J2-Pin_2)*%
X181975000Y-106335000D02*
X178055000Y-102415000D01*
X181975000Y-122035000D02*
X181975000Y-106335000D01*
%TO.N,Net-(J2-Pin_1)*%
X182457973Y-123351000D02*
X183175000Y-122633973D01*
X179435000Y-122035000D02*
X180751000Y-123351000D01*
X183175000Y-122633973D02*
X183175000Y-109125000D01*
X183175000Y-109125000D02*
X187475000Y-104825000D01*
X180751000Y-123351000D02*
X182457973Y-123351000D01*
%TO.N,Net-(J3-Pin_6)*%
X187475000Y-67644646D02*
X187475000Y-94665000D01*
X192252300Y-63842654D02*
X191562654Y-64532300D01*
X175347346Y-74877700D02*
X177887346Y-74877700D01*
X155495000Y-60555000D02*
X161024646Y-60555000D01*
X191562654Y-64532300D02*
X190587346Y-64532300D01*
X191562654Y-62177700D02*
X192252300Y-62867346D01*
X161024646Y-60555000D02*
X175347346Y-74877700D01*
X190587346Y-64532300D02*
X187475000Y-67644646D01*
X190587346Y-62177700D02*
X191562654Y-62177700D01*
X177887346Y-74877700D02*
X190587346Y-62177700D01*
X192252300Y-62867346D02*
X192252300Y-63842654D01*
%TO.N,Net-(J4-Pin_2)*%
X168694000Y-61754000D02*
X168694000Y-57516108D01*
X176904000Y-98486000D02*
X178055000Y-97335000D01*
X176904000Y-121986000D02*
X176904000Y-98486000D01*
X169995000Y-63055000D02*
X168694000Y-61754000D01*
X184596973Y-123752000D02*
X178670000Y-123752000D01*
X193054300Y-60562246D02*
X193054300Y-115294673D01*
X169456108Y-56754000D02*
X189246054Y-56754000D01*
X193054300Y-115294673D02*
X184596973Y-123752000D01*
X168694000Y-57516108D02*
X169456108Y-56754000D01*
X178670000Y-123752000D02*
X176904000Y-121986000D01*
X189246054Y-56754000D02*
X193054300Y-60562246D01*
%TD*%
%TA.AperFunction,NonConductor*%
G36*
X192373134Y-69753568D02*
G01*
X192429067Y-69795440D01*
X192453484Y-69860904D01*
X192453800Y-69869750D01*
X192453800Y-70148770D01*
X192445078Y-70178473D01*
X192438359Y-70208694D01*
X192435319Y-70211705D01*
X192434115Y-70215809D01*
X192410722Y-70236078D01*
X192388728Y-70257873D01*
X192384543Y-70258763D01*
X192381311Y-70261564D01*
X192350668Y-70265970D01*
X192320388Y-70272412D01*
X192316387Y-70270899D01*
X192312153Y-70271508D01*
X192283989Y-70258646D01*
X192255036Y-70247696D01*
X192250994Y-70243578D01*
X192248597Y-70242483D01*
X192230194Y-70222625D01*
X192229780Y-70222066D01*
X192125164Y-70078075D01*
X192116846Y-70069757D01*
X192111394Y-70062404D01*
X192102367Y-70037859D01*
X192089834Y-70014907D01*
X192090500Y-70005592D01*
X192087277Y-69996829D01*
X192092952Y-69971302D01*
X192094818Y-69945215D01*
X192100833Y-69935854D01*
X192102441Y-69928625D01*
X192110808Y-69920334D01*
X192123315Y-69900873D01*
X192242122Y-69782066D01*
X192303442Y-69748584D01*
X192373134Y-69753568D01*
G37*
%TD.AperFunction*%
%TA.AperFunction,NonConductor*%
G36*
X189724785Y-66346608D02*
G01*
X189780718Y-66388480D01*
X189796668Y-66419230D01*
X189797206Y-66419008D01*
X189799069Y-66423505D01*
X189799070Y-66423508D01*
X189897455Y-66616600D01*
X190024836Y-66791925D01*
X190178075Y-66945164D01*
X190291870Y-67027841D01*
X190342577Y-67064682D01*
X190385242Y-67120012D01*
X190391221Y-67189626D01*
X190358615Y-67251421D01*
X190342577Y-67265318D01*
X190276675Y-67313198D01*
X190178075Y-67384836D01*
X190178073Y-67384838D01*
X190178072Y-67384838D01*
X190024838Y-67538072D01*
X189897455Y-67713399D01*
X189799068Y-67906494D01*
X189732102Y-68112594D01*
X189732102Y-68112597D01*
X189698200Y-68326644D01*
X189698200Y-68543355D01*
X189732101Y-68757401D01*
X189750620Y-68814394D01*
X189752615Y-68884235D01*
X189720370Y-68940393D01*
X188287181Y-70373583D01*
X188225858Y-70407068D01*
X188156166Y-70402084D01*
X188100233Y-70360212D01*
X188075816Y-70294748D01*
X188075500Y-70285902D01*
X188075500Y-67944742D01*
X188095185Y-67877703D01*
X188111814Y-67857066D01*
X189593772Y-66375107D01*
X189655093Y-66341624D01*
X189724785Y-66346608D01*
G37*
%TD.AperFunction*%
%TA.AperFunction,NonConductor*%
G36*
X192416220Y-71712305D02*
G01*
X192450578Y-71773144D01*
X192453800Y-71801229D01*
X192453800Y-72688770D01*
X192434115Y-72755809D01*
X192381311Y-72801564D01*
X192312153Y-72811508D01*
X192248597Y-72782483D01*
X192229482Y-72761656D01*
X192210074Y-72734943D01*
X192125164Y-72618075D01*
X191971925Y-72464836D01*
X191896728Y-72410202D01*
X191807423Y-72345318D01*
X191764757Y-72289988D01*
X191758778Y-72220375D01*
X191791384Y-72158580D01*
X191807423Y-72144682D01*
X191866618Y-72101674D01*
X191971925Y-72025164D01*
X192125164Y-71871925D01*
X192223464Y-71736627D01*
X192229482Y-71728344D01*
X192284812Y-71685678D01*
X192354425Y-71679699D01*
X192416220Y-71712305D01*
G37*
%TD.AperFunction*%
%TA.AperFunction,NonConductor*%
G36*
X189832703Y-71589567D02*
G01*
X189861985Y-71626986D01*
X189897453Y-71696598D01*
X189953067Y-71773144D01*
X190024836Y-71871925D01*
X190178075Y-72025164D01*
X190283382Y-72101674D01*
X190342577Y-72144682D01*
X190385242Y-72200012D01*
X190391221Y-72269626D01*
X190358615Y-72331421D01*
X190342577Y-72345318D01*
X190276675Y-72393198D01*
X190178075Y-72464836D01*
X190178073Y-72464838D01*
X190178072Y-72464838D01*
X190024838Y-72618072D01*
X189897455Y-72793399D01*
X189861985Y-72863014D01*
X189814010Y-72913810D01*
X189746189Y-72930605D01*
X189680055Y-72908068D01*
X189636603Y-72853353D01*
X189627500Y-72806719D01*
X189627500Y-71683280D01*
X189647185Y-71616241D01*
X189699989Y-71570486D01*
X189769147Y-71560542D01*
X189832703Y-71589567D01*
G37*
%TD.AperFunction*%
%TA.AperFunction,NonConductor*%
G36*
X192416220Y-74252305D02*
G01*
X192450578Y-74313144D01*
X192453800Y-74341229D01*
X192453800Y-75228770D01*
X192434115Y-75295809D01*
X192381311Y-75341564D01*
X192312153Y-75351508D01*
X192248597Y-75322483D01*
X192229482Y-75301656D01*
X192206889Y-75270560D01*
X192125164Y-75158075D01*
X191971925Y-75004836D01*
X191849357Y-74915785D01*
X191807423Y-74885318D01*
X191764757Y-74829988D01*
X191758778Y-74760375D01*
X191791384Y-74698580D01*
X191807423Y-74684682D01*
X191854706Y-74650328D01*
X191971925Y-74565164D01*
X192125164Y-74411925D01*
X192216200Y-74286625D01*
X192229482Y-74268344D01*
X192284812Y-74225678D01*
X192354425Y-74219699D01*
X192416220Y-74252305D01*
G37*
%TD.AperFunction*%
%TA.AperFunction,NonConductor*%
G36*
X189774942Y-74103188D02*
G01*
X189781308Y-74102916D01*
X189806337Y-74117526D01*
X189832703Y-74129567D01*
X189837528Y-74135732D01*
X189841650Y-74138139D01*
X189861985Y-74166986D01*
X189897453Y-74236598D01*
X189953067Y-74313144D01*
X190024836Y-74411925D01*
X190178075Y-74565164D01*
X190258829Y-74623835D01*
X190342577Y-74684682D01*
X190385242Y-74740012D01*
X190391221Y-74809626D01*
X190358615Y-74871421D01*
X190342577Y-74885318D01*
X190300649Y-74915781D01*
X190178075Y-75004836D01*
X190178073Y-75004838D01*
X190178072Y-75004838D01*
X190024838Y-75158072D01*
X189897455Y-75333399D01*
X189861985Y-75403014D01*
X189814010Y-75453810D01*
X189746189Y-75470605D01*
X189680055Y-75448068D01*
X189636603Y-75393353D01*
X189627500Y-75346719D01*
X189627500Y-74223280D01*
X189629294Y-74217166D01*
X189628119Y-74210905D01*
X189639019Y-74184047D01*
X189647185Y-74156241D01*
X189651999Y-74152069D01*
X189654396Y-74146165D01*
X189678088Y-74129462D01*
X189699989Y-74110486D01*
X189706293Y-74109579D01*
X189711502Y-74105908D01*
X189740459Y-74104666D01*
X189769147Y-74100542D01*
X189774942Y-74103188D01*
G37*
%TD.AperFunction*%
%TA.AperFunction,NonConductor*%
G36*
X160791588Y-61175185D02*
G01*
X160812230Y-61191819D01*
X164063229Y-64442819D01*
X164096714Y-64504142D01*
X164091730Y-64573834D01*
X164049858Y-64629767D01*
X163984394Y-64654184D01*
X163975548Y-64654500D01*
X161347129Y-64654500D01*
X161347123Y-64654501D01*
X161287516Y-64660908D01*
X161152671Y-64711202D01*
X161152664Y-64711206D01*
X161037455Y-64797452D01*
X161037452Y-64797455D01*
X160951206Y-64912664D01*
X160951202Y-64912671D01*
X160900908Y-65047517D01*
X160894501Y-65107116D01*
X160894500Y-65107135D01*
X160894500Y-67202870D01*
X160894501Y-67202876D01*
X160900908Y-67262483D01*
X160951202Y-67397328D01*
X160951206Y-67397335D01*
X161037452Y-67512544D01*
X161037455Y-67512547D01*
X161152664Y-67598793D01*
X161152671Y-67598797D01*
X161287517Y-67649091D01*
X161287516Y-67649091D01*
X161294444Y-67649835D01*
X161347127Y-67655500D01*
X164642872Y-67655499D01*
X164702483Y-67649091D01*
X164837331Y-67598796D01*
X164952546Y-67512546D01*
X165038796Y-67397331D01*
X165089091Y-67262483D01*
X165095500Y-67202873D01*
X165095499Y-65774449D01*
X165115184Y-65707411D01*
X165167987Y-65661656D01*
X165237146Y-65651712D01*
X165300702Y-65680737D01*
X165307179Y-65686768D01*
X170022494Y-70402084D01*
X174707276Y-75086866D01*
X174740761Y-75148189D01*
X174735777Y-75217881D01*
X174719913Y-75247432D01*
X174657457Y-75333395D01*
X174559068Y-75526494D01*
X174492102Y-75732594D01*
X174492102Y-75732597D01*
X174458200Y-75946644D01*
X174458200Y-76163355D01*
X174492102Y-76377402D01*
X174492102Y-76377405D01*
X174550897Y-76558356D01*
X174552892Y-76628197D01*
X174516812Y-76688030D01*
X174454111Y-76718858D01*
X174432966Y-76720674D01*
X165101651Y-76720674D01*
X165034612Y-76700989D01*
X165013970Y-76684355D01*
X163661498Y-75331883D01*
X163628013Y-75270560D01*
X163632997Y-75200868D01*
X163674869Y-75144935D01*
X163701726Y-75129641D01*
X163704884Y-75128332D01*
X163704887Y-75128332D01*
X163916888Y-75040518D01*
X164115612Y-74925785D01*
X164297661Y-74786093D01*
X164297665Y-74786088D01*
X164297670Y-74786085D01*
X164459911Y-74623844D01*
X164459914Y-74623839D01*
X164459919Y-74623835D01*
X164599611Y-74441786D01*
X164714344Y-74243062D01*
X164717021Y-74236600D01*
X164755285Y-74144222D01*
X164799125Y-74089818D01*
X164865420Y-74067753D01*
X164869846Y-74067674D01*
X168948827Y-74067674D01*
X169015866Y-74087359D01*
X169049144Y-74118787D01*
X169089393Y-74174185D01*
X169144034Y-74249393D01*
X169288786Y-74394145D01*
X169443749Y-74506730D01*
X169454390Y-74514461D01*
X169553894Y-74565161D01*
X169636776Y-74607392D01*
X169636778Y-74607392D01*
X169636781Y-74607394D01*
X169687409Y-74623844D01*
X169831465Y-74670651D01*
X169920053Y-74684682D01*
X170033648Y-74702674D01*
X170033649Y-74702674D01*
X170238351Y-74702674D01*
X170238352Y-74702674D01*
X170440534Y-74670651D01*
X170635219Y-74607394D01*
X170817610Y-74514461D01*
X170910590Y-74446906D01*
X170983213Y-74394145D01*
X170983215Y-74394142D01*
X170983219Y-74394140D01*
X171127966Y-74249393D01*
X171127968Y-74249389D01*
X171127971Y-74249387D01*
X171202965Y-74146165D01*
X171248287Y-74083784D01*
X171341220Y-73901393D01*
X171404477Y-73706708D01*
X171436500Y-73504526D01*
X171436500Y-73299822D01*
X171419517Y-73192597D01*
X171404477Y-73097639D01*
X171368363Y-72986492D01*
X171341220Y-72902955D01*
X171341218Y-72902952D01*
X171341218Y-72902950D01*
X171292185Y-72806719D01*
X171248287Y-72720564D01*
X171240556Y-72709923D01*
X171127971Y-72554960D01*
X170983213Y-72410202D01*
X170817613Y-72289889D01*
X170817612Y-72289888D01*
X170817610Y-72289887D01*
X170760653Y-72260865D01*
X170635223Y-72196955D01*
X170440534Y-72133696D01*
X170265995Y-72106052D01*
X170238352Y-72101674D01*
X170033648Y-72101674D01*
X170009329Y-72105525D01*
X169831465Y-72133696D01*
X169636776Y-72196955D01*
X169454386Y-72289889D01*
X169288786Y-72410202D01*
X169144028Y-72554960D01*
X169023715Y-72720559D01*
X169002211Y-72762762D01*
X168986202Y-72794185D01*
X168983764Y-72798969D01*
X168935790Y-72849765D01*
X168873279Y-72866674D01*
X164869846Y-72866674D01*
X164802807Y-72846989D01*
X164757052Y-72794185D01*
X164755285Y-72790126D01*
X164714349Y-72691297D01*
X164714346Y-72691291D01*
X164714344Y-72691286D01*
X164599611Y-72492562D01*
X164599608Y-72492559D01*
X164599607Y-72492556D01*
X164459918Y-72310512D01*
X164459911Y-72310504D01*
X164297670Y-72148263D01*
X164297661Y-72148255D01*
X164115617Y-72008566D01*
X164098296Y-71998566D01*
X163916888Y-71893830D01*
X163916876Y-71893824D01*
X163704887Y-71806016D01*
X163667566Y-71796016D01*
X163483238Y-71746626D01*
X163445215Y-71741620D01*
X163255741Y-71716674D01*
X163255734Y-71716674D01*
X163026266Y-71716674D01*
X163026258Y-71716674D01*
X162809715Y-71745183D01*
X162798762Y-71746626D01*
X162705076Y-71771728D01*
X162577112Y-71806016D01*
X162365123Y-71893824D01*
X162365109Y-71893831D01*
X162166382Y-72008566D01*
X161984338Y-72148255D01*
X161822081Y-72310512D01*
X161682392Y-72492556D01*
X161567657Y-72691283D01*
X161567652Y-72691292D01*
X161478532Y-72906447D01*
X161434691Y-72960850D01*
X161368396Y-72982915D01*
X161300697Y-72965635D01*
X161276290Y-72946675D01*
X156131819Y-67802204D01*
X156098334Y-67740881D01*
X156095500Y-67714523D01*
X156095500Y-64509067D01*
X156115185Y-64442028D01*
X156163205Y-64398582D01*
X156281433Y-64338343D01*
X156472510Y-64199517D01*
X156639517Y-64032510D01*
X156778343Y-63841433D01*
X156885568Y-63630992D01*
X156958553Y-63406368D01*
X156983851Y-63246644D01*
X156995500Y-63173097D01*
X156995500Y-62936902D01*
X156958553Y-62703631D01*
X156896534Y-62512758D01*
X156885568Y-62479008D01*
X156885566Y-62479005D01*
X156885566Y-62479003D01*
X156829002Y-62367991D01*
X156778343Y-62268567D01*
X156639517Y-62077490D01*
X156472510Y-61910483D01*
X156465401Y-61905318D01*
X156422735Y-61849988D01*
X156416756Y-61780375D01*
X156449362Y-61718580D01*
X156465401Y-61704682D01*
X156465500Y-61704609D01*
X156472510Y-61699517D01*
X156639517Y-61532510D01*
X156778343Y-61341433D01*
X156838583Y-61223204D01*
X156886558Y-61172409D01*
X156949068Y-61155500D01*
X160724549Y-61155500D01*
X160791588Y-61175185D01*
G37*
%TD.AperFunction*%
%TA.AperFunction,NonConductor*%
G36*
X177800693Y-75478201D02*
G01*
X177803201Y-75478201D01*
X177803876Y-75478399D01*
X177816057Y-75479158D01*
X177816065Y-75479159D01*
X177836070Y-75487852D01*
X177870240Y-75497886D01*
X177876932Y-75505609D01*
X177880146Y-75507006D01*
X177886933Y-75517151D01*
X177915995Y-75550690D01*
X177917808Y-75563299D01*
X177918998Y-75565078D01*
X177919135Y-75572530D01*
X177925939Y-75619848D01*
X177920237Y-75632331D01*
X177920286Y-75634936D01*
X177915521Y-75642659D01*
X177896914Y-75683404D01*
X177890882Y-75689882D01*
X177574481Y-76006282D01*
X177574479Y-76006285D01*
X177524361Y-76093094D01*
X177524359Y-76093096D01*
X177495425Y-76143209D01*
X177495424Y-76143210D01*
X177495423Y-76143215D01*
X177454499Y-76295943D01*
X177454499Y-76295945D01*
X177454499Y-76464046D01*
X177454500Y-76464059D01*
X177454500Y-77400949D01*
X177434815Y-77467988D01*
X177382011Y-77513743D01*
X177312853Y-77523687D01*
X177249297Y-77494662D01*
X177242819Y-77488630D01*
X176883320Y-77129131D01*
X176849835Y-77067808D01*
X176854819Y-76998116D01*
X176882080Y-76955697D01*
X176882000Y-76955629D01*
X176882503Y-76955039D01*
X176883320Y-76953769D01*
X176885164Y-76951925D01*
X177012545Y-76776600D01*
X177110930Y-76583508D01*
X177114974Y-76571061D01*
X177177897Y-76377405D01*
X177177897Y-76377404D01*
X177177898Y-76377401D01*
X177211800Y-76163356D01*
X177211800Y-75946644D01*
X177177898Y-75732599D01*
X177177897Y-75732595D01*
X177177897Y-75732594D01*
X177147980Y-75640518D01*
X177145985Y-75570677D01*
X177182066Y-75510844D01*
X177244767Y-75480016D01*
X177265911Y-75478200D01*
X177800677Y-75478200D01*
X177800693Y-75478201D01*
G37*
%TD.AperFunction*%
%TA.AperFunction,NonConductor*%
G36*
X192416220Y-76792305D02*
G01*
X192450578Y-76853144D01*
X192453800Y-76881229D01*
X192453800Y-77768770D01*
X192434115Y-77835809D01*
X192381311Y-77881564D01*
X192312153Y-77891508D01*
X192248597Y-77862483D01*
X192229482Y-77841656D01*
X192208089Y-77812212D01*
X192125164Y-77698075D01*
X191971925Y-77544836D01*
X191964819Y-77539673D01*
X191807423Y-77425318D01*
X191764757Y-77369988D01*
X191758778Y-77300375D01*
X191791384Y-77238580D01*
X191807423Y-77224682D01*
X191854706Y-77190328D01*
X191971925Y-77105164D01*
X192125164Y-76951925D01*
X192229482Y-76808344D01*
X192284812Y-76765678D01*
X192354425Y-76759699D01*
X192416220Y-76792305D01*
G37*
%TD.AperFunction*%
%TA.AperFunction,NonConductor*%
G36*
X189774942Y-76643188D02*
G01*
X189781308Y-76642916D01*
X189806337Y-76657526D01*
X189832703Y-76669567D01*
X189837528Y-76675732D01*
X189841650Y-76678139D01*
X189861985Y-76706986D01*
X189897453Y-76776598D01*
X189902151Y-76783064D01*
X190024836Y-76951925D01*
X190178075Y-77105164D01*
X190258829Y-77163835D01*
X190342577Y-77224682D01*
X190385242Y-77280012D01*
X190391221Y-77349626D01*
X190358615Y-77411421D01*
X190342577Y-77425318D01*
X190309448Y-77449388D01*
X190178075Y-77544836D01*
X190178073Y-77544838D01*
X190178072Y-77544838D01*
X190024838Y-77698072D01*
X189897455Y-77873399D01*
X189861985Y-77943014D01*
X189814010Y-77993810D01*
X189746189Y-78010605D01*
X189680055Y-77988068D01*
X189636603Y-77933353D01*
X189627500Y-77886719D01*
X189627500Y-76763280D01*
X189629294Y-76757166D01*
X189628119Y-76750905D01*
X189639019Y-76724047D01*
X189647185Y-76696241D01*
X189651999Y-76692069D01*
X189654396Y-76686165D01*
X189678088Y-76669462D01*
X189699989Y-76650486D01*
X189706293Y-76649579D01*
X189711502Y-76645908D01*
X189740459Y-76644666D01*
X189769147Y-76640542D01*
X189774942Y-76643188D01*
G37*
%TD.AperFunction*%
%TA.AperFunction,NonConductor*%
G36*
X153937540Y-58675185D02*
G01*
X153983295Y-58727989D01*
X153994501Y-58779500D01*
X153994501Y-59102876D01*
X154000908Y-59162483D01*
X154051202Y-59297328D01*
X154051206Y-59297335D01*
X154137452Y-59412544D01*
X154137455Y-59412547D01*
X154255198Y-59500690D01*
X154297069Y-59556623D01*
X154302053Y-59626315D01*
X154281205Y-59672841D01*
X154211659Y-59768563D01*
X154104433Y-59979003D01*
X154031446Y-60203631D01*
X153994500Y-60436902D01*
X153994500Y-60673097D01*
X154031446Y-60906368D01*
X154104433Y-61130996D01*
X154211657Y-61341433D01*
X154350483Y-61532510D01*
X154350485Y-61532512D01*
X154517490Y-61699517D01*
X154524603Y-61704685D01*
X154567266Y-61760017D01*
X154573242Y-61829630D01*
X154540634Y-61891424D01*
X154524603Y-61905315D01*
X154517490Y-61910482D01*
X154350485Y-62077487D01*
X154350485Y-62077488D01*
X154350483Y-62077490D01*
X154290862Y-62159550D01*
X154211657Y-62268566D01*
X154104433Y-62479003D01*
X154031446Y-62703631D01*
X153994500Y-62936902D01*
X153994500Y-63173097D01*
X154031446Y-63406368D01*
X154104433Y-63630996D01*
X154211657Y-63841433D01*
X154350483Y-64032510D01*
X154517490Y-64199517D01*
X154660797Y-64303636D01*
X154708568Y-64338344D01*
X154783177Y-64376358D01*
X154826794Y-64398582D01*
X154877590Y-64446556D01*
X154894500Y-64509067D01*
X154894500Y-67927950D01*
X154894499Y-67927968D01*
X154894499Y-68093674D01*
X154894498Y-68093674D01*
X154899568Y-68112597D01*
X154935423Y-68246405D01*
X154960518Y-68289870D01*
X155014479Y-68383334D01*
X155014481Y-68383337D01*
X155133349Y-68502205D01*
X155133355Y-68502210D01*
X164316693Y-77685548D01*
X164316703Y-77685559D01*
X164321033Y-77689889D01*
X164321034Y-77689890D01*
X164432838Y-77801694D01*
X164519649Y-77851813D01*
X164569769Y-77880751D01*
X164597720Y-77888240D01*
X164607816Y-77893011D01*
X164625912Y-77909109D01*
X164646594Y-77921715D01*
X164651548Y-77931913D01*
X164660020Y-77939450D01*
X164666540Y-77962776D01*
X164677123Y-77984562D01*
X164675776Y-77995820D01*
X164678829Y-78006740D01*
X164671703Y-78029888D01*
X164668828Y-78053938D01*
X164665325Y-78061419D01*
X164637960Y-78115125D01*
X164637956Y-78115134D01*
X164583214Y-78283617D01*
X164564833Y-78399668D01*
X164555500Y-78458595D01*
X164555500Y-78635753D01*
X164569357Y-78723241D01*
X164583214Y-78810730D01*
X164637956Y-78979213D01*
X164637957Y-78979216D01*
X164672324Y-79046663D01*
X164718386Y-79137064D01*
X164822517Y-79280388D01*
X164947786Y-79405657D01*
X165091110Y-79509788D01*
X165139965Y-79534681D01*
X165248957Y-79590216D01*
X165248960Y-79590217D01*
X165333201Y-79617588D01*
X165417445Y-79644960D01*
X165592421Y-79672674D01*
X165592422Y-79672674D01*
X165769578Y-79672674D01*
X165769579Y-79672674D01*
X165944555Y-79644960D01*
X166113042Y-79590216D01*
X166270890Y-79509788D01*
X166414214Y-79405657D01*
X166539483Y-79280388D01*
X166643614Y-79137064D01*
X166724042Y-78979216D01*
X166778786Y-78810729D01*
X166806500Y-78635753D01*
X166806500Y-78458595D01*
X166778786Y-78283619D01*
X166724042Y-78115132D01*
X166724040Y-78115127D01*
X166717336Y-78101970D01*
X166704439Y-78033301D01*
X166730714Y-77968560D01*
X166787820Y-77928303D01*
X166827820Y-77921674D01*
X174435453Y-77921674D01*
X174502492Y-77941359D01*
X174548247Y-77994163D01*
X174558191Y-78063321D01*
X174553384Y-78083992D01*
X174492102Y-78272594D01*
X174492102Y-78272597D01*
X174458200Y-78486644D01*
X174458200Y-78703355D01*
X174492101Y-78917401D01*
X174507648Y-78965247D01*
X174508936Y-78969213D01*
X174510620Y-78974394D01*
X174512615Y-79044235D01*
X174480370Y-79100393D01*
X173195410Y-80385355D01*
X173134087Y-80418840D01*
X173107729Y-80421674D01*
X171560499Y-80421674D01*
X171493460Y-80401989D01*
X171447705Y-80349185D01*
X171436499Y-80297674D01*
X171436499Y-80174303D01*
X171436498Y-80174297D01*
X171436497Y-80174290D01*
X171430091Y-80114691D01*
X171396345Y-80024214D01*
X171379797Y-79979845D01*
X171379793Y-79979838D01*
X171293547Y-79864629D01*
X171293544Y-79864626D01*
X171178335Y-79778380D01*
X171178328Y-79778376D01*
X171043482Y-79728082D01*
X171043483Y-79728082D01*
X170983883Y-79721675D01*
X170983881Y-79721674D01*
X170983873Y-79721674D01*
X170983864Y-79721674D01*
X169288129Y-79721674D01*
X169288123Y-79721675D01*
X169228516Y-79728082D01*
X169093671Y-79778376D01*
X169093664Y-79778380D01*
X168978455Y-79864626D01*
X168978452Y-79864629D01*
X168892206Y-79979838D01*
X168892202Y-79979845D01*
X168841908Y-80114691D01*
X168835501Y-80174290D01*
X168835501Y-80174297D01*
X168835500Y-80174309D01*
X168835500Y-80297674D01*
X168815815Y-80364713D01*
X168763011Y-80410468D01*
X168711500Y-80421674D01*
X162208551Y-80421674D01*
X162141512Y-80401989D01*
X162095757Y-80349185D01*
X162085813Y-80280027D01*
X162114838Y-80216471D01*
X162120870Y-80209993D01*
X162296641Y-80034221D01*
X162296646Y-80034216D01*
X162476238Y-79800168D01*
X162623743Y-79544681D01*
X162736639Y-79272126D01*
X162812993Y-78987167D01*
X162851500Y-78694680D01*
X162851500Y-78399668D01*
X162812993Y-78107181D01*
X162736639Y-77822222D01*
X162623743Y-77549667D01*
X162617967Y-77539663D01*
X162476238Y-77294180D01*
X162296647Y-77060133D01*
X162296641Y-77060126D01*
X162088047Y-76851532D01*
X162088040Y-76851526D01*
X161853993Y-76671935D01*
X161598510Y-76524432D01*
X161598500Y-76524428D01*
X161325961Y-76411538D01*
X161325954Y-76411536D01*
X161325952Y-76411535D01*
X161040993Y-76335181D01*
X160992113Y-76328745D01*
X160748513Y-76296674D01*
X160748506Y-76296674D01*
X160453494Y-76296674D01*
X160453486Y-76296674D01*
X160175085Y-76333327D01*
X160161007Y-76335181D01*
X160003439Y-76377401D01*
X159876048Y-76411535D01*
X159876038Y-76411538D01*
X159603499Y-76524428D01*
X159603489Y-76524432D01*
X159348006Y-76671935D01*
X159113959Y-76851526D01*
X159113952Y-76851532D01*
X158905358Y-77060126D01*
X158905352Y-77060133D01*
X158725761Y-77294180D01*
X158578258Y-77549663D01*
X158578254Y-77549673D01*
X158465364Y-77822212D01*
X158465361Y-77822222D01*
X158389556Y-78105134D01*
X158389008Y-78107178D01*
X158389006Y-78107189D01*
X158350500Y-78399660D01*
X158350500Y-78694687D01*
X158365778Y-78810729D01*
X158389007Y-78987167D01*
X158464896Y-79270389D01*
X158465361Y-79272125D01*
X158465364Y-79272135D01*
X158578254Y-79544674D01*
X158578258Y-79544684D01*
X158725761Y-79800167D01*
X158905352Y-80034214D01*
X158905358Y-80034221D01*
X159081130Y-80209993D01*
X159114615Y-80271316D01*
X159109631Y-80341008D01*
X159067759Y-80396941D01*
X159002295Y-80421358D01*
X158993449Y-80421674D01*
X152620499Y-80421674D01*
X152553460Y-80401989D01*
X152507705Y-80349185D01*
X152496499Y-80297674D01*
X152496499Y-80174303D01*
X152496498Y-80174297D01*
X152496497Y-80174290D01*
X152490091Y-80114691D01*
X152456345Y-80024214D01*
X152439797Y-79979845D01*
X152439793Y-79979838D01*
X152353547Y-79864629D01*
X152353544Y-79864626D01*
X152238335Y-79778380D01*
X152238328Y-79778376D01*
X152103482Y-79728082D01*
X152103483Y-79728082D01*
X152043883Y-79721675D01*
X152043881Y-79721674D01*
X152043873Y-79721674D01*
X152043864Y-79721674D01*
X150348129Y-79721674D01*
X150348123Y-79721675D01*
X150288516Y-79728082D01*
X150153671Y-79778376D01*
X150153664Y-79778380D01*
X150038455Y-79864626D01*
X150038452Y-79864629D01*
X149952206Y-79979838D01*
X149952202Y-79979845D01*
X149901908Y-80114691D01*
X149895501Y-80174290D01*
X149895501Y-80174297D01*
X149895500Y-80174309D01*
X149895500Y-80297674D01*
X149875815Y-80364713D01*
X149823011Y-80410468D01*
X149771500Y-80421674D01*
X143088551Y-80421674D01*
X143021512Y-80401989D01*
X142975757Y-80349185D01*
X142965813Y-80280027D01*
X142994838Y-80216471D01*
X143000870Y-80209993D01*
X143186641Y-80024221D01*
X143186646Y-80024216D01*
X143366238Y-79790168D01*
X143513743Y-79534681D01*
X143626639Y-79262126D01*
X143702993Y-78977167D01*
X143741500Y-78684680D01*
X143741500Y-78448595D01*
X145445500Y-78448595D01*
X145445500Y-78625752D01*
X145473214Y-78800730D01*
X145527956Y-78969213D01*
X145527957Y-78969216D01*
X145566182Y-79044235D01*
X145608386Y-79127064D01*
X145712517Y-79270388D01*
X145837786Y-79395657D01*
X145981110Y-79499788D01*
X146049577Y-79534674D01*
X146138957Y-79580216D01*
X146138960Y-79580217D01*
X146169735Y-79590216D01*
X146307445Y-79634960D01*
X146482421Y-79662674D01*
X146482422Y-79662674D01*
X146659578Y-79662674D01*
X146659579Y-79662674D01*
X146834555Y-79634960D01*
X147003042Y-79580216D01*
X147160890Y-79499788D01*
X147304214Y-79395657D01*
X147429483Y-79270388D01*
X147533614Y-79127064D01*
X147614042Y-78969216D01*
X147668786Y-78800729D01*
X147696500Y-78625753D01*
X147696500Y-78458595D01*
X154395500Y-78458595D01*
X154395500Y-78635753D01*
X154409357Y-78723241D01*
X154423214Y-78810730D01*
X154477956Y-78979213D01*
X154477957Y-78979216D01*
X154512324Y-79046663D01*
X154558386Y-79137064D01*
X154662517Y-79280388D01*
X154787786Y-79405657D01*
X154931110Y-79509788D01*
X154979965Y-79534681D01*
X155088957Y-79590216D01*
X155088960Y-79590217D01*
X155173201Y-79617588D01*
X155257445Y-79644960D01*
X155432421Y-79672674D01*
X155432422Y-79672674D01*
X155609578Y-79672674D01*
X155609579Y-79672674D01*
X155784555Y-79644960D01*
X155953042Y-79590216D01*
X156110890Y-79509788D01*
X156254214Y-79405657D01*
X156379483Y-79280388D01*
X156483614Y-79137064D01*
X156564042Y-78979216D01*
X156618786Y-78810729D01*
X156646500Y-78635753D01*
X156646500Y-78458595D01*
X156618786Y-78283619D01*
X156564042Y-78115132D01*
X156564042Y-78115131D01*
X156520608Y-78029888D01*
X156483614Y-77957284D01*
X156472517Y-77942011D01*
X156449038Y-77876206D01*
X156464863Y-77808152D01*
X156514968Y-77759457D01*
X156583446Y-77745581D01*
X156588977Y-77746182D01*
X156676266Y-77757674D01*
X156676273Y-77757674D01*
X156905727Y-77757674D01*
X156905734Y-77757674D01*
X157133238Y-77727722D01*
X157354887Y-77668332D01*
X157566888Y-77580518D01*
X157765612Y-77465785D01*
X157947661Y-77326093D01*
X157947665Y-77326088D01*
X157947670Y-77326085D01*
X158109911Y-77163844D01*
X158109914Y-77163839D01*
X158109919Y-77163835D01*
X158249611Y-76981786D01*
X158364344Y-76783062D01*
X158452158Y-76571061D01*
X158511548Y-76349412D01*
X158541500Y-76121908D01*
X158541500Y-75892440D01*
X158511548Y-75664936D01*
X158452158Y-75443287D01*
X158393492Y-75301656D01*
X158364349Y-75231297D01*
X158364346Y-75231291D01*
X158364344Y-75231286D01*
X158249611Y-75032562D01*
X158249608Y-75032559D01*
X158249607Y-75032556D01*
X158109918Y-74850512D01*
X158109911Y-74850504D01*
X157947670Y-74688263D01*
X157947661Y-74688255D01*
X157765617Y-74548566D01*
X157748296Y-74538566D01*
X157566888Y-74433830D01*
X157566876Y-74433824D01*
X157354887Y-74346016D01*
X157317566Y-74336016D01*
X157133238Y-74286626D01*
X157095215Y-74281620D01*
X156905741Y-74256674D01*
X156905734Y-74256674D01*
X156676266Y-74256674D01*
X156676258Y-74256674D01*
X156459715Y-74285183D01*
X156448762Y-74286626D01*
X156355076Y-74311728D01*
X156227112Y-74346016D01*
X156015123Y-74433824D01*
X156015109Y-74433831D01*
X155816382Y-74548566D01*
X155634338Y-74688255D01*
X155472081Y-74850512D01*
X155332392Y-75032556D01*
X155217657Y-75231283D01*
X155217650Y-75231297D01*
X155129842Y-75443286D01*
X155107547Y-75526494D01*
X155073132Y-75654936D01*
X155070453Y-75664933D01*
X155070451Y-75664944D01*
X155040500Y-75892432D01*
X155040500Y-76121915D01*
X155063413Y-76295945D01*
X155070452Y-76349412D01*
X155117347Y-76524428D01*
X155129842Y-76571061D01*
X155217650Y-76783050D01*
X155217657Y-76783064D01*
X155257184Y-76851526D01*
X155326618Y-76971791D01*
X155332392Y-76981791D01*
X155472081Y-77163835D01*
X155472089Y-77163844D01*
X155518238Y-77209993D01*
X155551723Y-77271316D01*
X155546739Y-77341008D01*
X155504867Y-77396941D01*
X155439403Y-77421358D01*
X155433967Y-77421552D01*
X155432423Y-77421673D01*
X155257443Y-77449388D01*
X155088960Y-77504130D01*
X155088957Y-77504131D01*
X154931109Y-77584560D01*
X154872936Y-77626826D01*
X154787786Y-77688691D01*
X154787784Y-77688693D01*
X154787783Y-77688693D01*
X154662519Y-77813957D01*
X154662519Y-77813958D01*
X154662517Y-77813960D01*
X154635015Y-77851813D01*
X154558386Y-77957283D01*
X154477957Y-78115131D01*
X154477956Y-78115134D01*
X154423214Y-78283617D01*
X154404833Y-78399668D01*
X154395500Y-78458595D01*
X147696500Y-78458595D01*
X147696500Y-78448595D01*
X147668786Y-78273619D01*
X147617289Y-78115125D01*
X147614043Y-78105134D01*
X147614042Y-78105131D01*
X147565878Y-78010605D01*
X147533614Y-77947284D01*
X147429483Y-77803960D01*
X147304214Y-77678691D01*
X147160890Y-77574560D01*
X147112047Y-77549673D01*
X147003042Y-77494131D01*
X147003039Y-77494130D01*
X146834556Y-77439388D01*
X146696078Y-77417455D01*
X146659579Y-77411674D01*
X146482421Y-77411674D01*
X146445922Y-77417455D01*
X146307443Y-77439388D01*
X146138960Y-77494130D01*
X146138957Y-77494131D01*
X145981109Y-77574560D01*
X145909175Y-77626824D01*
X145837786Y-77678691D01*
X145837784Y-77678693D01*
X145837783Y-77678693D01*
X145712519Y-77803957D01*
X145712519Y-77803958D01*
X145712517Y-77803960D01*
X145685129Y-77841656D01*
X145608386Y-77947283D01*
X145527957Y-78105131D01*
X145527956Y-78105134D01*
X145473214Y-78273617D01*
X145445500Y-78448595D01*
X143741500Y-78448595D01*
X143741500Y-78389668D01*
X143702993Y-78097181D01*
X143626639Y-77812222D01*
X143513743Y-77539667D01*
X143493226Y-77504131D01*
X143366238Y-77284180D01*
X143186647Y-77050133D01*
X143186641Y-77050126D01*
X142978047Y-76841532D01*
X142978040Y-76841526D01*
X142743993Y-76661935D01*
X142488510Y-76514432D01*
X142488500Y-76514428D01*
X142215961Y-76401538D01*
X142215954Y-76401536D01*
X142215952Y-76401535D01*
X141930993Y-76325181D01*
X141882113Y-76318745D01*
X141638513Y-76286674D01*
X141638506Y-76286674D01*
X141343494Y-76286674D01*
X141343486Y-76286674D01*
X141065085Y-76323327D01*
X141051007Y-76325181D01*
X140960568Y-76349414D01*
X140766048Y-76401535D01*
X140766038Y-76401538D01*
X140493499Y-76514428D01*
X140493489Y-76514432D01*
X140238006Y-76661935D01*
X140003959Y-76841526D01*
X140003952Y-76841532D01*
X139795358Y-77050126D01*
X139795352Y-77050133D01*
X139615761Y-77284180D01*
X139468258Y-77539663D01*
X139468254Y-77539673D01*
X139355364Y-77812212D01*
X139355361Y-77812222D01*
X139288590Y-78061419D01*
X139279008Y-78097178D01*
X139279006Y-78097189D01*
X139240500Y-78389660D01*
X139240500Y-78684687D01*
X139257095Y-78810730D01*
X139279007Y-78977167D01*
X139355361Y-79262125D01*
X139355364Y-79262135D01*
X139468254Y-79534674D01*
X139468258Y-79534684D01*
X139615761Y-79790167D01*
X139795352Y-80024214D01*
X139795358Y-80024221D01*
X139981130Y-80209993D01*
X140014615Y-80271316D01*
X140009631Y-80341008D01*
X139967759Y-80396941D01*
X139902295Y-80421358D01*
X139893449Y-80421674D01*
X133390499Y-80421674D01*
X133323460Y-80401989D01*
X133277705Y-80349185D01*
X133266499Y-80297674D01*
X133266499Y-80174303D01*
X133266498Y-80174297D01*
X133266497Y-80174290D01*
X133260091Y-80114691D01*
X133226345Y-80024214D01*
X133209797Y-79979845D01*
X133209793Y-79979838D01*
X133123547Y-79864629D01*
X133123544Y-79864626D01*
X133008335Y-79778380D01*
X133008328Y-79778376D01*
X132873482Y-79728082D01*
X132873483Y-79728082D01*
X132813883Y-79721675D01*
X132813881Y-79721674D01*
X132813873Y-79721674D01*
X132813865Y-79721674D01*
X132213096Y-79721674D01*
X132146057Y-79701989D01*
X132100302Y-79649185D01*
X132090358Y-79580027D01*
X132119383Y-79516471D01*
X132125415Y-79509993D01*
X135718819Y-75916589D01*
X135780142Y-75883104D01*
X135849834Y-75888088D01*
X135905767Y-75929960D01*
X135930184Y-75995424D01*
X135930500Y-76004270D01*
X135930500Y-76111915D01*
X135937273Y-76163355D01*
X135960452Y-76339412D01*
X135993847Y-76464046D01*
X136019842Y-76561061D01*
X136107650Y-76773050D01*
X136107657Y-76773064D01*
X136153891Y-76853144D01*
X136210923Y-76951927D01*
X136222392Y-76971791D01*
X136362081Y-77153835D01*
X136362089Y-77153844D01*
X136408238Y-77199993D01*
X136441723Y-77261316D01*
X136436739Y-77331008D01*
X136394867Y-77386941D01*
X136329403Y-77411358D01*
X136323967Y-77411552D01*
X136322423Y-77411673D01*
X136147443Y-77439388D01*
X135978960Y-77494130D01*
X135978957Y-77494131D01*
X135821109Y-77574560D01*
X135749175Y-77626824D01*
X135677786Y-77678691D01*
X135677784Y-77678693D01*
X135677783Y-77678693D01*
X135552519Y-77803957D01*
X135552519Y-77803958D01*
X135552517Y-77803960D01*
X135525129Y-77841656D01*
X135448386Y-77947283D01*
X135367957Y-78105131D01*
X135367956Y-78105134D01*
X135313214Y-78273617D01*
X135285500Y-78448595D01*
X135285500Y-78625752D01*
X135313214Y-78800730D01*
X135367956Y-78969213D01*
X135367957Y-78969216D01*
X135406182Y-79044235D01*
X135448386Y-79127064D01*
X135552517Y-79270388D01*
X135677786Y-79395657D01*
X135821110Y-79499788D01*
X135889577Y-79534674D01*
X135978957Y-79580216D01*
X135978960Y-79580217D01*
X136009735Y-79590216D01*
X136147445Y-79634960D01*
X136322421Y-79662674D01*
X136322422Y-79662674D01*
X136499578Y-79662674D01*
X136499579Y-79662674D01*
X136674555Y-79634960D01*
X136843042Y-79580216D01*
X137000890Y-79499788D01*
X137144214Y-79395657D01*
X137269483Y-79270388D01*
X137373614Y-79127064D01*
X137454042Y-78969216D01*
X137508786Y-78800729D01*
X137536500Y-78625753D01*
X137536500Y-78448595D01*
X137508786Y-78273619D01*
X137457289Y-78115125D01*
X137454043Y-78105134D01*
X137454042Y-78105131D01*
X137405878Y-78010605D01*
X137373614Y-77947284D01*
X137362517Y-77932011D01*
X137339038Y-77866206D01*
X137354863Y-77798152D01*
X137404968Y-77749457D01*
X137473446Y-77735581D01*
X137478977Y-77736182D01*
X137566266Y-77747674D01*
X137566273Y-77747674D01*
X137795727Y-77747674D01*
X137795734Y-77747674D01*
X138023238Y-77717722D01*
X138244887Y-77658332D01*
X138456888Y-77570518D01*
X138655612Y-77455785D01*
X138837661Y-77316093D01*
X138837665Y-77316088D01*
X138837670Y-77316085D01*
X138999911Y-77153844D01*
X138999914Y-77153839D01*
X138999919Y-77153835D01*
X139139611Y-76971786D01*
X139254344Y-76773062D01*
X139342158Y-76561061D01*
X139401548Y-76339412D01*
X139431500Y-76111908D01*
X139431500Y-75882440D01*
X139401548Y-75654936D01*
X139342158Y-75433287D01*
X139292190Y-75312654D01*
X139254349Y-75221297D01*
X139254346Y-75221291D01*
X139254344Y-75221286D01*
X139139611Y-75022562D01*
X139139608Y-75022559D01*
X139139607Y-75022556D01*
X139007592Y-74850513D01*
X138999919Y-74840513D01*
X138999918Y-74840512D01*
X138999911Y-74840504D01*
X138837670Y-74678263D01*
X138837661Y-74678255D01*
X138655617Y-74538566D01*
X138456890Y-74423831D01*
X138456876Y-74423824D01*
X138244887Y-74336016D01*
X138023238Y-74276626D01*
X137985215Y-74271620D01*
X137795741Y-74246674D01*
X137795734Y-74246674D01*
X137688096Y-74246674D01*
X137621057Y-74226989D01*
X137575302Y-74174185D01*
X137565358Y-74105027D01*
X137594383Y-74041471D01*
X137600415Y-74034993D01*
X138292976Y-73342432D01*
X142280500Y-73342432D01*
X142280500Y-73571915D01*
X142287273Y-73623355D01*
X142310452Y-73799412D01*
X142369842Y-74021061D01*
X142457650Y-74233050D01*
X142457657Y-74233064D01*
X142488581Y-74286626D01*
X142560923Y-74411927D01*
X142572392Y-74431791D01*
X142712081Y-74613835D01*
X142712089Y-74613844D01*
X142874330Y-74776085D01*
X142874338Y-74776092D01*
X143056382Y-74915781D01*
X143056385Y-74915782D01*
X143056388Y-74915785D01*
X143255112Y-75030518D01*
X143255117Y-75030520D01*
X143255123Y-75030523D01*
X143346480Y-75068364D01*
X143467113Y-75118332D01*
X143688762Y-75177722D01*
X143916266Y-75207674D01*
X143916273Y-75207674D01*
X144145727Y-75207674D01*
X144145734Y-75207674D01*
X144373238Y-75177722D01*
X144594887Y-75118332D01*
X144806888Y-75030518D01*
X145005612Y-74915785D01*
X145187661Y-74776093D01*
X145187665Y-74776088D01*
X145187670Y-74776085D01*
X145349911Y-74613844D01*
X145349914Y-74613839D01*
X145349919Y-74613835D01*
X145489611Y-74431786D01*
X145604344Y-74233062D01*
X145636164Y-74156241D01*
X145645285Y-74134222D01*
X145689125Y-74079818D01*
X145755420Y-74057753D01*
X145759846Y-74057674D01*
X150001561Y-74057674D01*
X150068600Y-74077359D01*
X150101879Y-74108789D01*
X150204028Y-74249386D01*
X150204032Y-74249391D01*
X150348786Y-74394145D01*
X150503749Y-74506730D01*
X150514390Y-74514461D01*
X150613894Y-74565161D01*
X150696776Y-74607392D01*
X150696778Y-74607392D01*
X150696781Y-74607394D01*
X150747409Y-74623844D01*
X150891465Y-74670651D01*
X150980053Y-74684682D01*
X151093648Y-74702674D01*
X151093649Y-74702674D01*
X151298351Y-74702674D01*
X151298352Y-74702674D01*
X151500534Y-74670651D01*
X151695219Y-74607394D01*
X151877610Y-74514461D01*
X151970590Y-74446906D01*
X152043213Y-74394145D01*
X152043215Y-74394142D01*
X152043219Y-74394140D01*
X152187966Y-74249393D01*
X152187968Y-74249389D01*
X152187971Y-74249387D01*
X152262965Y-74146165D01*
X152308287Y-74083784D01*
X152401220Y-73901393D01*
X152464477Y-73706708D01*
X152496500Y-73504526D01*
X152496500Y-73299822D01*
X152479517Y-73192597D01*
X152464477Y-73097639D01*
X152428363Y-72986492D01*
X152401220Y-72902955D01*
X152401218Y-72902952D01*
X152401218Y-72902950D01*
X152352185Y-72806719D01*
X152308287Y-72720564D01*
X152300556Y-72709923D01*
X152187971Y-72554960D01*
X152043213Y-72410202D01*
X151877613Y-72289889D01*
X151877612Y-72289888D01*
X151877610Y-72289887D01*
X151820653Y-72260865D01*
X151695223Y-72196955D01*
X151500534Y-72133696D01*
X151325995Y-72106052D01*
X151298352Y-72101674D01*
X151093648Y-72101674D01*
X151069329Y-72105525D01*
X150891465Y-72133696D01*
X150696776Y-72196955D01*
X150514386Y-72289889D01*
X150348786Y-72410202D01*
X150204028Y-72554960D01*
X150083715Y-72720559D01*
X150065755Y-72755809D01*
X150051297Y-72784185D01*
X150048859Y-72788969D01*
X150000884Y-72839765D01*
X149938374Y-72856674D01*
X145759846Y-72856674D01*
X145692807Y-72836989D01*
X145647052Y-72784185D01*
X145645285Y-72780126D01*
X145604349Y-72681297D01*
X145604346Y-72681291D01*
X145604344Y-72681286D01*
X145489611Y-72482562D01*
X145489608Y-72482559D01*
X145489607Y-72482556D01*
X145357592Y-72310513D01*
X145349919Y-72300513D01*
X145349918Y-72300512D01*
X145349911Y-72300504D01*
X145187670Y-72138263D01*
X145187661Y-72138255D01*
X145005617Y-71998566D01*
X144806890Y-71883831D01*
X144806876Y-71883824D01*
X144594887Y-71796016D01*
X144373238Y-71736626D01*
X144335215Y-71731620D01*
X144145741Y-71706674D01*
X144145734Y-71706674D01*
X143916266Y-71706674D01*
X143916258Y-71706674D01*
X143699715Y-71735183D01*
X143688762Y-71736626D01*
X143595076Y-71761728D01*
X143467112Y-71796016D01*
X143255123Y-71883824D01*
X143255109Y-71883831D01*
X143056382Y-71998566D01*
X142874338Y-72138255D01*
X142712081Y-72300512D01*
X142572392Y-72482556D01*
X142457657Y-72681283D01*
X142457650Y-72681297D01*
X142369842Y-72893286D01*
X142343798Y-72990485D01*
X142315087Y-73097640D01*
X142310453Y-73114933D01*
X142310451Y-73114944D01*
X142280500Y-73342432D01*
X138292976Y-73342432D01*
X138384708Y-73250700D01*
X145211901Y-66423508D01*
X152943590Y-58691819D01*
X153004913Y-58658334D01*
X153031271Y-58655500D01*
X153870501Y-58655500D01*
X153937540Y-58675185D01*
G37*
%TD.AperFunction*%
%TA.AperFunction,NonConductor*%
G36*
X192416220Y-79332305D02*
G01*
X192450578Y-79393144D01*
X192453800Y-79421229D01*
X192453800Y-80308770D01*
X192434115Y-80375809D01*
X192381311Y-80421564D01*
X192312153Y-80431508D01*
X192248597Y-80402483D01*
X192229482Y-80381656D01*
X192199949Y-80341008D01*
X192125164Y-80238075D01*
X191971925Y-80084836D01*
X191971921Y-80084833D01*
X191807423Y-79965318D01*
X191764757Y-79909988D01*
X191758778Y-79840375D01*
X191791384Y-79778580D01*
X191807423Y-79764682D01*
X191857798Y-79728082D01*
X191971925Y-79645164D01*
X192125164Y-79491925D01*
X192229482Y-79348344D01*
X192284812Y-79305678D01*
X192354425Y-79299699D01*
X192416220Y-79332305D01*
G37*
%TD.AperFunction*%
%TA.AperFunction,NonConductor*%
G36*
X189832703Y-79209567D02*
G01*
X189861985Y-79246986D01*
X189897453Y-79316598D01*
X189908865Y-79332305D01*
X190024836Y-79491925D01*
X190178075Y-79645164D01*
X190238946Y-79689389D01*
X190342577Y-79764682D01*
X190385242Y-79820012D01*
X190391221Y-79889626D01*
X190358615Y-79951421D01*
X190342577Y-79965318D01*
X190294524Y-80000231D01*
X190178075Y-80084836D01*
X190178073Y-80084838D01*
X190178072Y-80084838D01*
X190024838Y-80238072D01*
X189897455Y-80413399D01*
X189861985Y-80483014D01*
X189814010Y-80533810D01*
X189746189Y-80550605D01*
X189680055Y-80528068D01*
X189636603Y-80473353D01*
X189627500Y-80426719D01*
X189627500Y-79303280D01*
X189647185Y-79236241D01*
X189699989Y-79190486D01*
X189769147Y-79180542D01*
X189832703Y-79209567D01*
G37*
%TD.AperFunction*%
%TA.AperFunction,NonConductor*%
G36*
X192416220Y-81872305D02*
G01*
X192450578Y-81933144D01*
X192453800Y-81961229D01*
X192453800Y-82848770D01*
X192434115Y-82915809D01*
X192381311Y-82961564D01*
X192312153Y-82971508D01*
X192248597Y-82942483D01*
X192229482Y-82921656D01*
X192210074Y-82894943D01*
X192125164Y-82778075D01*
X191971925Y-82624836D01*
X191942826Y-82603694D01*
X191807423Y-82505318D01*
X191764757Y-82449988D01*
X191758778Y-82380375D01*
X191791384Y-82318580D01*
X191807423Y-82304682D01*
X191860709Y-82265967D01*
X191971925Y-82185164D01*
X192125164Y-82031925D01*
X192229482Y-81888344D01*
X192284812Y-81845678D01*
X192354425Y-81839699D01*
X192416220Y-81872305D01*
G37*
%TD.AperFunction*%
%TA.AperFunction,NonConductor*%
G36*
X189832703Y-81749567D02*
G01*
X189861985Y-81786986D01*
X189897453Y-81856598D01*
X189907227Y-81870050D01*
X190024836Y-82031925D01*
X190178075Y-82185164D01*
X190289291Y-82265967D01*
X190342577Y-82304682D01*
X190385242Y-82360012D01*
X190391221Y-82429626D01*
X190358615Y-82491421D01*
X190342577Y-82505318D01*
X190302613Y-82534354D01*
X190178075Y-82624836D01*
X190178073Y-82624838D01*
X190178072Y-82624838D01*
X190024838Y-82778072D01*
X189897455Y-82953399D01*
X189861985Y-83023014D01*
X189814010Y-83073810D01*
X189746189Y-83090605D01*
X189680055Y-83068068D01*
X189636603Y-83013353D01*
X189627500Y-82966719D01*
X189627500Y-81843280D01*
X189647185Y-81776241D01*
X189699989Y-81730486D01*
X189769147Y-81720542D01*
X189832703Y-81749567D01*
G37*
%TD.AperFunction*%
%TA.AperFunction,NonConductor*%
G36*
X189774942Y-84263188D02*
G01*
X189781308Y-84262916D01*
X189806337Y-84277526D01*
X189832703Y-84289567D01*
X189837528Y-84295732D01*
X189841650Y-84298139D01*
X189861985Y-84326986D01*
X189897453Y-84396598D01*
X189961145Y-84484262D01*
X190024836Y-84571925D01*
X190178075Y-84725164D01*
X190291870Y-84807841D01*
X190342577Y-84844682D01*
X190385242Y-84900012D01*
X190391221Y-84969626D01*
X190358615Y-85031421D01*
X190342577Y-85045318D01*
X190276675Y-85093198D01*
X190178075Y-85164836D01*
X190178073Y-85164838D01*
X190178072Y-85164838D01*
X190024838Y-85318072D01*
X189897455Y-85493399D01*
X189861985Y-85563014D01*
X189814010Y-85613810D01*
X189746189Y-85630605D01*
X189680055Y-85608068D01*
X189636603Y-85553353D01*
X189627500Y-85506719D01*
X189627500Y-84383280D01*
X189629294Y-84377166D01*
X189628119Y-84370905D01*
X189639019Y-84344047D01*
X189647185Y-84316241D01*
X189651999Y-84312069D01*
X189654396Y-84306165D01*
X189678088Y-84289462D01*
X189699989Y-84270486D01*
X189706293Y-84269579D01*
X189711502Y-84265908D01*
X189740459Y-84264666D01*
X189769147Y-84260542D01*
X189774942Y-84263188D01*
G37*
%TD.AperFunction*%
%TA.AperFunction,NonConductor*%
G36*
X174377534Y-83544214D02*
G01*
X174433467Y-83586086D01*
X174457884Y-83651550D01*
X174458200Y-83660396D01*
X174458200Y-83783355D01*
X174492102Y-83997404D01*
X174510619Y-84054395D01*
X174512614Y-84124237D01*
X174480369Y-84180393D01*
X171969181Y-86691582D01*
X171907858Y-86725067D01*
X171838166Y-86720083D01*
X171782233Y-86678211D01*
X171757816Y-86612747D01*
X171757500Y-86603901D01*
X171757500Y-86113096D01*
X171777185Y-86046057D01*
X171793814Y-86025420D01*
X174246519Y-83572714D01*
X174307842Y-83539230D01*
X174377534Y-83544214D01*
G37*
%TD.AperFunction*%
%TA.AperFunction,NonConductor*%
G36*
X177373835Y-88167916D02*
G01*
X177429768Y-88209788D01*
X177454184Y-88275252D01*
X177454500Y-88284097D01*
X177454500Y-88603425D01*
X177434815Y-88670464D01*
X177382011Y-88716219D01*
X177312853Y-88726163D01*
X177249297Y-88697138D01*
X177211523Y-88638360D01*
X177208027Y-88622823D01*
X177177898Y-88432602D01*
X177177898Y-88432601D01*
X177177898Y-88432599D01*
X177159378Y-88375603D01*
X177157384Y-88305763D01*
X177189628Y-88249606D01*
X177242820Y-88196415D01*
X177304143Y-88162931D01*
X177373835Y-88167916D01*
G37*
%TD.AperFunction*%
%TA.AperFunction,NonConductor*%
G36*
X174377534Y-81004214D02*
G01*
X174433467Y-81046086D01*
X174457884Y-81111550D01*
X174458200Y-81120396D01*
X174458200Y-81243355D01*
X174492101Y-81457401D01*
X174510620Y-81514394D01*
X174512615Y-81584235D01*
X174480370Y-81640393D01*
X170788286Y-85332478D01*
X170676481Y-85444282D01*
X170676480Y-85444284D01*
X170640434Y-85506719D01*
X170626361Y-85531094D01*
X170626359Y-85531096D01*
X170597425Y-85581209D01*
X170597424Y-85581210D01*
X170588689Y-85613810D01*
X170556499Y-85733943D01*
X170556499Y-85733945D01*
X170556499Y-85902046D01*
X170556500Y-85902059D01*
X170556500Y-91366698D01*
X170536815Y-91433737D01*
X170484011Y-91479492D01*
X170414853Y-91489436D01*
X170394183Y-91484629D01*
X170360542Y-91473698D01*
X170360535Y-91473697D01*
X170259443Y-91457685D01*
X170158352Y-91441674D01*
X169953648Y-91441674D01*
X169929329Y-91445525D01*
X169751465Y-91473696D01*
X169556776Y-91536955D01*
X169374386Y-91629889D01*
X169208786Y-91750202D01*
X169064030Y-91894958D01*
X168976412Y-92015558D01*
X168921082Y-92058225D01*
X168876093Y-92066674D01*
X164824846Y-92066674D01*
X164757807Y-92046989D01*
X164712052Y-91994185D01*
X164710285Y-91990126D01*
X164669349Y-91891297D01*
X164669346Y-91891291D01*
X164669344Y-91891286D01*
X164554611Y-91692562D01*
X164554608Y-91692559D01*
X164554607Y-91692556D01*
X164414918Y-91510512D01*
X164414911Y-91510504D01*
X164252670Y-91348263D01*
X164252661Y-91348255D01*
X164070617Y-91208566D01*
X164053296Y-91198566D01*
X163871888Y-91093830D01*
X163871876Y-91093824D01*
X163659887Y-91006016D01*
X163622566Y-90996016D01*
X163438238Y-90946626D01*
X163400215Y-90941620D01*
X163210741Y-90916674D01*
X163210734Y-90916674D01*
X162981266Y-90916674D01*
X162981258Y-90916674D01*
X162764715Y-90945183D01*
X162753762Y-90946626D01*
X162660076Y-90971728D01*
X162532112Y-91006016D01*
X162320123Y-91093824D01*
X162320109Y-91093831D01*
X162121382Y-91208566D01*
X161939338Y-91348255D01*
X161777081Y-91510512D01*
X161637392Y-91692556D01*
X161522657Y-91891283D01*
X161522650Y-91891297D01*
X161438984Y-92093287D01*
X161434842Y-92103287D01*
X161378132Y-92314936D01*
X161375453Y-92324933D01*
X161375451Y-92324944D01*
X161345500Y-92552432D01*
X161345500Y-92781915D01*
X161370446Y-92971389D01*
X161375452Y-93009412D01*
X161432163Y-93221061D01*
X161434842Y-93231061D01*
X161522650Y-93443050D01*
X161522657Y-93443064D01*
X161561273Y-93509949D01*
X161631618Y-93631791D01*
X161637392Y-93641791D01*
X161777081Y-93823835D01*
X161777089Y-93823844D01*
X161939330Y-93986085D01*
X161939338Y-93986092D01*
X161939339Y-93986093D01*
X161989962Y-94024938D01*
X162121382Y-94125781D01*
X162121385Y-94125782D01*
X162121388Y-94125785D01*
X162320112Y-94240518D01*
X162320117Y-94240520D01*
X162320123Y-94240523D01*
X162411480Y-94278364D01*
X162532113Y-94328332D01*
X162753762Y-94387722D01*
X162981266Y-94417674D01*
X162981273Y-94417674D01*
X163210727Y-94417674D01*
X163210734Y-94417674D01*
X163438238Y-94387722D01*
X163659887Y-94328332D01*
X163871888Y-94240518D01*
X164070612Y-94125785D01*
X164252661Y-93986093D01*
X164252665Y-93986088D01*
X164252670Y-93986085D01*
X164414911Y-93823844D01*
X164414914Y-93823839D01*
X164414919Y-93823835D01*
X164554611Y-93641786D01*
X164669344Y-93443062D01*
X164710285Y-93344222D01*
X164754125Y-93289818D01*
X164820420Y-93267753D01*
X164824846Y-93267674D01*
X168788183Y-93267674D01*
X168855222Y-93287359D01*
X168898668Y-93335379D01*
X168943715Y-93423787D01*
X169064028Y-93589387D01*
X169208786Y-93734145D01*
X169332249Y-93823844D01*
X169374390Y-93854461D01*
X169490607Y-93913677D01*
X169556776Y-93947392D01*
X169556778Y-93947392D01*
X169556781Y-93947394D01*
X169661137Y-93981301D01*
X169751465Y-94010651D01*
X169852557Y-94026662D01*
X169953648Y-94042674D01*
X169953649Y-94042674D01*
X170158351Y-94042674D01*
X170158352Y-94042674D01*
X170360534Y-94010651D01*
X170360539Y-94010649D01*
X170360541Y-94010649D01*
X170394180Y-93999719D01*
X170464021Y-93997722D01*
X170523854Y-94033802D01*
X170554684Y-94096502D01*
X170556500Y-94117649D01*
X170556500Y-98937674D01*
X170536815Y-99004713D01*
X170484011Y-99050468D01*
X170432500Y-99061674D01*
X169208129Y-99061674D01*
X169208123Y-99061675D01*
X169148516Y-99068082D01*
X169013671Y-99118376D01*
X169013664Y-99118380D01*
X168898455Y-99204626D01*
X168898452Y-99204629D01*
X168812206Y-99319838D01*
X168812202Y-99319845D01*
X168761908Y-99454691D01*
X168755501Y-99514290D01*
X168755501Y-99514297D01*
X168755500Y-99514309D01*
X168755500Y-99637674D01*
X168735815Y-99704713D01*
X168683011Y-99750468D01*
X168631500Y-99761674D01*
X161992796Y-99761674D01*
X161925757Y-99741989D01*
X161880002Y-99689185D01*
X161870058Y-99620027D01*
X161899083Y-99556471D01*
X161917310Y-99539298D01*
X162027571Y-99454691D01*
X162043042Y-99442820D01*
X162251646Y-99234216D01*
X162431238Y-99000168D01*
X162578743Y-98744681D01*
X162691639Y-98472126D01*
X162767993Y-98187167D01*
X162806500Y-97894680D01*
X162806500Y-97658595D01*
X164510500Y-97658595D01*
X164510500Y-97835752D01*
X164538214Y-98010730D01*
X164592956Y-98179213D01*
X164592957Y-98179216D01*
X164631172Y-98254215D01*
X164673386Y-98337064D01*
X164777517Y-98480388D01*
X164902786Y-98605657D01*
X165046110Y-98709788D01*
X165094965Y-98734681D01*
X165203957Y-98790216D01*
X165203960Y-98790217D01*
X165288201Y-98817588D01*
X165372445Y-98844960D01*
X165547421Y-98872674D01*
X165547422Y-98872674D01*
X165724578Y-98872674D01*
X165724579Y-98872674D01*
X165899555Y-98844960D01*
X166068042Y-98790216D01*
X166225890Y-98709788D01*
X166369214Y-98605657D01*
X166494483Y-98480388D01*
X166598614Y-98337064D01*
X166679042Y-98179216D01*
X166733786Y-98010729D01*
X166761500Y-97835753D01*
X166761500Y-97658595D01*
X166733786Y-97483619D01*
X166687472Y-97341078D01*
X166679043Y-97315134D01*
X166679042Y-97315131D01*
X166598613Y-97157283D01*
X166494483Y-97013960D01*
X166369214Y-96888691D01*
X166225890Y-96784560D01*
X166198341Y-96770523D01*
X166068042Y-96704131D01*
X166068039Y-96704130D01*
X165899556Y-96649388D01*
X165759367Y-96627184D01*
X165724579Y-96621674D01*
X165547421Y-96621674D01*
X165512633Y-96627184D01*
X165372443Y-96649388D01*
X165203960Y-96704130D01*
X165203957Y-96704131D01*
X165046109Y-96784560D01*
X165002031Y-96816585D01*
X164902786Y-96888691D01*
X164902784Y-96888693D01*
X164902783Y-96888693D01*
X164777519Y-97013957D01*
X164777519Y-97013958D01*
X164777517Y-97013960D01*
X164739558Y-97066206D01*
X164673386Y-97157283D01*
X164592957Y-97315131D01*
X164592956Y-97315134D01*
X164538214Y-97483617D01*
X164510500Y-97658595D01*
X162806500Y-97658595D01*
X162806500Y-97599668D01*
X162767993Y-97307181D01*
X162691639Y-97022222D01*
X162578743Y-96749667D01*
X162572967Y-96739663D01*
X162431238Y-96494180D01*
X162251647Y-96260133D01*
X162251641Y-96260126D01*
X162043047Y-96051532D01*
X162043040Y-96051526D01*
X161808993Y-95871935D01*
X161553510Y-95724432D01*
X161553500Y-95724428D01*
X161280961Y-95611538D01*
X161280954Y-95611536D01*
X161280952Y-95611535D01*
X160995993Y-95535181D01*
X160947113Y-95528745D01*
X160703513Y-95496674D01*
X160703506Y-95496674D01*
X160408494Y-95496674D01*
X160408486Y-95496674D01*
X160130085Y-95533327D01*
X160116007Y-95535181D01*
X159868369Y-95601535D01*
X159831048Y-95611535D01*
X159831038Y-95611538D01*
X159558499Y-95724428D01*
X159558489Y-95724432D01*
X159303006Y-95871935D01*
X159068959Y-96051526D01*
X159068952Y-96051532D01*
X158860358Y-96260126D01*
X158860352Y-96260133D01*
X158680761Y-96494180D01*
X158533258Y-96749663D01*
X158533254Y-96749673D01*
X158420364Y-97022212D01*
X158420361Y-97022222D01*
X158344556Y-97305134D01*
X158344008Y-97307178D01*
X158344006Y-97307189D01*
X158305500Y-97599660D01*
X158305500Y-97894687D01*
X158325003Y-98042820D01*
X158344007Y-98187167D01*
X158419896Y-98470389D01*
X158420361Y-98472125D01*
X158420364Y-98472135D01*
X158533254Y-98744674D01*
X158533258Y-98744684D01*
X158680761Y-99000167D01*
X158860352Y-99234214D01*
X158860358Y-99234221D01*
X159068952Y-99442815D01*
X159068959Y-99442821D01*
X159194690Y-99539298D01*
X159235893Y-99595726D01*
X159240048Y-99665472D01*
X159205836Y-99726392D01*
X159144118Y-99759145D01*
X159119204Y-99761674D01*
X152450499Y-99761674D01*
X152383460Y-99741989D01*
X152337705Y-99689185D01*
X152326499Y-99637674D01*
X152326499Y-99514303D01*
X152326498Y-99514297D01*
X152326497Y-99514290D01*
X152320091Y-99454691D01*
X152315663Y-99442820D01*
X152269797Y-99319845D01*
X152269793Y-99319838D01*
X152183547Y-99204629D01*
X152183544Y-99204626D01*
X152068335Y-99118380D01*
X152068328Y-99118376D01*
X151933482Y-99068082D01*
X151933483Y-99068082D01*
X151873883Y-99061675D01*
X151873881Y-99061674D01*
X151873873Y-99061674D01*
X151873864Y-99061674D01*
X150178129Y-99061674D01*
X150178123Y-99061675D01*
X150118516Y-99068082D01*
X149983671Y-99118376D01*
X149983664Y-99118380D01*
X149868455Y-99204626D01*
X149868452Y-99204629D01*
X149782206Y-99319838D01*
X149782202Y-99319845D01*
X149731908Y-99454691D01*
X149725501Y-99514290D01*
X149725501Y-99514297D01*
X149725500Y-99514309D01*
X149725500Y-99637674D01*
X149705815Y-99704713D01*
X149653011Y-99750468D01*
X149601500Y-99761674D01*
X142964764Y-99761674D01*
X142897725Y-99741989D01*
X142851970Y-99689185D01*
X142842026Y-99620027D01*
X142871051Y-99556471D01*
X142889278Y-99539298D01*
X142999539Y-99454691D01*
X143028042Y-99432820D01*
X143236646Y-99224216D01*
X143416238Y-98990168D01*
X143563743Y-98734681D01*
X143676639Y-98462126D01*
X143752993Y-98177167D01*
X143791500Y-97884680D01*
X143791500Y-97648595D01*
X145495500Y-97648595D01*
X145495500Y-97825752D01*
X145523214Y-98000730D01*
X145577956Y-98169213D01*
X145577957Y-98169216D01*
X145621267Y-98254215D01*
X145658386Y-98327064D01*
X145762517Y-98470388D01*
X145887786Y-98595657D01*
X146031110Y-98699788D01*
X146061919Y-98715486D01*
X146188957Y-98780216D01*
X146188960Y-98780217D01*
X146219735Y-98790216D01*
X146357445Y-98834960D01*
X146532421Y-98862674D01*
X146532422Y-98862674D01*
X146709578Y-98862674D01*
X146709579Y-98862674D01*
X146884555Y-98834960D01*
X147053042Y-98780216D01*
X147210890Y-98699788D01*
X147354214Y-98595657D01*
X147479483Y-98470388D01*
X147583614Y-98327064D01*
X147664042Y-98169216D01*
X147718786Y-98000729D01*
X147746500Y-97825753D01*
X147746500Y-97658595D01*
X154350500Y-97658595D01*
X154350500Y-97835752D01*
X154378214Y-98010730D01*
X154432956Y-98179213D01*
X154432957Y-98179216D01*
X154471172Y-98254215D01*
X154513386Y-98337064D01*
X154617517Y-98480388D01*
X154742786Y-98605657D01*
X154886110Y-98709788D01*
X154934965Y-98734681D01*
X155043957Y-98790216D01*
X155043960Y-98790217D01*
X155128201Y-98817588D01*
X155212445Y-98844960D01*
X155387421Y-98872674D01*
X155387422Y-98872674D01*
X155564578Y-98872674D01*
X155564579Y-98872674D01*
X155739555Y-98844960D01*
X155908042Y-98790216D01*
X156065890Y-98709788D01*
X156209214Y-98605657D01*
X156334483Y-98480388D01*
X156438614Y-98337064D01*
X156519042Y-98179216D01*
X156573786Y-98010729D01*
X156601500Y-97835753D01*
X156601500Y-97658595D01*
X156573786Y-97483619D01*
X156527472Y-97341078D01*
X156519043Y-97315134D01*
X156519042Y-97315131D01*
X156438613Y-97157283D01*
X156431348Y-97147284D01*
X156427517Y-97142011D01*
X156404038Y-97076206D01*
X156419863Y-97008152D01*
X156469968Y-96959457D01*
X156538446Y-96945581D01*
X156543977Y-96946182D01*
X156631266Y-96957674D01*
X156631273Y-96957674D01*
X156860727Y-96957674D01*
X156860734Y-96957674D01*
X157088238Y-96927722D01*
X157309887Y-96868332D01*
X157521888Y-96780518D01*
X157720612Y-96665785D01*
X157902661Y-96526093D01*
X157902665Y-96526088D01*
X157902670Y-96526085D01*
X158064911Y-96363844D01*
X158064914Y-96363839D01*
X158064919Y-96363835D01*
X158204611Y-96181786D01*
X158319344Y-95983062D01*
X158407158Y-95771061D01*
X158466548Y-95549412D01*
X158496500Y-95321908D01*
X158496500Y-95092440D01*
X158466548Y-94864936D01*
X158407158Y-94643287D01*
X158319344Y-94431286D01*
X158204611Y-94232562D01*
X158204608Y-94232559D01*
X158204607Y-94232556D01*
X158064918Y-94050512D01*
X158064911Y-94050504D01*
X157902670Y-93888263D01*
X157902661Y-93888255D01*
X157720617Y-93748566D01*
X157703296Y-93738566D01*
X157535668Y-93641786D01*
X157521890Y-93633831D01*
X157521876Y-93633824D01*
X157309887Y-93546016D01*
X157272566Y-93536016D01*
X157088238Y-93486626D01*
X157050215Y-93481620D01*
X156860741Y-93456674D01*
X156860734Y-93456674D01*
X156631266Y-93456674D01*
X156631258Y-93456674D01*
X156414715Y-93485183D01*
X156403762Y-93486626D01*
X156349363Y-93501202D01*
X156182112Y-93546016D01*
X155970123Y-93633824D01*
X155970109Y-93633831D01*
X155771382Y-93748566D01*
X155589338Y-93888255D01*
X155427081Y-94050512D01*
X155287392Y-94232556D01*
X155172657Y-94431283D01*
X155172650Y-94431297D01*
X155088984Y-94633287D01*
X155084842Y-94643287D01*
X155028132Y-94854936D01*
X155025453Y-94864933D01*
X155025451Y-94864944D01*
X154995500Y-95092432D01*
X154995500Y-95321915D01*
X155017192Y-95486674D01*
X155025452Y-95549412D01*
X155072347Y-95724428D01*
X155084842Y-95771061D01*
X155172650Y-95983050D01*
X155172657Y-95983064D01*
X155208695Y-96045484D01*
X155286328Y-96179949D01*
X155287392Y-96181791D01*
X155427081Y-96363835D01*
X155427089Y-96363844D01*
X155473238Y-96409993D01*
X155506723Y-96471316D01*
X155501739Y-96541008D01*
X155459867Y-96596941D01*
X155394403Y-96621358D01*
X155388967Y-96621552D01*
X155387423Y-96621673D01*
X155212443Y-96649388D01*
X155043960Y-96704130D01*
X155043957Y-96704131D01*
X154886109Y-96784560D01*
X154842031Y-96816585D01*
X154742786Y-96888691D01*
X154742784Y-96888693D01*
X154742783Y-96888693D01*
X154617519Y-97013957D01*
X154617519Y-97013958D01*
X154617517Y-97013960D01*
X154579558Y-97066206D01*
X154513386Y-97157283D01*
X154432957Y-97315131D01*
X154432956Y-97315134D01*
X154378214Y-97483617D01*
X154350500Y-97658595D01*
X147746500Y-97658595D01*
X147746500Y-97648595D01*
X147718786Y-97473619D01*
X147675725Y-97341089D01*
X147664043Y-97305134D01*
X147664042Y-97305131D01*
X147588709Y-97157284D01*
X147583614Y-97147284D01*
X147479483Y-97003960D01*
X147354214Y-96878691D01*
X147210890Y-96774560D01*
X147162047Y-96749673D01*
X147053042Y-96694131D01*
X147053039Y-96694130D01*
X146884556Y-96639388D01*
X146770720Y-96621358D01*
X146709579Y-96611674D01*
X146532421Y-96611674D01*
X146474095Y-96620912D01*
X146357443Y-96639388D01*
X146188960Y-96694130D01*
X146188957Y-96694131D01*
X146031109Y-96774560D01*
X145973263Y-96816588D01*
X145887786Y-96878691D01*
X145887784Y-96878693D01*
X145887783Y-96878693D01*
X145762519Y-97003957D01*
X145762519Y-97003958D01*
X145762517Y-97003960D01*
X145749249Y-97022222D01*
X145658386Y-97147283D01*
X145577957Y-97305131D01*
X145577956Y-97305134D01*
X145523214Y-97473617D01*
X145495500Y-97648595D01*
X143791500Y-97648595D01*
X143791500Y-97589668D01*
X143752993Y-97297181D01*
X143676639Y-97012222D01*
X143563743Y-96739667D01*
X143543226Y-96704131D01*
X143416238Y-96484180D01*
X143236647Y-96250133D01*
X143236641Y-96250126D01*
X143028047Y-96041532D01*
X143028040Y-96041526D01*
X142793993Y-95861935D01*
X142538510Y-95714432D01*
X142538500Y-95714428D01*
X142265961Y-95601538D01*
X142265954Y-95601536D01*
X142265952Y-95601535D01*
X141980993Y-95525181D01*
X141932113Y-95518745D01*
X141688513Y-95486674D01*
X141688506Y-95486674D01*
X141393494Y-95486674D01*
X141393486Y-95486674D01*
X141115085Y-95523327D01*
X141101007Y-95525181D01*
X141010568Y-95549414D01*
X140816048Y-95601535D01*
X140816038Y-95601538D01*
X140543499Y-95714428D01*
X140543489Y-95714432D01*
X140288006Y-95861935D01*
X140053959Y-96041526D01*
X140053952Y-96041532D01*
X139845358Y-96250126D01*
X139845352Y-96250133D01*
X139665761Y-96484180D01*
X139518258Y-96739663D01*
X139518254Y-96739673D01*
X139405364Y-97012212D01*
X139405361Y-97012222D01*
X139330675Y-97290958D01*
X139329008Y-97297178D01*
X139329006Y-97297189D01*
X139290500Y-97589660D01*
X139290500Y-97884687D01*
X139316845Y-98084786D01*
X139329007Y-98177167D01*
X139399488Y-98440207D01*
X139405361Y-98462125D01*
X139405364Y-98462135D01*
X139518254Y-98734674D01*
X139518258Y-98734684D01*
X139665761Y-98990167D01*
X139845352Y-99224214D01*
X139845358Y-99224221D01*
X140053952Y-99432815D01*
X140053959Y-99432821D01*
X140192722Y-99539298D01*
X140233925Y-99595726D01*
X140238080Y-99665472D01*
X140203868Y-99726392D01*
X140142150Y-99759145D01*
X140117236Y-99761674D01*
X133350499Y-99761674D01*
X133283460Y-99741989D01*
X133237705Y-99689185D01*
X133226499Y-99637674D01*
X133226499Y-99514303D01*
X133226498Y-99514297D01*
X133226497Y-99514290D01*
X133220091Y-99454691D01*
X133215663Y-99442820D01*
X133169797Y-99319845D01*
X133169793Y-99319838D01*
X133083547Y-99204629D01*
X133083544Y-99204626D01*
X132968335Y-99118380D01*
X132968328Y-99118376D01*
X132833482Y-99068082D01*
X132833483Y-99068082D01*
X132773883Y-99061675D01*
X132773881Y-99061674D01*
X132773873Y-99061674D01*
X132773865Y-99061674D01*
X132173096Y-99061674D01*
X132106057Y-99041989D01*
X132060302Y-98989185D01*
X132050358Y-98920027D01*
X132079383Y-98856471D01*
X132085415Y-98849993D01*
X132731314Y-98204094D01*
X133286813Y-97648595D01*
X135335500Y-97648595D01*
X135335500Y-97825752D01*
X135363214Y-98000730D01*
X135417956Y-98169213D01*
X135417957Y-98169216D01*
X135461267Y-98254215D01*
X135498386Y-98327064D01*
X135602517Y-98470388D01*
X135727786Y-98595657D01*
X135871110Y-98699788D01*
X135901919Y-98715486D01*
X136028957Y-98780216D01*
X136028960Y-98780217D01*
X136059735Y-98790216D01*
X136197445Y-98834960D01*
X136372421Y-98862674D01*
X136372422Y-98862674D01*
X136549578Y-98862674D01*
X136549579Y-98862674D01*
X136724555Y-98834960D01*
X136893042Y-98780216D01*
X137050890Y-98699788D01*
X137194214Y-98595657D01*
X137319483Y-98470388D01*
X137423614Y-98327064D01*
X137504042Y-98169216D01*
X137558786Y-98000729D01*
X137586500Y-97825753D01*
X137586500Y-97648595D01*
X137558786Y-97473619D01*
X137515725Y-97341089D01*
X137504043Y-97305134D01*
X137504042Y-97305131D01*
X137428709Y-97157284D01*
X137423614Y-97147284D01*
X137412517Y-97132011D01*
X137389038Y-97066206D01*
X137404863Y-96998152D01*
X137454968Y-96949457D01*
X137523446Y-96935581D01*
X137528977Y-96936182D01*
X137616266Y-96947674D01*
X137616273Y-96947674D01*
X137845727Y-96947674D01*
X137845734Y-96947674D01*
X138073238Y-96917722D01*
X138294887Y-96858332D01*
X138506888Y-96770518D01*
X138705612Y-96655785D01*
X138887661Y-96516093D01*
X138887665Y-96516088D01*
X138887670Y-96516085D01*
X139049911Y-96353844D01*
X139049914Y-96353839D01*
X139049919Y-96353835D01*
X139189611Y-96171786D01*
X139304344Y-95973062D01*
X139392158Y-95761061D01*
X139451548Y-95539412D01*
X139481500Y-95311908D01*
X139481500Y-95082440D01*
X139451548Y-94854936D01*
X139392158Y-94633287D01*
X139308491Y-94431297D01*
X139304349Y-94421297D01*
X139304346Y-94421291D01*
X139304344Y-94421286D01*
X139189611Y-94222562D01*
X139189608Y-94222559D01*
X139189607Y-94222556D01*
X139057592Y-94050513D01*
X139049919Y-94040513D01*
X139049918Y-94040512D01*
X139049911Y-94040504D01*
X138887670Y-93878263D01*
X138887661Y-93878255D01*
X138705617Y-93738566D01*
X138506890Y-93623831D01*
X138506876Y-93623824D01*
X138294887Y-93536016D01*
X138073238Y-93476626D01*
X138035215Y-93471620D01*
X137845741Y-93446674D01*
X137845734Y-93446674D01*
X137616266Y-93446674D01*
X137616258Y-93446674D01*
X137399715Y-93475183D01*
X137388762Y-93476626D01*
X137339726Y-93489765D01*
X137167112Y-93536016D01*
X136955123Y-93623824D01*
X136955109Y-93623831D01*
X136756382Y-93738566D01*
X136574338Y-93878255D01*
X136412081Y-94040512D01*
X136272392Y-94222556D01*
X136157657Y-94421283D01*
X136157650Y-94421297D01*
X136069842Y-94633286D01*
X136010453Y-94854933D01*
X136010451Y-94854944D01*
X135980500Y-95082432D01*
X135980500Y-95311915D01*
X135988519Y-95372820D01*
X136010452Y-95539412D01*
X136057347Y-95714428D01*
X136069842Y-95761061D01*
X136157650Y-95973050D01*
X136157657Y-95973064D01*
X136272392Y-96171791D01*
X136412081Y-96353835D01*
X136412089Y-96353844D01*
X136458238Y-96399993D01*
X136491723Y-96461316D01*
X136486739Y-96531008D01*
X136444867Y-96586941D01*
X136379403Y-96611358D01*
X136373967Y-96611552D01*
X136372423Y-96611673D01*
X136197443Y-96639388D01*
X136028960Y-96694130D01*
X136028957Y-96694131D01*
X135871109Y-96774560D01*
X135813263Y-96816588D01*
X135727786Y-96878691D01*
X135727784Y-96878693D01*
X135727783Y-96878693D01*
X135602519Y-97003957D01*
X135602519Y-97003958D01*
X135602517Y-97003960D01*
X135589249Y-97022222D01*
X135498386Y-97147283D01*
X135417957Y-97305131D01*
X135417956Y-97305134D01*
X135363214Y-97473617D01*
X135335500Y-97648595D01*
X133286813Y-97648595D01*
X133395713Y-97539695D01*
X133395716Y-97539694D01*
X133507520Y-97427890D01*
X133557639Y-97341078D01*
X133586577Y-97290959D01*
X133627500Y-97138232D01*
X133627500Y-96980117D01*
X133627500Y-92542432D01*
X142330500Y-92542432D01*
X142330500Y-92771915D01*
X142355446Y-92961389D01*
X142360452Y-92999412D01*
X142363132Y-93009414D01*
X142419842Y-93221061D01*
X142507650Y-93433050D01*
X142507657Y-93433064D01*
X142546998Y-93501204D01*
X142597913Y-93589393D01*
X142622392Y-93631791D01*
X142762081Y-93813835D01*
X142762089Y-93813844D01*
X142924330Y-93976085D01*
X142924338Y-93976092D01*
X143106382Y-94115781D01*
X143106385Y-94115782D01*
X143106388Y-94115785D01*
X143305112Y-94230518D01*
X143305117Y-94230520D01*
X143305123Y-94230523D01*
X143396480Y-94268364D01*
X143517113Y-94318332D01*
X143738762Y-94377722D01*
X143966266Y-94407674D01*
X143966273Y-94407674D01*
X144195727Y-94407674D01*
X144195734Y-94407674D01*
X144423238Y-94377722D01*
X144644887Y-94318332D01*
X144856888Y-94230518D01*
X145055612Y-94115785D01*
X145237661Y-93976093D01*
X145237665Y-93976088D01*
X145237670Y-93976085D01*
X145399911Y-93813844D01*
X145399914Y-93813839D01*
X145399919Y-93813835D01*
X145539611Y-93631786D01*
X145654344Y-93433062D01*
X145695285Y-93334222D01*
X145739125Y-93279818D01*
X145805420Y-93257753D01*
X145809846Y-93257674D01*
X149753088Y-93257674D01*
X149820127Y-93277359D01*
X149863573Y-93325379D01*
X149913715Y-93423787D01*
X150034028Y-93589387D01*
X150178786Y-93734145D01*
X150302249Y-93823844D01*
X150344390Y-93854461D01*
X150460607Y-93913677D01*
X150526776Y-93947392D01*
X150526778Y-93947392D01*
X150526781Y-93947394D01*
X150631137Y-93981301D01*
X150721465Y-94010651D01*
X150822557Y-94026662D01*
X150923648Y-94042674D01*
X150923649Y-94042674D01*
X151128351Y-94042674D01*
X151128352Y-94042674D01*
X151330534Y-94010651D01*
X151525219Y-93947394D01*
X151707610Y-93854461D01*
X151800590Y-93786906D01*
X151873213Y-93734145D01*
X151873215Y-93734142D01*
X151873219Y-93734140D01*
X152017966Y-93589393D01*
X152017968Y-93589389D01*
X152017971Y-93589387D01*
X152082037Y-93501206D01*
X152138287Y-93423784D01*
X152231220Y-93241393D01*
X152294477Y-93046708D01*
X152326500Y-92844526D01*
X152326500Y-92639822D01*
X152294477Y-92437640D01*
X152231220Y-92242955D01*
X152231218Y-92242952D01*
X152231218Y-92242950D01*
X152160055Y-92103287D01*
X152138287Y-92060564D01*
X152121159Y-92036989D01*
X152017971Y-91894960D01*
X151873213Y-91750202D01*
X151707613Y-91629889D01*
X151707612Y-91629888D01*
X151707610Y-91629887D01*
X151650653Y-91600865D01*
X151525223Y-91536955D01*
X151330534Y-91473696D01*
X151155995Y-91446052D01*
X151128352Y-91441674D01*
X150923648Y-91441674D01*
X150899329Y-91445525D01*
X150721465Y-91473696D01*
X150526776Y-91536955D01*
X150344386Y-91629889D01*
X150178786Y-91750202D01*
X150034030Y-91894958D01*
X149953677Y-92005558D01*
X149898347Y-92048225D01*
X149853358Y-92056674D01*
X145809846Y-92056674D01*
X145742807Y-92036989D01*
X145697052Y-91984185D01*
X145695285Y-91980126D01*
X145654349Y-91881297D01*
X145654346Y-91881291D01*
X145654344Y-91881286D01*
X145539611Y-91682562D01*
X145539608Y-91682559D01*
X145539607Y-91682556D01*
X145407592Y-91510513D01*
X145399919Y-91500513D01*
X145399918Y-91500512D01*
X145399911Y-91500504D01*
X145237670Y-91338263D01*
X145237661Y-91338255D01*
X145055617Y-91198566D01*
X144856890Y-91083831D01*
X144856876Y-91083824D01*
X144644887Y-90996016D01*
X144423238Y-90936626D01*
X144385215Y-90931620D01*
X144195741Y-90906674D01*
X144195734Y-90906674D01*
X143966266Y-90906674D01*
X143966258Y-90906674D01*
X143749715Y-90935183D01*
X143738762Y-90936626D01*
X143645076Y-90961728D01*
X143517112Y-90996016D01*
X143305123Y-91083824D01*
X143305109Y-91083831D01*
X143106382Y-91198566D01*
X142924338Y-91338255D01*
X142762081Y-91500512D01*
X142622392Y-91682556D01*
X142507657Y-91881283D01*
X142507650Y-91881297D01*
X142419842Y-92093286D01*
X142360453Y-92314933D01*
X142360451Y-92314944D01*
X142330500Y-92542432D01*
X133627500Y-92542432D01*
X133627500Y-84374234D01*
X133627501Y-84374221D01*
X133627501Y-84206118D01*
X133620608Y-84180393D01*
X133586577Y-84053390D01*
X133554252Y-83997401D01*
X133507524Y-83916464D01*
X133507518Y-83916456D01*
X132905938Y-83314876D01*
X132125414Y-82534353D01*
X132091930Y-82473031D01*
X132096914Y-82403339D01*
X132138786Y-82347406D01*
X132204250Y-82322989D01*
X132213096Y-82322673D01*
X132813871Y-82322673D01*
X132813872Y-82322673D01*
X132873483Y-82316265D01*
X133008331Y-82265970D01*
X133123546Y-82179720D01*
X133209796Y-82064505D01*
X133260091Y-81929657D01*
X133266500Y-81870047D01*
X133266500Y-81746674D01*
X133286185Y-81679635D01*
X133338989Y-81633880D01*
X133390500Y-81622674D01*
X149771501Y-81622674D01*
X149838540Y-81642359D01*
X149884295Y-81695163D01*
X149895501Y-81746674D01*
X149895501Y-81870050D01*
X149901908Y-81929657D01*
X149952202Y-82064502D01*
X149952206Y-82064509D01*
X150038452Y-82179718D01*
X150038455Y-82179721D01*
X150153664Y-82265967D01*
X150153671Y-82265971D01*
X150288517Y-82316265D01*
X150288516Y-82316265D01*
X150295444Y-82317009D01*
X150348127Y-82322674D01*
X152043872Y-82322673D01*
X152103483Y-82316265D01*
X152238331Y-82265970D01*
X152353546Y-82179720D01*
X152439796Y-82064505D01*
X152490091Y-81929657D01*
X152496500Y-81870047D01*
X152496500Y-81746674D01*
X152516185Y-81679635D01*
X152568989Y-81633880D01*
X152620500Y-81622674D01*
X168711501Y-81622674D01*
X168778540Y-81642359D01*
X168824295Y-81695163D01*
X168835501Y-81746674D01*
X168835501Y-81870050D01*
X168841908Y-81929657D01*
X168892202Y-82064502D01*
X168892206Y-82064509D01*
X168978452Y-82179718D01*
X168978455Y-82179721D01*
X169093664Y-82265967D01*
X169093671Y-82265971D01*
X169228517Y-82316265D01*
X169228516Y-82316265D01*
X169235444Y-82317009D01*
X169288127Y-82322674D01*
X170983872Y-82322673D01*
X171043483Y-82316265D01*
X171178331Y-82265970D01*
X171293546Y-82179720D01*
X171379796Y-82064505D01*
X171430091Y-81929657D01*
X171436500Y-81870047D01*
X171436500Y-81746674D01*
X171456185Y-81679635D01*
X171508989Y-81633880D01*
X171560500Y-81622674D01*
X173321157Y-81622674D01*
X173321173Y-81622675D01*
X173328769Y-81622675D01*
X173486880Y-81622675D01*
X173486883Y-81622675D01*
X173639611Y-81581751D01*
X173689730Y-81552813D01*
X173776542Y-81502694D01*
X173888346Y-81390890D01*
X173888346Y-81390888D01*
X173898554Y-81380681D01*
X173898556Y-81380678D01*
X174246519Y-81032715D01*
X174307842Y-80999230D01*
X174377534Y-81004214D01*
G37*
%TD.AperFunction*%
%TA.AperFunction,NonConductor*%
G36*
X186793834Y-68587915D02*
G01*
X186849767Y-68629787D01*
X186874184Y-68695251D01*
X186874500Y-68704097D01*
X186874500Y-93379281D01*
X186854815Y-93446320D01*
X186806795Y-93489765D01*
X186767185Y-93509947D01*
X186767184Y-93509948D01*
X186595213Y-93634890D01*
X186444890Y-93785213D01*
X186319951Y-93957179D01*
X186223444Y-94146585D01*
X186157753Y-94348760D01*
X186144681Y-94431297D01*
X186124500Y-94558713D01*
X186124500Y-94771287D01*
X186157754Y-94981243D01*
X186193886Y-95092446D01*
X186223444Y-95183414D01*
X186319951Y-95372820D01*
X186444890Y-95544786D01*
X186595213Y-95695109D01*
X186767182Y-95820050D01*
X186775946Y-95824516D01*
X186826742Y-95872491D01*
X186843536Y-95940312D01*
X186820998Y-96006447D01*
X186775946Y-96045484D01*
X186767182Y-96049949D01*
X186595213Y-96174890D01*
X186444890Y-96325213D01*
X186319951Y-96497179D01*
X186223444Y-96686585D01*
X186157753Y-96888760D01*
X186136615Y-97022222D01*
X186124500Y-97098713D01*
X186124500Y-97311287D01*
X186129220Y-97341089D01*
X186151794Y-97483617D01*
X186157754Y-97521243D01*
X186213731Y-97693523D01*
X186223444Y-97723414D01*
X186319951Y-97912820D01*
X186444890Y-98084786D01*
X186595213Y-98235109D01*
X186767182Y-98360050D01*
X186775946Y-98364516D01*
X186826742Y-98412491D01*
X186843536Y-98480312D01*
X186820998Y-98546447D01*
X186775946Y-98585484D01*
X186767182Y-98589949D01*
X186595213Y-98714890D01*
X186444890Y-98865213D01*
X186319951Y-99037179D01*
X186223444Y-99226585D01*
X186157753Y-99428760D01*
X186124500Y-99638713D01*
X186124500Y-99851286D01*
X186147685Y-99997674D01*
X186157754Y-100061243D01*
X186199992Y-100191239D01*
X186223444Y-100263414D01*
X186319951Y-100452820D01*
X186444890Y-100624786D01*
X186595213Y-100775109D01*
X186767182Y-100900050D01*
X186775946Y-100904516D01*
X186826742Y-100952491D01*
X186843536Y-101020312D01*
X186820998Y-101086447D01*
X186775946Y-101125484D01*
X186767182Y-101129949D01*
X186595213Y-101254890D01*
X186444890Y-101405213D01*
X186319951Y-101577179D01*
X186223444Y-101766585D01*
X186157753Y-101968760D01*
X186137164Y-102098757D01*
X186124500Y-102178713D01*
X186124500Y-102391287D01*
X186157754Y-102601243D01*
X186199993Y-102731242D01*
X186223444Y-102803414D01*
X186319951Y-102992820D01*
X186444890Y-103164786D01*
X186595213Y-103315109D01*
X186767182Y-103440050D01*
X186775946Y-103444516D01*
X186826742Y-103492491D01*
X186843536Y-103560312D01*
X186820998Y-103626447D01*
X186775946Y-103665484D01*
X186767182Y-103669949D01*
X186595213Y-103794890D01*
X186444890Y-103945213D01*
X186319951Y-104117179D01*
X186223444Y-104306585D01*
X186157753Y-104508760D01*
X186124500Y-104718713D01*
X186124500Y-104931286D01*
X186157754Y-105141244D01*
X186157754Y-105141247D01*
X186171491Y-105183523D01*
X186173486Y-105253364D01*
X186141241Y-105309522D01*
X182806286Y-108644478D01*
X182787181Y-108663583D01*
X182725858Y-108697068D01*
X182656166Y-108692084D01*
X182600233Y-108650212D01*
X182575816Y-108584748D01*
X182575500Y-108575902D01*
X182575500Y-106255945D01*
X182575500Y-106255943D01*
X182554549Y-106177754D01*
X182534577Y-106103215D01*
X182487057Y-106020909D01*
X182455520Y-105966284D01*
X182343716Y-105854480D01*
X182343715Y-105854479D01*
X182339385Y-105850149D01*
X182339374Y-105850139D01*
X179388757Y-102899522D01*
X179355272Y-102838199D01*
X179358507Y-102773523D01*
X179372246Y-102731243D01*
X179405500Y-102521287D01*
X179405500Y-102308713D01*
X179372246Y-102098757D01*
X179306557Y-101896588D01*
X179210051Y-101707184D01*
X179210049Y-101707181D01*
X179210048Y-101707179D01*
X179085109Y-101535213D01*
X178934786Y-101384890D01*
X178762820Y-101259951D01*
X178762115Y-101259591D01*
X178754054Y-101255485D01*
X178703259Y-101207512D01*
X178686463Y-101139692D01*
X178708999Y-101073556D01*
X178754054Y-101034515D01*
X178762816Y-101030051D01*
X178831421Y-100980207D01*
X178934786Y-100905109D01*
X178934788Y-100905106D01*
X178934792Y-100905104D01*
X179085104Y-100754792D01*
X179085106Y-100754788D01*
X179085109Y-100754786D01*
X179210048Y-100582820D01*
X179210047Y-100582820D01*
X179210051Y-100582816D01*
X179306557Y-100393412D01*
X179372246Y-100191243D01*
X179405500Y-99981287D01*
X179405500Y-99768713D01*
X179372246Y-99558757D01*
X179306557Y-99356588D01*
X179210051Y-99167184D01*
X179210049Y-99167181D01*
X179210048Y-99167179D01*
X179085109Y-98995213D01*
X178934786Y-98844890D01*
X178762820Y-98719951D01*
X178762115Y-98719591D01*
X178754054Y-98715485D01*
X178703259Y-98667512D01*
X178686463Y-98599692D01*
X178708999Y-98533556D01*
X178754054Y-98494515D01*
X178762816Y-98490051D01*
X178869569Y-98412491D01*
X178934786Y-98365109D01*
X178934788Y-98365106D01*
X178934792Y-98365104D01*
X179085104Y-98214792D01*
X179085106Y-98214788D01*
X179085109Y-98214786D01*
X179210048Y-98042820D01*
X179210047Y-98042820D01*
X179210051Y-98042816D01*
X179306557Y-97853412D01*
X179372246Y-97651243D01*
X179405500Y-97441287D01*
X179405500Y-97228713D01*
X179372246Y-97018757D01*
X179306557Y-96816588D01*
X179210051Y-96627184D01*
X179210049Y-96627181D01*
X179210048Y-96627179D01*
X179085109Y-96455213D01*
X178971569Y-96341673D01*
X178938084Y-96280350D01*
X178943068Y-96210658D01*
X178984940Y-96154725D01*
X179015915Y-96137810D01*
X179147331Y-96088796D01*
X179262546Y-96002546D01*
X179348796Y-95887331D01*
X179399091Y-95752483D01*
X179405500Y-95692873D01*
X179405499Y-93897128D01*
X179399091Y-93837517D01*
X179393991Y-93823844D01*
X179348797Y-93702671D01*
X179348793Y-93702664D01*
X179262547Y-93587455D01*
X179262544Y-93587452D01*
X179147335Y-93501206D01*
X179147328Y-93501202D01*
X179012482Y-93450908D01*
X179012483Y-93450908D01*
X178952883Y-93444501D01*
X178952881Y-93444500D01*
X178952873Y-93444500D01*
X178952865Y-93444500D01*
X178779500Y-93444500D01*
X178712461Y-93424815D01*
X178666706Y-93372011D01*
X178655500Y-93320500D01*
X178655500Y-76675097D01*
X178675185Y-76608058D01*
X178691819Y-76587416D01*
X186662819Y-68616416D01*
X186724142Y-68582931D01*
X186793834Y-68587915D01*
G37*
%TD.AperFunction*%
%TA.AperFunction,NonConductor*%
G36*
X149668540Y-100982359D02*
G01*
X149714295Y-101035163D01*
X149725501Y-101086674D01*
X149725501Y-101210050D01*
X149731908Y-101269657D01*
X149782202Y-101404502D01*
X149782206Y-101404509D01*
X149868452Y-101519718D01*
X149868455Y-101519721D01*
X149983664Y-101605967D01*
X149983671Y-101605971D01*
X150118517Y-101656265D01*
X150118516Y-101656265D01*
X150125444Y-101657009D01*
X150178127Y-101662674D01*
X151873872Y-101662673D01*
X151933483Y-101656265D01*
X152068331Y-101605970D01*
X152183546Y-101519720D01*
X152269796Y-101404505D01*
X152320091Y-101269657D01*
X152326500Y-101210047D01*
X152326500Y-101086674D01*
X152346185Y-101019635D01*
X152398989Y-100973880D01*
X152450500Y-100962674D01*
X168631501Y-100962674D01*
X168698540Y-100982359D01*
X168744295Y-101035163D01*
X168755501Y-101086674D01*
X168755501Y-101210050D01*
X168761908Y-101269657D01*
X168812202Y-101404502D01*
X168812206Y-101404509D01*
X168898452Y-101519718D01*
X168898455Y-101519721D01*
X169013664Y-101605967D01*
X169013671Y-101605971D01*
X169148517Y-101656265D01*
X169148516Y-101656265D01*
X169155444Y-101657009D01*
X169208127Y-101662674D01*
X170892500Y-101662673D01*
X170959539Y-101682358D01*
X171005294Y-101735161D01*
X171016500Y-101786673D01*
X171016500Y-110717351D01*
X170996815Y-110784390D01*
X170944011Y-110830145D01*
X170874853Y-110840089D01*
X170819616Y-110817670D01*
X170767612Y-110779888D01*
X170585223Y-110686955D01*
X170390534Y-110623696D01*
X170215995Y-110596052D01*
X170188352Y-110591674D01*
X169983648Y-110591674D01*
X169959329Y-110595525D01*
X169781465Y-110623696D01*
X169586776Y-110686955D01*
X169404386Y-110779889D01*
X169238786Y-110900202D01*
X169094032Y-111044956D01*
X169094028Y-111044961D01*
X169060900Y-111090559D01*
X169005571Y-111133225D01*
X168960582Y-111141674D01*
X164829846Y-111141674D01*
X164762807Y-111121989D01*
X164717052Y-111069185D01*
X164715285Y-111065126D01*
X164674349Y-110966297D01*
X164674346Y-110966291D01*
X164674344Y-110966286D01*
X164559611Y-110767562D01*
X164559608Y-110767559D01*
X164559607Y-110767556D01*
X164439102Y-110610513D01*
X164419919Y-110585513D01*
X164419918Y-110585512D01*
X164419911Y-110585504D01*
X164257670Y-110423263D01*
X164257661Y-110423255D01*
X164075617Y-110283566D01*
X163876890Y-110168831D01*
X163876876Y-110168824D01*
X163664887Y-110081016D01*
X163443238Y-110021626D01*
X163405215Y-110016620D01*
X163215741Y-109991674D01*
X163215734Y-109991674D01*
X162986266Y-109991674D01*
X162986258Y-109991674D01*
X162769715Y-110020183D01*
X162758762Y-110021626D01*
X162665463Y-110046625D01*
X162537112Y-110081016D01*
X162325123Y-110168824D01*
X162325109Y-110168831D01*
X162126382Y-110283566D01*
X161944338Y-110423255D01*
X161782081Y-110585512D01*
X161642392Y-110767556D01*
X161527657Y-110966283D01*
X161527650Y-110966297D01*
X161439842Y-111178286D01*
X161405554Y-111306250D01*
X161387152Y-111374933D01*
X161380453Y-111399933D01*
X161380451Y-111399944D01*
X161350500Y-111627432D01*
X161350500Y-111856915D01*
X161368618Y-111994525D01*
X161380452Y-112084412D01*
X161433143Y-112281061D01*
X161439842Y-112306061D01*
X161527650Y-112518050D01*
X161527657Y-112518064D01*
X161552807Y-112561625D01*
X161623362Y-112683831D01*
X161642392Y-112716791D01*
X161782081Y-112898835D01*
X161782089Y-112898844D01*
X161944330Y-113061085D01*
X161944338Y-113061092D01*
X161944339Y-113061093D01*
X161990796Y-113096741D01*
X162126382Y-113200781D01*
X162126385Y-113200782D01*
X162126388Y-113200785D01*
X162325112Y-113315518D01*
X162325117Y-113315520D01*
X162325123Y-113315523D01*
X162385462Y-113340516D01*
X162537113Y-113403332D01*
X162758762Y-113462722D01*
X162986266Y-113492674D01*
X162986273Y-113492674D01*
X163215727Y-113492674D01*
X163215734Y-113492674D01*
X163443238Y-113462722D01*
X163664887Y-113403332D01*
X163876888Y-113315518D01*
X164075612Y-113200785D01*
X164257661Y-113061093D01*
X164257665Y-113061088D01*
X164257670Y-113061085D01*
X164419911Y-112898844D01*
X164419914Y-112898839D01*
X164419919Y-112898835D01*
X164559611Y-112716786D01*
X164674344Y-112518062D01*
X164679061Y-112506674D01*
X164715285Y-112419222D01*
X164759125Y-112364818D01*
X164825420Y-112342753D01*
X164829846Y-112342674D01*
X168779969Y-112342674D01*
X168847008Y-112362359D01*
X168890454Y-112410379D01*
X168973715Y-112573788D01*
X169094028Y-112739387D01*
X169238786Y-112884145D01*
X169382084Y-112988255D01*
X169404390Y-113004461D01*
X169515536Y-113061093D01*
X169586776Y-113097392D01*
X169586778Y-113097392D01*
X169586781Y-113097394D01*
X169691137Y-113131301D01*
X169781465Y-113160651D01*
X169877017Y-113175785D01*
X169983648Y-113192674D01*
X169983649Y-113192674D01*
X170188351Y-113192674D01*
X170188352Y-113192674D01*
X170390534Y-113160651D01*
X170585219Y-113097394D01*
X170767610Y-113004461D01*
X170799066Y-112981606D01*
X170819615Y-112966678D01*
X170885421Y-112943198D01*
X170953475Y-112959024D01*
X171002170Y-113009129D01*
X171016500Y-113066996D01*
X171016500Y-117681076D01*
X170996815Y-117748115D01*
X170980181Y-117768757D01*
X170792470Y-117956468D01*
X170731147Y-117989953D01*
X170661455Y-117984969D01*
X170605522Y-117943097D01*
X170597402Y-117930787D01*
X170566522Y-117877301D01*
X170566518Y-117877296D01*
X170454717Y-117765495D01*
X170454709Y-117765489D01*
X170317790Y-117686440D01*
X170317786Y-117686438D01*
X170317784Y-117686437D01*
X170165057Y-117645514D01*
X170006943Y-117645514D01*
X169854216Y-117686437D01*
X169854209Y-117686440D01*
X169717290Y-117765489D01*
X169717282Y-117765495D01*
X169605481Y-117877296D01*
X169605475Y-117877304D01*
X169526426Y-118014223D01*
X169526423Y-118014228D01*
X169498144Y-118119768D01*
X169461778Y-118179429D01*
X169398931Y-118209957D01*
X169378370Y-118211674D01*
X169238130Y-118211674D01*
X169238123Y-118211675D01*
X169178516Y-118218082D01*
X169043671Y-118268376D01*
X169043664Y-118268380D01*
X168928455Y-118354626D01*
X168928452Y-118354629D01*
X168842206Y-118469838D01*
X168842202Y-118469845D01*
X168791908Y-118604691D01*
X168785501Y-118664290D01*
X168785501Y-118664297D01*
X168785500Y-118664309D01*
X168785500Y-118787674D01*
X168765815Y-118854713D01*
X168713011Y-118900468D01*
X168661500Y-118911674D01*
X161900055Y-118911674D01*
X161833016Y-118891989D01*
X161787261Y-118839185D01*
X161777317Y-118770027D01*
X161806342Y-118706471D01*
X161824568Y-118689298D01*
X162048042Y-118517820D01*
X162256646Y-118309216D01*
X162436238Y-118075168D01*
X162583743Y-117819681D01*
X162696639Y-117547126D01*
X162772993Y-117262167D01*
X162811500Y-116969680D01*
X162811500Y-116733595D01*
X164515500Y-116733595D01*
X164515500Y-116910752D01*
X164543214Y-117085730D01*
X164597956Y-117254213D01*
X164597957Y-117254216D01*
X164614747Y-117287167D01*
X164678386Y-117412064D01*
X164782517Y-117555388D01*
X164907786Y-117680657D01*
X165051110Y-117784788D01*
X165100173Y-117809787D01*
X165208957Y-117865216D01*
X165208960Y-117865217D01*
X165285901Y-117890216D01*
X165377445Y-117919960D01*
X165552421Y-117947674D01*
X165552422Y-117947674D01*
X165729578Y-117947674D01*
X165729579Y-117947674D01*
X165904555Y-117919960D01*
X166073042Y-117865216D01*
X166230890Y-117784788D01*
X166374214Y-117680657D01*
X166499483Y-117555388D01*
X166603614Y-117412064D01*
X166684042Y-117254216D01*
X166738786Y-117085729D01*
X166766500Y-116910753D01*
X166766500Y-116733595D01*
X166738786Y-116558619D01*
X166711414Y-116474375D01*
X166684043Y-116390134D01*
X166684042Y-116390131D01*
X166632121Y-116288232D01*
X166603614Y-116232284D01*
X166499483Y-116088960D01*
X166374214Y-115963691D01*
X166230890Y-115859560D01*
X166211466Y-115849663D01*
X166073042Y-115779131D01*
X166073039Y-115779130D01*
X165904556Y-115724388D01*
X165783939Y-115705284D01*
X165729579Y-115696674D01*
X165552421Y-115696674D01*
X165498061Y-115705284D01*
X165377443Y-115724388D01*
X165208960Y-115779130D01*
X165208957Y-115779131D01*
X165051109Y-115859560D01*
X164970219Y-115918331D01*
X164907786Y-115963691D01*
X164907784Y-115963693D01*
X164907783Y-115963693D01*
X164782519Y-116088957D01*
X164782519Y-116088958D01*
X164782517Y-116088960D01*
X164758358Y-116122212D01*
X164678386Y-116232283D01*
X164597957Y-116390131D01*
X164597956Y-116390134D01*
X164543214Y-116558617D01*
X164515500Y-116733595D01*
X162811500Y-116733595D01*
X162811500Y-116674668D01*
X162772993Y-116382181D01*
X162696639Y-116097222D01*
X162583743Y-115824667D01*
X162569309Y-115799667D01*
X162436238Y-115569180D01*
X162256647Y-115335133D01*
X162256641Y-115335126D01*
X162048047Y-115126532D01*
X162048040Y-115126526D01*
X161813993Y-114946935D01*
X161558510Y-114799432D01*
X161558500Y-114799428D01*
X161285961Y-114686538D01*
X161285954Y-114686536D01*
X161285952Y-114686535D01*
X161000993Y-114610181D01*
X160952113Y-114603745D01*
X160708513Y-114571674D01*
X160708506Y-114571674D01*
X160413494Y-114571674D01*
X160413486Y-114571674D01*
X160135085Y-114608327D01*
X160121007Y-114610181D01*
X159929350Y-114661535D01*
X159836048Y-114686535D01*
X159836038Y-114686538D01*
X159563499Y-114799428D01*
X159563489Y-114799432D01*
X159308006Y-114946935D01*
X159073959Y-115126526D01*
X159073952Y-115126532D01*
X158865358Y-115335126D01*
X158865352Y-115335133D01*
X158685761Y-115569180D01*
X158538258Y-115824663D01*
X158538254Y-115824673D01*
X158425364Y-116097212D01*
X158425361Y-116097222D01*
X158355707Y-116357178D01*
X158349008Y-116382178D01*
X158349006Y-116382189D01*
X158310500Y-116674660D01*
X158310500Y-116969687D01*
X158342571Y-117213287D01*
X158349007Y-117262167D01*
X158420877Y-117530390D01*
X158425361Y-117547125D01*
X158425364Y-117547135D01*
X158538254Y-117819674D01*
X158538258Y-117819684D01*
X158685761Y-118075167D01*
X158865352Y-118309214D01*
X158865358Y-118309221D01*
X159073952Y-118517815D01*
X159073956Y-118517818D01*
X159073958Y-118517820D01*
X159297432Y-118689298D01*
X159338634Y-118745726D01*
X159342789Y-118815472D01*
X159308577Y-118876393D01*
X159246859Y-118909145D01*
X159221945Y-118911674D01*
X152490499Y-118911674D01*
X152423460Y-118891989D01*
X152377705Y-118839185D01*
X152366499Y-118787674D01*
X152366499Y-118664303D01*
X152366498Y-118664297D01*
X152366497Y-118664290D01*
X152360091Y-118604691D01*
X152327690Y-118517820D01*
X152309797Y-118469845D01*
X152309793Y-118469838D01*
X152223547Y-118354629D01*
X152223544Y-118354626D01*
X152108335Y-118268380D01*
X152108328Y-118268376D01*
X151973482Y-118218082D01*
X151973483Y-118218082D01*
X151913883Y-118211675D01*
X151913881Y-118211674D01*
X151913873Y-118211674D01*
X151913864Y-118211674D01*
X150218129Y-118211674D01*
X150218123Y-118211675D01*
X150158516Y-118218082D01*
X150023671Y-118268376D01*
X150023664Y-118268380D01*
X149908455Y-118354626D01*
X149908452Y-118354629D01*
X149822206Y-118469838D01*
X149822202Y-118469845D01*
X149771908Y-118604691D01*
X149765501Y-118664290D01*
X149765501Y-118664297D01*
X149765500Y-118664309D01*
X149765500Y-118787674D01*
X149745815Y-118854713D01*
X149693011Y-118900468D01*
X149641500Y-118911674D01*
X142862355Y-118911674D01*
X142795316Y-118891989D01*
X142749561Y-118839185D01*
X142739617Y-118770027D01*
X142768642Y-118706471D01*
X142800354Y-118680287D01*
X142813994Y-118672412D01*
X143048042Y-118492820D01*
X143256646Y-118284216D01*
X143436238Y-118050168D01*
X143583743Y-117794681D01*
X143696639Y-117522126D01*
X143772993Y-117237167D01*
X143811500Y-116944680D01*
X143811500Y-116708595D01*
X145515500Y-116708595D01*
X145515500Y-116885752D01*
X145543214Y-117060730D01*
X145597956Y-117229213D01*
X145597957Y-117229216D01*
X145671861Y-117374259D01*
X145678386Y-117387064D01*
X145782517Y-117530388D01*
X145907786Y-117655657D01*
X146051110Y-117759788D01*
X146062309Y-117765494D01*
X146208957Y-117840216D01*
X146208960Y-117840217D01*
X146285901Y-117865216D01*
X146377445Y-117894960D01*
X146552421Y-117922674D01*
X146552422Y-117922674D01*
X146729578Y-117922674D01*
X146729579Y-117922674D01*
X146904555Y-117894960D01*
X147073042Y-117840216D01*
X147230890Y-117759788D01*
X147374214Y-117655657D01*
X147499483Y-117530388D01*
X147603614Y-117387064D01*
X147684042Y-117229216D01*
X147738786Y-117060729D01*
X147766500Y-116885753D01*
X147766500Y-116733595D01*
X154355500Y-116733595D01*
X154355500Y-116910752D01*
X154383214Y-117085730D01*
X154437956Y-117254213D01*
X154437957Y-117254216D01*
X154454747Y-117287167D01*
X154518386Y-117412064D01*
X154622517Y-117555388D01*
X154747786Y-117680657D01*
X154891110Y-117784788D01*
X154940173Y-117809787D01*
X155048957Y-117865216D01*
X155048960Y-117865217D01*
X155125901Y-117890216D01*
X155217445Y-117919960D01*
X155392421Y-117947674D01*
X155392422Y-117947674D01*
X155569578Y-117947674D01*
X155569579Y-117947674D01*
X155744555Y-117919960D01*
X155913042Y-117865216D01*
X156070890Y-117784788D01*
X156214214Y-117680657D01*
X156339483Y-117555388D01*
X156443614Y-117412064D01*
X156524042Y-117254216D01*
X156578786Y-117085729D01*
X156606500Y-116910753D01*
X156606500Y-116733595D01*
X156578786Y-116558619D01*
X156551414Y-116474375D01*
X156524043Y-116390134D01*
X156524042Y-116390131D01*
X156472121Y-116288232D01*
X156443614Y-116232284D01*
X156432517Y-116217011D01*
X156409038Y-116151206D01*
X156424863Y-116083152D01*
X156474968Y-116034457D01*
X156543446Y-116020581D01*
X156548977Y-116021182D01*
X156636266Y-116032674D01*
X156636273Y-116032674D01*
X156865727Y-116032674D01*
X156865734Y-116032674D01*
X157093238Y-116002722D01*
X157314887Y-115943332D01*
X157526888Y-115855518D01*
X157725612Y-115740785D01*
X157907661Y-115601093D01*
X157907665Y-115601088D01*
X157907670Y-115601085D01*
X158069911Y-115438844D01*
X158069914Y-115438839D01*
X158069919Y-115438835D01*
X158209611Y-115256786D01*
X158324344Y-115058062D01*
X158412158Y-114846061D01*
X158471548Y-114624412D01*
X158501500Y-114396908D01*
X158501500Y-114167440D01*
X158471548Y-113939936D01*
X158412158Y-113718287D01*
X158334704Y-113531297D01*
X158324349Y-113506297D01*
X158324346Y-113506291D01*
X158324344Y-113506286D01*
X158209611Y-113307562D01*
X158209608Y-113307559D01*
X158209607Y-113307556D01*
X158108491Y-113175781D01*
X158069919Y-113125513D01*
X158069918Y-113125512D01*
X158069911Y-113125504D01*
X157907670Y-112963263D01*
X157907661Y-112963255D01*
X157725617Y-112823566D01*
X157526890Y-112708831D01*
X157526876Y-112708824D01*
X157314887Y-112621016D01*
X157093238Y-112561626D01*
X157055215Y-112556620D01*
X156865741Y-112531674D01*
X156865734Y-112531674D01*
X156636266Y-112531674D01*
X156636258Y-112531674D01*
X156419715Y-112560183D01*
X156408762Y-112561626D01*
X156315463Y-112586625D01*
X156187112Y-112621016D01*
X155975123Y-112708824D01*
X155975109Y-112708831D01*
X155776382Y-112823566D01*
X155594338Y-112963255D01*
X155432081Y-113125512D01*
X155292392Y-113307556D01*
X155177657Y-113506283D01*
X155177650Y-113506297D01*
X155089842Y-113718286D01*
X155083143Y-113743287D01*
X155037152Y-113914933D01*
X155030453Y-113939933D01*
X155030451Y-113939944D01*
X155000500Y-114167432D01*
X155000500Y-114396915D01*
X155020217Y-114546674D01*
X155030452Y-114624412D01*
X155053797Y-114711538D01*
X155089842Y-114846061D01*
X155177650Y-115058050D01*
X155177657Y-115058064D01*
X155292392Y-115256791D01*
X155432081Y-115438835D01*
X155432089Y-115438844D01*
X155478238Y-115484993D01*
X155511723Y-115546316D01*
X155506739Y-115616008D01*
X155464867Y-115671941D01*
X155399403Y-115696358D01*
X155393967Y-115696552D01*
X155392423Y-115696673D01*
X155217443Y-115724388D01*
X155048960Y-115779130D01*
X155048957Y-115779131D01*
X154891109Y-115859560D01*
X154810219Y-115918331D01*
X154747786Y-115963691D01*
X154747784Y-115963693D01*
X154747783Y-115963693D01*
X154622519Y-116088957D01*
X154622519Y-116088958D01*
X154622517Y-116088960D01*
X154598358Y-116122212D01*
X154518386Y-116232283D01*
X154437957Y-116390131D01*
X154437956Y-116390134D01*
X154383214Y-116558617D01*
X154355500Y-116733595D01*
X147766500Y-116733595D01*
X147766500Y-116708595D01*
X147738786Y-116533619D01*
X147708679Y-116440958D01*
X147684043Y-116365134D01*
X147684042Y-116365131D01*
X147616352Y-116232284D01*
X147603614Y-116207284D01*
X147499483Y-116063960D01*
X147374214Y-115938691D01*
X147230890Y-115834560D01*
X147211466Y-115824663D01*
X147073042Y-115754131D01*
X147073039Y-115754130D01*
X146904556Y-115699388D01*
X146817067Y-115685531D01*
X146729579Y-115671674D01*
X146552421Y-115671674D01*
X146494095Y-115680912D01*
X146377443Y-115699388D01*
X146208960Y-115754130D01*
X146208957Y-115754131D01*
X146051109Y-115834560D01*
X146016700Y-115859560D01*
X145907786Y-115938691D01*
X145907784Y-115938693D01*
X145907783Y-115938693D01*
X145782519Y-116063957D01*
X145782519Y-116063958D01*
X145782517Y-116063960D01*
X145758358Y-116097212D01*
X145678386Y-116207283D01*
X145597957Y-116365131D01*
X145597956Y-116365134D01*
X145543214Y-116533617D01*
X145515500Y-116708595D01*
X143811500Y-116708595D01*
X143811500Y-116649668D01*
X143772993Y-116357181D01*
X143696639Y-116072222D01*
X143678206Y-116027722D01*
X143653606Y-115968331D01*
X143583743Y-115799667D01*
X143564181Y-115765785D01*
X143436238Y-115544180D01*
X143256647Y-115310133D01*
X143256641Y-115310126D01*
X143048047Y-115101532D01*
X143048040Y-115101526D01*
X142813993Y-114921935D01*
X142558510Y-114774432D01*
X142558500Y-114774428D01*
X142285961Y-114661538D01*
X142285954Y-114661536D01*
X142285952Y-114661535D01*
X142000993Y-114585181D01*
X141952113Y-114578745D01*
X141708513Y-114546674D01*
X141708506Y-114546674D01*
X141413494Y-114546674D01*
X141413486Y-114546674D01*
X141135085Y-114583327D01*
X141121007Y-114585181D01*
X140881326Y-114649403D01*
X140836048Y-114661535D01*
X140836038Y-114661538D01*
X140563499Y-114774428D01*
X140563489Y-114774432D01*
X140308006Y-114921935D01*
X140073959Y-115101526D01*
X140073952Y-115101532D01*
X139865358Y-115310126D01*
X139865352Y-115310133D01*
X139685761Y-115544180D01*
X139538258Y-115799663D01*
X139538254Y-115799673D01*
X139425364Y-116072212D01*
X139425361Y-116072222D01*
X139375775Y-116257283D01*
X139349008Y-116357178D01*
X139349006Y-116357189D01*
X139310500Y-116649660D01*
X139310500Y-116944687D01*
X139332361Y-117110729D01*
X139349007Y-117237167D01*
X139402569Y-117437064D01*
X139425361Y-117522125D01*
X139425364Y-117522135D01*
X139538254Y-117794674D01*
X139538258Y-117794684D01*
X139685761Y-118050167D01*
X139865352Y-118284214D01*
X139865358Y-118284221D01*
X140073952Y-118492815D01*
X140073959Y-118492821D01*
X140139119Y-118542820D01*
X140308006Y-118672412D01*
X140321646Y-118680287D01*
X140369861Y-118730855D01*
X140383083Y-118799462D01*
X140357115Y-118864326D01*
X140300201Y-118904854D01*
X140259645Y-118911674D01*
X133430499Y-118911674D01*
X133363460Y-118891989D01*
X133317705Y-118839185D01*
X133306499Y-118787674D01*
X133306499Y-118664303D01*
X133306498Y-118664297D01*
X133306497Y-118664290D01*
X133300091Y-118604691D01*
X133267690Y-118517820D01*
X133249797Y-118469845D01*
X133249793Y-118469838D01*
X133163547Y-118354629D01*
X133163544Y-118354626D01*
X133048335Y-118268380D01*
X133048328Y-118268376D01*
X132913482Y-118218082D01*
X132913483Y-118218082D01*
X132853883Y-118211675D01*
X132853881Y-118211674D01*
X132853873Y-118211674D01*
X132853865Y-118211674D01*
X132253096Y-118211674D01*
X132186057Y-118191989D01*
X132140302Y-118139185D01*
X132130358Y-118070027D01*
X132159383Y-118006471D01*
X132165415Y-117999993D01*
X132791149Y-117374259D01*
X133456813Y-116708595D01*
X135355500Y-116708595D01*
X135355500Y-116885752D01*
X135383214Y-117060730D01*
X135437956Y-117229213D01*
X135437957Y-117229216D01*
X135511861Y-117374259D01*
X135518386Y-117387064D01*
X135622517Y-117530388D01*
X135747786Y-117655657D01*
X135891110Y-117759788D01*
X135902309Y-117765494D01*
X136048957Y-117840216D01*
X136048960Y-117840217D01*
X136125901Y-117865216D01*
X136217445Y-117894960D01*
X136392421Y-117922674D01*
X136392422Y-117922674D01*
X136569578Y-117922674D01*
X136569579Y-117922674D01*
X136744555Y-117894960D01*
X136913042Y-117840216D01*
X137070890Y-117759788D01*
X137214214Y-117655657D01*
X137339483Y-117530388D01*
X137443614Y-117387064D01*
X137524042Y-117229216D01*
X137578786Y-117060729D01*
X137606500Y-116885753D01*
X137606500Y-116708595D01*
X137578786Y-116533619D01*
X137548679Y-116440958D01*
X137524043Y-116365134D01*
X137524042Y-116365131D01*
X137456352Y-116232284D01*
X137443614Y-116207284D01*
X137432517Y-116192011D01*
X137409038Y-116126206D01*
X137424863Y-116058152D01*
X137474968Y-116009457D01*
X137543446Y-115995581D01*
X137548977Y-115996182D01*
X137636266Y-116007674D01*
X137636273Y-116007674D01*
X137865727Y-116007674D01*
X137865734Y-116007674D01*
X138093238Y-115977722D01*
X138314887Y-115918332D01*
X138526888Y-115830518D01*
X138725612Y-115715785D01*
X138907661Y-115576093D01*
X138907665Y-115576088D01*
X138907670Y-115576085D01*
X139069911Y-115413844D01*
X139069914Y-115413839D01*
X139069919Y-115413835D01*
X139209611Y-115231786D01*
X139324344Y-115033062D01*
X139412158Y-114821061D01*
X139471548Y-114599412D01*
X139501500Y-114371908D01*
X139501500Y-114142440D01*
X139471548Y-113914936D01*
X139412158Y-113693287D01*
X139362190Y-113572654D01*
X139324349Y-113481297D01*
X139324346Y-113481291D01*
X139324344Y-113481286D01*
X139209611Y-113282562D01*
X139209608Y-113282559D01*
X139209607Y-113282556D01*
X139089102Y-113125513D01*
X139069919Y-113100513D01*
X139069918Y-113100512D01*
X139069911Y-113100504D01*
X138907670Y-112938263D01*
X138907661Y-112938255D01*
X138725617Y-112798566D01*
X138526890Y-112683831D01*
X138526876Y-112683824D01*
X138314887Y-112596016D01*
X138279846Y-112586627D01*
X138093238Y-112536626D01*
X138055215Y-112531620D01*
X137865741Y-112506674D01*
X137865734Y-112506674D01*
X137636266Y-112506674D01*
X137636258Y-112506674D01*
X137419715Y-112535183D01*
X137408762Y-112536626D01*
X137384735Y-112543064D01*
X137187112Y-112596016D01*
X136975123Y-112683824D01*
X136975109Y-112683831D01*
X136776382Y-112798566D01*
X136594338Y-112938255D01*
X136432081Y-113100512D01*
X136292392Y-113282556D01*
X136177657Y-113481283D01*
X136177650Y-113481297D01*
X136089842Y-113693286D01*
X136030453Y-113914933D01*
X136030451Y-113914944D01*
X136000500Y-114142432D01*
X136000500Y-114371915D01*
X136023509Y-114546674D01*
X136030452Y-114599412D01*
X136053797Y-114686538D01*
X136089842Y-114821061D01*
X136177650Y-115033050D01*
X136177657Y-115033064D01*
X136292392Y-115231791D01*
X136432081Y-115413835D01*
X136432089Y-115413844D01*
X136478238Y-115459993D01*
X136511723Y-115521316D01*
X136506739Y-115591008D01*
X136464867Y-115646941D01*
X136399403Y-115671358D01*
X136393967Y-115671552D01*
X136392423Y-115671673D01*
X136217443Y-115699388D01*
X136048960Y-115754130D01*
X136048957Y-115754131D01*
X135891109Y-115834560D01*
X135856700Y-115859560D01*
X135747786Y-115938691D01*
X135747784Y-115938693D01*
X135747783Y-115938693D01*
X135622519Y-116063957D01*
X135622519Y-116063958D01*
X135622517Y-116063960D01*
X135598358Y-116097212D01*
X135518386Y-116207283D01*
X135437957Y-116365131D01*
X135437956Y-116365134D01*
X135383214Y-116533617D01*
X135355500Y-116708595D01*
X133456813Y-116708595D01*
X133475713Y-116689695D01*
X133475716Y-116689694D01*
X133587520Y-116577890D01*
X133637639Y-116491078D01*
X133666577Y-116440959D01*
X133707500Y-116288232D01*
X133707500Y-116130117D01*
X133707500Y-111602432D01*
X142350500Y-111602432D01*
X142350500Y-111831915D01*
X142371909Y-111994525D01*
X142380452Y-112059412D01*
X142393850Y-112109414D01*
X142439842Y-112281061D01*
X142527650Y-112493050D01*
X142527657Y-112493064D01*
X142642392Y-112691791D01*
X142782081Y-112873835D01*
X142782089Y-112873844D01*
X142944330Y-113036085D01*
X142944338Y-113036092D01*
X142944339Y-113036093D01*
X142984612Y-113066996D01*
X143126382Y-113175781D01*
X143126385Y-113175782D01*
X143126388Y-113175785D01*
X143325112Y-113290518D01*
X143325117Y-113290520D01*
X143325123Y-113290523D01*
X143385462Y-113315516D01*
X143537113Y-113378332D01*
X143758762Y-113437722D01*
X143986266Y-113467674D01*
X143986273Y-113467674D01*
X144215727Y-113467674D01*
X144215734Y-113467674D01*
X144443238Y-113437722D01*
X144664887Y-113378332D01*
X144876888Y-113290518D01*
X145075612Y-113175785D01*
X145257661Y-113036093D01*
X145257665Y-113036088D01*
X145257670Y-113036085D01*
X145419911Y-112873844D01*
X145419914Y-112873839D01*
X145419919Y-112873835D01*
X145559611Y-112691786D01*
X145674344Y-112493062D01*
X145698237Y-112435380D01*
X145715285Y-112394222D01*
X145759125Y-112339818D01*
X145825420Y-112317753D01*
X145829846Y-112317674D01*
X149747390Y-112317674D01*
X149814429Y-112337359D01*
X149857818Y-112387433D01*
X149858568Y-112387052D01*
X149860109Y-112390076D01*
X149860184Y-112390163D01*
X149860365Y-112390580D01*
X149912577Y-112493050D01*
X149947518Y-112561626D01*
X149953715Y-112573787D01*
X150074028Y-112739387D01*
X150218786Y-112884145D01*
X150362084Y-112988255D01*
X150384390Y-113004461D01*
X150495536Y-113061093D01*
X150566776Y-113097392D01*
X150566778Y-113097392D01*
X150566781Y-113097394D01*
X150671137Y-113131301D01*
X150761465Y-113160651D01*
X150857017Y-113175785D01*
X150963648Y-113192674D01*
X150963649Y-113192674D01*
X151168351Y-113192674D01*
X151168352Y-113192674D01*
X151370534Y-113160651D01*
X151565219Y-113097394D01*
X151747610Y-113004461D01*
X151892981Y-112898844D01*
X151913213Y-112884145D01*
X151913215Y-112884142D01*
X151913219Y-112884140D01*
X152057966Y-112739393D01*
X152057968Y-112739389D01*
X152057971Y-112739387D01*
X152143971Y-112621016D01*
X152178287Y-112573784D01*
X152271220Y-112391393D01*
X152334477Y-112196708D01*
X152366500Y-111994526D01*
X152366500Y-111789822D01*
X152334477Y-111587639D01*
X152271218Y-111392950D01*
X152237503Y-111326781D01*
X152178287Y-111210564D01*
X152154836Y-111178286D01*
X152057971Y-111044960D01*
X151913213Y-110900202D01*
X151747613Y-110779889D01*
X151747612Y-110779888D01*
X151747610Y-110779887D01*
X151674344Y-110742556D01*
X151565223Y-110686955D01*
X151370534Y-110623696D01*
X151195995Y-110596052D01*
X151168352Y-110591674D01*
X150963648Y-110591674D01*
X150939329Y-110595525D01*
X150761465Y-110623696D01*
X150566776Y-110686955D01*
X150384386Y-110779889D01*
X150218786Y-110900202D01*
X150074035Y-111044953D01*
X150074030Y-111044959D01*
X150059064Y-111065559D01*
X150003734Y-111108225D01*
X149958746Y-111116674D01*
X145829846Y-111116674D01*
X145762807Y-111096989D01*
X145717052Y-111044185D01*
X145715285Y-111040126D01*
X145674349Y-110941297D01*
X145674346Y-110941291D01*
X145674344Y-110941286D01*
X145559611Y-110742562D01*
X145559608Y-110742559D01*
X145559607Y-110742556D01*
X145439102Y-110585513D01*
X145419919Y-110560513D01*
X145419918Y-110560512D01*
X145419911Y-110560504D01*
X145257670Y-110398263D01*
X145257661Y-110398255D01*
X145075617Y-110258566D01*
X144876890Y-110143831D01*
X144876876Y-110143824D01*
X144664887Y-110056016D01*
X144629846Y-110046627D01*
X144443238Y-109996626D01*
X144405215Y-109991620D01*
X144215741Y-109966674D01*
X144215734Y-109966674D01*
X143986266Y-109966674D01*
X143986258Y-109966674D01*
X143769715Y-109995183D01*
X143758762Y-109996626D01*
X143683941Y-110016674D01*
X143537112Y-110056016D01*
X143325123Y-110143824D01*
X143325109Y-110143831D01*
X143126382Y-110258566D01*
X142944338Y-110398255D01*
X142782081Y-110560512D01*
X142642392Y-110742556D01*
X142527657Y-110941283D01*
X142527650Y-110941297D01*
X142439842Y-111153286D01*
X142380453Y-111374933D01*
X142380451Y-111374944D01*
X142350500Y-111602432D01*
X133707500Y-111602432D01*
X133707500Y-103666117D01*
X133666577Y-103513390D01*
X133624235Y-103440050D01*
X133587524Y-103376464D01*
X133587521Y-103376460D01*
X133587520Y-103376458D01*
X133475716Y-103264654D01*
X133475715Y-103264653D01*
X133471385Y-103260323D01*
X133471374Y-103260313D01*
X132085415Y-101874354D01*
X132051930Y-101813031D01*
X132056914Y-101743339D01*
X132098786Y-101687406D01*
X132164250Y-101662989D01*
X132173096Y-101662673D01*
X132773871Y-101662673D01*
X132773872Y-101662673D01*
X132833483Y-101656265D01*
X132968331Y-101605970D01*
X133083546Y-101519720D01*
X133169796Y-101404505D01*
X133220091Y-101269657D01*
X133226500Y-101210047D01*
X133226500Y-101086674D01*
X133246185Y-101019635D01*
X133298989Y-100973880D01*
X133350500Y-100962674D01*
X149601501Y-100962674D01*
X149668540Y-100982359D01*
G37*
%TD.AperFunction*%
%TA.AperFunction,NonConductor*%
G36*
X174377534Y-86084215D02*
G01*
X174433467Y-86126087D01*
X174457884Y-86191551D01*
X174458200Y-86200397D01*
X174458200Y-86323355D01*
X174492101Y-86537401D01*
X174510620Y-86594394D01*
X174512615Y-86664235D01*
X174480370Y-86720393D01*
X174292482Y-86908281D01*
X174292476Y-86908287D01*
X174288986Y-86911778D01*
X174288984Y-86911780D01*
X174177180Y-87023584D01*
X174147082Y-87075716D01*
X174141418Y-87085524D01*
X174141417Y-87085527D01*
X174098124Y-87160513D01*
X174098123Y-87160515D01*
X174057199Y-87313243D01*
X174057199Y-87313245D01*
X174057199Y-87481346D01*
X174057200Y-87481359D01*
X174057200Y-116842376D01*
X174037515Y-116909415D01*
X174020881Y-116930057D01*
X171598180Y-119352758D01*
X171578743Y-119363370D01*
X171562010Y-119377871D01*
X171548678Y-119379787D01*
X171536857Y-119386243D01*
X171514770Y-119384663D01*
X171492852Y-119387815D01*
X171480600Y-119382219D01*
X171467165Y-119381259D01*
X171449438Y-119367988D01*
X171429296Y-119358790D01*
X171422013Y-119347458D01*
X171411232Y-119339387D01*
X171403494Y-119318641D01*
X171391522Y-119300012D01*
X171388370Y-119278093D01*
X171386815Y-119273923D01*
X171386499Y-119265077D01*
X171386499Y-119112271D01*
X171406184Y-119045232D01*
X171422818Y-119024590D01*
X171677381Y-118770027D01*
X171985713Y-118461695D01*
X171985716Y-118461694D01*
X172097520Y-118349890D01*
X172147639Y-118263078D01*
X172176577Y-118212959D01*
X172217501Y-118060231D01*
X172217501Y-117902117D01*
X172217501Y-117894522D01*
X172217500Y-117894504D01*
X172217500Y-88193097D01*
X172237185Y-88126058D01*
X172253819Y-88105416D01*
X174246519Y-86112716D01*
X174307842Y-86079231D01*
X174377534Y-86084215D01*
G37*
%TD.AperFunction*%
%TA.AperFunction,NonConductor*%
G36*
X189431703Y-87961384D02*
G01*
X189438181Y-87967416D01*
X189720370Y-88249605D01*
X189753855Y-88310928D01*
X189750620Y-88375603D01*
X189732102Y-88432595D01*
X189698200Y-88646644D01*
X189698200Y-88863355D01*
X189732102Y-89077402D01*
X189732102Y-89077405D01*
X189799068Y-89283505D01*
X189799070Y-89283508D01*
X189897455Y-89476600D01*
X190024836Y-89651925D01*
X190178075Y-89805164D01*
X190353400Y-89932545D01*
X190498200Y-90006324D01*
X190546494Y-90030931D01*
X190752595Y-90097897D01*
X190752596Y-90097897D01*
X190752599Y-90097898D01*
X190966644Y-90131800D01*
X190966645Y-90131800D01*
X191183355Y-90131800D01*
X191183356Y-90131800D01*
X191397401Y-90097898D01*
X191489482Y-90067978D01*
X191559322Y-90065984D01*
X191619155Y-90102064D01*
X191649984Y-90164764D01*
X191651800Y-90185910D01*
X191651800Y-113997602D01*
X191632115Y-114064641D01*
X191615481Y-114085283D01*
X185124640Y-120576123D01*
X185063317Y-120609608D01*
X184998641Y-120606373D01*
X184834757Y-120553124D01*
X184669238Y-120526908D01*
X184622467Y-120519500D01*
X184407533Y-120519500D01*
X184360762Y-120526908D01*
X184195243Y-120553124D01*
X184195240Y-120553124D01*
X183990832Y-120619540D01*
X183990829Y-120619542D01*
X183955795Y-120637393D01*
X183887125Y-120650289D01*
X183822385Y-120624013D01*
X183782128Y-120566906D01*
X183775500Y-120526908D01*
X183775500Y-109425096D01*
X183795185Y-109358057D01*
X183811814Y-109337420D01*
X185912821Y-107236412D01*
X185974142Y-107202929D01*
X186043834Y-107207913D01*
X186099767Y-107249785D01*
X186124184Y-107315249D01*
X186124500Y-107324095D01*
X186124500Y-108262870D01*
X186124501Y-108262876D01*
X186130908Y-108322483D01*
X186181202Y-108457328D01*
X186181206Y-108457335D01*
X186267452Y-108572544D01*
X186267455Y-108572547D01*
X186382664Y-108658793D01*
X186382671Y-108658797D01*
X186517517Y-108709091D01*
X186517516Y-108709091D01*
X186524444Y-108709835D01*
X186577127Y-108715500D01*
X188372872Y-108715499D01*
X188432483Y-108709091D01*
X188567331Y-108658796D01*
X188682546Y-108572546D01*
X188768796Y-108457331D01*
X188819091Y-108322483D01*
X188825500Y-108262873D01*
X188825499Y-106915095D01*
X188834143Y-106885655D01*
X188840667Y-106855669D01*
X188844421Y-106850653D01*
X188845184Y-106848057D01*
X188861813Y-106827420D01*
X188984506Y-106704728D01*
X188984511Y-106704724D01*
X188994714Y-106694520D01*
X188994716Y-106694520D01*
X189106520Y-106582716D01*
X189174543Y-106464896D01*
X189185577Y-106445785D01*
X189226501Y-106293057D01*
X189226501Y-106134942D01*
X189226501Y-106127347D01*
X189226500Y-106127329D01*
X189226500Y-88055097D01*
X189246185Y-87988058D01*
X189298989Y-87942303D01*
X189368147Y-87932359D01*
X189431703Y-87961384D01*
G37*
%TD.AperFunction*%
%TA.AperFunction,NonConductor*%
G36*
X179610703Y-104820384D02*
G01*
X179617181Y-104826416D01*
X181338181Y-106547416D01*
X181371666Y-106608739D01*
X181374500Y-106635097D01*
X181374500Y-120582446D01*
X181354815Y-120649485D01*
X181306796Y-120692930D01*
X181259323Y-120717118D01*
X181085438Y-120843454D01*
X180990910Y-120937982D01*
X180929586Y-120971466D01*
X180859895Y-120966482D01*
X180803962Y-120924610D01*
X180787047Y-120893632D01*
X180743798Y-120777673D01*
X180743793Y-120777664D01*
X180657547Y-120662455D01*
X180657544Y-120662452D01*
X180542335Y-120576206D01*
X180542328Y-120576202D01*
X180407482Y-120525908D01*
X180407483Y-120525908D01*
X180347883Y-120519501D01*
X180347881Y-120519500D01*
X180347873Y-120519500D01*
X180347864Y-120519500D01*
X178522129Y-120519500D01*
X178522123Y-120519501D01*
X178462516Y-120525908D01*
X178327671Y-120576202D01*
X178327664Y-120576206D01*
X178212455Y-120662452D01*
X178212452Y-120662455D01*
X178126206Y-120777664D01*
X178126202Y-120777671D01*
X178075908Y-120912517D01*
X178069501Y-120972116D01*
X178069500Y-120972135D01*
X178069500Y-122002903D01*
X178049815Y-122069942D01*
X177997011Y-122115697D01*
X177927853Y-122125641D01*
X177864297Y-122096616D01*
X177857819Y-122090584D01*
X177540819Y-121773584D01*
X177507334Y-121712261D01*
X177504500Y-121685903D01*
X177504500Y-108906802D01*
X177524185Y-108839763D01*
X177576989Y-108794008D01*
X177646147Y-108784064D01*
X177666812Y-108788869D01*
X177738757Y-108812246D01*
X177948713Y-108845500D01*
X177948714Y-108845500D01*
X178161286Y-108845500D01*
X178161287Y-108845500D01*
X178371243Y-108812246D01*
X178573412Y-108746557D01*
X178762816Y-108650051D01*
X178852699Y-108584748D01*
X178934786Y-108525109D01*
X178934788Y-108525106D01*
X178934792Y-108525104D01*
X179085104Y-108374792D01*
X179085106Y-108374788D01*
X179085109Y-108374786D01*
X179210048Y-108202820D01*
X179210047Y-108202820D01*
X179210051Y-108202816D01*
X179306557Y-108013412D01*
X179372246Y-107811243D01*
X179405500Y-107601287D01*
X179405500Y-107388713D01*
X179372246Y-107178757D01*
X179306557Y-106976588D01*
X179210051Y-106787184D01*
X179210049Y-106787181D01*
X179210048Y-106787179D01*
X179085109Y-106615213D01*
X178934786Y-106464890D01*
X178762820Y-106339951D01*
X178762115Y-106339591D01*
X178754054Y-106335485D01*
X178703259Y-106287512D01*
X178686463Y-106219692D01*
X178708999Y-106153556D01*
X178754054Y-106114515D01*
X178762816Y-106110051D01*
X178784789Y-106094086D01*
X178934786Y-105985109D01*
X178934788Y-105985106D01*
X178934792Y-105985104D01*
X179085104Y-105834792D01*
X179085106Y-105834788D01*
X179085109Y-105834786D01*
X179210048Y-105662820D01*
X179210047Y-105662820D01*
X179210051Y-105662816D01*
X179306557Y-105473412D01*
X179372246Y-105271243D01*
X179405500Y-105061287D01*
X179405500Y-104914097D01*
X179425185Y-104847058D01*
X179477989Y-104801303D01*
X179547147Y-104791359D01*
X179610703Y-104820384D01*
G37*
%TD.AperFunction*%
%TA.AperFunction,NonConductor*%
G36*
X156135523Y-52715003D02*
G01*
X193256797Y-52984142D01*
X193323689Y-53004312D01*
X193369060Y-53057447D01*
X193379793Y-53103111D01*
X193660302Y-60014723D01*
X193654339Y-60038567D01*
X193652587Y-60063081D01*
X193646013Y-60071863D01*
X193643352Y-60082505D01*
X193625447Y-60099338D01*
X193610718Y-60119016D01*
X193600439Y-60122850D01*
X193592447Y-60130364D01*
X193568281Y-60134845D01*
X193545254Y-60143435D01*
X193534535Y-60141103D01*
X193523749Y-60143104D01*
X193500994Y-60133808D01*
X193476981Y-60128585D01*
X193463491Y-60118487D01*
X193459068Y-60116680D01*
X193448726Y-60107435D01*
X193433701Y-60092411D01*
X193423016Y-60081726D01*
X193423013Y-60081724D01*
X189733644Y-56392355D01*
X189733642Y-56392352D01*
X189614771Y-56273481D01*
X189614770Y-56273480D01*
X189527958Y-56223360D01*
X189527958Y-56223359D01*
X189527954Y-56223358D01*
X189477839Y-56194423D01*
X189325111Y-56153499D01*
X189166997Y-56153499D01*
X189159401Y-56153499D01*
X189159385Y-56153500D01*
X169377048Y-56153500D01*
X169336127Y-56164464D01*
X169336127Y-56164465D01*
X169298859Y-56174451D01*
X169224322Y-56194423D01*
X169224317Y-56194426D01*
X169087398Y-56273475D01*
X169087390Y-56273481D01*
X168327439Y-57033432D01*
X168327429Y-57033442D01*
X168325286Y-57035586D01*
X168325284Y-57035588D01*
X168213480Y-57147392D01*
X168201370Y-57168368D01*
X168194753Y-57179828D01*
X168194752Y-57179830D01*
X168165757Y-57230051D01*
X168134423Y-57284323D01*
X168093499Y-57437051D01*
X168093499Y-57437053D01*
X168093499Y-57605154D01*
X168093500Y-57605167D01*
X168093500Y-61667330D01*
X168093499Y-61667348D01*
X168093499Y-61833054D01*
X168093498Y-61833054D01*
X168114245Y-61910483D01*
X168134423Y-61985785D01*
X168153342Y-62018553D01*
X168187368Y-62077488D01*
X168213479Y-62122714D01*
X168213481Y-62122717D01*
X168332349Y-62241585D01*
X168332355Y-62241590D01*
X168542200Y-62451435D01*
X168575685Y-62512758D01*
X168572450Y-62577433D01*
X168531447Y-62703628D01*
X168494500Y-62936902D01*
X168494500Y-63173097D01*
X168531446Y-63406368D01*
X168604433Y-63630996D01*
X168711657Y-63841433D01*
X168850483Y-64032510D01*
X169017490Y-64199517D01*
X169208567Y-64338343D01*
X169307991Y-64389002D01*
X169419003Y-64445566D01*
X169419005Y-64445566D01*
X169419008Y-64445568D01*
X169539412Y-64484689D01*
X169643631Y-64518553D01*
X169876903Y-64555500D01*
X169876908Y-64555500D01*
X170113097Y-64555500D01*
X170346368Y-64518553D01*
X170390720Y-64504142D01*
X170570992Y-64445568D01*
X170781433Y-64338343D01*
X170972510Y-64199517D01*
X171139517Y-64032510D01*
X171278343Y-63841433D01*
X171385568Y-63630992D01*
X171458553Y-63406368D01*
X171483851Y-63246644D01*
X171495500Y-63173097D01*
X171495500Y-62936902D01*
X171458553Y-62703631D01*
X171396534Y-62512758D01*
X171385568Y-62479008D01*
X171385566Y-62479005D01*
X171385566Y-62479003D01*
X171329002Y-62367991D01*
X171278343Y-62268567D01*
X171139517Y-62077490D01*
X170972510Y-61910483D01*
X170781433Y-61771657D01*
X170758588Y-61760017D01*
X170570996Y-61664433D01*
X170346368Y-61591446D01*
X170113097Y-61554500D01*
X170113092Y-61554500D01*
X169876908Y-61554500D01*
X169876903Y-61554500D01*
X169643628Y-61591447D01*
X169517433Y-61632450D01*
X169502221Y-61632884D01*
X169487962Y-61638203D01*
X169468006Y-61633861D01*
X169447592Y-61634445D01*
X169433505Y-61626356D01*
X169419689Y-61623351D01*
X169391435Y-61602200D01*
X169330819Y-61541584D01*
X169297334Y-61480261D01*
X169294500Y-61453903D01*
X169294500Y-59575784D01*
X169314185Y-59508745D01*
X169366989Y-59462990D01*
X169436147Y-59453046D01*
X169456812Y-59457851D01*
X169570485Y-59494786D01*
X169643631Y-59518553D01*
X169876903Y-59555500D01*
X169876908Y-59555500D01*
X170113097Y-59555500D01*
X170346368Y-59518553D01*
X170401344Y-59500690D01*
X170570992Y-59445568D01*
X170781433Y-59338343D01*
X170972510Y-59199517D01*
X171139517Y-59032510D01*
X171278343Y-58841433D01*
X171338583Y-58723204D01*
X171386558Y-58672409D01*
X171449068Y-58655500D01*
X189679857Y-58655500D01*
X189746896Y-58675185D01*
X189767538Y-58691819D01*
X190471052Y-59395333D01*
X190504537Y-59456656D01*
X190499553Y-59526348D01*
X190457681Y-59582281D01*
X190439667Y-59593498D01*
X190353402Y-59637453D01*
X190178072Y-59764838D01*
X190024838Y-59918072D01*
X189897455Y-60093399D01*
X189799068Y-60286494D01*
X189732102Y-60492594D01*
X189732102Y-60492597D01*
X189698200Y-60706644D01*
X189698200Y-60923355D01*
X189732102Y-61137402D01*
X189732102Y-61137405D01*
X189799068Y-61343505D01*
X189799070Y-61343508D01*
X189897455Y-61536600D01*
X190024836Y-61711925D01*
X190024838Y-61711927D01*
X190026679Y-61713768D01*
X190027154Y-61714639D01*
X190028000Y-61715629D01*
X190027792Y-61715806D01*
X190060164Y-61775091D01*
X190055180Y-61844783D01*
X190026679Y-61889130D01*
X177674930Y-74240881D01*
X177613607Y-74274366D01*
X177587249Y-74277200D01*
X177194208Y-74277200D01*
X177127169Y-74257515D01*
X177081414Y-74204711D01*
X177071470Y-74135553D01*
X177083723Y-74096905D01*
X177093682Y-74077359D01*
X177110930Y-74043508D01*
X177113697Y-74034993D01*
X177177897Y-73837405D01*
X177177897Y-73837404D01*
X177177898Y-73837401D01*
X177211800Y-73623356D01*
X177211800Y-73406644D01*
X177177898Y-73192599D01*
X177177897Y-73192595D01*
X177177897Y-73192594D01*
X177110931Y-72986494D01*
X177048015Y-72863014D01*
X177012545Y-72793400D01*
X176885164Y-72618075D01*
X176731925Y-72464836D01*
X176656728Y-72410202D01*
X176567423Y-72345318D01*
X176524757Y-72289988D01*
X176518778Y-72220375D01*
X176551384Y-72158580D01*
X176567423Y-72144682D01*
X176626618Y-72101674D01*
X176731925Y-72025164D01*
X176885164Y-71871925D01*
X177012545Y-71696600D01*
X177110930Y-71503508D01*
X177177898Y-71297401D01*
X177211800Y-71083356D01*
X177211800Y-70866644D01*
X177177898Y-70652599D01*
X177177897Y-70652595D01*
X177177897Y-70652594D01*
X177110931Y-70446494D01*
X177110930Y-70446492D01*
X177012545Y-70253400D01*
X176885164Y-70078075D01*
X176731925Y-69924836D01*
X176725729Y-69920334D01*
X176567423Y-69805318D01*
X176524757Y-69749988D01*
X176518778Y-69680375D01*
X176551384Y-69618580D01*
X176567423Y-69604682D01*
X176614706Y-69570328D01*
X176731925Y-69485164D01*
X176885164Y-69331925D01*
X177012545Y-69156600D01*
X177110930Y-68963508D01*
X177110931Y-68963505D01*
X177177897Y-68757405D01*
X177177897Y-68757404D01*
X177177898Y-68757401D01*
X177211800Y-68543356D01*
X177211800Y-68326644D01*
X177177898Y-68112599D01*
X177177897Y-68112595D01*
X177177897Y-68112594D01*
X177110931Y-67906494D01*
X177085744Y-67857061D01*
X177012545Y-67713400D01*
X176885164Y-67538075D01*
X176731925Y-67384836D01*
X176731921Y-67384833D01*
X176567423Y-67265318D01*
X176524757Y-67209988D01*
X176518778Y-67140375D01*
X176551384Y-67078580D01*
X176567423Y-67064682D01*
X176614706Y-67030328D01*
X176731925Y-66945164D01*
X176885164Y-66791925D01*
X177012545Y-66616600D01*
X177110930Y-66423508D01*
X177177898Y-66217401D01*
X177211800Y-66003356D01*
X177211800Y-65786644D01*
X177177898Y-65572599D01*
X177177897Y-65572595D01*
X177177897Y-65572594D01*
X177110931Y-65366494D01*
X177012544Y-65173399D01*
X176885164Y-64998075D01*
X176731925Y-64844836D01*
X176666711Y-64797455D01*
X176567423Y-64725318D01*
X176524757Y-64669988D01*
X176518778Y-64600375D01*
X176551384Y-64538580D01*
X176567423Y-64524682D01*
X176614706Y-64490328D01*
X176731925Y-64405164D01*
X176885164Y-64251925D01*
X177012545Y-64076600D01*
X177110930Y-63883508D01*
X177177898Y-63677401D01*
X177211800Y-63463356D01*
X177211800Y-63246644D01*
X177177898Y-63032599D01*
X177177897Y-63032595D01*
X177177897Y-63032594D01*
X177110931Y-62826494D01*
X177065595Y-62737517D01*
X177012545Y-62633400D01*
X176885164Y-62458075D01*
X176804958Y-62377869D01*
X176771473Y-62316546D01*
X176776457Y-62246854D01*
X176818329Y-62190921D01*
X176849305Y-62174006D01*
X176953631Y-62135096D01*
X177068846Y-62048846D01*
X177155096Y-61933631D01*
X177205391Y-61798783D01*
X177211800Y-61739173D01*
X177211799Y-59890828D01*
X177205391Y-59831217D01*
X177202136Y-59822491D01*
X177155097Y-59696371D01*
X177155093Y-59696364D01*
X177068847Y-59581155D01*
X177068844Y-59581152D01*
X176953635Y-59494906D01*
X176953628Y-59494902D01*
X176818782Y-59444608D01*
X176818783Y-59444608D01*
X176759183Y-59438201D01*
X176759181Y-59438200D01*
X176759173Y-59438200D01*
X176759164Y-59438200D01*
X174910829Y-59438200D01*
X174910823Y-59438201D01*
X174851216Y-59444608D01*
X174716371Y-59494902D01*
X174716364Y-59494906D01*
X174601155Y-59581152D01*
X174601152Y-59581155D01*
X174514906Y-59696364D01*
X174514902Y-59696371D01*
X174464608Y-59831217D01*
X174458255Y-59890312D01*
X174458201Y-59890823D01*
X174458200Y-59890835D01*
X174458200Y-61739170D01*
X174458201Y-61739176D01*
X174464608Y-61798783D01*
X174514902Y-61933628D01*
X174514906Y-61933635D01*
X174601152Y-62048844D01*
X174601155Y-62048847D01*
X174716364Y-62135093D01*
X174716373Y-62135098D01*
X174820692Y-62174006D01*
X174876626Y-62215877D01*
X174901044Y-62281341D01*
X174886193Y-62349614D01*
X174865042Y-62377869D01*
X174784835Y-62458076D01*
X174657455Y-62633399D01*
X174559068Y-62826494D01*
X174492102Y-63032594D01*
X174492102Y-63032597D01*
X174458200Y-63246644D01*
X174458200Y-63463355D01*
X174492102Y-63677402D01*
X174492102Y-63677405D01*
X174559068Y-63883505D01*
X174634991Y-64032512D01*
X174657455Y-64076600D01*
X174784836Y-64251925D01*
X174938075Y-64405164D01*
X175051870Y-64487841D01*
X175102577Y-64524682D01*
X175145242Y-64580012D01*
X175151221Y-64649626D01*
X175118615Y-64711421D01*
X175102577Y-64725318D01*
X175036675Y-64773198D01*
X174938075Y-64844836D01*
X174938073Y-64844838D01*
X174938072Y-64844838D01*
X174784838Y-64998072D01*
X174657455Y-65173399D01*
X174559068Y-65366494D01*
X174492102Y-65572594D01*
X174492102Y-65572597D01*
X174458200Y-65786644D01*
X174458200Y-66003355D01*
X174492102Y-66217402D01*
X174492102Y-66217405D01*
X174559068Y-66423505D01*
X174559070Y-66423508D01*
X174657455Y-66616600D01*
X174784836Y-66791925D01*
X174938075Y-66945164D01*
X175051870Y-67027841D01*
X175102577Y-67064682D01*
X175145242Y-67120012D01*
X175151221Y-67189626D01*
X175118615Y-67251421D01*
X175102577Y-67265318D01*
X175036675Y-67313198D01*
X174938075Y-67384836D01*
X174938073Y-67384838D01*
X174938072Y-67384838D01*
X174784838Y-67538072D01*
X174657455Y-67713399D01*
X174559068Y-67906494D01*
X174492102Y-68112594D01*
X174492102Y-68112597D01*
X174458200Y-68326644D01*
X174458200Y-68543355D01*
X174492102Y-68757402D01*
X174492102Y-68757405D01*
X174559068Y-68963505D01*
X174559070Y-68963508D01*
X174657455Y-69156600D01*
X174784836Y-69331925D01*
X174938075Y-69485164D01*
X175051870Y-69567841D01*
X175102577Y-69604682D01*
X175145242Y-69660012D01*
X175151221Y-69729626D01*
X175118615Y-69791421D01*
X175102577Y-69805318D01*
X175036675Y-69853198D01*
X174938075Y-69924836D01*
X174938073Y-69924838D01*
X174938072Y-69924838D01*
X174784838Y-70078072D01*
X174657455Y-70253399D01*
X174559068Y-70446494D01*
X174492102Y-70652594D01*
X174492102Y-70652597D01*
X174458200Y-70866644D01*
X174458200Y-71083355D01*
X174492102Y-71297402D01*
X174492102Y-71297405D01*
X174559068Y-71503505D01*
X174650668Y-71683280D01*
X174657455Y-71696600D01*
X174784836Y-71871925D01*
X174938075Y-72025164D01*
X175043382Y-72101674D01*
X175102577Y-72144682D01*
X175145242Y-72200012D01*
X175151221Y-72269626D01*
X175118615Y-72331421D01*
X175102577Y-72345318D01*
X175036675Y-72393198D01*
X174938075Y-72464836D01*
X174938073Y-72464838D01*
X174938072Y-72464838D01*
X174784838Y-72618072D01*
X174657455Y-72793399D01*
X174559068Y-72986493D01*
X174557209Y-72990985D01*
X174556002Y-72990485D01*
X174519917Y-73043225D01*
X174455551Y-73070404D01*
X174386708Y-73058469D01*
X174353771Y-73034889D01*
X161512236Y-60193355D01*
X161512234Y-60193352D01*
X161393363Y-60074481D01*
X161393355Y-60074475D01*
X161267915Y-60002053D01*
X161267912Y-60002052D01*
X161256431Y-59995423D01*
X161103703Y-59954499D01*
X160945589Y-59954499D01*
X160937993Y-59954499D01*
X160937977Y-59954500D01*
X156949068Y-59954500D01*
X156882029Y-59934815D01*
X156838583Y-59886795D01*
X156778343Y-59768567D01*
X156708793Y-59672840D01*
X156685314Y-59607036D01*
X156701139Y-59538982D01*
X156734801Y-59500689D01*
X156737328Y-59498796D01*
X156737331Y-59498796D01*
X156852546Y-59412546D01*
X156938796Y-59297331D01*
X156989091Y-59162483D01*
X156995500Y-59102873D01*
X156995499Y-57007128D01*
X156989091Y-56947517D01*
X156938796Y-56812669D01*
X156938795Y-56812668D01*
X156938793Y-56812664D01*
X156852547Y-56697455D01*
X156852544Y-56697452D01*
X156737335Y-56611206D01*
X156737328Y-56611202D01*
X156602482Y-56560908D01*
X156602483Y-56560908D01*
X156542883Y-56554501D01*
X156542881Y-56554500D01*
X156542873Y-56554500D01*
X156542864Y-56554500D01*
X154447129Y-56554500D01*
X154447123Y-56554501D01*
X154387516Y-56560908D01*
X154252671Y-56611202D01*
X154252664Y-56611206D01*
X154137455Y-56697452D01*
X154137452Y-56697455D01*
X154051206Y-56812664D01*
X154051202Y-56812671D01*
X154000908Y-56947517D01*
X153994501Y-57007116D01*
X153994501Y-57007123D01*
X153994500Y-57007135D01*
X153994500Y-57330500D01*
X153974815Y-57397539D01*
X153922011Y-57443294D01*
X153870500Y-57454500D01*
X152817843Y-57454500D01*
X152817827Y-57454499D01*
X152810231Y-57454499D01*
X152652117Y-57454499D01*
X152544761Y-57483265D01*
X152499384Y-57495424D01*
X152499383Y-57495425D01*
X152449270Y-57524359D01*
X152449269Y-57524360D01*
X152405863Y-57549420D01*
X152362459Y-57574479D01*
X152362456Y-57574481D01*
X130384481Y-79552456D01*
X130384477Y-79552461D01*
X130336848Y-79634959D01*
X130336848Y-79634960D01*
X130305423Y-79689388D01*
X130305423Y-79689389D01*
X130264499Y-79842117D01*
X130264499Y-79842119D01*
X130264499Y-80010220D01*
X130264500Y-80010233D01*
X130264500Y-82036504D01*
X130264499Y-82036522D01*
X130264499Y-82202228D01*
X130264498Y-82202228D01*
X130296856Y-82322989D01*
X130305423Y-82354959D01*
X130330891Y-82399070D01*
X130360288Y-82449988D01*
X130384479Y-82491888D01*
X130384481Y-82491891D01*
X130503349Y-82610759D01*
X130503355Y-82610764D01*
X132390181Y-84497590D01*
X132423666Y-84558913D01*
X132426500Y-84585271D01*
X132426500Y-91366698D01*
X132406815Y-91433737D01*
X132354011Y-91479492D01*
X132284853Y-91489436D01*
X132264183Y-91484629D01*
X132230542Y-91473698D01*
X132230535Y-91473697D01*
X132129443Y-91457685D01*
X132028352Y-91441674D01*
X131823648Y-91441674D01*
X131799329Y-91445525D01*
X131621465Y-91473696D01*
X131426776Y-91536955D01*
X131244386Y-91629889D01*
X131078786Y-91750202D01*
X130934030Y-91894958D01*
X130846412Y-92015558D01*
X130791082Y-92058225D01*
X130746093Y-92066674D01*
X126724846Y-92066674D01*
X126657807Y-92046989D01*
X126612052Y-91994185D01*
X126610285Y-91990126D01*
X126569349Y-91891297D01*
X126569346Y-91891291D01*
X126569344Y-91891286D01*
X126454611Y-91692562D01*
X126454608Y-91692559D01*
X126454607Y-91692556D01*
X126314918Y-91510512D01*
X126314911Y-91510504D01*
X126152670Y-91348263D01*
X126152661Y-91348255D01*
X125970617Y-91208566D01*
X125953296Y-91198566D01*
X125771888Y-91093830D01*
X125771876Y-91093824D01*
X125559887Y-91006016D01*
X125522566Y-90996016D01*
X125338238Y-90946626D01*
X125300215Y-90941620D01*
X125110741Y-90916674D01*
X125110734Y-90916674D01*
X124881266Y-90916674D01*
X124881258Y-90916674D01*
X124664715Y-90945183D01*
X124653762Y-90946626D01*
X124560076Y-90971728D01*
X124432112Y-91006016D01*
X124220123Y-91093824D01*
X124220109Y-91093831D01*
X124021382Y-91208566D01*
X123839338Y-91348255D01*
X123677081Y-91510512D01*
X123537392Y-91692556D01*
X123422657Y-91891283D01*
X123422650Y-91891297D01*
X123338984Y-92093287D01*
X123334842Y-92103287D01*
X123278132Y-92314936D01*
X123275453Y-92324933D01*
X123275451Y-92324944D01*
X123245500Y-92552432D01*
X123245500Y-92781915D01*
X123270446Y-92971389D01*
X123275452Y-93009412D01*
X123332163Y-93221061D01*
X123334842Y-93231061D01*
X123422650Y-93443050D01*
X123422657Y-93443064D01*
X123461273Y-93509949D01*
X123531618Y-93631791D01*
X123537392Y-93641791D01*
X123677081Y-93823835D01*
X123677089Y-93823844D01*
X123839330Y-93986085D01*
X123839338Y-93986092D01*
X123839339Y-93986093D01*
X123889962Y-94024938D01*
X124021382Y-94125781D01*
X124021385Y-94125782D01*
X124021388Y-94125785D01*
X124220112Y-94240518D01*
X124220117Y-94240520D01*
X124220123Y-94240523D01*
X124311480Y-94278364D01*
X124432113Y-94328332D01*
X124653762Y-94387722D01*
X124881266Y-94417674D01*
X124881273Y-94417674D01*
X125110727Y-94417674D01*
X125110734Y-94417674D01*
X125338238Y-94387722D01*
X125559887Y-94328332D01*
X125771888Y-94240518D01*
X125970612Y-94125785D01*
X126152661Y-93986093D01*
X126152665Y-93986088D01*
X126152670Y-93986085D01*
X126314911Y-93823844D01*
X126314914Y-93823839D01*
X126314919Y-93823835D01*
X126454611Y-93641786D01*
X126569344Y-93443062D01*
X126610285Y-93344222D01*
X126654125Y-93289818D01*
X126720420Y-93267753D01*
X126724846Y-93267674D01*
X130658183Y-93267674D01*
X130725222Y-93287359D01*
X130768668Y-93335379D01*
X130813715Y-93423787D01*
X130934028Y-93589387D01*
X131078786Y-93734145D01*
X131202249Y-93823844D01*
X131244390Y-93854461D01*
X131360607Y-93913677D01*
X131426776Y-93947392D01*
X131426778Y-93947392D01*
X131426781Y-93947394D01*
X131531137Y-93981301D01*
X131621465Y-94010651D01*
X131722557Y-94026662D01*
X131823648Y-94042674D01*
X131823649Y-94042674D01*
X132028351Y-94042674D01*
X132028352Y-94042674D01*
X132230534Y-94010651D01*
X132230539Y-94010649D01*
X132230541Y-94010649D01*
X132264180Y-93999719D01*
X132334021Y-93997722D01*
X132393854Y-94033802D01*
X132424684Y-94096502D01*
X132426500Y-94117649D01*
X132426500Y-96759076D01*
X132406815Y-96826115D01*
X132390181Y-96846757D01*
X130344481Y-98892456D01*
X130344479Y-98892459D01*
X130294361Y-98979268D01*
X130294359Y-98979270D01*
X130265425Y-99029383D01*
X130265424Y-99029384D01*
X130263334Y-99037184D01*
X130224499Y-99182117D01*
X130224499Y-99182119D01*
X130224499Y-99350220D01*
X130224500Y-99350233D01*
X130224500Y-101376504D01*
X130224499Y-101376522D01*
X130224499Y-101542228D01*
X130224498Y-101542228D01*
X130262047Y-101682358D01*
X130265423Y-101694959D01*
X130288634Y-101735161D01*
X130294358Y-101745074D01*
X130294359Y-101745078D01*
X130294360Y-101745078D01*
X130318374Y-101786673D01*
X130344479Y-101831888D01*
X130344481Y-101831891D01*
X130463349Y-101950759D01*
X130463355Y-101950764D01*
X132470181Y-103957590D01*
X132503666Y-104018913D01*
X132506500Y-104045271D01*
X132506500Y-110516698D01*
X132486815Y-110583737D01*
X132434011Y-110629492D01*
X132364853Y-110639436D01*
X132344183Y-110634629D01*
X132310542Y-110623698D01*
X132310535Y-110623697D01*
X132209443Y-110607685D01*
X132108352Y-110591674D01*
X131903648Y-110591674D01*
X131879329Y-110595525D01*
X131701465Y-110623696D01*
X131506776Y-110686955D01*
X131324386Y-110779889D01*
X131158786Y-110900202D01*
X131014030Y-111044958D01*
X130962737Y-111115559D01*
X130907407Y-111158225D01*
X130862419Y-111166674D01*
X126724846Y-111166674D01*
X126657807Y-111146989D01*
X126612052Y-111094185D01*
X126610285Y-111090126D01*
X126569349Y-110991297D01*
X126569346Y-110991291D01*
X126569344Y-110991286D01*
X126454611Y-110792562D01*
X126454608Y-110792559D01*
X126454607Y-110792556D01*
X126353764Y-110661136D01*
X126314919Y-110610513D01*
X126314918Y-110610512D01*
X126314911Y-110610504D01*
X126152670Y-110448263D01*
X126152661Y-110448255D01*
X125970617Y-110308566D01*
X125771890Y-110193831D01*
X125771876Y-110193824D01*
X125559887Y-110106016D01*
X125338238Y-110046626D01*
X125300215Y-110041620D01*
X125110741Y-110016674D01*
X125110734Y-110016674D01*
X124881266Y-110016674D01*
X124881258Y-110016674D01*
X124664715Y-110045183D01*
X124653762Y-110046626D01*
X124618718Y-110056016D01*
X124432112Y-110106016D01*
X124220123Y-110193824D01*
X124220109Y-110193831D01*
X124021382Y-110308566D01*
X123839338Y-110448255D01*
X123677081Y-110610512D01*
X123537392Y-110792556D01*
X123422657Y-110991283D01*
X123422650Y-110991297D01*
X123345197Y-111178287D01*
X123334842Y-111203287D01*
X123282152Y-111399933D01*
X123275453Y-111424933D01*
X123275451Y-111424944D01*
X123245500Y-111652432D01*
X123245500Y-111881915D01*
X123270446Y-112071389D01*
X123275452Y-112109412D01*
X123275453Y-112109414D01*
X123334842Y-112331061D01*
X123422650Y-112543050D01*
X123422657Y-112543064D01*
X123447807Y-112586625D01*
X123536007Y-112739393D01*
X123537392Y-112741791D01*
X123677081Y-112923835D01*
X123677089Y-112923844D01*
X123839330Y-113086085D01*
X123839338Y-113086092D01*
X123839339Y-113086093D01*
X123889962Y-113124938D01*
X124021382Y-113225781D01*
X124021385Y-113225782D01*
X124021388Y-113225785D01*
X124220112Y-113340518D01*
X124220117Y-113340520D01*
X124220123Y-113340523D01*
X124311400Y-113378331D01*
X124432113Y-113428332D01*
X124653762Y-113487722D01*
X124881266Y-113517674D01*
X124881273Y-113517674D01*
X125110727Y-113517674D01*
X125110734Y-113517674D01*
X125338238Y-113487722D01*
X125559887Y-113428332D01*
X125771888Y-113340518D01*
X125970612Y-113225785D01*
X126152661Y-113086093D01*
X126152665Y-113086088D01*
X126152670Y-113086085D01*
X126314911Y-112923844D01*
X126314914Y-112923839D01*
X126314919Y-112923835D01*
X126454611Y-112741786D01*
X126569344Y-112543062D01*
X126569349Y-112543050D01*
X126610285Y-112444222D01*
X126654125Y-112389818D01*
X126720420Y-112367753D01*
X126724846Y-112367674D01*
X130712708Y-112367674D01*
X130779747Y-112387359D01*
X130823193Y-112435380D01*
X130893713Y-112573785D01*
X131014028Y-112739387D01*
X131158786Y-112884145D01*
X131302084Y-112988255D01*
X131324390Y-113004461D01*
X131435536Y-113061093D01*
X131506776Y-113097392D01*
X131506778Y-113097392D01*
X131506781Y-113097394D01*
X131611137Y-113131301D01*
X131701465Y-113160651D01*
X131797017Y-113175785D01*
X131903648Y-113192674D01*
X131903649Y-113192674D01*
X132108351Y-113192674D01*
X132108352Y-113192674D01*
X132310534Y-113160651D01*
X132310539Y-113160649D01*
X132310541Y-113160649D01*
X132344180Y-113149719D01*
X132414021Y-113147722D01*
X132473854Y-113183802D01*
X132504684Y-113246502D01*
X132506500Y-113267649D01*
X132506500Y-115909076D01*
X132486815Y-115976115D01*
X132470181Y-115996757D01*
X130424481Y-118042456D01*
X130424479Y-118042459D01*
X130405595Y-118075168D01*
X130379846Y-118119768D01*
X130374361Y-118129268D01*
X130374359Y-118129270D01*
X130345425Y-118179383D01*
X130345424Y-118179384D01*
X130345423Y-118179389D01*
X130304499Y-118332117D01*
X130304499Y-118332119D01*
X130304499Y-118500220D01*
X130304500Y-118500233D01*
X130304500Y-120534117D01*
X130304500Y-120692231D01*
X130345021Y-120843455D01*
X130345423Y-120844957D01*
X130345426Y-120844964D01*
X130424475Y-120981883D01*
X130424478Y-120981887D01*
X130424480Y-120981890D01*
X130536284Y-121093694D01*
X130536286Y-121093695D01*
X130536290Y-121093698D01*
X130615633Y-121139506D01*
X130673216Y-121172751D01*
X130825943Y-121213674D01*
X171100331Y-121213674D01*
X171100347Y-121213675D01*
X171107943Y-121213675D01*
X171266054Y-121213675D01*
X171266057Y-121213675D01*
X171418785Y-121172751D01*
X171476365Y-121139507D01*
X171555716Y-121093694D01*
X171667520Y-120981890D01*
X171667520Y-120981888D01*
X171677724Y-120971685D01*
X171677728Y-120971680D01*
X175016206Y-117633202D01*
X175016211Y-117633198D01*
X175026414Y-117622994D01*
X175026416Y-117622994D01*
X175138220Y-117511190D01*
X175209884Y-117387064D01*
X175217277Y-117374259D01*
X175258201Y-117221531D01*
X175258201Y-117063417D01*
X175258201Y-117055822D01*
X175258200Y-117055804D01*
X175258200Y-90185910D01*
X175277885Y-90118871D01*
X175330689Y-90073116D01*
X175399847Y-90063172D01*
X175420513Y-90067977D01*
X175476080Y-90086032D01*
X175512598Y-90097898D01*
X175619621Y-90114849D01*
X175726644Y-90131800D01*
X175726645Y-90131800D01*
X175943355Y-90131800D01*
X175943356Y-90131800D01*
X176157401Y-90097898D01*
X176157404Y-90097897D01*
X176157405Y-90097897D01*
X176363505Y-90030931D01*
X176363505Y-90030930D01*
X176363508Y-90030930D01*
X176556600Y-89932545D01*
X176731925Y-89805164D01*
X176885164Y-89651925D01*
X177012545Y-89476600D01*
X177110930Y-89283508D01*
X177177898Y-89077401D01*
X177208027Y-88887175D01*
X177237956Y-88824041D01*
X177297268Y-88787110D01*
X177367130Y-88788108D01*
X177425363Y-88826718D01*
X177453477Y-88890681D01*
X177454500Y-88906574D01*
X177454500Y-93320500D01*
X177434815Y-93387539D01*
X177382011Y-93433294D01*
X177330501Y-93444500D01*
X177157130Y-93444500D01*
X177157123Y-93444501D01*
X177097516Y-93450908D01*
X176962671Y-93501202D01*
X176962664Y-93501206D01*
X176847455Y-93587452D01*
X176847452Y-93587455D01*
X176761206Y-93702664D01*
X176761202Y-93702671D01*
X176710908Y-93837517D01*
X176706529Y-93878255D01*
X176704501Y-93897123D01*
X176704500Y-93897135D01*
X176704500Y-95692870D01*
X176704501Y-95692876D01*
X176710908Y-95752483D01*
X176761202Y-95887328D01*
X176761206Y-95887335D01*
X176847452Y-96002544D01*
X176847455Y-96002547D01*
X176962664Y-96088793D01*
X176962671Y-96088797D01*
X177094082Y-96137810D01*
X177150016Y-96179681D01*
X177174433Y-96245145D01*
X177159582Y-96313418D01*
X177138431Y-96341673D01*
X177024889Y-96455215D01*
X176899951Y-96627179D01*
X176803444Y-96816585D01*
X176803443Y-96816587D01*
X176803443Y-96816588D01*
X176786919Y-96867444D01*
X176737753Y-97018760D01*
X176728655Y-97076206D01*
X176704500Y-97228713D01*
X176704500Y-97441287D01*
X176711205Y-97483619D01*
X176737754Y-97651244D01*
X176737754Y-97651247D01*
X176751491Y-97693523D01*
X176753486Y-97763364D01*
X176721241Y-97819522D01*
X176535286Y-98005478D01*
X176423481Y-98117282D01*
X176423480Y-98117284D01*
X176383134Y-98187167D01*
X176373361Y-98204094D01*
X176373359Y-98204096D01*
X176344425Y-98254209D01*
X176344424Y-98254210D01*
X176344423Y-98254215D01*
X176303499Y-98406943D01*
X176303499Y-98406945D01*
X176303499Y-98575046D01*
X176303500Y-98575059D01*
X176303500Y-121899330D01*
X176303499Y-121899348D01*
X176303499Y-122065054D01*
X176303498Y-122065054D01*
X176303499Y-122065057D01*
X176344423Y-122217785D01*
X176371831Y-122265257D01*
X176423477Y-122354712D01*
X176423481Y-122354717D01*
X176542349Y-122473585D01*
X176542355Y-122473590D01*
X178185139Y-124116374D01*
X178185149Y-124116385D01*
X178189479Y-124120715D01*
X178189480Y-124120716D01*
X178301284Y-124232520D01*
X178388095Y-124282639D01*
X178388097Y-124282641D01*
X178426151Y-124304611D01*
X178438215Y-124311577D01*
X178590943Y-124352500D01*
X178749057Y-124352500D01*
X184510304Y-124352500D01*
X184510320Y-124352501D01*
X184517916Y-124352501D01*
X184676027Y-124352501D01*
X184676030Y-124352501D01*
X184828758Y-124311577D01*
X184878877Y-124282639D01*
X184965689Y-124232520D01*
X185077493Y-124120716D01*
X185077493Y-124120714D01*
X185087701Y-124110507D01*
X185087702Y-124110504D01*
X193534820Y-115663389D01*
X193613877Y-115526457D01*
X193654801Y-115373730D01*
X193654801Y-115215615D01*
X193654801Y-115208020D01*
X193654800Y-115208002D01*
X193654800Y-65992261D01*
X193674485Y-65925222D01*
X193727289Y-65879467D01*
X193796447Y-65869523D01*
X193860003Y-65898548D01*
X193897777Y-65957326D01*
X193902698Y-65987233D01*
X195953125Y-116508819D01*
X195936175Y-116576601D01*
X195926190Y-116591140D01*
X187622517Y-127007934D01*
X187565336Y-127048086D01*
X187524812Y-127054639D01*
X114085010Y-126615000D01*
X114085007Y-126615000D01*
X114085000Y-126615000D01*
X113794934Y-126619729D01*
X112373567Y-126642903D01*
X112306216Y-126624313D01*
X112259606Y-126572262D01*
X112247571Y-126516439D01*
X112442729Y-116758595D01*
X116250500Y-116758595D01*
X116250500Y-116935752D01*
X116278214Y-117110730D01*
X116332956Y-117279213D01*
X116332957Y-117279216D01*
X116400648Y-117412064D01*
X116413386Y-117437064D01*
X116517517Y-117580388D01*
X116642786Y-117705657D01*
X116786110Y-117809788D01*
X116845828Y-117840216D01*
X116943957Y-117890216D01*
X116943960Y-117890217D01*
X117028201Y-117917588D01*
X117112445Y-117944960D01*
X117287421Y-117972674D01*
X117287422Y-117972674D01*
X117464578Y-117972674D01*
X117464579Y-117972674D01*
X117639555Y-117944960D01*
X117808042Y-117890216D01*
X117965890Y-117809788D01*
X118109214Y-117705657D01*
X118234483Y-117580388D01*
X118338614Y-117437064D01*
X118419042Y-117279216D01*
X118473786Y-117110729D01*
X118501500Y-116935753D01*
X118501500Y-116758595D01*
X118492165Y-116699660D01*
X120205500Y-116699660D01*
X120205500Y-116994687D01*
X120220778Y-117110729D01*
X120244007Y-117287167D01*
X120315877Y-117555390D01*
X120320361Y-117572125D01*
X120320364Y-117572135D01*
X120433254Y-117844674D01*
X120433258Y-117844684D01*
X120580761Y-118100167D01*
X120760352Y-118334214D01*
X120760358Y-118334221D01*
X120968952Y-118542815D01*
X120968959Y-118542821D01*
X121203006Y-118722412D01*
X121458489Y-118869915D01*
X121458490Y-118869915D01*
X121458493Y-118869917D01*
X121731048Y-118982813D01*
X122016007Y-119059167D01*
X122308494Y-119097674D01*
X122308501Y-119097674D01*
X122603499Y-119097674D01*
X122603506Y-119097674D01*
X122895993Y-119059167D01*
X123180952Y-118982813D01*
X123453507Y-118869917D01*
X123708994Y-118722412D01*
X123943042Y-118542820D01*
X124151646Y-118334216D01*
X124331238Y-118100168D01*
X124478743Y-117844681D01*
X124591639Y-117572126D01*
X124667993Y-117287167D01*
X124706500Y-116994680D01*
X124706500Y-116758595D01*
X126410500Y-116758595D01*
X126410500Y-116935752D01*
X126438214Y-117110730D01*
X126492956Y-117279213D01*
X126492957Y-117279216D01*
X126560648Y-117412064D01*
X126573386Y-117437064D01*
X126677517Y-117580388D01*
X126802786Y-117705657D01*
X126946110Y-117809788D01*
X127005828Y-117840216D01*
X127103957Y-117890216D01*
X127103960Y-117890217D01*
X127188201Y-117917588D01*
X127272445Y-117944960D01*
X127447421Y-117972674D01*
X127447422Y-117972674D01*
X127624578Y-117972674D01*
X127624579Y-117972674D01*
X127799555Y-117944960D01*
X127968042Y-117890216D01*
X128125890Y-117809788D01*
X128269214Y-117705657D01*
X128394483Y-117580388D01*
X128498614Y-117437064D01*
X128579042Y-117279216D01*
X128633786Y-117110729D01*
X128661500Y-116935753D01*
X128661500Y-116758595D01*
X128633786Y-116583619D01*
X128587434Y-116440959D01*
X128579043Y-116415134D01*
X128579042Y-116415131D01*
X128498613Y-116257283D01*
X128480450Y-116232284D01*
X128394483Y-116113960D01*
X128269214Y-115988691D01*
X128125890Y-115884560D01*
X128117953Y-115880516D01*
X127968042Y-115804131D01*
X127968039Y-115804130D01*
X127799556Y-115749388D01*
X127678939Y-115730284D01*
X127624579Y-115721674D01*
X127447421Y-115721674D01*
X127393061Y-115730284D01*
X127272443Y-115749388D01*
X127103960Y-115804130D01*
X127103957Y-115804131D01*
X126946109Y-115884560D01*
X126865219Y-115943331D01*
X126802786Y-115988691D01*
X126802784Y-115988693D01*
X126802783Y-115988693D01*
X126677519Y-116113957D01*
X126677519Y-116113958D01*
X126677517Y-116113960D01*
X126650456Y-116151206D01*
X126573386Y-116257283D01*
X126492957Y-116415131D01*
X126492956Y-116415134D01*
X126438214Y-116583617D01*
X126410500Y-116758595D01*
X124706500Y-116758595D01*
X124706500Y-116699668D01*
X124667993Y-116407181D01*
X124591639Y-116122222D01*
X124478743Y-115849667D01*
X124467690Y-115830523D01*
X124331238Y-115594180D01*
X124151647Y-115360133D01*
X124151641Y-115360126D01*
X123943047Y-115151532D01*
X123943040Y-115151526D01*
X123708993Y-114971935D01*
X123453510Y-114824432D01*
X123453500Y-114824428D01*
X123180961Y-114711538D01*
X123180954Y-114711536D01*
X123180952Y-114711535D01*
X122895993Y-114635181D01*
X122847113Y-114628745D01*
X122603513Y-114596674D01*
X122603506Y-114596674D01*
X122308494Y-114596674D01*
X122308486Y-114596674D01*
X122030085Y-114633327D01*
X122016007Y-114635181D01*
X121917652Y-114661535D01*
X121731048Y-114711535D01*
X121731038Y-114711538D01*
X121458499Y-114824428D01*
X121458489Y-114824432D01*
X121203006Y-114971935D01*
X120968959Y-115151526D01*
X120968952Y-115151532D01*
X120760358Y-115360126D01*
X120760352Y-115360133D01*
X120580761Y-115594180D01*
X120433258Y-115849663D01*
X120433254Y-115849673D01*
X120320364Y-116122212D01*
X120320361Y-116122222D01*
X120250707Y-116382178D01*
X120244008Y-116407178D01*
X120244006Y-116407189D01*
X120205500Y-116699660D01*
X118492165Y-116699660D01*
X118473786Y-116583619D01*
X118427434Y-116440959D01*
X118419043Y-116415134D01*
X118419042Y-116415131D01*
X118338613Y-116257283D01*
X118327518Y-116242012D01*
X118304038Y-116176206D01*
X118319863Y-116108152D01*
X118369968Y-116059457D01*
X118438446Y-116045581D01*
X118443977Y-116046182D01*
X118531266Y-116057674D01*
X118531273Y-116057674D01*
X118760727Y-116057674D01*
X118760734Y-116057674D01*
X118988238Y-116027722D01*
X119209887Y-115968332D01*
X119421888Y-115880518D01*
X119620612Y-115765785D01*
X119802661Y-115626093D01*
X119802665Y-115626088D01*
X119802670Y-115626085D01*
X119964911Y-115463844D01*
X119964914Y-115463839D01*
X119964919Y-115463835D01*
X120104611Y-115281786D01*
X120219344Y-115083062D01*
X120307158Y-114871061D01*
X120366548Y-114649412D01*
X120396500Y-114421908D01*
X120396500Y-114192440D01*
X120366548Y-113964936D01*
X120307158Y-113743287D01*
X120219344Y-113531286D01*
X120104611Y-113332562D01*
X120104608Y-113332559D01*
X120104607Y-113332556D01*
X119972697Y-113160650D01*
X119964919Y-113150513D01*
X119964918Y-113150512D01*
X119964911Y-113150504D01*
X119802670Y-112988263D01*
X119802661Y-112988255D01*
X119620617Y-112848566D01*
X119421890Y-112733831D01*
X119421876Y-112733824D01*
X119209887Y-112646016D01*
X118988238Y-112586626D01*
X118950215Y-112581620D01*
X118760741Y-112556674D01*
X118760734Y-112556674D01*
X118531266Y-112556674D01*
X118531258Y-112556674D01*
X118314715Y-112585183D01*
X118303762Y-112586626D01*
X118268718Y-112596016D01*
X118082112Y-112646016D01*
X117870123Y-112733824D01*
X117870109Y-112733831D01*
X117671382Y-112848566D01*
X117489338Y-112988255D01*
X117327081Y-113150512D01*
X117187392Y-113332556D01*
X117072657Y-113531283D01*
X117072650Y-113531297D01*
X116995197Y-113718287D01*
X116984842Y-113743287D01*
X116932152Y-113939933D01*
X116925453Y-113964933D01*
X116925451Y-113964944D01*
X116895500Y-114192432D01*
X116895500Y-114421915D01*
X116920287Y-114610180D01*
X116925452Y-114649412D01*
X116958951Y-114774432D01*
X116984842Y-114871061D01*
X117072650Y-115083050D01*
X117072657Y-115083064D01*
X117097750Y-115126526D01*
X117158524Y-115231791D01*
X117187392Y-115281791D01*
X117327081Y-115463835D01*
X117327089Y-115463844D01*
X117373238Y-115509993D01*
X117406723Y-115571316D01*
X117401739Y-115641008D01*
X117359867Y-115696941D01*
X117294403Y-115721358D01*
X117288967Y-115721552D01*
X117287423Y-115721673D01*
X117112443Y-115749388D01*
X116943960Y-115804130D01*
X116943957Y-115804131D01*
X116786109Y-115884560D01*
X116705219Y-115943331D01*
X116642786Y-115988691D01*
X116642784Y-115988693D01*
X116642783Y-115988693D01*
X116517519Y-116113957D01*
X116517519Y-116113958D01*
X116517517Y-116113960D01*
X116490456Y-116151206D01*
X116413386Y-116257283D01*
X116332957Y-116415131D01*
X116332956Y-116415134D01*
X116278214Y-116583617D01*
X116250500Y-116758595D01*
X112442729Y-116758595D01*
X112442876Y-116751243D01*
X112442876Y-116751242D01*
X112445000Y-116645015D01*
X112465956Y-97658595D01*
X116250500Y-97658595D01*
X116250500Y-97835752D01*
X116278214Y-98010730D01*
X116332956Y-98179213D01*
X116332957Y-98179216D01*
X116371172Y-98254215D01*
X116413386Y-98337064D01*
X116517517Y-98480388D01*
X116642786Y-98605657D01*
X116786110Y-98709788D01*
X116834965Y-98734681D01*
X116943957Y-98790216D01*
X116943960Y-98790217D01*
X117028201Y-98817588D01*
X117112445Y-98844960D01*
X117287421Y-98872674D01*
X117287422Y-98872674D01*
X117464578Y-98872674D01*
X117464579Y-98872674D01*
X117639555Y-98844960D01*
X117808042Y-98790216D01*
X117965890Y-98709788D01*
X118109214Y-98605657D01*
X118234483Y-98480388D01*
X118338614Y-98337064D01*
X118419042Y-98179216D01*
X118473786Y-98010729D01*
X118501500Y-97835753D01*
X118501500Y-97658595D01*
X118492165Y-97599660D01*
X120205500Y-97599660D01*
X120205500Y-97894687D01*
X120225003Y-98042820D01*
X120244007Y-98187167D01*
X120319896Y-98470389D01*
X120320361Y-98472125D01*
X120320364Y-98472135D01*
X120433254Y-98744674D01*
X120433258Y-98744684D01*
X120580761Y-99000167D01*
X120760352Y-99234214D01*
X120760358Y-99234221D01*
X120968952Y-99442815D01*
X120968959Y-99442821D01*
X121203006Y-99622412D01*
X121458489Y-99769915D01*
X121458490Y-99769915D01*
X121458493Y-99769917D01*
X121731048Y-99882813D01*
X122016007Y-99959167D01*
X122308494Y-99997674D01*
X122308501Y-99997674D01*
X122603499Y-99997674D01*
X122603506Y-99997674D01*
X122895993Y-99959167D01*
X123180952Y-99882813D01*
X123453507Y-99769917D01*
X123708994Y-99622412D01*
X123943042Y-99442820D01*
X124151646Y-99234216D01*
X124331238Y-99000168D01*
X124478743Y-98744681D01*
X124591639Y-98472126D01*
X124667993Y-98187167D01*
X124706500Y-97894680D01*
X124706500Y-97658595D01*
X126410500Y-97658595D01*
X126410500Y-97835752D01*
X126438214Y-98010730D01*
X126492956Y-98179213D01*
X126492957Y-98179216D01*
X126531172Y-98254215D01*
X126573386Y-98337064D01*
X126677517Y-98480388D01*
X126802786Y-98605657D01*
X126946110Y-98709788D01*
X126994965Y-98734681D01*
X127103957Y-98790216D01*
X127103960Y-98790217D01*
X127188201Y-98817588D01*
X127272445Y-98844960D01*
X127447421Y-98872674D01*
X127447422Y-98872674D01*
X127624578Y-98872674D01*
X127624579Y-98872674D01*
X127799555Y-98844960D01*
X127968042Y-98790216D01*
X128125890Y-98709788D01*
X128269214Y-98605657D01*
X128394483Y-98480388D01*
X128498614Y-98337064D01*
X128579042Y-98179216D01*
X128633786Y-98010729D01*
X128661500Y-97835753D01*
X128661500Y-97658595D01*
X128633786Y-97483619D01*
X128587472Y-97341078D01*
X128579043Y-97315134D01*
X128579042Y-97315131D01*
X128498613Y-97157283D01*
X128394483Y-97013960D01*
X128269214Y-96888691D01*
X128125890Y-96784560D01*
X128098341Y-96770523D01*
X127968042Y-96704131D01*
X127968039Y-96704130D01*
X127799556Y-96649388D01*
X127659367Y-96627184D01*
X127624579Y-96621674D01*
X127447421Y-96621674D01*
X127412633Y-96627184D01*
X127272443Y-96649388D01*
X127103960Y-96704130D01*
X127103957Y-96704131D01*
X126946109Y-96784560D01*
X126902031Y-96816585D01*
X126802786Y-96888691D01*
X126802784Y-96888693D01*
X126802783Y-96888693D01*
X126677519Y-97013957D01*
X126677519Y-97013958D01*
X126677517Y-97013960D01*
X126639558Y-97066206D01*
X126573386Y-97157283D01*
X126492957Y-97315131D01*
X126492956Y-97315134D01*
X126438214Y-97483617D01*
X126410500Y-97658595D01*
X124706500Y-97658595D01*
X124706500Y-97599668D01*
X124667993Y-97307181D01*
X124591639Y-97022222D01*
X124478743Y-96749667D01*
X124472967Y-96739663D01*
X124331238Y-96494180D01*
X124151647Y-96260133D01*
X124151641Y-96260126D01*
X123943047Y-96051532D01*
X123943040Y-96051526D01*
X123708993Y-95871935D01*
X123453510Y-95724432D01*
X123453500Y-95724428D01*
X123180961Y-95611538D01*
X123180954Y-95611536D01*
X123180952Y-95611535D01*
X122895993Y-95535181D01*
X122847113Y-95528745D01*
X122603513Y-95496674D01*
X122603506Y-95496674D01*
X122308494Y-95496674D01*
X122308486Y-95496674D01*
X122030085Y-95533327D01*
X122016007Y-95535181D01*
X121768369Y-95601535D01*
X121731048Y-95611535D01*
X121731038Y-95611538D01*
X121458499Y-95724428D01*
X121458489Y-95724432D01*
X121203006Y-95871935D01*
X120968959Y-96051526D01*
X120968952Y-96051532D01*
X120760358Y-96260126D01*
X120760352Y-96260133D01*
X120580761Y-96494180D01*
X120433258Y-96749663D01*
X120433254Y-96749673D01*
X120320364Y-97022212D01*
X120320361Y-97022222D01*
X120244556Y-97305134D01*
X120244008Y-97307178D01*
X120244006Y-97307189D01*
X120205500Y-97599660D01*
X118492165Y-97599660D01*
X118473786Y-97483619D01*
X118427472Y-97341078D01*
X118419043Y-97315134D01*
X118419042Y-97315131D01*
X118338613Y-97157283D01*
X118331348Y-97147284D01*
X118327517Y-97142011D01*
X118304038Y-97076206D01*
X118319863Y-97008152D01*
X118369968Y-96959457D01*
X118438446Y-96945581D01*
X118443977Y-96946182D01*
X118531266Y-96957674D01*
X118531273Y-96957674D01*
X118760727Y-96957674D01*
X118760734Y-96957674D01*
X118988238Y-96927722D01*
X119209887Y-96868332D01*
X119421888Y-96780518D01*
X119620612Y-96665785D01*
X119802661Y-96526093D01*
X119802665Y-96526088D01*
X119802670Y-96526085D01*
X119964911Y-96363844D01*
X119964914Y-96363839D01*
X119964919Y-96363835D01*
X120104611Y-96181786D01*
X120219344Y-95983062D01*
X120307158Y-95771061D01*
X120366548Y-95549412D01*
X120396500Y-95321908D01*
X120396500Y-95092440D01*
X120366548Y-94864936D01*
X120307158Y-94643287D01*
X120219344Y-94431286D01*
X120104611Y-94232562D01*
X120104608Y-94232559D01*
X120104607Y-94232556D01*
X119964918Y-94050512D01*
X119964911Y-94050504D01*
X119802670Y-93888263D01*
X119802661Y-93888255D01*
X119620617Y-93748566D01*
X119603296Y-93738566D01*
X119435668Y-93641786D01*
X119421890Y-93633831D01*
X119421876Y-93633824D01*
X119209887Y-93546016D01*
X119172566Y-93536016D01*
X118988238Y-93486626D01*
X118950215Y-93481620D01*
X118760741Y-93456674D01*
X118760734Y-93456674D01*
X118531266Y-93456674D01*
X118531258Y-93456674D01*
X118314715Y-93485183D01*
X118303762Y-93486626D01*
X118249363Y-93501202D01*
X118082112Y-93546016D01*
X117870123Y-93633824D01*
X117870109Y-93633831D01*
X117671382Y-93748566D01*
X117489338Y-93888255D01*
X117327081Y-94050512D01*
X117187392Y-94232556D01*
X117072657Y-94431283D01*
X117072650Y-94431297D01*
X116988984Y-94633287D01*
X116984842Y-94643287D01*
X116928132Y-94854936D01*
X116925453Y-94864933D01*
X116925451Y-94864944D01*
X116895500Y-95092432D01*
X116895500Y-95321915D01*
X116917192Y-95486674D01*
X116925452Y-95549412D01*
X116972347Y-95724428D01*
X116984842Y-95771061D01*
X117072650Y-95983050D01*
X117072657Y-95983064D01*
X117108695Y-96045484D01*
X117186328Y-96179949D01*
X117187392Y-96181791D01*
X117327081Y-96363835D01*
X117327089Y-96363844D01*
X117373238Y-96409993D01*
X117406723Y-96471316D01*
X117401739Y-96541008D01*
X117359867Y-96596941D01*
X117294403Y-96621358D01*
X117288967Y-96621552D01*
X117287423Y-96621673D01*
X117112443Y-96649388D01*
X116943960Y-96704130D01*
X116943957Y-96704131D01*
X116786109Y-96784560D01*
X116742031Y-96816585D01*
X116642786Y-96888691D01*
X116642784Y-96888693D01*
X116642783Y-96888693D01*
X116517519Y-97013957D01*
X116517519Y-97013958D01*
X116517517Y-97013960D01*
X116479558Y-97066206D01*
X116413386Y-97157283D01*
X116332957Y-97315131D01*
X116332956Y-97315134D01*
X116278214Y-97483617D01*
X116250500Y-97658595D01*
X112465956Y-97658595D01*
X112465962Y-97653586D01*
X112487159Y-78448595D01*
X116235500Y-78448595D01*
X116235500Y-78625752D01*
X116263214Y-78800730D01*
X116317956Y-78969213D01*
X116317957Y-78969216D01*
X116356182Y-79044235D01*
X116398386Y-79127064D01*
X116502517Y-79270388D01*
X116627786Y-79395657D01*
X116771110Y-79499788D01*
X116839577Y-79534674D01*
X116928957Y-79580216D01*
X116928960Y-79580217D01*
X116959735Y-79590216D01*
X117097445Y-79634960D01*
X117272421Y-79662674D01*
X117272422Y-79662674D01*
X117449578Y-79662674D01*
X117449579Y-79662674D01*
X117624555Y-79634960D01*
X117793042Y-79580216D01*
X117950890Y-79499788D01*
X118094214Y-79395657D01*
X118219483Y-79270388D01*
X118323614Y-79127064D01*
X118404042Y-78969216D01*
X118458786Y-78800729D01*
X118486500Y-78625753D01*
X118486500Y-78448595D01*
X118477165Y-78389660D01*
X120190500Y-78389660D01*
X120190500Y-78684687D01*
X120207095Y-78810730D01*
X120229007Y-78977167D01*
X120305361Y-79262125D01*
X120305364Y-79262135D01*
X120418254Y-79534674D01*
X120418258Y-79534684D01*
X120565761Y-79790167D01*
X120745352Y-80024214D01*
X120745358Y-80024221D01*
X120953952Y-80232815D01*
X120953959Y-80232821D01*
X121188006Y-80412412D01*
X121443489Y-80559915D01*
X121443490Y-80559915D01*
X121443493Y-80559917D01*
X121716048Y-80672813D01*
X122001007Y-80749167D01*
X122293494Y-80787674D01*
X122293501Y-80787674D01*
X122588499Y-80787674D01*
X122588506Y-80787674D01*
X122880993Y-80749167D01*
X123165952Y-80672813D01*
X123438507Y-80559917D01*
X123693994Y-80412412D01*
X123928042Y-80232820D01*
X124136646Y-80024216D01*
X124316238Y-79790168D01*
X124463743Y-79534681D01*
X124576639Y-79262126D01*
X124652993Y-78977167D01*
X124691500Y-78684680D01*
X124691500Y-78448595D01*
X126395500Y-78448595D01*
X126395500Y-78625752D01*
X126423214Y-78800730D01*
X126477956Y-78969213D01*
X126477957Y-78969216D01*
X126516182Y-79044235D01*
X126558386Y-79127064D01*
X126662517Y-79270388D01*
X126787786Y-79395657D01*
X126931110Y-79499788D01*
X126999577Y-79534674D01*
X127088957Y-79580216D01*
X127088960Y-79580217D01*
X127119735Y-79590216D01*
X127257445Y-79634960D01*
X127432421Y-79662674D01*
X127432422Y-79662674D01*
X127609578Y-79662674D01*
X127609579Y-79662674D01*
X127784555Y-79634960D01*
X127953042Y-79580216D01*
X128110890Y-79499788D01*
X128254214Y-79395657D01*
X128379483Y-79270388D01*
X128483614Y-79127064D01*
X128564042Y-78969216D01*
X128618786Y-78800729D01*
X128646500Y-78625753D01*
X128646500Y-78448595D01*
X128618786Y-78273619D01*
X128567289Y-78115125D01*
X128564043Y-78105134D01*
X128564042Y-78105131D01*
X128515878Y-78010605D01*
X128483614Y-77947284D01*
X128379483Y-77803960D01*
X128254214Y-77678691D01*
X128110890Y-77574560D01*
X128062047Y-77549673D01*
X127953042Y-77494131D01*
X127953039Y-77494130D01*
X127784556Y-77439388D01*
X127646078Y-77417455D01*
X127609579Y-77411674D01*
X127432421Y-77411674D01*
X127395922Y-77417455D01*
X127257443Y-77439388D01*
X127088960Y-77494130D01*
X127088957Y-77494131D01*
X126931109Y-77574560D01*
X126859175Y-77626824D01*
X126787786Y-77678691D01*
X126787784Y-77678693D01*
X126787783Y-77678693D01*
X126662519Y-77803957D01*
X126662519Y-77803958D01*
X126662517Y-77803960D01*
X126635129Y-77841656D01*
X126558386Y-77947283D01*
X126477957Y-78105131D01*
X126477956Y-78105134D01*
X126423214Y-78273617D01*
X126395500Y-78448595D01*
X124691500Y-78448595D01*
X124691500Y-78389668D01*
X124652993Y-78097181D01*
X124576639Y-77812222D01*
X124463743Y-77539667D01*
X124443226Y-77504131D01*
X124316238Y-77284180D01*
X124136647Y-77050133D01*
X124136641Y-77050126D01*
X123928047Y-76841532D01*
X123928040Y-76841526D01*
X123693993Y-76661935D01*
X123438510Y-76514432D01*
X123438500Y-76514428D01*
X123165961Y-76401538D01*
X123165954Y-76401536D01*
X123165952Y-76401535D01*
X122880993Y-76325181D01*
X122832113Y-76318745D01*
X122588513Y-76286674D01*
X122588506Y-76286674D01*
X122293494Y-76286674D01*
X122293486Y-76286674D01*
X122015085Y-76323327D01*
X122001007Y-76325181D01*
X121910568Y-76349414D01*
X121716048Y-76401535D01*
X121716038Y-76401538D01*
X121443499Y-76514428D01*
X121443489Y-76514432D01*
X121188006Y-76661935D01*
X120953959Y-76841526D01*
X120953952Y-76841532D01*
X120745358Y-77050126D01*
X120745352Y-77050133D01*
X120565761Y-77284180D01*
X120418258Y-77539663D01*
X120418254Y-77539673D01*
X120305364Y-77812212D01*
X120305361Y-77812222D01*
X120238590Y-78061419D01*
X120229008Y-78097178D01*
X120229006Y-78097189D01*
X120190500Y-78389660D01*
X118477165Y-78389660D01*
X118458786Y-78273619D01*
X118407289Y-78115125D01*
X118404043Y-78105134D01*
X118404042Y-78105131D01*
X118355878Y-78010605D01*
X118323614Y-77947284D01*
X118312517Y-77932011D01*
X118289038Y-77866206D01*
X118304863Y-77798152D01*
X118354968Y-77749457D01*
X118423446Y-77735581D01*
X118428977Y-77736182D01*
X118516266Y-77747674D01*
X118516273Y-77747674D01*
X118745727Y-77747674D01*
X118745734Y-77747674D01*
X118973238Y-77717722D01*
X119194887Y-77658332D01*
X119406888Y-77570518D01*
X119605612Y-77455785D01*
X119787661Y-77316093D01*
X119787665Y-77316088D01*
X119787670Y-77316085D01*
X119949911Y-77153844D01*
X119949914Y-77153839D01*
X119949919Y-77153835D01*
X120089611Y-76971786D01*
X120204344Y-76773062D01*
X120292158Y-76561061D01*
X120351548Y-76339412D01*
X120381500Y-76111908D01*
X120381500Y-75882440D01*
X120351548Y-75654936D01*
X120292158Y-75433287D01*
X120242190Y-75312654D01*
X120204349Y-75221297D01*
X120204346Y-75221291D01*
X120204344Y-75221286D01*
X120089611Y-75022562D01*
X120089608Y-75022559D01*
X120089607Y-75022556D01*
X119957592Y-74850513D01*
X119949919Y-74840513D01*
X119949918Y-74840512D01*
X119949911Y-74840504D01*
X119787670Y-74678263D01*
X119787661Y-74678255D01*
X119605617Y-74538566D01*
X119406890Y-74423831D01*
X119406876Y-74423824D01*
X119194887Y-74336016D01*
X118973238Y-74276626D01*
X118935215Y-74271620D01*
X118745741Y-74246674D01*
X118745734Y-74246674D01*
X118516266Y-74246674D01*
X118516258Y-74246674D01*
X118311822Y-74273590D01*
X118288762Y-74276626D01*
X118195076Y-74301728D01*
X118067112Y-74336016D01*
X117855123Y-74423824D01*
X117855109Y-74423831D01*
X117656382Y-74538566D01*
X117474338Y-74678255D01*
X117312081Y-74840512D01*
X117172392Y-75022556D01*
X117057657Y-75221283D01*
X117057650Y-75221297D01*
X116969842Y-75433286D01*
X116910453Y-75654933D01*
X116910451Y-75654944D01*
X116880500Y-75882432D01*
X116880500Y-76111915D01*
X116887273Y-76163355D01*
X116910452Y-76339412D01*
X116943847Y-76464046D01*
X116969842Y-76561061D01*
X117057650Y-76773050D01*
X117057657Y-76773064D01*
X117103891Y-76853144D01*
X117160923Y-76951927D01*
X117172392Y-76971791D01*
X117312081Y-77153835D01*
X117312089Y-77153844D01*
X117358238Y-77199993D01*
X117391723Y-77261316D01*
X117386739Y-77331008D01*
X117344867Y-77386941D01*
X117279403Y-77411358D01*
X117273967Y-77411552D01*
X117272423Y-77411673D01*
X117097443Y-77439388D01*
X116928960Y-77494130D01*
X116928957Y-77494131D01*
X116771109Y-77574560D01*
X116699175Y-77626824D01*
X116627786Y-77678691D01*
X116627784Y-77678693D01*
X116627783Y-77678693D01*
X116502519Y-77803957D01*
X116502519Y-77803958D01*
X116502517Y-77803960D01*
X116475129Y-77841656D01*
X116398386Y-77947283D01*
X116317957Y-78105131D01*
X116317956Y-78105134D01*
X116263214Y-78273617D01*
X116235500Y-78448595D01*
X112487159Y-78448595D01*
X112487165Y-78443586D01*
X112492795Y-73342432D01*
X123230500Y-73342432D01*
X123230500Y-73571915D01*
X123237273Y-73623355D01*
X123260452Y-73799412D01*
X123319842Y-74021061D01*
X123407650Y-74233050D01*
X123407657Y-74233064D01*
X123438581Y-74286626D01*
X123510923Y-74411927D01*
X123522392Y-74431791D01*
X123662081Y-74613835D01*
X123662089Y-74613844D01*
X123824330Y-74776085D01*
X123824338Y-74776092D01*
X124006382Y-74915781D01*
X124006385Y-74915782D01*
X124006388Y-74915785D01*
X124205112Y-75030518D01*
X124205117Y-75030520D01*
X124205123Y-75030523D01*
X124296480Y-75068364D01*
X124417113Y-75118332D01*
X124638762Y-75177722D01*
X124866266Y-75207674D01*
X124866273Y-75207674D01*
X125095727Y-75207674D01*
X125095734Y-75207674D01*
X125323238Y-75177722D01*
X125544887Y-75118332D01*
X125756888Y-75030518D01*
X125955612Y-74915785D01*
X126137661Y-74776093D01*
X126137665Y-74776088D01*
X126137670Y-74776085D01*
X126299911Y-74613844D01*
X126299914Y-74613839D01*
X126299919Y-74613835D01*
X126439611Y-74431786D01*
X126554344Y-74233062D01*
X126586164Y-74156241D01*
X126595285Y-74134222D01*
X126639125Y-74079818D01*
X126705420Y-74057753D01*
X126709846Y-74057674D01*
X130771561Y-74057674D01*
X130838600Y-74077359D01*
X130871879Y-74108789D01*
X130974028Y-74249386D01*
X130974032Y-74249391D01*
X131118786Y-74394145D01*
X131273749Y-74506730D01*
X131284390Y-74514461D01*
X131383894Y-74565161D01*
X131466776Y-74607392D01*
X131466778Y-74607392D01*
X131466781Y-74607394D01*
X131517409Y-74623844D01*
X131661465Y-74670651D01*
X131750053Y-74684682D01*
X131863648Y-74702674D01*
X131863649Y-74702674D01*
X132068351Y-74702674D01*
X132068352Y-74702674D01*
X132270534Y-74670651D01*
X132465219Y-74607394D01*
X132647610Y-74514461D01*
X132740590Y-74446906D01*
X132813213Y-74394145D01*
X132813215Y-74394142D01*
X132813219Y-74394140D01*
X132957966Y-74249393D01*
X132957968Y-74249389D01*
X132957971Y-74249387D01*
X133032965Y-74146165D01*
X133078287Y-74083784D01*
X133171220Y-73901393D01*
X133234477Y-73706708D01*
X133266500Y-73504526D01*
X133266500Y-73299822D01*
X133249517Y-73192597D01*
X133234477Y-73097639D01*
X133198363Y-72986492D01*
X133171220Y-72902955D01*
X133171218Y-72902952D01*
X133171218Y-72902950D01*
X133122185Y-72806719D01*
X133078287Y-72720564D01*
X133070556Y-72709923D01*
X132957971Y-72554960D01*
X132813213Y-72410202D01*
X132647613Y-72289889D01*
X132647612Y-72289888D01*
X132647610Y-72289887D01*
X132590653Y-72260865D01*
X132465223Y-72196955D01*
X132270534Y-72133696D01*
X132095995Y-72106052D01*
X132068352Y-72101674D01*
X131863648Y-72101674D01*
X131839329Y-72105525D01*
X131661465Y-72133696D01*
X131466776Y-72196955D01*
X131284386Y-72289889D01*
X131118786Y-72410202D01*
X130974028Y-72554960D01*
X130853715Y-72720559D01*
X130835755Y-72755809D01*
X130821297Y-72784185D01*
X130818859Y-72788969D01*
X130770884Y-72839765D01*
X130708374Y-72856674D01*
X126709846Y-72856674D01*
X126642807Y-72836989D01*
X126597052Y-72784185D01*
X126595285Y-72780126D01*
X126554349Y-72681297D01*
X126554346Y-72681291D01*
X126554344Y-72681286D01*
X126439611Y-72482562D01*
X126439608Y-72482559D01*
X126439607Y-72482556D01*
X126307592Y-72310513D01*
X126299919Y-72300513D01*
X126299918Y-72300512D01*
X126299911Y-72300504D01*
X126137670Y-72138263D01*
X126137661Y-72138255D01*
X125955617Y-71998566D01*
X125756890Y-71883831D01*
X125756876Y-71883824D01*
X125544887Y-71796016D01*
X125323238Y-71736626D01*
X125285215Y-71731620D01*
X125095741Y-71706674D01*
X125095734Y-71706674D01*
X124866266Y-71706674D01*
X124866258Y-71706674D01*
X124649715Y-71735183D01*
X124638762Y-71736626D01*
X124545076Y-71761728D01*
X124417112Y-71796016D01*
X124205123Y-71883824D01*
X124205109Y-71883831D01*
X124006382Y-71998566D01*
X123824338Y-72138255D01*
X123662081Y-72300512D01*
X123522392Y-72482556D01*
X123407657Y-72681283D01*
X123407650Y-72681297D01*
X123319842Y-72893286D01*
X123293798Y-72990485D01*
X123265087Y-73097640D01*
X123260453Y-73114933D01*
X123260451Y-73114944D01*
X123230500Y-73342432D01*
X112492795Y-73342432D01*
X112492800Y-73338244D01*
X112499572Y-67202864D01*
X112511972Y-55968713D01*
X114034500Y-55968713D01*
X114034500Y-56181286D01*
X114055289Y-56312546D01*
X114067754Y-56391243D01*
X114088632Y-56455500D01*
X114133444Y-56593414D01*
X114229951Y-56782820D01*
X114354890Y-56954785D01*
X114354894Y-56954790D01*
X114505213Y-57105109D01*
X114677182Y-57230050D01*
X114685946Y-57234516D01*
X114736742Y-57282491D01*
X114753536Y-57350312D01*
X114730998Y-57416447D01*
X114685946Y-57455484D01*
X114677182Y-57459949D01*
X114505213Y-57584890D01*
X114354890Y-57735213D01*
X114229951Y-57907179D01*
X114133444Y-58096585D01*
X114067753Y-58298760D01*
X114034500Y-58508713D01*
X114034500Y-58721287D01*
X114067754Y-58931243D01*
X114123523Y-59102883D01*
X114133444Y-59133414D01*
X114229951Y-59322820D01*
X114354890Y-59494786D01*
X114505213Y-59645109D01*
X114677182Y-59770050D01*
X114685946Y-59774516D01*
X114736742Y-59822491D01*
X114753536Y-59890312D01*
X114730998Y-59956447D01*
X114685946Y-59995484D01*
X114677182Y-59999949D01*
X114505213Y-60124890D01*
X114354890Y-60275213D01*
X114229951Y-60447179D01*
X114133444Y-60636585D01*
X114067753Y-60838760D01*
X114034500Y-61048713D01*
X114034500Y-61261286D01*
X114065007Y-61453903D01*
X114067754Y-61471243D01*
X114130525Y-61664432D01*
X114133444Y-61673414D01*
X114229951Y-61862820D01*
X114354890Y-62034786D01*
X114468430Y-62148326D01*
X114501915Y-62209649D01*
X114496931Y-62279341D01*
X114455059Y-62335274D01*
X114424083Y-62352189D01*
X114292669Y-62401203D01*
X114292664Y-62401206D01*
X114177455Y-62487452D01*
X114177452Y-62487455D01*
X114091206Y-62602664D01*
X114091202Y-62602671D01*
X114040908Y-62737517D01*
X114034501Y-62797116D01*
X114034501Y-62797123D01*
X114034500Y-62797135D01*
X114034500Y-64592870D01*
X114034501Y-64592876D01*
X114040908Y-64652483D01*
X114091202Y-64787328D01*
X114091206Y-64787335D01*
X114177452Y-64902544D01*
X114177455Y-64902547D01*
X114292664Y-64988793D01*
X114292671Y-64988797D01*
X114427517Y-65039091D01*
X114427516Y-65039091D01*
X114434444Y-65039835D01*
X114487127Y-65045500D01*
X116282872Y-65045499D01*
X116342483Y-65039091D01*
X116477331Y-64988796D01*
X116592546Y-64902546D01*
X116678796Y-64787331D01*
X116729091Y-64652483D01*
X116735500Y-64592873D01*
X116735499Y-62797128D01*
X116729091Y-62737517D01*
X116716452Y-62703631D01*
X116678797Y-62602671D01*
X116678793Y-62602664D01*
X116592547Y-62487455D01*
X116592544Y-62487452D01*
X116477335Y-62401206D01*
X116477328Y-62401202D01*
X116345917Y-62352189D01*
X116289983Y-62310318D01*
X116265566Y-62244853D01*
X116280418Y-62176580D01*
X116301563Y-62148332D01*
X116415104Y-62034792D01*
X116450710Y-61985785D01*
X116540048Y-61862820D01*
X116540047Y-61862820D01*
X116540051Y-61862816D01*
X116636557Y-61673412D01*
X116702246Y-61471243D01*
X116735500Y-61261287D01*
X116735500Y-61048713D01*
X116702246Y-60838757D01*
X116636557Y-60636588D01*
X116540051Y-60447184D01*
X116540049Y-60447181D01*
X116540048Y-60447179D01*
X116415109Y-60275213D01*
X116264786Y-60124890D01*
X116092820Y-59999951D01*
X116092115Y-59999591D01*
X116084054Y-59995485D01*
X116033259Y-59947512D01*
X116016463Y-59879692D01*
X116038999Y-59813556D01*
X116084054Y-59774515D01*
X116092816Y-59770051D01*
X116194229Y-59696371D01*
X116264786Y-59645109D01*
X116264788Y-59645106D01*
X116264792Y-59645104D01*
X116415104Y-59494792D01*
X116415106Y-59494788D01*
X116415109Y-59494786D01*
X116540048Y-59322820D01*
X116540047Y-59322820D01*
X116540051Y-59322816D01*
X116636557Y-59133412D01*
X116702246Y-58931243D01*
X116735500Y-58721287D01*
X116735500Y-58508713D01*
X116702246Y-58298757D01*
X116636557Y-58096588D01*
X116540051Y-57907184D01*
X116540049Y-57907181D01*
X116540048Y-57907179D01*
X116415109Y-57735213D01*
X116264786Y-57584890D01*
X116092820Y-57459951D01*
X116092115Y-57459591D01*
X116084054Y-57455485D01*
X116033259Y-57407512D01*
X116016463Y-57339692D01*
X116038999Y-57273556D01*
X116084054Y-57234515D01*
X116092816Y-57230051D01*
X116177716Y-57168368D01*
X116264786Y-57105109D01*
X116264788Y-57105106D01*
X116264792Y-57105104D01*
X116415104Y-56954792D01*
X116415106Y-56954788D01*
X116415110Y-56954785D01*
X116540048Y-56782820D01*
X116540047Y-56782820D01*
X116540051Y-56782816D01*
X116636557Y-56593412D01*
X116702246Y-56391243D01*
X116735500Y-56181287D01*
X116735500Y-55968713D01*
X116702246Y-55758757D01*
X116636557Y-55556588D01*
X116540051Y-55367184D01*
X116540049Y-55367181D01*
X116540048Y-55367179D01*
X116415109Y-55195213D01*
X116264786Y-55044890D01*
X116092820Y-54919951D01*
X115903414Y-54823444D01*
X115903413Y-54823443D01*
X115903412Y-54823443D01*
X115701243Y-54757754D01*
X115701241Y-54757753D01*
X115701240Y-54757753D01*
X115539957Y-54732208D01*
X115491287Y-54724500D01*
X115278713Y-54724500D01*
X115230042Y-54732208D01*
X115068760Y-54757753D01*
X114866585Y-54823444D01*
X114677179Y-54919951D01*
X114505213Y-55044890D01*
X114354890Y-55195213D01*
X114229951Y-55367179D01*
X114133444Y-55556585D01*
X114067753Y-55758760D01*
X114034500Y-55968713D01*
X112511972Y-55968713D01*
X112514247Y-53907135D01*
X160894500Y-53907135D01*
X160894500Y-56002870D01*
X160894501Y-56002876D01*
X160900908Y-56062483D01*
X160951202Y-56197328D01*
X160951206Y-56197335D01*
X161037452Y-56312544D01*
X161037455Y-56312547D01*
X161152664Y-56398793D01*
X161152671Y-56398797D01*
X161287517Y-56449091D01*
X161287516Y-56449091D01*
X161294444Y-56449835D01*
X161347127Y-56455500D01*
X164642872Y-56455499D01*
X164702483Y-56449091D01*
X164837331Y-56398796D01*
X164952546Y-56312546D01*
X165038796Y-56197331D01*
X165089091Y-56062483D01*
X165095500Y-56002873D01*
X165095499Y-53907128D01*
X165089091Y-53847517D01*
X165038796Y-53712669D01*
X165038795Y-53712668D01*
X165038793Y-53712664D01*
X164952547Y-53597455D01*
X164952544Y-53597452D01*
X164837335Y-53511206D01*
X164837328Y-53511202D01*
X164702482Y-53460908D01*
X164702483Y-53460908D01*
X164642883Y-53454501D01*
X164642881Y-53454500D01*
X164642873Y-53454500D01*
X164642864Y-53454500D01*
X161347129Y-53454500D01*
X161347123Y-53454501D01*
X161287516Y-53460908D01*
X161152671Y-53511202D01*
X161152664Y-53511206D01*
X161037455Y-53597452D01*
X161037452Y-53597455D01*
X160951206Y-53712664D01*
X160951202Y-53712671D01*
X160900908Y-53847517D01*
X160894501Y-53907116D01*
X160894501Y-53907123D01*
X160894500Y-53907135D01*
X112514247Y-53907135D01*
X112514986Y-53237562D01*
X112517533Y-53212696D01*
X112564700Y-52983598D01*
X112597498Y-52921908D01*
X112658444Y-52887741D01*
X112685667Y-52884607D01*
X156134431Y-52715002D01*
X156135523Y-52715003D01*
G37*
%TD.AperFunction*%
M02*
