%TF.GenerationSoftware,KiCad,Pcbnew,9.0.3*%
%TF.CreationDate,2026-08-02T02:37:07-04:00*%
%TF.ProjectId,HackPad,4861636b-5061-4642-9e6b-696361645f70,rev?*%
%TF.SameCoordinates,Original*%
%TF.FileFunction,Copper,L2,Bot*%
%TF.FilePolarity,Positive*%
%FSLAX46Y46*%
G04 Gerber Fmt 4.6, Leading zero omitted, Abs format (unit mm)*
G04 Created by KiCad (PCBNEW 9.0.3) date 2026-08-02 02:37:07*
%MOMM*%
%LPD*%
G01*
G04 APERTURE LIST*
%TA.AperFunction,ComponentPad*%
%ADD10R,1.600000X1.600000*%
%TD*%
%TA.AperFunction,ComponentPad*%
%ADD11O,1.600000X1.600000*%
%TD*%
%TA.AperFunction,ComponentPad*%
%ADD12R,1.700000X1.700000*%
%TD*%
%TA.AperFunction,ComponentPad*%
%ADD13O,1.700000X1.700000*%
%TD*%
%TA.AperFunction,ComponentPad*%
%ADD14C,2.500000*%
%TD*%
%TA.AperFunction,ComponentPad*%
%ADD15C,1.700000*%
%TD*%
%TA.AperFunction,ComponentPad*%
%ADD16R,1.752600X1.752600*%
%TD*%
%TA.AperFunction,ComponentPad*%
%ADD17C,1.752600*%
%TD*%
%TA.AperFunction,ComponentPad*%
%ADD18R,2.000000X2.000000*%
%TD*%
%TA.AperFunction,ComponentPad*%
%ADD19C,2.000000*%
%TD*%
%TA.AperFunction,ComponentPad*%
%ADD20R,3.200000X2.000000*%
%TD*%
%TA.AperFunction,ComponentPad*%
%ADD21R,1.730000X2.030000*%
%TD*%
%TA.AperFunction,ComponentPad*%
%ADD22O,1.730000X2.030000*%
%TD*%
%TA.AperFunction,Conductor*%
%ADD23C,0.200000*%
%TD*%
G04 APERTURE END LIST*
D10*
%TO.P,D9,1,K*%
%TO.N,Row 2*%
X170086000Y-119512174D03*
D11*
%TO.P,D9,2,A*%
%TO.N,Net-(D9-A)*%
X170086000Y-111892174D03*
%TD*%
D12*
%TO.P,J1,1,GND*%
%TO.N,Net-(J1-GND)*%
X115385000Y-63695000D03*
D13*
%TO.P,J1,2,VCC*%
%TO.N,Net-(J1-VCC)*%
X115385000Y-61155000D03*
%TO.P,J1,3,SCL*%
%TO.N,Net-(J1-SCL)*%
X115385000Y-58615000D03*
%TO.P,J1,4,SDA*%
%TO.N,Net-(J1-SDA)*%
X115385000Y-56075000D03*
%TD*%
D14*
%TO.P,S7,1,1*%
%TO.N,Column 0*%
X118646000Y-114307174D03*
%TO.P,S7,2,2*%
%TO.N,Net-(D7-A)*%
X124996000Y-111767174D03*
%TD*%
D10*
%TO.P,D4,1,K*%
%TO.N,Row 1*%
X131926000Y-100362174D03*
D11*
%TO.P,D4,2,A*%
%TO.N,Net-(D4-A)*%
X131926000Y-92742174D03*
%TD*%
D10*
%TO.P,D5,1,K*%
%TO.N,Row 1*%
X151026000Y-100362174D03*
D11*
%TO.P,D5,2,A*%
%TO.N,Net-(D5-A)*%
X151026000Y-92742174D03*
%TD*%
D10*
%TO.P,D8,1,K*%
%TO.N,Row 2*%
X151066000Y-119512174D03*
D11*
%TO.P,D8,2,A*%
%TO.N,Net-(D8-A)*%
X151066000Y-111892174D03*
%TD*%
D14*
%TO.P,S6,1,1*%
%TO.N,Column  2*%
X156746000Y-95207174D03*
%TO.P,S6,2,2*%
%TO.N,Net-(D6-A)*%
X163096000Y-92667174D03*
%TD*%
D10*
%TO.P,D7,1,K*%
%TO.N,Row 2*%
X132006000Y-119512174D03*
D11*
%TO.P,D7,2,A*%
%TO.N,Net-(D7-A)*%
X132006000Y-111892174D03*
%TD*%
D12*
%TO.P,J3,1,Pin_1*%
%TO.N,VCC*%
X187475000Y-107365000D03*
D15*
%TO.P,J3,2,Pin_2*%
%TO.N,Net-(J2-Pin_1)*%
X187475000Y-104825000D03*
%TO.P,J3,3,Pin_3*%
%TO.N,Net-(J1-VCC)*%
X187475000Y-102285000D03*
%TO.P,J3,4,Pin_4*%
%TO.N,unconnected-(J3-Pin_4-Pad4)*%
X187475000Y-99745000D03*
%TO.P,J3,5,Pin_5*%
%TO.N,unconnected-(J3-Pin_5-Pad5)*%
X187475000Y-97205000D03*
%TO.P,J3,6,Pin_6*%
%TO.N,Net-(J3-Pin_6)*%
X187475000Y-94665000D03*
%TD*%
D16*
%TO.P,U1,1,TX0/PD3*%
%TO.N,unconnected-(U1-TX0{slash}PD3-Pad1)*%
X175835000Y-60815000D03*
D17*
%TO.P,U1,2,RX1/PD2*%
%TO.N,unconnected-(U1-RX1{slash}PD2-Pad2)*%
X175835000Y-63355000D03*
%TO.P,U1,3,GND*%
%TO.N,unconnected-(U1-GND-Pad3)*%
X175835000Y-65895000D03*
%TO.P,U1,4,GND*%
%TO.N,unconnected-(U1-GND-Pad4)*%
X175835000Y-68435000D03*
%TO.P,U1,5,2/PD1*%
%TO.N,Column 0*%
X175835000Y-70975000D03*
%TO.P,U1,6,3/PD0*%
%TO.N,Column  1*%
X175835000Y-73515000D03*
%TO.P,U1,7,4/PD4*%
%TO.N,Column  2*%
X175835000Y-76055000D03*
%TO.P,U1,8,5/PC6*%
%TO.N,Row 0*%
X175835000Y-78595000D03*
%TO.P,U1,9,6/PD7*%
%TO.N,Row 1*%
X175835000Y-81135000D03*
%TO.P,U1,10,7/PE6*%
%TO.N,Row 2*%
X175835000Y-83675000D03*
%TO.P,U1,11,8/PB4*%
%TO.N,Net-(U1-8{slash}PB4)*%
X175835000Y-86215000D03*
%TO.P,U1,12,9/PB5*%
%TO.N,Net-(U1-9{slash}PB5)*%
X175835000Y-88755000D03*
%TO.P,U1,13,10/PB6*%
%TO.N,Net-(U1-10{slash}PB6)*%
X191075000Y-88755000D03*
%TO.P,U1,14,16/PB2*%
%TO.N,unconnected-(U1-16{slash}PB2-Pad14)*%
X191075000Y-86215000D03*
%TO.P,U1,15,14/PB3*%
%TO.N,Net-(J2-Pin_3)*%
X191075000Y-83675000D03*
%TO.P,U1,16,15/PB1*%
%TO.N,unconnected-(U1-15{slash}PB1-Pad16)*%
X191075000Y-81135000D03*
%TO.P,U1,17,A0/PF7*%
%TO.N,Net-(J1-SDA)*%
X191075000Y-78595000D03*
%TO.P,U1,18,A1/PF6*%
%TO.N,Net-(J1-SCL)*%
X191075000Y-76055000D03*
%TO.P,U1,19,A2/PF5*%
%TO.N,unconnected-(U1-A2{slash}PF5-Pad19)*%
X191075000Y-73515000D03*
%TO.P,U1,20,A3/PF4*%
%TO.N,unconnected-(U1-A3{slash}PF4-Pad20)*%
X191075000Y-70975000D03*
%TO.P,U1,21,VCC*%
%TO.N,VCC*%
X191075000Y-68435000D03*
%TO.P,U1,22,RST*%
%TO.N,unconnected-(U1-RST-Pad22)*%
X191075000Y-65895000D03*
%TO.P,U1,23,GND*%
%TO.N,GND*%
X191075000Y-63355000D03*
%TO.P,U1,24,RAW*%
%TO.N,unconnected-(U1-RAW-Pad24)*%
X191075000Y-60815000D03*
%TD*%
D14*
%TO.P,S4,1,1*%
%TO.N,Column 0*%
X118646000Y-95207174D03*
%TO.P,S4,2,2*%
%TO.N,Net-(D4-A)*%
X124996000Y-92667174D03*
%TD*%
D18*
%TO.P,SW1,A,A*%
%TO.N,Net-(U1-8{slash}PB4)*%
X155495000Y-58055000D03*
D19*
%TO.P,SW1,B,B*%
%TO.N,Net-(U1-9{slash}PB5)*%
X155495000Y-63055000D03*
%TO.P,SW1,C,C*%
%TO.N,Net-(J3-Pin_6)*%
X155495000Y-60555000D03*
D20*
%TO.P,SW1,MP,MP*%
%TO.N,unconnected-(SW1-PadMP)*%
X162995000Y-54955000D03*
X162995000Y-66155000D03*
D19*
%TO.P,SW1,S1,S1*%
%TO.N,Net-(J4-Pin_2)*%
X169995000Y-63055000D03*
%TO.P,SW1,S2,S2*%
%TO.N,Net-(U1-10{slash}PB6)*%
X169995000Y-58055000D03*
%TD*%
D12*
%TO.P,J4,1,Pin_1*%
%TO.N,GND*%
X178055000Y-94795000D03*
D15*
%TO.P,J4,2,Pin_2*%
%TO.N,Net-(J4-Pin_2)*%
X178055000Y-97335000D03*
%TO.P,J4,3,Pin_3*%
%TO.N,Net-(J1-GND)*%
X178055000Y-99875000D03*
%TO.P,J4,4,Pin_4*%
%TO.N,Net-(J2-Pin_2)*%
X178055000Y-102415000D03*
%TO.P,J4,5,Pin_5*%
%TO.N,unconnected-(J4-Pin_5-Pad5)*%
X178055000Y-104955000D03*
%TO.P,J4,6,Pin_6*%
%TO.N,unconnected-(J4-Pin_6-Pad6)*%
X178055000Y-107495000D03*
%TD*%
D14*
%TO.P,S1,1,1*%
%TO.N,Column 0*%
X118631000Y-75997174D03*
%TO.P,S1,2,2*%
%TO.N,Net-(D1-A)*%
X124981000Y-73457174D03*
%TD*%
D10*
%TO.P,D1,1,K*%
%TO.N,Row 0*%
X131966000Y-81022174D03*
D11*
%TO.P,D1,2,A*%
%TO.N,Net-(D1-A)*%
X131966000Y-73402174D03*
%TD*%
D10*
%TO.P,D3,1,K*%
%TO.N,Row 0*%
X170136000Y-81022174D03*
D11*
%TO.P,D3,2,A*%
%TO.N,Net-(D3-A)*%
X170136000Y-73402174D03*
%TD*%
D14*
%TO.P,S3,1,1*%
%TO.N,Column  2*%
X156791000Y-76007174D03*
%TO.P,S3,2,2*%
%TO.N,Net-(D3-A)*%
X163141000Y-73467174D03*
%TD*%
%TO.P,S8,1,1*%
%TO.N,Column  1*%
X137751000Y-114257174D03*
%TO.P,S8,2,2*%
%TO.N,Net-(D8-A)*%
X144101000Y-111717174D03*
%TD*%
%TO.P,S5,1,1*%
%TO.N,Column  1*%
X137731000Y-95197174D03*
%TO.P,S5,2,2*%
%TO.N,Net-(D5-A)*%
X144081000Y-92657174D03*
%TD*%
%TO.P,S9,1,1*%
%TO.N,Column  2*%
X156751000Y-114282174D03*
%TO.P,S9,2,2*%
%TO.N,Net-(D9-A)*%
X163101000Y-111742174D03*
%TD*%
D10*
%TO.P,D2,1,K*%
%TO.N,Row 0*%
X151196000Y-81022174D03*
D11*
%TO.P,D2,2,A*%
%TO.N,Net-(D2-A)*%
X151196000Y-73402174D03*
%TD*%
D10*
%TO.P,D6,1,K*%
%TO.N,Row 1*%
X170056000Y-100362174D03*
D11*
%TO.P,D6,2,A*%
%TO.N,Net-(D6-A)*%
X170056000Y-92742174D03*
%TD*%
D21*
%TO.P,J2,1,Pin_1*%
%TO.N,Net-(J2-Pin_1)*%
X179435000Y-122035000D03*
D22*
%TO.P,J2,2,Pin_2*%
%TO.N,Net-(J2-Pin_2)*%
X181975000Y-122035000D03*
%TO.P,J2,3,Pin_3*%
%TO.N,Net-(J2-Pin_3)*%
X184515000Y-122035000D03*
%TD*%
D14*
%TO.P,S2,1,1*%
%TO.N,Column  1*%
X137681000Y-75997174D03*
%TO.P,S2,2,2*%
%TO.N,Net-(D2-A)*%
X144031000Y-73457174D03*
%TD*%
D23*
%TO.N,Net-(J1-SCL)*%
X114234000Y-55598240D02*
X114908240Y-54924000D01*
X182277700Y-67257700D02*
X191075000Y-76055000D01*
X128885106Y-67947346D02*
X174657700Y-67947346D01*
X115861760Y-54924000D02*
X128885106Y-67947346D01*
X114234000Y-57464000D02*
X114234000Y-55598240D01*
X174657700Y-67947346D02*
X175347346Y-67257700D01*
X115385000Y-58615000D02*
X114234000Y-57464000D01*
X114908240Y-54924000D02*
X115861760Y-54924000D01*
X175347346Y-67257700D02*
X182277700Y-67257700D01*
%TO.N,Net-(J1-SDA)*%
X115385000Y-56075000D02*
X129107700Y-69797700D01*
X129107700Y-69797700D02*
X182277700Y-69797700D01*
X182277700Y-69797700D02*
X191075000Y-78595000D01*
%TO.N,Column 0*%
X118631000Y-75997174D02*
X118631000Y-114292174D01*
X118631000Y-75997174D02*
X123653174Y-70975000D01*
X118631000Y-114292174D02*
X118646000Y-114307174D01*
X123653174Y-70975000D02*
X175835000Y-70975000D01*
%TO.N,Column  1*%
X137681000Y-75997174D02*
X137751000Y-76067174D01*
X160326174Y-74456174D02*
X160888174Y-75018174D01*
X155988826Y-118048174D02*
X158302000Y-115735000D01*
X154255000Y-98260000D02*
X154255000Y-117330000D01*
X154255000Y-117330000D02*
X154973174Y-118048174D01*
X137681000Y-75997174D02*
X137681000Y-81686000D01*
X174331826Y-75018174D02*
X175835000Y-73515000D01*
X154607554Y-75997174D02*
X156148554Y-74456174D01*
X160888174Y-75018174D02*
X174331826Y-75018174D01*
X158302000Y-115735000D02*
X158302000Y-114318174D01*
X156148554Y-74456174D02*
X160326174Y-74456174D01*
X154973174Y-118048174D02*
X155988826Y-118048174D01*
X137751000Y-76067174D02*
X137751000Y-114257174D01*
X137681000Y-75997174D02*
X154607554Y-75997174D01*
%TO.N,Column  2*%
X166997174Y-76007174D02*
X167045000Y-76055000D01*
X156791000Y-114242174D02*
X156751000Y-114282174D01*
X167045000Y-76055000D02*
X175835000Y-76055000D01*
X156791000Y-76007174D02*
X156791000Y-114242174D01*
X156791000Y-76007174D02*
X156791000Y-81034224D01*
X156791000Y-76007174D02*
X166997174Y-76007174D01*
%TO.N,Net-(J1-GND)*%
X192252300Y-75567346D02*
X192252300Y-79082654D01*
X191562654Y-74877700D02*
X192252300Y-75567346D01*
X191562654Y-79772300D02*
X190645874Y-79772300D01*
X126222560Y-64717700D02*
X180427346Y-64717700D01*
X116027860Y-54523000D02*
X126222560Y-64717700D01*
X180427346Y-64717700D02*
X190587346Y-74877700D01*
X113833000Y-62143000D02*
X113833000Y-55432140D01*
X114742140Y-54523000D02*
X116027860Y-54523000D01*
X115385000Y-63695000D02*
X113833000Y-62143000D01*
X192252300Y-79082654D02*
X191562654Y-79772300D01*
X190645874Y-79772300D02*
X179206000Y-91212174D01*
X113833000Y-55432140D02*
X114742140Y-54523000D01*
X179206000Y-98724000D02*
X178055000Y-99875000D01*
X179206000Y-91212174D02*
X179206000Y-98724000D01*
X190587346Y-74877700D02*
X191562654Y-74877700D01*
%TO.N,Net-(J1-VCC)*%
X116853174Y-62623174D02*
X116853174Y-77311174D01*
X116853174Y-77311174D02*
X116135000Y-78029348D01*
X119408174Y-120613174D02*
X166783000Y-120613174D01*
X116135000Y-78029348D02*
X116135000Y-117340000D01*
X116135000Y-117340000D02*
X119408174Y-120613174D01*
X166783000Y-120613174D02*
X185111174Y-102285000D01*
X185111174Y-102285000D02*
X187475000Y-102285000D01*
X115385000Y-61155000D02*
X116853174Y-62623174D01*
%TD*%
%TA.AperFunction,NonConductor*%
G36*
X156135523Y-52715003D02*
G01*
X193256797Y-52984142D01*
X193323689Y-53004312D01*
X193369060Y-53057447D01*
X193379793Y-53103111D01*
X195953125Y-116508819D01*
X195936175Y-116576601D01*
X195926190Y-116591140D01*
X187622517Y-127007934D01*
X187565336Y-127048086D01*
X187524812Y-127054639D01*
X114085010Y-126615000D01*
X114085007Y-126615000D01*
X114085000Y-126615000D01*
X113794934Y-126619729D01*
X112373567Y-126642903D01*
X112306216Y-126624313D01*
X112259606Y-126572262D01*
X112247571Y-126516439D01*
X112445000Y-116645014D01*
X112452120Y-110193831D01*
X112505069Y-62222054D01*
X113232498Y-62222054D01*
X113273423Y-62374786D01*
X113283009Y-62391388D01*
X113283010Y-62391390D01*
X113352477Y-62511712D01*
X113352481Y-62511717D01*
X113471349Y-62630585D01*
X113471355Y-62630590D01*
X113998181Y-63157416D01*
X114031666Y-63218739D01*
X114034500Y-63245097D01*
X114034500Y-64592870D01*
X114034501Y-64592876D01*
X114040908Y-64652483D01*
X114091202Y-64787328D01*
X114091206Y-64787335D01*
X114177452Y-64902544D01*
X114177455Y-64902547D01*
X114292664Y-64988793D01*
X114292671Y-64988797D01*
X114427517Y-65039091D01*
X114427516Y-65039091D01*
X114434444Y-65039835D01*
X114487127Y-65045500D01*
X116128674Y-65045499D01*
X116195713Y-65065184D01*
X116241468Y-65117987D01*
X116252674Y-65169499D01*
X116252674Y-77011076D01*
X116232989Y-77078115D01*
X116216355Y-77098757D01*
X115654481Y-77660630D01*
X115654479Y-77660633D01*
X115638280Y-77688691D01*
X115615746Y-77727722D01*
X115575423Y-77797563D01*
X115534499Y-77950291D01*
X115534499Y-77950293D01*
X115534499Y-78118394D01*
X115534500Y-78118407D01*
X115534500Y-117253330D01*
X115534499Y-117253348D01*
X115534499Y-117419054D01*
X115534498Y-117419054D01*
X115575423Y-117571785D01*
X115575597Y-117572086D01*
X115575609Y-117572132D01*
X115575620Y-117572126D01*
X115654477Y-117708712D01*
X115654481Y-117708717D01*
X115773349Y-117827585D01*
X115773355Y-117827590D01*
X118923313Y-120977548D01*
X118923323Y-120977559D01*
X118927653Y-120981889D01*
X118927654Y-120981890D01*
X119039458Y-121093694D01*
X119118809Y-121139507D01*
X119176389Y-121172751D01*
X119329117Y-121213674D01*
X119487231Y-121213674D01*
X166696331Y-121213674D01*
X166696347Y-121213675D01*
X166703943Y-121213675D01*
X166862054Y-121213675D01*
X166862057Y-121213675D01*
X167014785Y-121172751D01*
X167072365Y-121139507D01*
X167151716Y-121093694D01*
X167263520Y-120981890D01*
X167263520Y-120981888D01*
X167273274Y-120972135D01*
X178069500Y-120972135D01*
X178069500Y-123097870D01*
X178069501Y-123097876D01*
X178075908Y-123157483D01*
X178126202Y-123292328D01*
X178126206Y-123292335D01*
X178212452Y-123407544D01*
X178212455Y-123407547D01*
X178327664Y-123493793D01*
X178327671Y-123493797D01*
X178462517Y-123544091D01*
X178462516Y-123544091D01*
X178469444Y-123544835D01*
X178522127Y-123550500D01*
X180347872Y-123550499D01*
X180407483Y-123544091D01*
X180542331Y-123493796D01*
X180657546Y-123407546D01*
X180743796Y-123292331D01*
X180787048Y-123176365D01*
X180828917Y-123120433D01*
X180894381Y-123096015D01*
X180962654Y-123110866D01*
X180990910Y-123132018D01*
X181085437Y-123226545D01*
X181259322Y-123352880D01*
X181353251Y-123400739D01*
X181450829Y-123450458D01*
X181450832Y-123450459D01*
X181641494Y-123512408D01*
X181655245Y-123516876D01*
X181867533Y-123550500D01*
X181867534Y-123550500D01*
X182082466Y-123550500D01*
X182082467Y-123550500D01*
X182294755Y-123516876D01*
X182294758Y-123516875D01*
X182294759Y-123516875D01*
X182499167Y-123450459D01*
X182499170Y-123450458D01*
X182690678Y-123352880D01*
X182864563Y-123226545D01*
X183016545Y-123074563D01*
X183142880Y-122900678D01*
X183142879Y-122900678D01*
X183144682Y-122898198D01*
X183200012Y-122855532D01*
X183269625Y-122849553D01*
X183331420Y-122882159D01*
X183345318Y-122898198D01*
X183347120Y-122900678D01*
X183473455Y-123074563D01*
X183625437Y-123226545D01*
X183799322Y-123352880D01*
X183893251Y-123400739D01*
X183990829Y-123450458D01*
X183990832Y-123450459D01*
X184181494Y-123512408D01*
X184195245Y-123516876D01*
X184407533Y-123550500D01*
X184407534Y-123550500D01*
X184622466Y-123550500D01*
X184622467Y-123550500D01*
X184834755Y-123516876D01*
X184834758Y-123516875D01*
X184834759Y-123516875D01*
X185039167Y-123450459D01*
X185039170Y-123450458D01*
X185230678Y-123352880D01*
X185404563Y-123226545D01*
X185556545Y-123074563D01*
X185682880Y-122900678D01*
X185780458Y-122709170D01*
X185846876Y-122504755D01*
X185880500Y-122292467D01*
X185880500Y-121777533D01*
X185846876Y-121565245D01*
X185846875Y-121565241D01*
X185846875Y-121565240D01*
X185780459Y-121360832D01*
X185780458Y-121360829D01*
X185692315Y-121187840D01*
X185682880Y-121169322D01*
X185556545Y-120995437D01*
X185404563Y-120843455D01*
X185230678Y-120717120D01*
X185039170Y-120619541D01*
X185039167Y-120619540D01*
X184834757Y-120553124D01*
X184693229Y-120530708D01*
X184622467Y-120519500D01*
X184407533Y-120519500D01*
X184336770Y-120530708D01*
X184195243Y-120553124D01*
X184195240Y-120553124D01*
X183990832Y-120619540D01*
X183990829Y-120619541D01*
X183799321Y-120717120D01*
X183715981Y-120777671D01*
X183625437Y-120843455D01*
X183625435Y-120843457D01*
X183625434Y-120843457D01*
X183473457Y-120995434D01*
X183473457Y-120995435D01*
X183473455Y-120995437D01*
X183402067Y-121093694D01*
X183345318Y-121171802D01*
X183289988Y-121214467D01*
X183220374Y-121220446D01*
X183158579Y-121187840D01*
X183144682Y-121171802D01*
X183121217Y-121139506D01*
X183016545Y-120995437D01*
X182864563Y-120843455D01*
X182690678Y-120717120D01*
X182499170Y-120619541D01*
X182499167Y-120619540D01*
X182294757Y-120553124D01*
X182153229Y-120530708D01*
X182082467Y-120519500D01*
X181867533Y-120519500D01*
X181796770Y-120530708D01*
X181655243Y-120553124D01*
X181655240Y-120553124D01*
X181450832Y-120619540D01*
X181450829Y-120619541D01*
X181259321Y-120717120D01*
X181085438Y-120843454D01*
X180990910Y-120937982D01*
X180929586Y-120971466D01*
X180859895Y-120966482D01*
X180803962Y-120924610D01*
X180787047Y-120893632D01*
X180743798Y-120777673D01*
X180743793Y-120777664D01*
X180657547Y-120662455D01*
X180657544Y-120662452D01*
X180542335Y-120576206D01*
X180542328Y-120576202D01*
X180407482Y-120525908D01*
X180407483Y-120525908D01*
X180347883Y-120519501D01*
X180347881Y-120519500D01*
X180347873Y-120519500D01*
X180347864Y-120519500D01*
X178522129Y-120519500D01*
X178522123Y-120519501D01*
X178462516Y-120525908D01*
X178327671Y-120576202D01*
X178327664Y-120576206D01*
X178212455Y-120662452D01*
X178212452Y-120662455D01*
X178126206Y-120777664D01*
X178126202Y-120777671D01*
X178075908Y-120912517D01*
X178069501Y-120972116D01*
X178069500Y-120972135D01*
X167273274Y-120972135D01*
X167273723Y-120971686D01*
X167273727Y-120971680D01*
X168573821Y-119671586D01*
X168635142Y-119638103D01*
X168704834Y-119643087D01*
X168760767Y-119684959D01*
X168785184Y-119750423D01*
X168785500Y-119759269D01*
X168785500Y-120360044D01*
X168785501Y-120360050D01*
X168791908Y-120419657D01*
X168842202Y-120554502D01*
X168842206Y-120554509D01*
X168928452Y-120669718D01*
X168928455Y-120669721D01*
X169043664Y-120755967D01*
X169043671Y-120755971D01*
X169178517Y-120806265D01*
X169178516Y-120806265D01*
X169185444Y-120807009D01*
X169238127Y-120812674D01*
X170933872Y-120812673D01*
X170993483Y-120806265D01*
X171128331Y-120755970D01*
X171243546Y-120669720D01*
X171329796Y-120554505D01*
X171380091Y-120419657D01*
X171386500Y-120360047D01*
X171386499Y-118664302D01*
X171380091Y-118604691D01*
X171370440Y-118578816D01*
X171329797Y-118469845D01*
X171329793Y-118469838D01*
X171243547Y-118354629D01*
X171243544Y-118354626D01*
X171128335Y-118268380D01*
X171128328Y-118268376D01*
X170993482Y-118218082D01*
X170993483Y-118218082D01*
X170933883Y-118211675D01*
X170933881Y-118211674D01*
X170933873Y-118211674D01*
X170933865Y-118211674D01*
X170333096Y-118211674D01*
X170266057Y-118191989D01*
X170220302Y-118139185D01*
X170210358Y-118070027D01*
X170239383Y-118006471D01*
X170245415Y-117999993D01*
X185323590Y-102921819D01*
X185384913Y-102888334D01*
X185411271Y-102885500D01*
X186189281Y-102885500D01*
X186256320Y-102905185D01*
X186299765Y-102953205D01*
X186319947Y-102992814D01*
X186319948Y-102992815D01*
X186444890Y-103164786D01*
X186595213Y-103315109D01*
X186767182Y-103440050D01*
X186775946Y-103444516D01*
X186826742Y-103492491D01*
X186843536Y-103560312D01*
X186820998Y-103626447D01*
X186775946Y-103665484D01*
X186767182Y-103669949D01*
X186595213Y-103794890D01*
X186444890Y-103945213D01*
X186319951Y-104117179D01*
X186223444Y-104306585D01*
X186157753Y-104508760D01*
X186137164Y-104638757D01*
X186124500Y-104718713D01*
X186124500Y-104931287D01*
X186157754Y-105141243D01*
X186199992Y-105271239D01*
X186223444Y-105343414D01*
X186319951Y-105532820D01*
X186444890Y-105704786D01*
X186558430Y-105818326D01*
X186591915Y-105879649D01*
X186586931Y-105949341D01*
X186545059Y-106005274D01*
X186514083Y-106022189D01*
X186382669Y-106071203D01*
X186382664Y-106071206D01*
X186267455Y-106157452D01*
X186267452Y-106157455D01*
X186181206Y-106272664D01*
X186181202Y-106272671D01*
X186130908Y-106407517D01*
X186124740Y-106464896D01*
X186124501Y-106467123D01*
X186124500Y-106467135D01*
X186124500Y-108262870D01*
X186124501Y-108262876D01*
X186130908Y-108322483D01*
X186181202Y-108457328D01*
X186181206Y-108457335D01*
X186267452Y-108572544D01*
X186267455Y-108572547D01*
X186382664Y-108658793D01*
X186382671Y-108658797D01*
X186517517Y-108709091D01*
X186517516Y-108709091D01*
X186524444Y-108709835D01*
X186577127Y-108715500D01*
X188372872Y-108715499D01*
X188432483Y-108709091D01*
X188567331Y-108658796D01*
X188682546Y-108572546D01*
X188768796Y-108457331D01*
X188819091Y-108322483D01*
X188825500Y-108262873D01*
X188825499Y-106467128D01*
X188819091Y-106407517D01*
X188792225Y-106335486D01*
X188768797Y-106272671D01*
X188768793Y-106272664D01*
X188682547Y-106157455D01*
X188682544Y-106157452D01*
X188567335Y-106071206D01*
X188567328Y-106071202D01*
X188435917Y-106022189D01*
X188379983Y-105980318D01*
X188355566Y-105914853D01*
X188370418Y-105846580D01*
X188391563Y-105818332D01*
X188505104Y-105704792D01*
X188630051Y-105532816D01*
X188726557Y-105343412D01*
X188792246Y-105141243D01*
X188825500Y-104931287D01*
X188825500Y-104718713D01*
X188792246Y-104508757D01*
X188726557Y-104306588D01*
X188630051Y-104117184D01*
X188630049Y-104117181D01*
X188630048Y-104117179D01*
X188505109Y-103945213D01*
X188354786Y-103794890D01*
X188182820Y-103669951D01*
X188182115Y-103669591D01*
X188174054Y-103665485D01*
X188123259Y-103617512D01*
X188106463Y-103549692D01*
X188128999Y-103483556D01*
X188174054Y-103444515D01*
X188182816Y-103440051D01*
X188204789Y-103424086D01*
X188354786Y-103315109D01*
X188354788Y-103315106D01*
X188354792Y-103315104D01*
X188505104Y-103164792D01*
X188505106Y-103164788D01*
X188505109Y-103164786D01*
X188630048Y-102992820D01*
X188630047Y-102992820D01*
X188630051Y-102992816D01*
X188726557Y-102803412D01*
X188792246Y-102601243D01*
X188825500Y-102391287D01*
X188825500Y-102178713D01*
X188792246Y-101968757D01*
X188726557Y-101766588D01*
X188630051Y-101577184D01*
X188630049Y-101577181D01*
X188630048Y-101577179D01*
X188505109Y-101405213D01*
X188354786Y-101254890D01*
X188182820Y-101129951D01*
X188182115Y-101129591D01*
X188174054Y-101125485D01*
X188123259Y-101077512D01*
X188106463Y-101009692D01*
X188128999Y-100943556D01*
X188174054Y-100904515D01*
X188182816Y-100900051D01*
X188204789Y-100884086D01*
X188354786Y-100775109D01*
X188354788Y-100775106D01*
X188354792Y-100775104D01*
X188505104Y-100624792D01*
X188505106Y-100624788D01*
X188505109Y-100624786D01*
X188630048Y-100452820D01*
X188630047Y-100452820D01*
X188630051Y-100452816D01*
X188726557Y-100263412D01*
X188792246Y-100061243D01*
X188825500Y-99851287D01*
X188825500Y-99638713D01*
X188792246Y-99428757D01*
X188726557Y-99226588D01*
X188630051Y-99037184D01*
X188630049Y-99037181D01*
X188630048Y-99037179D01*
X188505109Y-98865213D01*
X188354786Y-98714890D01*
X188182820Y-98589951D01*
X188182115Y-98589591D01*
X188174054Y-98585485D01*
X188123259Y-98537512D01*
X188106463Y-98469692D01*
X188128999Y-98403556D01*
X188174054Y-98364515D01*
X188182816Y-98360051D01*
X188228219Y-98327064D01*
X188354786Y-98235109D01*
X188354788Y-98235106D01*
X188354792Y-98235104D01*
X188505104Y-98084792D01*
X188505106Y-98084788D01*
X188505109Y-98084786D01*
X188630048Y-97912820D01*
X188630047Y-97912820D01*
X188630051Y-97912816D01*
X188726557Y-97723412D01*
X188792246Y-97521243D01*
X188825500Y-97311287D01*
X188825500Y-97098713D01*
X188792246Y-96888757D01*
X188726557Y-96686588D01*
X188630051Y-96497184D01*
X188630049Y-96497181D01*
X188630048Y-96497179D01*
X188505109Y-96325213D01*
X188354786Y-96174890D01*
X188182820Y-96049951D01*
X188182115Y-96049591D01*
X188174054Y-96045485D01*
X188123259Y-95997512D01*
X188106463Y-95929692D01*
X188128999Y-95863556D01*
X188174054Y-95824515D01*
X188182816Y-95820051D01*
X188234673Y-95782375D01*
X188354786Y-95695109D01*
X188354788Y-95695106D01*
X188354792Y-95695104D01*
X188505104Y-95544792D01*
X188505106Y-95544788D01*
X188505109Y-95544786D01*
X188630048Y-95372820D01*
X188630047Y-95372820D01*
X188630051Y-95372816D01*
X188726557Y-95183412D01*
X188792246Y-94981243D01*
X188825500Y-94771287D01*
X188825500Y-94558713D01*
X188792246Y-94348757D01*
X188726557Y-94146588D01*
X188630051Y-93957184D01*
X188630049Y-93957181D01*
X188630048Y-93957179D01*
X188505109Y-93785213D01*
X188354786Y-93634890D01*
X188182820Y-93509951D01*
X187993414Y-93413444D01*
X187993413Y-93413443D01*
X187993412Y-93413443D01*
X187791243Y-93347754D01*
X187791241Y-93347753D01*
X187791240Y-93347753D01*
X187619169Y-93320500D01*
X187581287Y-93314500D01*
X187368713Y-93314500D01*
X187330831Y-93320500D01*
X187158760Y-93347753D01*
X186956585Y-93413444D01*
X186767179Y-93509951D01*
X186595213Y-93634890D01*
X186444890Y-93785213D01*
X186319951Y-93957179D01*
X186223444Y-94146585D01*
X186157753Y-94348760D01*
X186144681Y-94431297D01*
X186124500Y-94558713D01*
X186124500Y-94771287D01*
X186157754Y-94981243D01*
X186193886Y-95092446D01*
X186223444Y-95183414D01*
X186319951Y-95372820D01*
X186444890Y-95544786D01*
X186595213Y-95695109D01*
X186767182Y-95820050D01*
X186775946Y-95824516D01*
X186826742Y-95872491D01*
X186843536Y-95940312D01*
X186820998Y-96006447D01*
X186775946Y-96045484D01*
X186767182Y-96049949D01*
X186595213Y-96174890D01*
X186444890Y-96325213D01*
X186319951Y-96497179D01*
X186223444Y-96686585D01*
X186157753Y-96888760D01*
X186124500Y-97098713D01*
X186124500Y-97311286D01*
X186151794Y-97483617D01*
X186157754Y-97521243D01*
X186215974Y-97700426D01*
X186223444Y-97723414D01*
X186319951Y-97912820D01*
X186444890Y-98084786D01*
X186595213Y-98235109D01*
X186767182Y-98360050D01*
X186775946Y-98364516D01*
X186826742Y-98412491D01*
X186843536Y-98480312D01*
X186820998Y-98546447D01*
X186775946Y-98585484D01*
X186767182Y-98589949D01*
X186595213Y-98714890D01*
X186444890Y-98865213D01*
X186319951Y-99037179D01*
X186223444Y-99226585D01*
X186157753Y-99428760D01*
X186137164Y-99558757D01*
X186124500Y-99638713D01*
X186124500Y-99851287D01*
X186129493Y-99882809D01*
X186147685Y-99997674D01*
X186157754Y-100061243D01*
X186199992Y-100191239D01*
X186223444Y-100263414D01*
X186319951Y-100452820D01*
X186444890Y-100624786D01*
X186595213Y-100775109D01*
X186767182Y-100900050D01*
X186775946Y-100904516D01*
X186826742Y-100952491D01*
X186843536Y-101020312D01*
X186820998Y-101086447D01*
X186775946Y-101125484D01*
X186767182Y-101129949D01*
X186595213Y-101254890D01*
X186444890Y-101405213D01*
X186319948Y-101577184D01*
X186319947Y-101577185D01*
X186299765Y-101616795D01*
X186251791Y-101667591D01*
X186189281Y-101684500D01*
X185190231Y-101684500D01*
X185032116Y-101684500D01*
X184879389Y-101725423D01*
X184879388Y-101725423D01*
X184879386Y-101725424D01*
X184879383Y-101725425D01*
X184829270Y-101754359D01*
X184829269Y-101754360D01*
X184785863Y-101779420D01*
X184742459Y-101804479D01*
X184742456Y-101804481D01*
X184630652Y-101916286D01*
X179514331Y-107032606D01*
X179453008Y-107066091D01*
X179383316Y-107061107D01*
X179327383Y-107019235D01*
X179308719Y-106983243D01*
X179306557Y-106976588D01*
X179210051Y-106787184D01*
X179210049Y-106787181D01*
X179210048Y-106787179D01*
X179085109Y-106615213D01*
X178934786Y-106464890D01*
X178762820Y-106339951D01*
X178762115Y-106339591D01*
X178754054Y-106335485D01*
X178703259Y-106287512D01*
X178686463Y-106219692D01*
X178708999Y-106153556D01*
X178754054Y-106114515D01*
X178762816Y-106110051D01*
X178816286Y-106071203D01*
X178934786Y-105985109D01*
X178934788Y-105985106D01*
X178934792Y-105985104D01*
X179085104Y-105834792D01*
X179085106Y-105834788D01*
X179085109Y-105834786D01*
X179210048Y-105662820D01*
X179210047Y-105662820D01*
X179210051Y-105662816D01*
X179306557Y-105473412D01*
X179372246Y-105271243D01*
X179405500Y-105061287D01*
X179405500Y-104848713D01*
X179372246Y-104638757D01*
X179306557Y-104436588D01*
X179210051Y-104247184D01*
X179210049Y-104247181D01*
X179210048Y-104247179D01*
X179085109Y-104075213D01*
X178934786Y-103924890D01*
X178762820Y-103799951D01*
X178762115Y-103799591D01*
X178754054Y-103795485D01*
X178703259Y-103747512D01*
X178686463Y-103679692D01*
X178708999Y-103613556D01*
X178754054Y-103574515D01*
X178762816Y-103570051D01*
X178869569Y-103492491D01*
X178934786Y-103445109D01*
X178934788Y-103445106D01*
X178934792Y-103445104D01*
X179085104Y-103294792D01*
X179085106Y-103294788D01*
X179085109Y-103294786D01*
X179210048Y-103122820D01*
X179210047Y-103122820D01*
X179210051Y-103122816D01*
X179306557Y-102933412D01*
X179372246Y-102731243D01*
X179405500Y-102521287D01*
X179405500Y-102308713D01*
X179372246Y-102098757D01*
X179306557Y-101896588D01*
X179210051Y-101707184D01*
X179210049Y-101707181D01*
X179210048Y-101707179D01*
X179085109Y-101535213D01*
X178934786Y-101384890D01*
X178762820Y-101259951D01*
X178762115Y-101259591D01*
X178754054Y-101255485D01*
X178703259Y-101207512D01*
X178686463Y-101139692D01*
X178708999Y-101073556D01*
X178754054Y-101034515D01*
X178762816Y-101030051D01*
X178869569Y-100952491D01*
X178934786Y-100905109D01*
X178934788Y-100905106D01*
X178934792Y-100905104D01*
X179085104Y-100754792D01*
X179085106Y-100754788D01*
X179085109Y-100754786D01*
X179210048Y-100582820D01*
X179210047Y-100582820D01*
X179210051Y-100582816D01*
X179306557Y-100393412D01*
X179372246Y-100191243D01*
X179405500Y-99981287D01*
X179405500Y-99768713D01*
X179372246Y-99558757D01*
X179358506Y-99516473D01*
X179358072Y-99501262D01*
X179352754Y-99487003D01*
X179357095Y-99467047D01*
X179356512Y-99446635D01*
X179364599Y-99432548D01*
X179367606Y-99418730D01*
X179388754Y-99390479D01*
X179564506Y-99214728D01*
X179564511Y-99214724D01*
X179574714Y-99204520D01*
X179574716Y-99204520D01*
X179686520Y-99092716D01*
X179700742Y-99068082D01*
X179746765Y-98988369D01*
X179746766Y-98988366D01*
X179765576Y-98955787D01*
X179765577Y-98955785D01*
X179806501Y-98803057D01*
X179806501Y-98644942D01*
X179806501Y-98637347D01*
X179806500Y-98637329D01*
X179806500Y-91512270D01*
X179826185Y-91445231D01*
X179842814Y-91424594D01*
X189612511Y-81654896D01*
X189673832Y-81621413D01*
X189743524Y-81626397D01*
X189799457Y-81668269D01*
X189810674Y-81686283D01*
X189897455Y-81856600D01*
X190024836Y-82031925D01*
X190178075Y-82185164D01*
X190289291Y-82265967D01*
X190342577Y-82304682D01*
X190385242Y-82360012D01*
X190391221Y-82429626D01*
X190358615Y-82491421D01*
X190342577Y-82505318D01*
X190276675Y-82553198D01*
X190178075Y-82624836D01*
X190178073Y-82624838D01*
X190178072Y-82624838D01*
X190024838Y-82778072D01*
X189897455Y-82953399D01*
X189799068Y-83146494D01*
X189732102Y-83352594D01*
X189732102Y-83352597D01*
X189698200Y-83566644D01*
X189698200Y-83783355D01*
X189732102Y-83997402D01*
X189732102Y-83997405D01*
X189799068Y-84203505D01*
X189799070Y-84203508D01*
X189897455Y-84396600D01*
X190024836Y-84571925D01*
X190178075Y-84725164D01*
X190291870Y-84807841D01*
X190342577Y-84844682D01*
X190385242Y-84900012D01*
X190391221Y-84969626D01*
X190358615Y-85031421D01*
X190342577Y-85045318D01*
X190276675Y-85093198D01*
X190178075Y-85164836D01*
X190178073Y-85164838D01*
X190178072Y-85164838D01*
X190024838Y-85318072D01*
X189897455Y-85493399D01*
X189799068Y-85686494D01*
X189732102Y-85892594D01*
X189732102Y-85892597D01*
X189698200Y-86106644D01*
X189698200Y-86323355D01*
X189732102Y-86537402D01*
X189732102Y-86537405D01*
X189799068Y-86743505D01*
X189799070Y-86743508D01*
X189897455Y-86936600D01*
X190024836Y-87111925D01*
X190178075Y-87265164D01*
X190291870Y-87347841D01*
X190342577Y-87384682D01*
X190385242Y-87440012D01*
X190391221Y-87509626D01*
X190358615Y-87571421D01*
X190342577Y-87585318D01*
X190276675Y-87633198D01*
X190178075Y-87704836D01*
X190178073Y-87704838D01*
X190178072Y-87704838D01*
X190024838Y-87858072D01*
X189897455Y-88033399D01*
X189799068Y-88226494D01*
X189732102Y-88432594D01*
X189732102Y-88432597D01*
X189698200Y-88646644D01*
X189698200Y-88863355D01*
X189732102Y-89077402D01*
X189732102Y-89077405D01*
X189799068Y-89283505D01*
X189799070Y-89283508D01*
X189897455Y-89476600D01*
X190024836Y-89651925D01*
X190178075Y-89805164D01*
X190353400Y-89932545D01*
X190546492Y-90030930D01*
X190546494Y-90030931D01*
X190752595Y-90097897D01*
X190752596Y-90097897D01*
X190752599Y-90097898D01*
X190966644Y-90131800D01*
X190966645Y-90131800D01*
X191183355Y-90131800D01*
X191183356Y-90131800D01*
X191397401Y-90097898D01*
X191397404Y-90097897D01*
X191397405Y-90097897D01*
X191603505Y-90030931D01*
X191603505Y-90030930D01*
X191603508Y-90030930D01*
X191796600Y-89932545D01*
X191971925Y-89805164D01*
X192125164Y-89651925D01*
X192252545Y-89476600D01*
X192350930Y-89283508D01*
X192417898Y-89077401D01*
X192451800Y-88863356D01*
X192451800Y-88646644D01*
X192417898Y-88432599D01*
X192417897Y-88432595D01*
X192417897Y-88432594D01*
X192350931Y-88226494D01*
X192252544Y-88033399D01*
X192125164Y-87858075D01*
X191971925Y-87704836D01*
X191971921Y-87704833D01*
X191807423Y-87585318D01*
X191764757Y-87529988D01*
X191758778Y-87460375D01*
X191791384Y-87398580D01*
X191807423Y-87384682D01*
X191854706Y-87350328D01*
X191971925Y-87265164D01*
X192125164Y-87111925D01*
X192252545Y-86936600D01*
X192350930Y-86743508D01*
X192417898Y-86537401D01*
X192451800Y-86323356D01*
X192451800Y-86106644D01*
X192417898Y-85892599D01*
X192417897Y-85892595D01*
X192417897Y-85892594D01*
X192350931Y-85686494D01*
X192252544Y-85493399D01*
X192125164Y-85318075D01*
X191971925Y-85164836D01*
X191971921Y-85164833D01*
X191807423Y-85045318D01*
X191764757Y-84989988D01*
X191758778Y-84920375D01*
X191791384Y-84858580D01*
X191807423Y-84844682D01*
X191854706Y-84810328D01*
X191971925Y-84725164D01*
X192125164Y-84571925D01*
X192252545Y-84396600D01*
X192350930Y-84203508D01*
X192417898Y-83997401D01*
X192451800Y-83783356D01*
X192451800Y-83566644D01*
X192417898Y-83352599D01*
X192417897Y-83352595D01*
X192417897Y-83352594D01*
X192350931Y-83146494D01*
X192252544Y-82953399D01*
X192125164Y-82778075D01*
X191971925Y-82624836D01*
X191971921Y-82624833D01*
X191807423Y-82505318D01*
X191764757Y-82449988D01*
X191758778Y-82380375D01*
X191791384Y-82318580D01*
X191807423Y-82304682D01*
X191860709Y-82265967D01*
X191971925Y-82185164D01*
X192125164Y-82031925D01*
X192252545Y-81856600D01*
X192350930Y-81663508D01*
X192362988Y-81626397D01*
X192417897Y-81457405D01*
X192417897Y-81457404D01*
X192417898Y-81457401D01*
X192451800Y-81243356D01*
X192451800Y-81026644D01*
X192417898Y-80812599D01*
X192417897Y-80812595D01*
X192417897Y-80812594D01*
X192350931Y-80606494D01*
X192327198Y-80559915D01*
X192252545Y-80413400D01*
X192125164Y-80238075D01*
X192123319Y-80236230D01*
X192122842Y-80235357D01*
X192122000Y-80234371D01*
X192122207Y-80234193D01*
X192089834Y-80174907D01*
X192094818Y-80105215D01*
X192123316Y-80060871D01*
X192732820Y-79451370D01*
X192811877Y-79314438D01*
X192852801Y-79161711D01*
X192852801Y-79003596D01*
X192852801Y-78996001D01*
X192852800Y-78995983D01*
X192852800Y-75656406D01*
X192852801Y-75656393D01*
X192852801Y-75488290D01*
X192852801Y-75488289D01*
X192811877Y-75335562D01*
X192751674Y-75231286D01*
X192732824Y-75198636D01*
X192732818Y-75198628D01*
X192449971Y-74915781D01*
X192123319Y-74589130D01*
X192089835Y-74527808D01*
X192094819Y-74458117D01*
X192122077Y-74415706D01*
X192121995Y-74415636D01*
X192122509Y-74415033D01*
X192123326Y-74413762D01*
X192125164Y-74411925D01*
X192252545Y-74236600D01*
X192350930Y-74043508D01*
X192354974Y-74031061D01*
X192417897Y-73837405D01*
X192417897Y-73837404D01*
X192417898Y-73837401D01*
X192451800Y-73623356D01*
X192451800Y-73406644D01*
X192417898Y-73192599D01*
X192417897Y-73192595D01*
X192417897Y-73192594D01*
X192350931Y-72986494D01*
X192308535Y-72903287D01*
X192252545Y-72793400D01*
X192125164Y-72618075D01*
X191971925Y-72464836D01*
X191896728Y-72410202D01*
X191807423Y-72345318D01*
X191764757Y-72289988D01*
X191758778Y-72220375D01*
X191791384Y-72158580D01*
X191807423Y-72144682D01*
X191866618Y-72101674D01*
X191971925Y-72025164D01*
X192125164Y-71871925D01*
X192252545Y-71696600D01*
X192350930Y-71503508D01*
X192417898Y-71297401D01*
X192451800Y-71083356D01*
X192451800Y-70866644D01*
X192417898Y-70652599D01*
X192417897Y-70652595D01*
X192417897Y-70652594D01*
X192350931Y-70446494D01*
X192314087Y-70374184D01*
X192252545Y-70253400D01*
X192125164Y-70078075D01*
X191971925Y-69924836D01*
X191971921Y-69924833D01*
X191807423Y-69805318D01*
X191764757Y-69749988D01*
X191758778Y-69680375D01*
X191791384Y-69618580D01*
X191807423Y-69604682D01*
X191854706Y-69570328D01*
X191971925Y-69485164D01*
X192125164Y-69331925D01*
X192252545Y-69156600D01*
X192350930Y-68963508D01*
X192350931Y-68963505D01*
X192417897Y-68757405D01*
X192417897Y-68757404D01*
X192417898Y-68757401D01*
X192451800Y-68543356D01*
X192451800Y-68326644D01*
X192417898Y-68112599D01*
X192417897Y-68112595D01*
X192417897Y-68112594D01*
X192350931Y-67906494D01*
X192252544Y-67713399D01*
X192125164Y-67538075D01*
X191971925Y-67384836D01*
X191892542Y-67327161D01*
X191807423Y-67265318D01*
X191764757Y-67209988D01*
X191758778Y-67140375D01*
X191791384Y-67078580D01*
X191807423Y-67064682D01*
X191854706Y-67030328D01*
X191971925Y-66945164D01*
X192125164Y-66791925D01*
X192252545Y-66616600D01*
X192350930Y-66423508D01*
X192417898Y-66217401D01*
X192451800Y-66003356D01*
X192451800Y-65786644D01*
X192417898Y-65572599D01*
X192417897Y-65572595D01*
X192417897Y-65572594D01*
X192350931Y-65366494D01*
X192336354Y-65337885D01*
X192252545Y-65173400D01*
X192125164Y-64998075D01*
X191971925Y-64844836D01*
X191892772Y-64787328D01*
X191807423Y-64725318D01*
X191764757Y-64669988D01*
X191758778Y-64600375D01*
X191791384Y-64538580D01*
X191807423Y-64524682D01*
X191854706Y-64490328D01*
X191971925Y-64405164D01*
X192125164Y-64251925D01*
X192252545Y-64076600D01*
X192350930Y-63883508D01*
X192417898Y-63677401D01*
X192451800Y-63463356D01*
X192451800Y-63246644D01*
X192417898Y-63032599D01*
X192417897Y-63032595D01*
X192417897Y-63032594D01*
X192350931Y-62826494D01*
X192287618Y-62702235D01*
X192252545Y-62633400D01*
X192125164Y-62458075D01*
X191971925Y-62304836D01*
X191892120Y-62246854D01*
X191807423Y-62185318D01*
X191764757Y-62129988D01*
X191758778Y-62060375D01*
X191791384Y-61998580D01*
X191807423Y-61984682D01*
X191854706Y-61950328D01*
X191971925Y-61865164D01*
X192125164Y-61711925D01*
X192252545Y-61536600D01*
X192350930Y-61343508D01*
X192377645Y-61261287D01*
X192417897Y-61137405D01*
X192417897Y-61137404D01*
X192417898Y-61137401D01*
X192451800Y-60923356D01*
X192451800Y-60706644D01*
X192417898Y-60492599D01*
X192417897Y-60492595D01*
X192417897Y-60492594D01*
X192350931Y-60286494D01*
X192345183Y-60275213D01*
X192252545Y-60093400D01*
X192125164Y-59918075D01*
X191971925Y-59764836D01*
X191796600Y-59637455D01*
X191603505Y-59539068D01*
X191397404Y-59472102D01*
X191223814Y-59444608D01*
X191183356Y-59438200D01*
X190966644Y-59438200D01*
X190926180Y-59444609D01*
X190752597Y-59472102D01*
X190752594Y-59472102D01*
X190546494Y-59539068D01*
X190353399Y-59637455D01*
X190178072Y-59764838D01*
X190024838Y-59918072D01*
X189897455Y-60093399D01*
X189799068Y-60286494D01*
X189732102Y-60492594D01*
X189732102Y-60492597D01*
X189698200Y-60706644D01*
X189698200Y-60923355D01*
X189732102Y-61137402D01*
X189732102Y-61137405D01*
X189799068Y-61343505D01*
X189864154Y-61471243D01*
X189897455Y-61536600D01*
X190024836Y-61711925D01*
X190178075Y-61865164D01*
X190272308Y-61933628D01*
X190342577Y-61984682D01*
X190385242Y-62040012D01*
X190391221Y-62109626D01*
X190358615Y-62171421D01*
X190342577Y-62185318D01*
X190276675Y-62233198D01*
X190178075Y-62304836D01*
X190178073Y-62304838D01*
X190178072Y-62304838D01*
X190024838Y-62458072D01*
X189897455Y-62633399D01*
X189799068Y-62826494D01*
X189732102Y-63032594D01*
X189732102Y-63032597D01*
X189698200Y-63246644D01*
X189698200Y-63463355D01*
X189732102Y-63677402D01*
X189732102Y-63677405D01*
X189799068Y-63883505D01*
X189874990Y-64032510D01*
X189897455Y-64076600D01*
X190024836Y-64251925D01*
X190178075Y-64405164D01*
X190291870Y-64487841D01*
X190342577Y-64524682D01*
X190385242Y-64580012D01*
X190391221Y-64649626D01*
X190358615Y-64711421D01*
X190342577Y-64725318D01*
X190276675Y-64773198D01*
X190178075Y-64844836D01*
X190178073Y-64844838D01*
X190178072Y-64844838D01*
X190024838Y-64998072D01*
X189897455Y-65173399D01*
X189799068Y-65366494D01*
X189732102Y-65572594D01*
X189732102Y-65572597D01*
X189698200Y-65786644D01*
X189698200Y-66003355D01*
X189732102Y-66217402D01*
X189732102Y-66217405D01*
X189799068Y-66423505D01*
X189845969Y-66515553D01*
X189897455Y-66616600D01*
X190024836Y-66791925D01*
X190178075Y-66945164D01*
X190291870Y-67027841D01*
X190342577Y-67064682D01*
X190385242Y-67120012D01*
X190391221Y-67189626D01*
X190358615Y-67251421D01*
X190342577Y-67265318D01*
X190330136Y-67274357D01*
X190178075Y-67384836D01*
X190178073Y-67384838D01*
X190178072Y-67384838D01*
X190024838Y-67538072D01*
X189897455Y-67713399D01*
X189799068Y-67906494D01*
X189732102Y-68112594D01*
X189732102Y-68112597D01*
X189732102Y-68112599D01*
X189698200Y-68326644D01*
X189698200Y-68543356D01*
X189711688Y-68628512D01*
X189732102Y-68757402D01*
X189732102Y-68757405D01*
X189799068Y-68963505D01*
X189881207Y-69124711D01*
X189897455Y-69156600D01*
X190024836Y-69331925D01*
X190178075Y-69485164D01*
X190291870Y-69567841D01*
X190342577Y-69604682D01*
X190385242Y-69660012D01*
X190391221Y-69729626D01*
X190358615Y-69791421D01*
X190342577Y-69805318D01*
X190276675Y-69853198D01*
X190178075Y-69924836D01*
X190178073Y-69924838D01*
X190178072Y-69924838D01*
X190024838Y-70078072D01*
X189897455Y-70253399D01*
X189799068Y-70446494D01*
X189732102Y-70652594D01*
X189732102Y-70652597D01*
X189698200Y-70866644D01*
X189698200Y-71083355D01*
X189732102Y-71297402D01*
X189732102Y-71297405D01*
X189799068Y-71503505D01*
X189897453Y-71696596D01*
X189897455Y-71696600D01*
X190024836Y-71871925D01*
X190178075Y-72025164D01*
X190283382Y-72101674D01*
X190342577Y-72144682D01*
X190385242Y-72200012D01*
X190391221Y-72269626D01*
X190358615Y-72331421D01*
X190342577Y-72345318D01*
X190276675Y-72393198D01*
X190178075Y-72464836D01*
X190178073Y-72464838D01*
X190178072Y-72464838D01*
X190024838Y-72618072D01*
X189897455Y-72793399D01*
X189799068Y-72986493D01*
X189797209Y-72990985D01*
X189796002Y-72990485D01*
X189759917Y-73043225D01*
X189695551Y-73070404D01*
X189626708Y-73058469D01*
X189593771Y-73034889D01*
X180914936Y-64356055D01*
X180914934Y-64356052D01*
X180796063Y-64237181D01*
X180796055Y-64237175D01*
X180676147Y-64167947D01*
X180676144Y-64167946D01*
X180659131Y-64158123D01*
X180506403Y-64117199D01*
X180348289Y-64117199D01*
X180340693Y-64117199D01*
X180340677Y-64117200D01*
X177194208Y-64117200D01*
X177127169Y-64097515D01*
X177081414Y-64044711D01*
X177071470Y-63975553D01*
X177083723Y-63936905D01*
X177092176Y-63920314D01*
X177110930Y-63883508D01*
X177177898Y-63677401D01*
X177211800Y-63463356D01*
X177211800Y-63246644D01*
X177177898Y-63032599D01*
X177177897Y-63032595D01*
X177177897Y-63032594D01*
X177110931Y-62826494D01*
X177047618Y-62702235D01*
X177012545Y-62633400D01*
X176885164Y-62458075D01*
X176804958Y-62377869D01*
X176771473Y-62316546D01*
X176776457Y-62246854D01*
X176818329Y-62190921D01*
X176849305Y-62174006D01*
X176953631Y-62135096D01*
X177068846Y-62048846D01*
X177155096Y-61933631D01*
X177205391Y-61798783D01*
X177211800Y-61739173D01*
X177211799Y-59890828D01*
X177205391Y-59831217D01*
X177182576Y-59770048D01*
X177155097Y-59696371D01*
X177155093Y-59696364D01*
X177068847Y-59581155D01*
X177068844Y-59581152D01*
X176953635Y-59494906D01*
X176953628Y-59494902D01*
X176818782Y-59444608D01*
X176818783Y-59444608D01*
X176759183Y-59438201D01*
X176759181Y-59438200D01*
X176759173Y-59438200D01*
X176759164Y-59438200D01*
X174910829Y-59438200D01*
X174910823Y-59438201D01*
X174851216Y-59444608D01*
X174716371Y-59494902D01*
X174716364Y-59494906D01*
X174601155Y-59581152D01*
X174601152Y-59581155D01*
X174514906Y-59696364D01*
X174514902Y-59696371D01*
X174464608Y-59831217D01*
X174460809Y-59866557D01*
X174458201Y-59890823D01*
X174458200Y-59890835D01*
X174458200Y-61739170D01*
X174458201Y-61739176D01*
X174464608Y-61798783D01*
X174514902Y-61933628D01*
X174514906Y-61933635D01*
X174601152Y-62048844D01*
X174601155Y-62048847D01*
X174716364Y-62135093D01*
X174716373Y-62135098D01*
X174820692Y-62174006D01*
X174876626Y-62215877D01*
X174901044Y-62281341D01*
X174886193Y-62349614D01*
X174865042Y-62377869D01*
X174784835Y-62458076D01*
X174657455Y-62633399D01*
X174559068Y-62826494D01*
X174492102Y-63032594D01*
X174492102Y-63032597D01*
X174458200Y-63246644D01*
X174458200Y-63463355D01*
X174492102Y-63677402D01*
X174492102Y-63677405D01*
X174559068Y-63883505D01*
X174586277Y-63936905D01*
X174599173Y-64005574D01*
X174572897Y-64070315D01*
X174515790Y-64110572D01*
X174475792Y-64117200D01*
X171321350Y-64117200D01*
X171254311Y-64097515D01*
X171208556Y-64044711D01*
X171198612Y-63975553D01*
X171221032Y-63920314D01*
X171278343Y-63841433D01*
X171385568Y-63630992D01*
X171458553Y-63406368D01*
X171484096Y-63245097D01*
X171495500Y-63173097D01*
X171495500Y-62936902D01*
X171458553Y-62703631D01*
X171424689Y-62599412D01*
X171385568Y-62479008D01*
X171385566Y-62479005D01*
X171385566Y-62479003D01*
X171319638Y-62349614D01*
X171278343Y-62268567D01*
X171139517Y-62077490D01*
X170972510Y-61910483D01*
X170781433Y-61771657D01*
X170758588Y-61760017D01*
X170570996Y-61664433D01*
X170346368Y-61591446D01*
X170113097Y-61554500D01*
X170113092Y-61554500D01*
X169876908Y-61554500D01*
X169876903Y-61554500D01*
X169643631Y-61591446D01*
X169419003Y-61664433D01*
X169208566Y-61771657D01*
X169171231Y-61798783D01*
X169017490Y-61910483D01*
X169017488Y-61910485D01*
X169017487Y-61910485D01*
X168850485Y-62077487D01*
X168850485Y-62077488D01*
X168850483Y-62077490D01*
X168845027Y-62085000D01*
X168711657Y-62268566D01*
X168604433Y-62479003D01*
X168531446Y-62703631D01*
X168494500Y-62936902D01*
X168494500Y-63173097D01*
X168531446Y-63406368D01*
X168604433Y-63630996D01*
X168711657Y-63841433D01*
X168742226Y-63883508D01*
X168768968Y-63920314D01*
X168792448Y-63986120D01*
X168776623Y-64054174D01*
X168726517Y-64102869D01*
X168668650Y-64117200D01*
X156821350Y-64117200D01*
X156754311Y-64097515D01*
X156708556Y-64044711D01*
X156698612Y-63975553D01*
X156721032Y-63920314D01*
X156778343Y-63841433D01*
X156885568Y-63630992D01*
X156958553Y-63406368D01*
X156984096Y-63245097D01*
X156995500Y-63173097D01*
X156995500Y-62936902D01*
X156958553Y-62703631D01*
X156924689Y-62599412D01*
X156885568Y-62479008D01*
X156885566Y-62479005D01*
X156885566Y-62479003D01*
X156819638Y-62349614D01*
X156778343Y-62268567D01*
X156639517Y-62077490D01*
X156472510Y-61910483D01*
X156465401Y-61905318D01*
X156422735Y-61849988D01*
X156416756Y-61780375D01*
X156449362Y-61718580D01*
X156465401Y-61704682D01*
X156465500Y-61704609D01*
X156472510Y-61699517D01*
X156639517Y-61532510D01*
X156778343Y-61341433D01*
X156885568Y-61130992D01*
X156958553Y-60906368D01*
X156969261Y-60838760D01*
X156995500Y-60673097D01*
X156995500Y-60436902D01*
X156958553Y-60203631D01*
X156885566Y-59979003D01*
X156779099Y-59770051D01*
X156778343Y-59768567D01*
X156708793Y-59672840D01*
X156685314Y-59607036D01*
X156701139Y-59538982D01*
X156734801Y-59500689D01*
X156737328Y-59498796D01*
X156737331Y-59498796D01*
X156852546Y-59412546D01*
X156938796Y-59297331D01*
X156989091Y-59162483D01*
X156995500Y-59102873D01*
X156995499Y-57936902D01*
X168494500Y-57936902D01*
X168494500Y-58173097D01*
X168531446Y-58406368D01*
X168604433Y-58630996D01*
X168711657Y-58841433D01*
X168850483Y-59032510D01*
X169017490Y-59199517D01*
X169208567Y-59338343D01*
X169307991Y-59389002D01*
X169419003Y-59445566D01*
X169419005Y-59445566D01*
X169419008Y-59445568D01*
X169500671Y-59472102D01*
X169643631Y-59518553D01*
X169876903Y-59555500D01*
X169876908Y-59555500D01*
X170113097Y-59555500D01*
X170346368Y-59518553D01*
X170401344Y-59500690D01*
X170570992Y-59445568D01*
X170781433Y-59338343D01*
X170972510Y-59199517D01*
X171139517Y-59032510D01*
X171278343Y-58841433D01*
X171385568Y-58630992D01*
X171458553Y-58406368D01*
X171489035Y-58213913D01*
X171495500Y-58173097D01*
X171495500Y-57936902D01*
X171458553Y-57703631D01*
X171385566Y-57479003D01*
X171278342Y-57268566D01*
X171139517Y-57077490D01*
X170972510Y-56910483D01*
X170781433Y-56771657D01*
X170570996Y-56664433D01*
X170346368Y-56591446D01*
X170113097Y-56554500D01*
X170113092Y-56554500D01*
X169876908Y-56554500D01*
X169876903Y-56554500D01*
X169643631Y-56591446D01*
X169419003Y-56664433D01*
X169208566Y-56771657D01*
X169152119Y-56812669D01*
X169017490Y-56910483D01*
X169017488Y-56910485D01*
X169017487Y-56910485D01*
X168850485Y-57077487D01*
X168850485Y-57077488D01*
X168850483Y-57077490D01*
X168790862Y-57159550D01*
X168711657Y-57268566D01*
X168604433Y-57479003D01*
X168531446Y-57703631D01*
X168494500Y-57936902D01*
X156995499Y-57936902D01*
X156995499Y-57007128D01*
X156989091Y-56947517D01*
X156975278Y-56910483D01*
X156938797Y-56812671D01*
X156938793Y-56812664D01*
X156852547Y-56697455D01*
X156852544Y-56697452D01*
X156737335Y-56611206D01*
X156737328Y-56611202D01*
X156602482Y-56560908D01*
X156602483Y-56560908D01*
X156542883Y-56554501D01*
X156542881Y-56554500D01*
X156542873Y-56554500D01*
X156542864Y-56554500D01*
X154447129Y-56554500D01*
X154447123Y-56554501D01*
X154387516Y-56560908D01*
X154252671Y-56611202D01*
X154252664Y-56611206D01*
X154137455Y-56697452D01*
X154137452Y-56697455D01*
X154051206Y-56812664D01*
X154051202Y-56812671D01*
X154000908Y-56947517D01*
X153994501Y-57007116D01*
X153994501Y-57007123D01*
X153994500Y-57007135D01*
X153994500Y-59102870D01*
X153994501Y-59102876D01*
X154000908Y-59162483D01*
X154051202Y-59297328D01*
X154051206Y-59297335D01*
X154137452Y-59412544D01*
X154137455Y-59412547D01*
X154255198Y-59500690D01*
X154297069Y-59556623D01*
X154302053Y-59626315D01*
X154281205Y-59672841D01*
X154211659Y-59768563D01*
X154104433Y-59979003D01*
X154031446Y-60203631D01*
X153994500Y-60436902D01*
X153994500Y-60673097D01*
X154031446Y-60906368D01*
X154104433Y-61130996D01*
X154211657Y-61341433D01*
X154350483Y-61532510D01*
X154350485Y-61532512D01*
X154517490Y-61699517D01*
X154524603Y-61704685D01*
X154567266Y-61760017D01*
X154573242Y-61829630D01*
X154540634Y-61891424D01*
X154524603Y-61905315D01*
X154517490Y-61910482D01*
X154350485Y-62077487D01*
X154350485Y-62077488D01*
X154350483Y-62077490D01*
X154345027Y-62085000D01*
X154211657Y-62268566D01*
X154104433Y-62479003D01*
X154031446Y-62703631D01*
X153994500Y-62936902D01*
X153994500Y-63173097D01*
X154031446Y-63406368D01*
X154104433Y-63630996D01*
X154211657Y-63841433D01*
X154242226Y-63883508D01*
X154268968Y-63920314D01*
X154292448Y-63986120D01*
X154276623Y-64054174D01*
X154226517Y-64102869D01*
X154168650Y-64117200D01*
X126522657Y-64117200D01*
X126455618Y-64097515D01*
X126434976Y-64080881D01*
X116515450Y-54161355D01*
X116515448Y-54161352D01*
X116396577Y-54042481D01*
X116396576Y-54042480D01*
X116309764Y-53992360D01*
X116309762Y-53992358D01*
X116309761Y-53992358D01*
X116259645Y-53963423D01*
X116106917Y-53922499D01*
X115948803Y-53922499D01*
X115941207Y-53922499D01*
X115941191Y-53922500D01*
X114821197Y-53922500D01*
X114663083Y-53922500D01*
X114510355Y-53963423D01*
X114510354Y-53963423D01*
X114510352Y-53963424D01*
X114510349Y-53963425D01*
X114460236Y-53992359D01*
X114460235Y-53992360D01*
X114416829Y-54017420D01*
X114373425Y-54042479D01*
X114373422Y-54042481D01*
X113352481Y-55063422D01*
X113352479Y-55063425D01*
X113302361Y-55150234D01*
X113302359Y-55150236D01*
X113273425Y-55200349D01*
X113273424Y-55200350D01*
X113273423Y-55200355D01*
X113232499Y-55353083D01*
X113232499Y-55511197D01*
X113232499Y-55511199D01*
X113232500Y-55521193D01*
X113232500Y-62056330D01*
X113232499Y-62056348D01*
X113232499Y-62222054D01*
X113232498Y-62222054D01*
X112505069Y-62222054D01*
X112514247Y-53907135D01*
X160894500Y-53907135D01*
X160894500Y-56002870D01*
X160894501Y-56002876D01*
X160900908Y-56062483D01*
X160951202Y-56197328D01*
X160951206Y-56197335D01*
X161037452Y-56312544D01*
X161037455Y-56312547D01*
X161152664Y-56398793D01*
X161152671Y-56398797D01*
X161287517Y-56449091D01*
X161287516Y-56449091D01*
X161294444Y-56449835D01*
X161347127Y-56455500D01*
X164642872Y-56455499D01*
X164702483Y-56449091D01*
X164837331Y-56398796D01*
X164952546Y-56312546D01*
X165038796Y-56197331D01*
X165089091Y-56062483D01*
X165095500Y-56002873D01*
X165095499Y-53907128D01*
X165089091Y-53847517D01*
X165038796Y-53712669D01*
X165038795Y-53712668D01*
X165038793Y-53712664D01*
X164952547Y-53597455D01*
X164952544Y-53597452D01*
X164837335Y-53511206D01*
X164837328Y-53511202D01*
X164702482Y-53460908D01*
X164702483Y-53460908D01*
X164642883Y-53454501D01*
X164642881Y-53454500D01*
X164642873Y-53454500D01*
X164642864Y-53454500D01*
X161347129Y-53454500D01*
X161347123Y-53454501D01*
X161287516Y-53460908D01*
X161152671Y-53511202D01*
X161152664Y-53511206D01*
X161037455Y-53597452D01*
X161037452Y-53597455D01*
X160951206Y-53712664D01*
X160951202Y-53712671D01*
X160900908Y-53847517D01*
X160894501Y-53907116D01*
X160894501Y-53907123D01*
X160894500Y-53907135D01*
X112514247Y-53907135D01*
X112514986Y-53237562D01*
X112517533Y-53212696D01*
X112564700Y-52983598D01*
X112597498Y-52921908D01*
X112658444Y-52887741D01*
X112685667Y-52884607D01*
X156134431Y-52715002D01*
X156135523Y-52715003D01*
G37*
%TD.AperFunction*%
%TA.AperFunction,NonConductor*%
G36*
X180194288Y-65337885D02*
G01*
X180214930Y-65354519D01*
X181305930Y-66445519D01*
X181339415Y-66506842D01*
X181334431Y-66576534D01*
X181292559Y-66632467D01*
X181227095Y-66656884D01*
X181218249Y-66657200D01*
X177194208Y-66657200D01*
X177127169Y-66637515D01*
X177081414Y-66584711D01*
X177071470Y-66515553D01*
X177083723Y-66476905D01*
X177099715Y-66445519D01*
X177110930Y-66423508D01*
X177177898Y-66217401D01*
X177211800Y-66003356D01*
X177211800Y-65786644D01*
X177177898Y-65572599D01*
X177177897Y-65572595D01*
X177177897Y-65572594D01*
X177147980Y-65480518D01*
X177145985Y-65410677D01*
X177182066Y-65350844D01*
X177244767Y-65320016D01*
X177265911Y-65318200D01*
X180127249Y-65318200D01*
X180194288Y-65337885D01*
G37*
%TD.AperFunction*%
%TA.AperFunction,NonConductor*%
G36*
X174431075Y-65326124D02*
G01*
X174458800Y-65330922D01*
X174464156Y-65335837D01*
X174471128Y-65337885D01*
X174489545Y-65359139D01*
X174510276Y-65378166D01*
X174512124Y-65385196D01*
X174516883Y-65390689D01*
X174520886Y-65418534D01*
X174528038Y-65445741D01*
X174526268Y-65455964D01*
X174526827Y-65459847D01*
X174522020Y-65480518D01*
X174492102Y-65572594D01*
X174492102Y-65572597D01*
X174458200Y-65786644D01*
X174458200Y-66003355D01*
X174492102Y-66217402D01*
X174492102Y-66217405D01*
X174559068Y-66423505D01*
X174605969Y-66515553D01*
X174657455Y-66616600D01*
X174784836Y-66791925D01*
X174784838Y-66791927D01*
X174786679Y-66793768D01*
X174787154Y-66794639D01*
X174788000Y-66795629D01*
X174787792Y-66795806D01*
X174820164Y-66855091D01*
X174815180Y-66924783D01*
X174786679Y-66969130D01*
X174445284Y-67310527D01*
X174383961Y-67344012D01*
X174357603Y-67346846D01*
X165218067Y-67346846D01*
X165151028Y-67327161D01*
X165105273Y-67274357D01*
X165094777Y-67209593D01*
X165095500Y-67202873D01*
X165095499Y-65442199D01*
X165115184Y-65375161D01*
X165167987Y-65329406D01*
X165219499Y-65318200D01*
X174404089Y-65318200D01*
X174431075Y-65326124D01*
G37*
%TD.AperFunction*%
%TA.AperFunction,NonConductor*%
G36*
X160837539Y-65337885D02*
G01*
X160883294Y-65390689D01*
X160894500Y-65442200D01*
X160894500Y-67202870D01*
X160894501Y-67202886D01*
X160895223Y-67209597D01*
X160882814Y-67278356D01*
X160835201Y-67329491D01*
X160771933Y-67346846D01*
X129185204Y-67346846D01*
X129118165Y-67327161D01*
X129097523Y-67310527D01*
X127316877Y-65529881D01*
X127283392Y-65468558D01*
X127288376Y-65398866D01*
X127330248Y-65342933D01*
X127395712Y-65318516D01*
X127404558Y-65318200D01*
X160770500Y-65318200D01*
X160837539Y-65337885D01*
G37*
%TD.AperFunction*%
%TA.AperFunction,NonConductor*%
G36*
X174420045Y-68567531D02*
G01*
X174465800Y-68620335D01*
X174475479Y-68652448D01*
X174492102Y-68757402D01*
X174492102Y-68757405D01*
X174559068Y-68963505D01*
X174586277Y-69016905D01*
X174599173Y-69085574D01*
X174572897Y-69150315D01*
X174515790Y-69190572D01*
X174475792Y-69197200D01*
X129407797Y-69197200D01*
X129340758Y-69177515D01*
X129320116Y-69160881D01*
X128918762Y-68759527D01*
X128885277Y-68698204D01*
X128890261Y-68628512D01*
X128932133Y-68572579D01*
X128997597Y-68548162D01*
X129006443Y-68547846D01*
X174353006Y-68547846D01*
X174420045Y-68567531D01*
G37*
%TD.AperFunction*%
%TA.AperFunction,NonConductor*%
G36*
X174534367Y-71579787D02*
G01*
X174549573Y-71579136D01*
X174567211Y-71589431D01*
X174586804Y-71595185D01*
X174597700Y-71607229D01*
X174609915Y-71614359D01*
X174630248Y-71643204D01*
X174657455Y-71696600D01*
X174784836Y-71871925D01*
X174938075Y-72025164D01*
X175043382Y-72101674D01*
X175102577Y-72144682D01*
X175145242Y-72200012D01*
X175151221Y-72269626D01*
X175118615Y-72331421D01*
X175102577Y-72345318D01*
X175036675Y-72393198D01*
X174938075Y-72464836D01*
X174938073Y-72464838D01*
X174938072Y-72464838D01*
X174784838Y-72618072D01*
X174657455Y-72793399D01*
X174559068Y-72986494D01*
X174492102Y-73192594D01*
X174492102Y-73192597D01*
X174458200Y-73406644D01*
X174458200Y-73623355D01*
X174492102Y-73837402D01*
X174510620Y-73894395D01*
X174512615Y-73964236D01*
X174480370Y-74020394D01*
X174119410Y-74381355D01*
X174058087Y-74414840D01*
X174031729Y-74417674D01*
X171249067Y-74417674D01*
X171182028Y-74397989D01*
X171136273Y-74345185D01*
X171126329Y-74276027D01*
X171148748Y-74220789D01*
X171240480Y-74094529D01*
X171248287Y-74083784D01*
X171341220Y-73901393D01*
X171404477Y-73706708D01*
X171436500Y-73504526D01*
X171436500Y-73299822D01*
X171419517Y-73192597D01*
X171404477Y-73097639D01*
X171368363Y-72986492D01*
X171341220Y-72902955D01*
X171341218Y-72902952D01*
X171341218Y-72902950D01*
X171307503Y-72836781D01*
X171248287Y-72720564D01*
X171240556Y-72709923D01*
X171127971Y-72554960D01*
X170983213Y-72410202D01*
X170817613Y-72289889D01*
X170817612Y-72289888D01*
X170817610Y-72289887D01*
X170760653Y-72260865D01*
X170635223Y-72196955D01*
X170440534Y-72133696D01*
X170265995Y-72106052D01*
X170238352Y-72101674D01*
X170033648Y-72101674D01*
X170009329Y-72105525D01*
X169831465Y-72133696D01*
X169636776Y-72196955D01*
X169454386Y-72289889D01*
X169288786Y-72410202D01*
X169144028Y-72554960D01*
X169023715Y-72720560D01*
X168930781Y-72902950D01*
X168867522Y-73097639D01*
X168835500Y-73299822D01*
X168835500Y-73504525D01*
X168867522Y-73706708D01*
X168930781Y-73901397D01*
X169023712Y-74083783D01*
X169123252Y-74220789D01*
X169146731Y-74286596D01*
X169130905Y-74354650D01*
X169080799Y-74403344D01*
X169022933Y-74417674D01*
X164827597Y-74417674D01*
X164760558Y-74397989D01*
X164714803Y-74345185D01*
X164704859Y-74276027D01*
X164713036Y-74246222D01*
X164755727Y-74143154D01*
X164802158Y-74031061D01*
X164861548Y-73809412D01*
X164891500Y-73581908D01*
X164891500Y-73352440D01*
X164861548Y-73124936D01*
X164802158Y-72903287D01*
X164752190Y-72782654D01*
X164714349Y-72691297D01*
X164714346Y-72691291D01*
X164714344Y-72691286D01*
X164599611Y-72492562D01*
X164599608Y-72492559D01*
X164599607Y-72492556D01*
X164459918Y-72310512D01*
X164459911Y-72310504D01*
X164297670Y-72148263D01*
X164297661Y-72148255D01*
X164115617Y-72008566D01*
X164098296Y-71998566D01*
X163916888Y-71893830D01*
X163916876Y-71893824D01*
X163724309Y-71814061D01*
X163669905Y-71770220D01*
X163647840Y-71703926D01*
X163665119Y-71636227D01*
X163716256Y-71588616D01*
X163771761Y-71575500D01*
X174519765Y-71575500D01*
X174534367Y-71579787D01*
G37*
%TD.AperFunction*%
%TA.AperFunction,NonConductor*%
G36*
X116940703Y-58480384D02*
G01*
X116947181Y-58486416D01*
X128622839Y-70162074D01*
X128622860Y-70162097D01*
X128622948Y-70162185D01*
X128622957Y-70162192D01*
X128623700Y-70162937D01*
X128623807Y-70163134D01*
X128630417Y-70170372D01*
X128630427Y-70170384D01*
X128628587Y-70171916D01*
X128640489Y-70193782D01*
X128657067Y-70224142D01*
X128657060Y-70224227D01*
X128657103Y-70224305D01*
X128654568Y-70259079D01*
X128652083Y-70293834D01*
X128652030Y-70293904D01*
X128652024Y-70293990D01*
X128631115Y-70321842D01*
X128610211Y-70349767D01*
X128610130Y-70349797D01*
X128610078Y-70349867D01*
X128577173Y-70362089D01*
X128544747Y-70374184D01*
X128544662Y-70374165D01*
X128544581Y-70374196D01*
X128535901Y-70374500D01*
X123739844Y-70374500D01*
X123739828Y-70374499D01*
X123732232Y-70374499D01*
X123574117Y-70374499D01*
X123497753Y-70394961D01*
X123421388Y-70415423D01*
X123421383Y-70415426D01*
X123284464Y-70494475D01*
X123284456Y-70494481D01*
X119428860Y-74350077D01*
X119367537Y-74383562D01*
X119297845Y-74378578D01*
X119293743Y-74376963D01*
X119194887Y-74336016D01*
X119194885Y-74336015D01*
X119194884Y-74336015D01*
X119119032Y-74315691D01*
X118973238Y-74276626D01*
X118935215Y-74271620D01*
X118745741Y-74246674D01*
X118745734Y-74246674D01*
X118516266Y-74246674D01*
X118516258Y-74246674D01*
X118299715Y-74275183D01*
X118288762Y-74276626D01*
X118251553Y-74286596D01*
X118067112Y-74336016D01*
X117855123Y-74423824D01*
X117855109Y-74423831D01*
X117656379Y-74538568D01*
X117653153Y-74541044D01*
X117587982Y-74566234D01*
X117519539Y-74552191D01*
X117469552Y-74503373D01*
X117453674Y-74442663D01*
X117453674Y-62712234D01*
X117453675Y-62712221D01*
X117453675Y-62544118D01*
X117444992Y-62511712D01*
X117412751Y-62391390D01*
X117388632Y-62349614D01*
X117333698Y-62254464D01*
X117333692Y-62254456D01*
X117063918Y-61984682D01*
X116718756Y-61639521D01*
X116685272Y-61578199D01*
X116688507Y-61513523D01*
X116702246Y-61471243D01*
X116735500Y-61261287D01*
X116735500Y-61048713D01*
X116702246Y-60838757D01*
X116636557Y-60636588D01*
X116540051Y-60447184D01*
X116540049Y-60447181D01*
X116540048Y-60447179D01*
X116415109Y-60275213D01*
X116264786Y-60124890D01*
X116092820Y-59999951D01*
X116092115Y-59999591D01*
X116084054Y-59995485D01*
X116033259Y-59947512D01*
X116016463Y-59879692D01*
X116038999Y-59813556D01*
X116084054Y-59774515D01*
X116092816Y-59770051D01*
X116194229Y-59696371D01*
X116264786Y-59645109D01*
X116264788Y-59645106D01*
X116264792Y-59645104D01*
X116415104Y-59494792D01*
X116415106Y-59494788D01*
X116415109Y-59494786D01*
X116540048Y-59322820D01*
X116540047Y-59322820D01*
X116540051Y-59322816D01*
X116636557Y-59133412D01*
X116702246Y-58931243D01*
X116735500Y-58721287D01*
X116735500Y-58574097D01*
X116755185Y-58507058D01*
X116807989Y-58461303D01*
X116877147Y-58451359D01*
X116940703Y-58480384D01*
G37*
%TD.AperFunction*%
%TA.AperFunction,NonConductor*%
G36*
X162577278Y-71595185D02*
G01*
X162623033Y-71647989D01*
X162632977Y-71717147D01*
X162603952Y-71780703D01*
X162557691Y-71814061D01*
X162365123Y-71893824D01*
X162365109Y-71893831D01*
X162166382Y-72008566D01*
X161984338Y-72148255D01*
X161822081Y-72310512D01*
X161682392Y-72492556D01*
X161567657Y-72691283D01*
X161567650Y-72691297D01*
X161479842Y-72903286D01*
X161457547Y-72986493D01*
X161423132Y-73114936D01*
X161420453Y-73124933D01*
X161420451Y-73124944D01*
X161390500Y-73352432D01*
X161390500Y-73581915D01*
X161415446Y-73771389D01*
X161420452Y-73809412D01*
X161462587Y-73966663D01*
X161479842Y-74031061D01*
X161568964Y-74246222D01*
X161576433Y-74315691D01*
X161545158Y-74378170D01*
X161485069Y-74413822D01*
X161454403Y-74417674D01*
X161188271Y-74417674D01*
X161121232Y-74397989D01*
X161100590Y-74381355D01*
X160813764Y-74094529D01*
X160813762Y-74094526D01*
X160694891Y-73975655D01*
X160694890Y-73975654D01*
X160608078Y-73925534D01*
X160608078Y-73925533D01*
X160608074Y-73925532D01*
X160557959Y-73896597D01*
X160405231Y-73855673D01*
X160247117Y-73855673D01*
X160239521Y-73855673D01*
X160239505Y-73855674D01*
X156227611Y-73855674D01*
X156069497Y-73855674D01*
X155916769Y-73896597D01*
X155916768Y-73896597D01*
X155916766Y-73896598D01*
X155916763Y-73896599D01*
X155866650Y-73925533D01*
X155866649Y-73925534D01*
X155823243Y-73950594D01*
X155779839Y-73975653D01*
X155779836Y-73975655D01*
X155668032Y-74087460D01*
X154395138Y-75360355D01*
X154333815Y-75393840D01*
X154307457Y-75396674D01*
X144497971Y-75396674D01*
X144430932Y-75376989D01*
X144385177Y-75324185D01*
X144375233Y-75255027D01*
X144404258Y-75191471D01*
X144463036Y-75153697D01*
X144465841Y-75152909D01*
X144594887Y-75118332D01*
X144806888Y-75030518D01*
X145005612Y-74915785D01*
X145187661Y-74776093D01*
X145187665Y-74776088D01*
X145187670Y-74776085D01*
X145349911Y-74613844D01*
X145349914Y-74613839D01*
X145349919Y-74613835D01*
X145489611Y-74431786D01*
X145604344Y-74233062D01*
X145692158Y-74021061D01*
X145751548Y-73799412D01*
X145781500Y-73571908D01*
X145781500Y-73342440D01*
X145775889Y-73299822D01*
X149895500Y-73299822D01*
X149895500Y-73504525D01*
X149927522Y-73706708D01*
X149990781Y-73901397D01*
X150028617Y-73975653D01*
X150083712Y-74083783D01*
X150083715Y-74083787D01*
X150204028Y-74249387D01*
X150348786Y-74394145D01*
X150503749Y-74506730D01*
X150514390Y-74514461D01*
X150613894Y-74565161D01*
X150696776Y-74607392D01*
X150696778Y-74607392D01*
X150696781Y-74607394D01*
X150801137Y-74641301D01*
X150891465Y-74670651D01*
X150980053Y-74684682D01*
X151093648Y-74702674D01*
X151093649Y-74702674D01*
X151298351Y-74702674D01*
X151298352Y-74702674D01*
X151500534Y-74670651D01*
X151695219Y-74607394D01*
X151877610Y-74514461D01*
X151976432Y-74442663D01*
X152043213Y-74394145D01*
X152043215Y-74394142D01*
X152043219Y-74394140D01*
X152187966Y-74249393D01*
X152187968Y-74249389D01*
X152187971Y-74249387D01*
X152300480Y-74094529D01*
X152308287Y-74083784D01*
X152401220Y-73901393D01*
X152464477Y-73706708D01*
X152496500Y-73504526D01*
X152496500Y-73299822D01*
X152479517Y-73192597D01*
X152464477Y-73097639D01*
X152428363Y-72986492D01*
X152401220Y-72902955D01*
X152401218Y-72902952D01*
X152401218Y-72902950D01*
X152367503Y-72836781D01*
X152308287Y-72720564D01*
X152300556Y-72709923D01*
X152187971Y-72554960D01*
X152043213Y-72410202D01*
X151877613Y-72289889D01*
X151877612Y-72289888D01*
X151877610Y-72289887D01*
X151820653Y-72260865D01*
X151695223Y-72196955D01*
X151500534Y-72133696D01*
X151325995Y-72106052D01*
X151298352Y-72101674D01*
X151093648Y-72101674D01*
X151069329Y-72105525D01*
X150891465Y-72133696D01*
X150696776Y-72196955D01*
X150514386Y-72289889D01*
X150348786Y-72410202D01*
X150204028Y-72554960D01*
X150083715Y-72720560D01*
X149990781Y-72902950D01*
X149927522Y-73097639D01*
X149895500Y-73299822D01*
X145775889Y-73299822D01*
X145769593Y-73252004D01*
X145751548Y-73114936D01*
X145692158Y-72893287D01*
X145608491Y-72691297D01*
X145604349Y-72681297D01*
X145604346Y-72681291D01*
X145604344Y-72681286D01*
X145489611Y-72482562D01*
X145489608Y-72482559D01*
X145489607Y-72482556D01*
X145357592Y-72310513D01*
X145349919Y-72300513D01*
X145349918Y-72300512D01*
X145349911Y-72300504D01*
X145187670Y-72138263D01*
X145187661Y-72138255D01*
X145005617Y-71998566D01*
X144806890Y-71883831D01*
X144806876Y-71883824D01*
X144638451Y-71814061D01*
X144584047Y-71770220D01*
X144561982Y-71703926D01*
X144579261Y-71636227D01*
X144630398Y-71588616D01*
X144685903Y-71575500D01*
X162510239Y-71575500D01*
X162577278Y-71595185D01*
G37*
%TD.AperFunction*%
%TA.AperFunction,NonConductor*%
G36*
X160093116Y-75076359D02*
G01*
X160113758Y-75092993D01*
X160215758Y-75194993D01*
X160249243Y-75256316D01*
X160244259Y-75326008D01*
X160202387Y-75381941D01*
X160136923Y-75406358D01*
X160128077Y-75406674D01*
X158519846Y-75406674D01*
X158500664Y-75401041D01*
X158480686Y-75400328D01*
X158467825Y-75391399D01*
X158452807Y-75386989D01*
X158439717Y-75371883D01*
X158423294Y-75360480D01*
X158409085Y-75336531D01*
X158407052Y-75334185D01*
X158405285Y-75330126D01*
X158363036Y-75228126D01*
X158355567Y-75158657D01*
X158386843Y-75096178D01*
X158446932Y-75060526D01*
X158477597Y-75056674D01*
X160026077Y-75056674D01*
X160093116Y-75076359D01*
G37*
%TD.AperFunction*%
%TA.AperFunction,NonConductor*%
G36*
X182044642Y-67877885D02*
G01*
X182065284Y-67894519D01*
X189720370Y-75549605D01*
X189753855Y-75610928D01*
X189750620Y-75675603D01*
X189732102Y-75732595D01*
X189698200Y-75946644D01*
X189698200Y-76069603D01*
X189678515Y-76136642D01*
X189625711Y-76182397D01*
X189556553Y-76192341D01*
X189492997Y-76163316D01*
X189486519Y-76157284D01*
X182765290Y-69436055D01*
X182765288Y-69436052D01*
X182646417Y-69317181D01*
X182646409Y-69317175D01*
X182526501Y-69247947D01*
X182526498Y-69247946D01*
X182509485Y-69238123D01*
X182356757Y-69197199D01*
X182198643Y-69197199D01*
X182191047Y-69197199D01*
X182191031Y-69197200D01*
X177194208Y-69197200D01*
X177127169Y-69177515D01*
X177081414Y-69124711D01*
X177071470Y-69055553D01*
X177083723Y-69016905D01*
X177086106Y-69012226D01*
X177110930Y-68963508D01*
X177110931Y-68963505D01*
X177177897Y-68757405D01*
X177177897Y-68757404D01*
X177177898Y-68757401D01*
X177211800Y-68543356D01*
X177211800Y-68326644D01*
X177177898Y-68112599D01*
X177177897Y-68112595D01*
X177177897Y-68112594D01*
X177147980Y-68020518D01*
X177145985Y-67950677D01*
X177182066Y-67890844D01*
X177244767Y-67860016D01*
X177265911Y-67858200D01*
X181977603Y-67858200D01*
X182044642Y-67877885D01*
G37*
%TD.AperFunction*%
%TA.AperFunction,NonConductor*%
G36*
X117983613Y-79564468D02*
G01*
X118023871Y-79621574D01*
X118030500Y-79661574D01*
X118030500Y-93484540D01*
X118010815Y-93551579D01*
X117958011Y-93597334D01*
X117953954Y-93599101D01*
X117870107Y-93633832D01*
X117870101Y-93633835D01*
X117671382Y-93748566D01*
X117489338Y-93888255D01*
X117327081Y-94050512D01*
X117187392Y-94232556D01*
X117072657Y-94431283D01*
X117072650Y-94431297D01*
X116984842Y-94643286D01*
X116979275Y-94664065D01*
X116942910Y-94723726D01*
X116880063Y-94754255D01*
X116810688Y-94745960D01*
X116756810Y-94701475D01*
X116735535Y-94634923D01*
X116735500Y-94631972D01*
X116735500Y-79683994D01*
X116755185Y-79616955D01*
X116807989Y-79571200D01*
X116877147Y-79561256D01*
X116915796Y-79573510D01*
X116928953Y-79580214D01*
X116928960Y-79580217D01*
X116959735Y-79590216D01*
X117097445Y-79634960D01*
X117272421Y-79662674D01*
X117272422Y-79662674D01*
X117449578Y-79662674D01*
X117449579Y-79662674D01*
X117624555Y-79634960D01*
X117793042Y-79580216D01*
X117850205Y-79551089D01*
X117918873Y-79538193D01*
X117983613Y-79564468D01*
G37*
%TD.AperFunction*%
%TA.AperFunction,NonConductor*%
G36*
X116940703Y-95688662D02*
G01*
X116978477Y-95747440D01*
X116979275Y-95750283D01*
X116984841Y-95771058D01*
X116984842Y-95771061D01*
X117072650Y-95983050D01*
X117072657Y-95983064D01*
X117108695Y-96045484D01*
X117186328Y-96179949D01*
X117187392Y-96181791D01*
X117327081Y-96363835D01*
X117327089Y-96363844D01*
X117373238Y-96409993D01*
X117406723Y-96471316D01*
X117401739Y-96541008D01*
X117359867Y-96596941D01*
X117294403Y-96621358D01*
X117288967Y-96621552D01*
X117287423Y-96621673D01*
X117112443Y-96649388D01*
X116943960Y-96704130D01*
X116943956Y-96704132D01*
X116915793Y-96718482D01*
X116847124Y-96731377D01*
X116782384Y-96705099D01*
X116742128Y-96647992D01*
X116735500Y-96607996D01*
X116735500Y-95782375D01*
X116755185Y-95715336D01*
X116807989Y-95669581D01*
X116877147Y-95659637D01*
X116940703Y-95688662D01*
G37*
%TD.AperFunction*%
%TA.AperFunction,NonConductor*%
G36*
X156143614Y-98751541D02*
G01*
X156183872Y-98808647D01*
X156190500Y-98848646D01*
X156190500Y-112536758D01*
X156170815Y-112603797D01*
X156118011Y-112649552D01*
X156113953Y-112651319D01*
X155975118Y-112708826D01*
X155975109Y-112708831D01*
X155776382Y-112823566D01*
X155594338Y-112963255D01*
X155432081Y-113125512D01*
X155292392Y-113307556D01*
X155177657Y-113506283D01*
X155177650Y-113506297D01*
X155113716Y-113660650D01*
X155094754Y-113706430D01*
X155094061Y-113708102D01*
X155050220Y-113762506D01*
X154983926Y-113784571D01*
X154916227Y-113767292D01*
X154868616Y-113716155D01*
X154855500Y-113660650D01*
X154855500Y-98896541D01*
X154875185Y-98829502D01*
X154927989Y-98783747D01*
X154997147Y-98773803D01*
X155035796Y-98786057D01*
X155043958Y-98790216D01*
X155043961Y-98790217D01*
X155043960Y-98790217D01*
X155109110Y-98811385D01*
X155212445Y-98844960D01*
X155387421Y-98872674D01*
X155387422Y-98872674D01*
X155564578Y-98872674D01*
X155564579Y-98872674D01*
X155739555Y-98844960D01*
X155908042Y-98790216D01*
X156010205Y-98738160D01*
X156078874Y-98725265D01*
X156143614Y-98751541D01*
G37*
%TD.AperFunction*%
%TA.AperFunction,NonConductor*%
G36*
X117983613Y-98782111D02*
G01*
X118023871Y-98839217D01*
X118030500Y-98879217D01*
X118030500Y-112584540D01*
X118010815Y-112651579D01*
X117958011Y-112697334D01*
X117953954Y-112699101D01*
X117870107Y-112733832D01*
X117870101Y-112733835D01*
X117671382Y-112848566D01*
X117489338Y-112988255D01*
X117327081Y-113150512D01*
X117187392Y-113332556D01*
X117072657Y-113531283D01*
X117072650Y-113531297D01*
X116988306Y-113734923D01*
X116984842Y-113743287D01*
X116979693Y-113762506D01*
X116979275Y-113764065D01*
X116942910Y-113823726D01*
X116880063Y-113854255D01*
X116810688Y-113845960D01*
X116756810Y-113801475D01*
X116735535Y-113734923D01*
X116735500Y-113731972D01*
X116735500Y-98886351D01*
X116755185Y-98819312D01*
X116807989Y-98773557D01*
X116877147Y-98763613D01*
X116915796Y-98775867D01*
X116943953Y-98790214D01*
X116943960Y-98790217D01*
X117009110Y-98811385D01*
X117112445Y-98844960D01*
X117287421Y-98872674D01*
X117287422Y-98872674D01*
X117464578Y-98872674D01*
X117464579Y-98872674D01*
X117639555Y-98844960D01*
X117808042Y-98790216D01*
X117850205Y-98768732D01*
X117918872Y-98755836D01*
X117983613Y-98782111D01*
G37*
%TD.AperFunction*%
%TA.AperFunction,NonConductor*%
G36*
X155007398Y-114785640D02*
G01*
X155018660Y-114786043D01*
X155038609Y-114799894D01*
X155060703Y-114809984D01*
X155068284Y-114820497D01*
X155076052Y-114825891D01*
X155094058Y-114856241D01*
X155113716Y-114903697D01*
X155177650Y-115058050D01*
X155177657Y-115058064D01*
X155292392Y-115256791D01*
X155432081Y-115438835D01*
X155432089Y-115438844D01*
X155478238Y-115484993D01*
X155511723Y-115546316D01*
X155506739Y-115616008D01*
X155464867Y-115671941D01*
X155399403Y-115696358D01*
X155393967Y-115696552D01*
X155392423Y-115696673D01*
X155217443Y-115724388D01*
X155048960Y-115779130D01*
X155048955Y-115779132D01*
X155035791Y-115785840D01*
X154967122Y-115798734D01*
X154902382Y-115772455D01*
X154862127Y-115715347D01*
X154855500Y-115675353D01*
X154855500Y-114903697D01*
X154858674Y-114892885D01*
X154857470Y-114881680D01*
X154868343Y-114859958D01*
X154875185Y-114836658D01*
X154883699Y-114829279D01*
X154888745Y-114819201D01*
X154909635Y-114806806D01*
X154927989Y-114790903D01*
X154939143Y-114789299D01*
X154948835Y-114783549D01*
X154973105Y-114784415D01*
X154997147Y-114780959D01*
X155007398Y-114785640D01*
G37*
%TD.AperFunction*%
%TA.AperFunction,NonConductor*%
G36*
X116940703Y-114788662D02*
G01*
X116978477Y-114847440D01*
X116979275Y-114850283D01*
X116984841Y-114871058D01*
X116984842Y-114871061D01*
X117072650Y-115083050D01*
X117072657Y-115083064D01*
X117085333Y-115105020D01*
X117158524Y-115231791D01*
X117187392Y-115281791D01*
X117327081Y-115463835D01*
X117327089Y-115463844D01*
X117373238Y-115509993D01*
X117406723Y-115571316D01*
X117401739Y-115641008D01*
X117359867Y-115696941D01*
X117294403Y-115721358D01*
X117288967Y-115721552D01*
X117287423Y-115721673D01*
X117112443Y-115749388D01*
X116943960Y-115804130D01*
X116943956Y-115804132D01*
X116915793Y-115818482D01*
X116847124Y-115831377D01*
X116782384Y-115805099D01*
X116742128Y-115747992D01*
X116735500Y-115707996D01*
X116735500Y-114882375D01*
X116755185Y-114815336D01*
X116807989Y-114769581D01*
X116877147Y-114759637D01*
X116940703Y-114788662D01*
G37*
%TD.AperFunction*%
%TA.AperFunction,NonConductor*%
G36*
X156548977Y-116021182D02*
G01*
X156636266Y-116032674D01*
X156636273Y-116032674D01*
X156855728Y-116032674D01*
X156922767Y-116052359D01*
X156968522Y-116105163D01*
X156978466Y-116174321D01*
X156949441Y-116237877D01*
X156943409Y-116244355D01*
X156734219Y-116453544D01*
X156672896Y-116487029D01*
X156603204Y-116482045D01*
X156547271Y-116440173D01*
X156536199Y-116422443D01*
X156531671Y-116413613D01*
X156524042Y-116390132D01*
X156443614Y-116232284D01*
X156426876Y-116209247D01*
X156422497Y-116200706D01*
X156417683Y-116175436D01*
X156409038Y-116151206D01*
X156411253Y-116141679D01*
X156409423Y-116132070D01*
X156419036Y-116108207D01*
X156424863Y-116083152D01*
X156431877Y-116076334D01*
X156435533Y-116067262D01*
X156456519Y-116052386D01*
X156474968Y-116034457D01*
X156484555Y-116032514D01*
X156492535Y-116026858D01*
X156518234Y-116025689D01*
X156543446Y-116020581D01*
X156548977Y-116021182D01*
G37*
%TD.AperFunction*%
%TA.AperFunction,NonConductor*%
G36*
X182044642Y-70417885D02*
G01*
X182065284Y-70434519D01*
X189720370Y-78089605D01*
X189753855Y-78150928D01*
X189750620Y-78215603D01*
X189732102Y-78272595D01*
X189698200Y-78486644D01*
X189698200Y-78703355D01*
X189732102Y-78917402D01*
X189732102Y-78917405D01*
X189799068Y-79123505D01*
X189805977Y-79137064D01*
X189897455Y-79316600D01*
X189984543Y-79436467D01*
X190008023Y-79502271D01*
X189992198Y-79570325D01*
X189971906Y-79597032D01*
X178725481Y-90843456D01*
X178725479Y-90843459D01*
X178688984Y-90906672D01*
X178688983Y-90906674D01*
X178646423Y-90980388D01*
X178646423Y-90980389D01*
X178605499Y-91133117D01*
X178605499Y-91133119D01*
X178605499Y-91301220D01*
X178605500Y-91301233D01*
X178605500Y-93320500D01*
X178585815Y-93387539D01*
X178533011Y-93433294D01*
X178481500Y-93444500D01*
X177157129Y-93444500D01*
X177157123Y-93444501D01*
X177097516Y-93450908D01*
X176962671Y-93501202D01*
X176962664Y-93501206D01*
X176847455Y-93587452D01*
X176847452Y-93587455D01*
X176761206Y-93702664D01*
X176761202Y-93702671D01*
X176710908Y-93837517D01*
X176704501Y-93897116D01*
X176704500Y-93897135D01*
X176704500Y-95692870D01*
X176704501Y-95692876D01*
X176710908Y-95752483D01*
X176761202Y-95887328D01*
X176761206Y-95887335D01*
X176847452Y-96002544D01*
X176847455Y-96002547D01*
X176962664Y-96088793D01*
X176962671Y-96088797D01*
X177094082Y-96137810D01*
X177150016Y-96179681D01*
X177174433Y-96245145D01*
X177159582Y-96313418D01*
X177138431Y-96341673D01*
X177024889Y-96455215D01*
X176899951Y-96627179D01*
X176803444Y-96816585D01*
X176737753Y-97018760D01*
X176737205Y-97022222D01*
X176704500Y-97228713D01*
X176704500Y-97441287D01*
X176711205Y-97483619D01*
X176737334Y-97648595D01*
X176737754Y-97651243D01*
X176797705Y-97835753D01*
X176803444Y-97853414D01*
X176899951Y-98042820D01*
X177024890Y-98214786D01*
X177175213Y-98365109D01*
X177347182Y-98490050D01*
X177355946Y-98494516D01*
X177406742Y-98542491D01*
X177423536Y-98610312D01*
X177400998Y-98676447D01*
X177355946Y-98715484D01*
X177347182Y-98719949D01*
X177175213Y-98844890D01*
X177024890Y-98995213D01*
X176899951Y-99167179D01*
X176803444Y-99356585D01*
X176737753Y-99558760D01*
X176727672Y-99622412D01*
X176704500Y-99768713D01*
X176704500Y-99981287D01*
X176737754Y-100191243D01*
X176761203Y-100263412D01*
X176803444Y-100393414D01*
X176899951Y-100582820D01*
X177024890Y-100754786D01*
X177175213Y-100905109D01*
X177347182Y-101030050D01*
X177355946Y-101034516D01*
X177406742Y-101082491D01*
X177423536Y-101150312D01*
X177400998Y-101216447D01*
X177355946Y-101255484D01*
X177347182Y-101259949D01*
X177175213Y-101384890D01*
X177024890Y-101535213D01*
X176899951Y-101707179D01*
X176803444Y-101896585D01*
X176737753Y-102098760D01*
X176725090Y-102178713D01*
X176704500Y-102308713D01*
X176704500Y-102521287D01*
X176737754Y-102731243D01*
X176799676Y-102921819D01*
X176803444Y-102933414D01*
X176899951Y-103122820D01*
X177024890Y-103294786D01*
X177175213Y-103445109D01*
X177347182Y-103570050D01*
X177355946Y-103574516D01*
X177406742Y-103622491D01*
X177423536Y-103690312D01*
X177400998Y-103756447D01*
X177355946Y-103795484D01*
X177347182Y-103799949D01*
X177175213Y-103924890D01*
X177024890Y-104075213D01*
X176899951Y-104247179D01*
X176803444Y-104436585D01*
X176737753Y-104638760D01*
X176725090Y-104718713D01*
X176704500Y-104848713D01*
X176704500Y-105061287D01*
X176737754Y-105271243D01*
X176761203Y-105343412D01*
X176803444Y-105473414D01*
X176899951Y-105662820D01*
X177024890Y-105834786D01*
X177175213Y-105985109D01*
X177347182Y-106110050D01*
X177355946Y-106114516D01*
X177406742Y-106162491D01*
X177423536Y-106230312D01*
X177400998Y-106296447D01*
X177355946Y-106335484D01*
X177347182Y-106339949D01*
X177175213Y-106464890D01*
X177024890Y-106615213D01*
X176899951Y-106787179D01*
X176803444Y-106976585D01*
X176737753Y-107178760D01*
X176704500Y-107388713D01*
X176704500Y-107601286D01*
X176737753Y-107811239D01*
X176803444Y-108013414D01*
X176899951Y-108202820D01*
X177024890Y-108374786D01*
X177175213Y-108525109D01*
X177347179Y-108650048D01*
X177347181Y-108650049D01*
X177347184Y-108650051D01*
X177536588Y-108746557D01*
X177543243Y-108748719D01*
X177600918Y-108788156D01*
X177628117Y-108852515D01*
X177616202Y-108921361D01*
X177592606Y-108954331D01*
X166570584Y-119976355D01*
X166509261Y-120009840D01*
X166482903Y-120012674D01*
X152490500Y-120012674D01*
X152423461Y-119992989D01*
X152377706Y-119940185D01*
X152366500Y-119888674D01*
X152366499Y-118664303D01*
X152366498Y-118664297D01*
X152366497Y-118664290D01*
X152360091Y-118604691D01*
X152350440Y-118578816D01*
X152309797Y-118469845D01*
X152309793Y-118469838D01*
X152223547Y-118354629D01*
X152223544Y-118354626D01*
X152108335Y-118268380D01*
X152108328Y-118268376D01*
X151973482Y-118218082D01*
X151973483Y-118218082D01*
X151913883Y-118211675D01*
X151913881Y-118211674D01*
X151913873Y-118211674D01*
X151913864Y-118211674D01*
X150218129Y-118211674D01*
X150218123Y-118211675D01*
X150158516Y-118218082D01*
X150023671Y-118268376D01*
X150023664Y-118268380D01*
X149908455Y-118354626D01*
X149908452Y-118354629D01*
X149822206Y-118469838D01*
X149822202Y-118469845D01*
X149771908Y-118604691D01*
X149768359Y-118637708D01*
X149765501Y-118664297D01*
X149765500Y-118664309D01*
X149765501Y-119888674D01*
X149745816Y-119955713D01*
X149693013Y-120001468D01*
X149641501Y-120012674D01*
X133430500Y-120012674D01*
X133363461Y-119992989D01*
X133317706Y-119940185D01*
X133306500Y-119888674D01*
X133306499Y-118664303D01*
X133306498Y-118664297D01*
X133306497Y-118664290D01*
X133300091Y-118604691D01*
X133290440Y-118578816D01*
X133249797Y-118469845D01*
X133249793Y-118469838D01*
X133163547Y-118354629D01*
X133163544Y-118354626D01*
X133048335Y-118268380D01*
X133048328Y-118268376D01*
X132913482Y-118218082D01*
X132913483Y-118218082D01*
X132853883Y-118211675D01*
X132853881Y-118211674D01*
X132853873Y-118211674D01*
X132853864Y-118211674D01*
X131158129Y-118211674D01*
X131158123Y-118211675D01*
X131098516Y-118218082D01*
X130963671Y-118268376D01*
X130963664Y-118268380D01*
X130848455Y-118354626D01*
X130848452Y-118354629D01*
X130762206Y-118469838D01*
X130762202Y-118469845D01*
X130711908Y-118604691D01*
X130708359Y-118637708D01*
X130705501Y-118664297D01*
X130705500Y-118664309D01*
X130705501Y-119888674D01*
X130685816Y-119955713D01*
X130633013Y-120001468D01*
X130581501Y-120012674D01*
X119708271Y-120012674D01*
X119641232Y-119992989D01*
X119620590Y-119976355D01*
X117744628Y-118100393D01*
X117711143Y-118039070D01*
X117716127Y-117969378D01*
X117757999Y-117913445D01*
X117793995Y-117894780D01*
X117808042Y-117890216D01*
X117965890Y-117809788D01*
X118109214Y-117705657D01*
X118234483Y-117580388D01*
X118338614Y-117437064D01*
X118419042Y-117279216D01*
X118473786Y-117110729D01*
X118501500Y-116935753D01*
X118501500Y-116758595D01*
X118492165Y-116699660D01*
X120205500Y-116699660D01*
X120205500Y-116994687D01*
X120220778Y-117110729D01*
X120244007Y-117287167D01*
X120320361Y-117572125D01*
X120320361Y-117572126D01*
X120433254Y-117844674D01*
X120433258Y-117844684D01*
X120580761Y-118100167D01*
X120760352Y-118334214D01*
X120760358Y-118334221D01*
X120968952Y-118542815D01*
X120968959Y-118542821D01*
X121203006Y-118722412D01*
X121458489Y-118869915D01*
X121458490Y-118869915D01*
X121458493Y-118869917D01*
X121731048Y-118982813D01*
X122016007Y-119059167D01*
X122308494Y-119097674D01*
X122308501Y-119097674D01*
X122603499Y-119097674D01*
X122603506Y-119097674D01*
X122895993Y-119059167D01*
X123180952Y-118982813D01*
X123453507Y-118869917D01*
X123708994Y-118722412D01*
X123943042Y-118542820D01*
X124151646Y-118334216D01*
X124331238Y-118100168D01*
X124478743Y-117844681D01*
X124591639Y-117572126D01*
X124667993Y-117287167D01*
X124706500Y-116994680D01*
X124706500Y-116758595D01*
X126410500Y-116758595D01*
X126410500Y-116935752D01*
X126438214Y-117110730D01*
X126492956Y-117279213D01*
X126492957Y-117279216D01*
X126560648Y-117412064D01*
X126573386Y-117437064D01*
X126677517Y-117580388D01*
X126802786Y-117705657D01*
X126946110Y-117809788D01*
X127005828Y-117840216D01*
X127103957Y-117890216D01*
X127103960Y-117890217D01*
X127175450Y-117913445D01*
X127272445Y-117944960D01*
X127447421Y-117972674D01*
X127447422Y-117972674D01*
X127624578Y-117972674D01*
X127624579Y-117972674D01*
X127799555Y-117944960D01*
X127968042Y-117890216D01*
X128125890Y-117809788D01*
X128269214Y-117705657D01*
X128394483Y-117580388D01*
X128498614Y-117437064D01*
X128579042Y-117279216D01*
X128633786Y-117110729D01*
X128661500Y-116935753D01*
X128661500Y-116758595D01*
X128633786Y-116583619D01*
X128587178Y-116440173D01*
X128579043Y-116415134D01*
X128579042Y-116415131D01*
X128498613Y-116257283D01*
X128394483Y-116113960D01*
X128269214Y-115988691D01*
X128125890Y-115884560D01*
X128117953Y-115880516D01*
X127968042Y-115804131D01*
X127968039Y-115804130D01*
X127799556Y-115749388D01*
X127678939Y-115730284D01*
X127624579Y-115721674D01*
X127447421Y-115721674D01*
X127393061Y-115730284D01*
X127272443Y-115749388D01*
X127103960Y-115804130D01*
X127103957Y-115804131D01*
X126946109Y-115884560D01*
X126865217Y-115943332D01*
X126802786Y-115988691D01*
X126802784Y-115988693D01*
X126802783Y-115988693D01*
X126677519Y-116113957D01*
X126677519Y-116113958D01*
X126677517Y-116113960D01*
X126657378Y-116141679D01*
X126573386Y-116257283D01*
X126492957Y-116415131D01*
X126492956Y-116415134D01*
X126438214Y-116583617D01*
X126410500Y-116758595D01*
X124706500Y-116758595D01*
X124706500Y-116699668D01*
X124667993Y-116407181D01*
X124591639Y-116122222D01*
X124478743Y-115849667D01*
X124468183Y-115831377D01*
X124331238Y-115594180D01*
X124151647Y-115360133D01*
X124151641Y-115360126D01*
X123943047Y-115151532D01*
X123943040Y-115151526D01*
X123708993Y-114971935D01*
X123453510Y-114824432D01*
X123453500Y-114824428D01*
X123180961Y-114711538D01*
X123180954Y-114711536D01*
X123180952Y-114711535D01*
X122895993Y-114635181D01*
X122847113Y-114628745D01*
X122603513Y-114596674D01*
X122603506Y-114596674D01*
X122308494Y-114596674D01*
X122308486Y-114596674D01*
X122030085Y-114633327D01*
X122016007Y-114635181D01*
X121917652Y-114661535D01*
X121731048Y-114711535D01*
X121731038Y-114711538D01*
X121458499Y-114824428D01*
X121458489Y-114824432D01*
X121203006Y-114971935D01*
X120968959Y-115151526D01*
X120968952Y-115151532D01*
X120760358Y-115360126D01*
X120760352Y-115360133D01*
X120580761Y-115594180D01*
X120433258Y-115849663D01*
X120433254Y-115849673D01*
X120320364Y-116122212D01*
X120320361Y-116122222D01*
X120250707Y-116382178D01*
X120244008Y-116407178D01*
X120244006Y-116407189D01*
X120205500Y-116699660D01*
X118492165Y-116699660D01*
X118473786Y-116583619D01*
X118427178Y-116440173D01*
X118419043Y-116415134D01*
X118419042Y-116415131D01*
X118338613Y-116257283D01*
X118329220Y-116244355D01*
X118327517Y-116242011D01*
X118304038Y-116176206D01*
X118319863Y-116108152D01*
X118369968Y-116059457D01*
X118438446Y-116045581D01*
X118443977Y-116046182D01*
X118531266Y-116057674D01*
X118531273Y-116057674D01*
X118760727Y-116057674D01*
X118760734Y-116057674D01*
X118988238Y-116027722D01*
X119209887Y-115968332D01*
X119421888Y-115880518D01*
X119620612Y-115765785D01*
X119802661Y-115626093D01*
X119802665Y-115626088D01*
X119802670Y-115626085D01*
X119964911Y-115463844D01*
X119964914Y-115463839D01*
X119964919Y-115463835D01*
X120104611Y-115281786D01*
X120219344Y-115083062D01*
X120307158Y-114871061D01*
X120366548Y-114649412D01*
X120396500Y-114421908D01*
X120396500Y-114192440D01*
X120366548Y-113964936D01*
X120307158Y-113743287D01*
X120219344Y-113531286D01*
X120104611Y-113332562D01*
X120104608Y-113332559D01*
X120104607Y-113332556D01*
X119964918Y-113150512D01*
X119964911Y-113150504D01*
X119802670Y-112988263D01*
X119802661Y-112988255D01*
X119620617Y-112848566D01*
X119421890Y-112733831D01*
X119421886Y-112733829D01*
X119308046Y-112686674D01*
X119253643Y-112642832D01*
X119231579Y-112576538D01*
X119231500Y-112572113D01*
X119231500Y-111652432D01*
X123245500Y-111652432D01*
X123245500Y-111881915D01*
X123270446Y-112071389D01*
X123275452Y-112109412D01*
X123275453Y-112109414D01*
X123334842Y-112331061D01*
X123422650Y-112543050D01*
X123422657Y-112543064D01*
X123440393Y-112573784D01*
X123536007Y-112739393D01*
X123537392Y-112741791D01*
X123677081Y-112923835D01*
X123677089Y-112923844D01*
X123839330Y-113086085D01*
X123839338Y-113086092D01*
X123839339Y-113086093D01*
X123889962Y-113124938D01*
X124021382Y-113225781D01*
X124021385Y-113225782D01*
X124021388Y-113225785D01*
X124220112Y-113340518D01*
X124220117Y-113340520D01*
X124220123Y-113340523D01*
X124311400Y-113378331D01*
X124432113Y-113428332D01*
X124653762Y-113487722D01*
X124881266Y-113517674D01*
X124881273Y-113517674D01*
X125110727Y-113517674D01*
X125110734Y-113517674D01*
X125338238Y-113487722D01*
X125559887Y-113428332D01*
X125771888Y-113340518D01*
X125970612Y-113225785D01*
X126152661Y-113086093D01*
X126152665Y-113086088D01*
X126152670Y-113086085D01*
X126314911Y-112923844D01*
X126314914Y-112923839D01*
X126314919Y-112923835D01*
X126454611Y-112741786D01*
X126569344Y-112543062D01*
X126657158Y-112331061D01*
X126716548Y-112109412D01*
X126746500Y-111881908D01*
X126746500Y-111789822D01*
X130705500Y-111789822D01*
X130705500Y-111994525D01*
X130737522Y-112196708D01*
X130800781Y-112391397D01*
X130852577Y-112493050D01*
X130891731Y-112569895D01*
X130893715Y-112573787D01*
X131014028Y-112739387D01*
X131158786Y-112884145D01*
X131267674Y-112963255D01*
X131324390Y-113004461D01*
X131435536Y-113061093D01*
X131506776Y-113097392D01*
X131506778Y-113097392D01*
X131506781Y-113097394D01*
X131611137Y-113131301D01*
X131701465Y-113160651D01*
X131797017Y-113175785D01*
X131903648Y-113192674D01*
X131903649Y-113192674D01*
X132108351Y-113192674D01*
X132108352Y-113192674D01*
X132310534Y-113160651D01*
X132505219Y-113097394D01*
X132687610Y-113004461D01*
X132832981Y-112898844D01*
X132853213Y-112884145D01*
X132853215Y-112884142D01*
X132853219Y-112884140D01*
X132997966Y-112739393D01*
X132997968Y-112739389D01*
X132997971Y-112739387D01*
X133069364Y-112641121D01*
X133118287Y-112573784D01*
X133211220Y-112391393D01*
X133274477Y-112196708D01*
X133306500Y-111994526D01*
X133306500Y-111789822D01*
X133274477Y-111587639D01*
X133211218Y-111392950D01*
X133177503Y-111326781D01*
X133118287Y-111210564D01*
X133094836Y-111178286D01*
X132997971Y-111044960D01*
X132853213Y-110900202D01*
X132687613Y-110779889D01*
X132687612Y-110779888D01*
X132687610Y-110779887D01*
X132614344Y-110742556D01*
X132505223Y-110686955D01*
X132310534Y-110623696D01*
X132135995Y-110596052D01*
X132108352Y-110591674D01*
X131903648Y-110591674D01*
X131879329Y-110595525D01*
X131701465Y-110623696D01*
X131506776Y-110686955D01*
X131324386Y-110779889D01*
X131158786Y-110900202D01*
X131014028Y-111044960D01*
X130893715Y-111210560D01*
X130800781Y-111392950D01*
X130737522Y-111587639D01*
X130705500Y-111789822D01*
X126746500Y-111789822D01*
X126746500Y-111652440D01*
X126716548Y-111424936D01*
X126657158Y-111203287D01*
X126569344Y-110991286D01*
X126454611Y-110792562D01*
X126454608Y-110792559D01*
X126454607Y-110792556D01*
X126353764Y-110661136D01*
X126314919Y-110610513D01*
X126314918Y-110610512D01*
X126314911Y-110610504D01*
X126152670Y-110448263D01*
X126152661Y-110448255D01*
X125970617Y-110308566D01*
X125771890Y-110193831D01*
X125771876Y-110193824D01*
X125559887Y-110106016D01*
X125338238Y-110046626D01*
X125300215Y-110041620D01*
X125110741Y-110016674D01*
X125110734Y-110016674D01*
X124881266Y-110016674D01*
X124881258Y-110016674D01*
X124664715Y-110045183D01*
X124653762Y-110046626D01*
X124618718Y-110056016D01*
X124432112Y-110106016D01*
X124220123Y-110193824D01*
X124220109Y-110193831D01*
X124021382Y-110308566D01*
X123839338Y-110448255D01*
X123677081Y-110610512D01*
X123537392Y-110792556D01*
X123422657Y-110991283D01*
X123422650Y-110991297D01*
X123345197Y-111178287D01*
X123334842Y-111203287D01*
X123282152Y-111399933D01*
X123275453Y-111424933D01*
X123275451Y-111424944D01*
X123245500Y-111652432D01*
X119231500Y-111652432D01*
X119231500Y-97599660D01*
X120205500Y-97599660D01*
X120205500Y-97894687D01*
X120225003Y-98042820D01*
X120244007Y-98187167D01*
X120319896Y-98470389D01*
X120320361Y-98472125D01*
X120320364Y-98472135D01*
X120433254Y-98744674D01*
X120433258Y-98744684D01*
X120580761Y-99000167D01*
X120760352Y-99234214D01*
X120760358Y-99234221D01*
X120968952Y-99442815D01*
X120968959Y-99442821D01*
X121203006Y-99622412D01*
X121458489Y-99769915D01*
X121458490Y-99769915D01*
X121458493Y-99769917D01*
X121731048Y-99882813D01*
X122016007Y-99959167D01*
X122308494Y-99997674D01*
X122308501Y-99997674D01*
X122603499Y-99997674D01*
X122603506Y-99997674D01*
X122895993Y-99959167D01*
X123180952Y-99882813D01*
X123453507Y-99769917D01*
X123708994Y-99622412D01*
X123849876Y-99514309D01*
X130625500Y-99514309D01*
X130625500Y-101210044D01*
X130625501Y-101210050D01*
X130631908Y-101269657D01*
X130682202Y-101404502D01*
X130682206Y-101404509D01*
X130768452Y-101519718D01*
X130768455Y-101519721D01*
X130883664Y-101605967D01*
X130883671Y-101605971D01*
X131018517Y-101656265D01*
X131018516Y-101656265D01*
X131025444Y-101657009D01*
X131078127Y-101662674D01*
X132773872Y-101662673D01*
X132833483Y-101656265D01*
X132968331Y-101605970D01*
X133083546Y-101519720D01*
X133169796Y-101404505D01*
X133220091Y-101269657D01*
X133226500Y-101210047D01*
X133226499Y-99514302D01*
X133220091Y-99454691D01*
X133217086Y-99446635D01*
X133169797Y-99319845D01*
X133169793Y-99319838D01*
X133083547Y-99204629D01*
X133083544Y-99204626D01*
X132968335Y-99118380D01*
X132968328Y-99118376D01*
X132833482Y-99068082D01*
X132833483Y-99068082D01*
X132773883Y-99061675D01*
X132773881Y-99061674D01*
X132773873Y-99061674D01*
X132773864Y-99061674D01*
X131078129Y-99061674D01*
X131078123Y-99061675D01*
X131018516Y-99068082D01*
X130883671Y-99118376D01*
X130883664Y-99118380D01*
X130768455Y-99204626D01*
X130768452Y-99204629D01*
X130682206Y-99319838D01*
X130682202Y-99319845D01*
X130631908Y-99454691D01*
X130626902Y-99501262D01*
X130625501Y-99514297D01*
X130625500Y-99514309D01*
X123849876Y-99514309D01*
X123943042Y-99442820D01*
X123943047Y-99442815D01*
X123962564Y-99423299D01*
X124151641Y-99234221D01*
X124151646Y-99234216D01*
X124331238Y-99000168D01*
X124478743Y-98744681D01*
X124591639Y-98472126D01*
X124667993Y-98187167D01*
X124706500Y-97894680D01*
X124706500Y-97658595D01*
X126410500Y-97658595D01*
X126410500Y-97835752D01*
X126438214Y-98010730D01*
X126492956Y-98179213D01*
X126492957Y-98179216D01*
X126568291Y-98327064D01*
X126573386Y-98337064D01*
X126677517Y-98480388D01*
X126802786Y-98605657D01*
X126946110Y-98709788D01*
X127014577Y-98744674D01*
X127103957Y-98790216D01*
X127103960Y-98790217D01*
X127169110Y-98811385D01*
X127272445Y-98844960D01*
X127447421Y-98872674D01*
X127447422Y-98872674D01*
X127624578Y-98872674D01*
X127624579Y-98872674D01*
X127799555Y-98844960D01*
X127968042Y-98790216D01*
X128125890Y-98709788D01*
X128269214Y-98605657D01*
X128394483Y-98480388D01*
X128498614Y-98337064D01*
X128579042Y-98179216D01*
X128633786Y-98010729D01*
X128661500Y-97835753D01*
X128661500Y-97658595D01*
X128633786Y-97483619D01*
X128579042Y-97315132D01*
X128579042Y-97315131D01*
X128498613Y-97157283D01*
X128394483Y-97013960D01*
X128269214Y-96888691D01*
X128125890Y-96784560D01*
X128098341Y-96770523D01*
X127968042Y-96704131D01*
X127968039Y-96704130D01*
X127799556Y-96649388D01*
X127659367Y-96627184D01*
X127624579Y-96621674D01*
X127447421Y-96621674D01*
X127412633Y-96627184D01*
X127272443Y-96649388D01*
X127103960Y-96704130D01*
X127103957Y-96704131D01*
X126946109Y-96784560D01*
X126902031Y-96816585D01*
X126802786Y-96888691D01*
X126802784Y-96888693D01*
X126802783Y-96888693D01*
X126677519Y-97013957D01*
X126677519Y-97013958D01*
X126677517Y-97013960D01*
X126632796Y-97075512D01*
X126573386Y-97157283D01*
X126492957Y-97315131D01*
X126492956Y-97315134D01*
X126438214Y-97483617D01*
X126410500Y-97658595D01*
X124706500Y-97658595D01*
X124706500Y-97599668D01*
X124667993Y-97307181D01*
X124591639Y-97022222D01*
X124478743Y-96749667D01*
X124472967Y-96739663D01*
X124331238Y-96494180D01*
X124151647Y-96260133D01*
X124151641Y-96260126D01*
X123943047Y-96051532D01*
X123943040Y-96051526D01*
X123708993Y-95871935D01*
X123453510Y-95724432D01*
X123453500Y-95724428D01*
X123180961Y-95611538D01*
X123180954Y-95611536D01*
X123180952Y-95611535D01*
X122895993Y-95535181D01*
X122847113Y-95528745D01*
X122603513Y-95496674D01*
X122603506Y-95496674D01*
X122308494Y-95496674D01*
X122308486Y-95496674D01*
X122030085Y-95533327D01*
X122016007Y-95535181D01*
X121768369Y-95601535D01*
X121731048Y-95611535D01*
X121731038Y-95611538D01*
X121458499Y-95724428D01*
X121458489Y-95724432D01*
X121203006Y-95871935D01*
X120968959Y-96051526D01*
X120968952Y-96051532D01*
X120760358Y-96260126D01*
X120760352Y-96260133D01*
X120580761Y-96494180D01*
X120433258Y-96749663D01*
X120433254Y-96749673D01*
X120320364Y-97022212D01*
X120320361Y-97022222D01*
X120244556Y-97305134D01*
X120244008Y-97307178D01*
X120244006Y-97307189D01*
X120205500Y-97599660D01*
X119231500Y-97599660D01*
X119231500Y-96942233D01*
X119251185Y-96875194D01*
X119303989Y-96829439D01*
X119308048Y-96827672D01*
X119421876Y-96780523D01*
X119421876Y-96780522D01*
X119421888Y-96780518D01*
X119620612Y-96665785D01*
X119802661Y-96526093D01*
X119802665Y-96526088D01*
X119802670Y-96526085D01*
X119964911Y-96363844D01*
X119964914Y-96363839D01*
X119964919Y-96363835D01*
X120104611Y-96181786D01*
X120219344Y-95983062D01*
X120307158Y-95771061D01*
X120366548Y-95549412D01*
X120396500Y-95321908D01*
X120396500Y-95092440D01*
X120366548Y-94864936D01*
X120307158Y-94643287D01*
X120219344Y-94431286D01*
X120104611Y-94232562D01*
X120104608Y-94232559D01*
X120104607Y-94232556D01*
X119964918Y-94050512D01*
X119964911Y-94050504D01*
X119802670Y-93888263D01*
X119802661Y-93888255D01*
X119620617Y-93748566D01*
X119603296Y-93738566D01*
X119435668Y-93641786D01*
X119421890Y-93633831D01*
X119421886Y-93633829D01*
X119308046Y-93586674D01*
X119253643Y-93542832D01*
X119231579Y-93476538D01*
X119231500Y-93472113D01*
X119231500Y-92552432D01*
X123245500Y-92552432D01*
X123245500Y-92781915D01*
X123270446Y-92971389D01*
X123275452Y-93009412D01*
X123332163Y-93221061D01*
X123334842Y-93231061D01*
X123422650Y-93443050D01*
X123422657Y-93443064D01*
X123441983Y-93476538D01*
X123531618Y-93631791D01*
X123537392Y-93641791D01*
X123677081Y-93823835D01*
X123677089Y-93823844D01*
X123839330Y-93986085D01*
X123839338Y-93986092D01*
X123839339Y-93986093D01*
X123889962Y-94024938D01*
X124021382Y-94125781D01*
X124021385Y-94125782D01*
X124021388Y-94125785D01*
X124220112Y-94240518D01*
X124220117Y-94240520D01*
X124220123Y-94240523D01*
X124311480Y-94278364D01*
X124432113Y-94328332D01*
X124653762Y-94387722D01*
X124881266Y-94417674D01*
X124881273Y-94417674D01*
X125110727Y-94417674D01*
X125110734Y-94417674D01*
X125338238Y-94387722D01*
X125559887Y-94328332D01*
X125771888Y-94240518D01*
X125970612Y-94125785D01*
X126152661Y-93986093D01*
X126152665Y-93986088D01*
X126152670Y-93986085D01*
X126314911Y-93823844D01*
X126314914Y-93823839D01*
X126314919Y-93823835D01*
X126454611Y-93641786D01*
X126569344Y-93443062D01*
X126657158Y-93231061D01*
X126716548Y-93009412D01*
X126746500Y-92781908D01*
X126746500Y-92639822D01*
X130625500Y-92639822D01*
X130625500Y-92844525D01*
X130657522Y-93046708D01*
X130720781Y-93241397D01*
X130758030Y-93314500D01*
X130808444Y-93413444D01*
X130813715Y-93423787D01*
X130934028Y-93589387D01*
X131078786Y-93734145D01*
X131202249Y-93823844D01*
X131244390Y-93854461D01*
X131360607Y-93913677D01*
X131426776Y-93947392D01*
X131426778Y-93947392D01*
X131426781Y-93947394D01*
X131531137Y-93981301D01*
X131621465Y-94010651D01*
X131722557Y-94026662D01*
X131823648Y-94042674D01*
X131823649Y-94042674D01*
X132028351Y-94042674D01*
X132028352Y-94042674D01*
X132230534Y-94010651D01*
X132425219Y-93947394D01*
X132607610Y-93854461D01*
X132700590Y-93786906D01*
X132773213Y-93734145D01*
X132773215Y-93734142D01*
X132773219Y-93734140D01*
X132917966Y-93589393D01*
X132917968Y-93589389D01*
X132917971Y-93589387D01*
X132970732Y-93516764D01*
X133038287Y-93423784D01*
X133131220Y-93241393D01*
X133194477Y-93046708D01*
X133226500Y-92844526D01*
X133226500Y-92639822D01*
X133194477Y-92437640D01*
X133131220Y-92242955D01*
X133131218Y-92242952D01*
X133131218Y-92242950D01*
X133060055Y-92103287D01*
X133038287Y-92060564D01*
X133030556Y-92049923D01*
X132917971Y-91894960D01*
X132773213Y-91750202D01*
X132607613Y-91629889D01*
X132607612Y-91629888D01*
X132607610Y-91629887D01*
X132550653Y-91600865D01*
X132425223Y-91536955D01*
X132230534Y-91473696D01*
X132055995Y-91446052D01*
X132028352Y-91441674D01*
X131823648Y-91441674D01*
X131801190Y-91445231D01*
X131621465Y-91473696D01*
X131426776Y-91536955D01*
X131244386Y-91629889D01*
X131078786Y-91750202D01*
X130934028Y-91894960D01*
X130813715Y-92060560D01*
X130720781Y-92242950D01*
X130657522Y-92437639D01*
X130625500Y-92639822D01*
X126746500Y-92639822D01*
X126746500Y-92552440D01*
X126716548Y-92324936D01*
X126657158Y-92103287D01*
X126569344Y-91891286D01*
X126454611Y-91692562D01*
X126454608Y-91692559D01*
X126454607Y-91692556D01*
X126314918Y-91510512D01*
X126314911Y-91510504D01*
X126152670Y-91348263D01*
X126152661Y-91348255D01*
X125970617Y-91208566D01*
X125953296Y-91198566D01*
X125771888Y-91093830D01*
X125771876Y-91093824D01*
X125559887Y-91006016D01*
X125522566Y-90996016D01*
X125338238Y-90946626D01*
X125300215Y-90941620D01*
X125110741Y-90916674D01*
X125110734Y-90916674D01*
X124881266Y-90916674D01*
X124881258Y-90916674D01*
X124664715Y-90945183D01*
X124653762Y-90946626D01*
X124560076Y-90971728D01*
X124432112Y-91006016D01*
X124220123Y-91093824D01*
X124220109Y-91093831D01*
X124021382Y-91208566D01*
X123839338Y-91348255D01*
X123677081Y-91510512D01*
X123537392Y-91692556D01*
X123422657Y-91891283D01*
X123422650Y-91891297D01*
X123338984Y-92093287D01*
X123334842Y-92103287D01*
X123278132Y-92314936D01*
X123275453Y-92324933D01*
X123275451Y-92324944D01*
X123245500Y-92552432D01*
X119231500Y-92552432D01*
X119231500Y-78389660D01*
X120190500Y-78389660D01*
X120190500Y-78684687D01*
X120207095Y-78810730D01*
X120229007Y-78977167D01*
X120271851Y-79137064D01*
X120305361Y-79262125D01*
X120305364Y-79262135D01*
X120418254Y-79534674D01*
X120418258Y-79534684D01*
X120565761Y-79790167D01*
X120745352Y-80024214D01*
X120745358Y-80024221D01*
X120953952Y-80232815D01*
X120953959Y-80232821D01*
X121188006Y-80412412D01*
X121443489Y-80559915D01*
X121443490Y-80559915D01*
X121443493Y-80559917D01*
X121716048Y-80672813D01*
X122001007Y-80749167D01*
X122293494Y-80787674D01*
X122293501Y-80787674D01*
X122588499Y-80787674D01*
X122588506Y-80787674D01*
X122880993Y-80749167D01*
X123165952Y-80672813D01*
X123438507Y-80559917D01*
X123693994Y-80412412D01*
X123928042Y-80232820D01*
X123986553Y-80174309D01*
X130665500Y-80174309D01*
X130665500Y-81870044D01*
X130665501Y-81870050D01*
X130671908Y-81929657D01*
X130722202Y-82064502D01*
X130722206Y-82064509D01*
X130808452Y-82179718D01*
X130808455Y-82179721D01*
X130923664Y-82265967D01*
X130923671Y-82265971D01*
X131058517Y-82316265D01*
X131058516Y-82316265D01*
X131065444Y-82317009D01*
X131118127Y-82322674D01*
X132813872Y-82322673D01*
X132873483Y-82316265D01*
X133008331Y-82265970D01*
X133123546Y-82179720D01*
X133209796Y-82064505D01*
X133260091Y-81929657D01*
X133266500Y-81870047D01*
X133266499Y-80174302D01*
X133260091Y-80114691D01*
X133240016Y-80060868D01*
X133209797Y-79979845D01*
X133209793Y-79979838D01*
X133123547Y-79864629D01*
X133123544Y-79864626D01*
X133008335Y-79778380D01*
X133008328Y-79778376D01*
X132873482Y-79728082D01*
X132873483Y-79728082D01*
X132813883Y-79721675D01*
X132813881Y-79721674D01*
X132813873Y-79721674D01*
X132813864Y-79721674D01*
X131118129Y-79721674D01*
X131118123Y-79721675D01*
X131058516Y-79728082D01*
X130923671Y-79778376D01*
X130923664Y-79778380D01*
X130808455Y-79864626D01*
X130808452Y-79864629D01*
X130722206Y-79979838D01*
X130722202Y-79979845D01*
X130671908Y-80114691D01*
X130665501Y-80174290D01*
X130665501Y-80174297D01*
X130665500Y-80174309D01*
X123986553Y-80174309D01*
X123986572Y-80174290D01*
X124077564Y-80083299D01*
X124136641Y-80024221D01*
X124136646Y-80024216D01*
X124316238Y-79790168D01*
X124463743Y-79534681D01*
X124576639Y-79262126D01*
X124652993Y-78977167D01*
X124691500Y-78684680D01*
X124691500Y-78448595D01*
X126395500Y-78448595D01*
X126395500Y-78625752D01*
X126423214Y-78800730D01*
X126477956Y-78969213D01*
X126477957Y-78969216D01*
X126556573Y-79123505D01*
X126558386Y-79127064D01*
X126662517Y-79270388D01*
X126787786Y-79395657D01*
X126931110Y-79499788D01*
X126999577Y-79534674D01*
X127088957Y-79580216D01*
X127088960Y-79580217D01*
X127119735Y-79590216D01*
X127257445Y-79634960D01*
X127432421Y-79662674D01*
X127432422Y-79662674D01*
X127609578Y-79662674D01*
X127609579Y-79662674D01*
X127784555Y-79634960D01*
X127953042Y-79580216D01*
X128110890Y-79499788D01*
X128254214Y-79395657D01*
X128379483Y-79270388D01*
X128483614Y-79127064D01*
X128564042Y-78969216D01*
X128618786Y-78800729D01*
X128646500Y-78625753D01*
X128646500Y-78448595D01*
X128618786Y-78273619D01*
X128576455Y-78143336D01*
X128564043Y-78105134D01*
X128564042Y-78105131D01*
X128488709Y-77957284D01*
X128483614Y-77947284D01*
X128379483Y-77803960D01*
X128254214Y-77678691D01*
X128110890Y-77574560D01*
X128062047Y-77549673D01*
X127953042Y-77494131D01*
X127953039Y-77494130D01*
X127784556Y-77439388D01*
X127646078Y-77417455D01*
X127609579Y-77411674D01*
X127432421Y-77411674D01*
X127395922Y-77417455D01*
X127257443Y-77439388D01*
X127088960Y-77494130D01*
X127088957Y-77494131D01*
X126931109Y-77574560D01*
X126876590Y-77614171D01*
X126787786Y-77678691D01*
X126787784Y-77678693D01*
X126787783Y-77678693D01*
X126662519Y-77803957D01*
X126662519Y-77803958D01*
X126662517Y-77803960D01*
X126649249Y-77822222D01*
X126558386Y-77947283D01*
X126477957Y-78105131D01*
X126477956Y-78105134D01*
X126423214Y-78273617D01*
X126395500Y-78448595D01*
X124691500Y-78448595D01*
X124691500Y-78389668D01*
X124652993Y-78097181D01*
X124576639Y-77812222D01*
X124463743Y-77539667D01*
X124443226Y-77504131D01*
X124316238Y-77284180D01*
X124136647Y-77050133D01*
X124136641Y-77050126D01*
X123928047Y-76841532D01*
X123928040Y-76841526D01*
X123693993Y-76661935D01*
X123438507Y-76514431D01*
X123438500Y-76514428D01*
X123165961Y-76401538D01*
X123165954Y-76401536D01*
X123165952Y-76401535D01*
X122880993Y-76325181D01*
X122832113Y-76318745D01*
X122588513Y-76286674D01*
X122588506Y-76286674D01*
X122293494Y-76286674D01*
X122293486Y-76286674D01*
X122015085Y-76323327D01*
X122001007Y-76325181D01*
X121806118Y-76377401D01*
X121716048Y-76401535D01*
X121716038Y-76401538D01*
X121443499Y-76514428D01*
X121443493Y-76514431D01*
X121188006Y-76661935D01*
X120953959Y-76841526D01*
X120953952Y-76841532D01*
X120745358Y-77050126D01*
X120745352Y-77050133D01*
X120565761Y-77284180D01*
X120418258Y-77539663D01*
X120418254Y-77539673D01*
X120305364Y-77812212D01*
X120305361Y-77812222D01*
X120237230Y-78066494D01*
X120229008Y-78097178D01*
X120229006Y-78097189D01*
X120190500Y-78389660D01*
X119231500Y-78389660D01*
X119231500Y-77726020D01*
X119251185Y-77658981D01*
X119303989Y-77613226D01*
X119308048Y-77611459D01*
X119406876Y-77570523D01*
X119406876Y-77570522D01*
X119406888Y-77570518D01*
X119605612Y-77455785D01*
X119787661Y-77316093D01*
X119787665Y-77316088D01*
X119787670Y-77316085D01*
X119949911Y-77153844D01*
X119949914Y-77153839D01*
X119949919Y-77153835D01*
X120089611Y-76971786D01*
X120204344Y-76773062D01*
X120292158Y-76561061D01*
X120351548Y-76339412D01*
X120381500Y-76111908D01*
X120381500Y-75882440D01*
X120351548Y-75654936D01*
X120292158Y-75433287D01*
X120252080Y-75336531D01*
X120251216Y-75334445D01*
X120243747Y-75264975D01*
X120275022Y-75202496D01*
X120278067Y-75199340D01*
X123865591Y-71611819D01*
X123926914Y-71578334D01*
X123953272Y-71575500D01*
X124326097Y-71575500D01*
X124393136Y-71595185D01*
X124438891Y-71647989D01*
X124448835Y-71717147D01*
X124419810Y-71780703D01*
X124373549Y-71814061D01*
X124205123Y-71883824D01*
X124205109Y-71883831D01*
X124006382Y-71998566D01*
X123824338Y-72138255D01*
X123662081Y-72300512D01*
X123522392Y-72482556D01*
X123407657Y-72681283D01*
X123407650Y-72681297D01*
X123319842Y-72893286D01*
X123293798Y-72990485D01*
X123265087Y-73097640D01*
X123260453Y-73114933D01*
X123260451Y-73114944D01*
X123230500Y-73342432D01*
X123230500Y-73571915D01*
X123231817Y-73581915D01*
X123260452Y-73799412D01*
X123294246Y-73925533D01*
X123319842Y-74021061D01*
X123407650Y-74233050D01*
X123407656Y-74233062D01*
X123514241Y-74417674D01*
X123522392Y-74431791D01*
X123662081Y-74613835D01*
X123662089Y-74613844D01*
X123824330Y-74776085D01*
X123824338Y-74776092D01*
X124006382Y-74915781D01*
X124006385Y-74915782D01*
X124006388Y-74915785D01*
X124205112Y-75030518D01*
X124205117Y-75030520D01*
X124205123Y-75030523D01*
X124268258Y-75056674D01*
X124417113Y-75118332D01*
X124638762Y-75177722D01*
X124866266Y-75207674D01*
X124866273Y-75207674D01*
X125095727Y-75207674D01*
X125095734Y-75207674D01*
X125323238Y-75177722D01*
X125544887Y-75118332D01*
X125756888Y-75030518D01*
X125955612Y-74915785D01*
X126137661Y-74776093D01*
X126137665Y-74776088D01*
X126137670Y-74776085D01*
X126299911Y-74613844D01*
X126299914Y-74613839D01*
X126299919Y-74613835D01*
X126439611Y-74431786D01*
X126554344Y-74233062D01*
X126642158Y-74021061D01*
X126701548Y-73799412D01*
X126731500Y-73571908D01*
X126731500Y-73342440D01*
X126725889Y-73299822D01*
X130665500Y-73299822D01*
X130665500Y-73504525D01*
X130697522Y-73706708D01*
X130760781Y-73901397D01*
X130798617Y-73975653D01*
X130853712Y-74083783D01*
X130853715Y-74083787D01*
X130974028Y-74249387D01*
X131118786Y-74394145D01*
X131273749Y-74506730D01*
X131284390Y-74514461D01*
X131383894Y-74565161D01*
X131466776Y-74607392D01*
X131466778Y-74607392D01*
X131466781Y-74607394D01*
X131571137Y-74641301D01*
X131661465Y-74670651D01*
X131750053Y-74684682D01*
X131863648Y-74702674D01*
X131863649Y-74702674D01*
X132068351Y-74702674D01*
X132068352Y-74702674D01*
X132270534Y-74670651D01*
X132465219Y-74607394D01*
X132647610Y-74514461D01*
X132746432Y-74442663D01*
X132813213Y-74394145D01*
X132813215Y-74394142D01*
X132813219Y-74394140D01*
X132957966Y-74249393D01*
X132957968Y-74249389D01*
X132957971Y-74249387D01*
X133070480Y-74094529D01*
X133078287Y-74083784D01*
X133171220Y-73901393D01*
X133234477Y-73706708D01*
X133266500Y-73504526D01*
X133266500Y-73299822D01*
X133249517Y-73192597D01*
X133234477Y-73097639D01*
X133198363Y-72986492D01*
X133171220Y-72902955D01*
X133171218Y-72902952D01*
X133171218Y-72902950D01*
X133137503Y-72836781D01*
X133078287Y-72720564D01*
X133070556Y-72709923D01*
X132957971Y-72554960D01*
X132813213Y-72410202D01*
X132647613Y-72289889D01*
X132647612Y-72289888D01*
X132647610Y-72289887D01*
X132590653Y-72260865D01*
X132465223Y-72196955D01*
X132270534Y-72133696D01*
X132095995Y-72106052D01*
X132068352Y-72101674D01*
X131863648Y-72101674D01*
X131839329Y-72105525D01*
X131661465Y-72133696D01*
X131466776Y-72196955D01*
X131284386Y-72289889D01*
X131118786Y-72410202D01*
X130974028Y-72554960D01*
X130853715Y-72720560D01*
X130760781Y-72902950D01*
X130697522Y-73097639D01*
X130665500Y-73299822D01*
X126725889Y-73299822D01*
X126719593Y-73252004D01*
X126701548Y-73114936D01*
X126642158Y-72893287D01*
X126558491Y-72691297D01*
X126554349Y-72681297D01*
X126554346Y-72681291D01*
X126554344Y-72681286D01*
X126439611Y-72482562D01*
X126439608Y-72482559D01*
X126439607Y-72482556D01*
X126307592Y-72310513D01*
X126299919Y-72300513D01*
X126299918Y-72300512D01*
X126299911Y-72300504D01*
X126137670Y-72138263D01*
X126137661Y-72138255D01*
X125955617Y-71998566D01*
X125756890Y-71883831D01*
X125756876Y-71883824D01*
X125588451Y-71814061D01*
X125534047Y-71770220D01*
X125511982Y-71703926D01*
X125529261Y-71636227D01*
X125580398Y-71588616D01*
X125635903Y-71575500D01*
X143376097Y-71575500D01*
X143443136Y-71595185D01*
X143488891Y-71647989D01*
X143498835Y-71717147D01*
X143469810Y-71780703D01*
X143423549Y-71814061D01*
X143255123Y-71883824D01*
X143255109Y-71883831D01*
X143056382Y-71998566D01*
X142874338Y-72138255D01*
X142712081Y-72300512D01*
X142572392Y-72482556D01*
X142457657Y-72681283D01*
X142457650Y-72681297D01*
X142369842Y-72893286D01*
X142343798Y-72990485D01*
X142315087Y-73097640D01*
X142310453Y-73114933D01*
X142310451Y-73114944D01*
X142280500Y-73342432D01*
X142280500Y-73571915D01*
X142281817Y-73581915D01*
X142310452Y-73799412D01*
X142344246Y-73925533D01*
X142369842Y-74021061D01*
X142457650Y-74233050D01*
X142457656Y-74233062D01*
X142564241Y-74417674D01*
X142572392Y-74431791D01*
X142712081Y-74613835D01*
X142712089Y-74613844D01*
X142874330Y-74776085D01*
X142874338Y-74776092D01*
X143056382Y-74915781D01*
X143056385Y-74915782D01*
X143056388Y-74915785D01*
X143255112Y-75030518D01*
X143255117Y-75030520D01*
X143255123Y-75030523D01*
X143318258Y-75056674D01*
X143467113Y-75118332D01*
X143596123Y-75152899D01*
X143655783Y-75189264D01*
X143686312Y-75252111D01*
X143678017Y-75321486D01*
X143633532Y-75375364D01*
X143566980Y-75396639D01*
X143564029Y-75396674D01*
X139409846Y-75396674D01*
X139342807Y-75376989D01*
X139297052Y-75324185D01*
X139295285Y-75320126D01*
X139254349Y-75221297D01*
X139254346Y-75221291D01*
X139254344Y-75221286D01*
X139139611Y-75022562D01*
X139139608Y-75022559D01*
X139139607Y-75022556D01*
X138999918Y-74840512D01*
X138999911Y-74840504D01*
X138837670Y-74678263D01*
X138837661Y-74678255D01*
X138655617Y-74538566D01*
X138604379Y-74508984D01*
X138456888Y-74423830D01*
X138456876Y-74423824D01*
X138244887Y-74336016D01*
X138169032Y-74315691D01*
X138023238Y-74276626D01*
X137985215Y-74271620D01*
X137795741Y-74246674D01*
X137795734Y-74246674D01*
X137566266Y-74246674D01*
X137566258Y-74246674D01*
X137349715Y-74275183D01*
X137338762Y-74276626D01*
X137301553Y-74286596D01*
X137117112Y-74336016D01*
X136905123Y-74423824D01*
X136905109Y-74423831D01*
X136706382Y-74538566D01*
X136524338Y-74678255D01*
X136362081Y-74840512D01*
X136222392Y-75022556D01*
X136107657Y-75221283D01*
X136107650Y-75221297D01*
X136019842Y-75433286D01*
X135988675Y-75549605D01*
X135960452Y-75654936D01*
X135959009Y-75665889D01*
X135930500Y-75882432D01*
X135930500Y-76111915D01*
X135937273Y-76163355D01*
X135960452Y-76339412D01*
X136003640Y-76500594D01*
X136019842Y-76561061D01*
X136107650Y-76773050D01*
X136107657Y-76773064D01*
X136173896Y-76887794D01*
X136210923Y-76951927D01*
X136222392Y-76971791D01*
X136362081Y-77153835D01*
X136362089Y-77153844D01*
X136408238Y-77199993D01*
X136441723Y-77261316D01*
X136436739Y-77331008D01*
X136394867Y-77386941D01*
X136329403Y-77411358D01*
X136323967Y-77411552D01*
X136322423Y-77411673D01*
X136147443Y-77439388D01*
X135978960Y-77494130D01*
X135978957Y-77494131D01*
X135821109Y-77574560D01*
X135766590Y-77614171D01*
X135677786Y-77678691D01*
X135677784Y-77678693D01*
X135677783Y-77678693D01*
X135552519Y-77803957D01*
X135552519Y-77803958D01*
X135552517Y-77803960D01*
X135539249Y-77822222D01*
X135448386Y-77947283D01*
X135367957Y-78105131D01*
X135367956Y-78105134D01*
X135313214Y-78273617D01*
X135285500Y-78448595D01*
X135285500Y-78625752D01*
X135313214Y-78800730D01*
X135367956Y-78969213D01*
X135367957Y-78969216D01*
X135446573Y-79123505D01*
X135448386Y-79127064D01*
X135552517Y-79270388D01*
X135677786Y-79395657D01*
X135821110Y-79499788D01*
X135889577Y-79534674D01*
X135978957Y-79580216D01*
X135978960Y-79580217D01*
X136009735Y-79590216D01*
X136147445Y-79634960D01*
X136322421Y-79662674D01*
X136322422Y-79662674D01*
X136499578Y-79662674D01*
X136499579Y-79662674D01*
X136674555Y-79634960D01*
X136843042Y-79580216D01*
X136900205Y-79551089D01*
X136968873Y-79538193D01*
X137033613Y-79564468D01*
X137073871Y-79621574D01*
X137080500Y-79661574D01*
X137080500Y-81765057D01*
X137121423Y-81917784D01*
X137133887Y-81939373D01*
X137150500Y-82001372D01*
X137150500Y-93460042D01*
X137130815Y-93527081D01*
X137078011Y-93572836D01*
X137073954Y-93574603D01*
X136955113Y-93623829D01*
X136955109Y-93623831D01*
X136756382Y-93738566D01*
X136574338Y-93878255D01*
X136412081Y-94040512D01*
X136272392Y-94222556D01*
X136157657Y-94421283D01*
X136157650Y-94421297D01*
X136069842Y-94633286D01*
X136010453Y-94854933D01*
X136010451Y-94854944D01*
X135980500Y-95082432D01*
X135980500Y-95311915D01*
X135988519Y-95372820D01*
X136010452Y-95539412D01*
X136057347Y-95714428D01*
X136069842Y-95761061D01*
X136157650Y-95973050D01*
X136157657Y-95973064D01*
X136272392Y-96171791D01*
X136412081Y-96353835D01*
X136412089Y-96353844D01*
X136458238Y-96399993D01*
X136491723Y-96461316D01*
X136486739Y-96531008D01*
X136444867Y-96586941D01*
X136379403Y-96611358D01*
X136373967Y-96611552D01*
X136372423Y-96611673D01*
X136197443Y-96639388D01*
X136028960Y-96694130D01*
X136028957Y-96694131D01*
X135871109Y-96774560D01*
X135789338Y-96833970D01*
X135727786Y-96878691D01*
X135727784Y-96878693D01*
X135727783Y-96878693D01*
X135602519Y-97003957D01*
X135602519Y-97003958D01*
X135602517Y-97003960D01*
X135589249Y-97022222D01*
X135498386Y-97147283D01*
X135417957Y-97305131D01*
X135417956Y-97305134D01*
X135363214Y-97473617D01*
X135335500Y-97648595D01*
X135335500Y-97825752D01*
X135363214Y-98000730D01*
X135417956Y-98169213D01*
X135417957Y-98169216D01*
X135451532Y-98235109D01*
X135498386Y-98327064D01*
X135602517Y-98470388D01*
X135727786Y-98595657D01*
X135871110Y-98699788D01*
X135926485Y-98728003D01*
X136028957Y-98780216D01*
X136028960Y-98780217D01*
X136059735Y-98790216D01*
X136197445Y-98834960D01*
X136372421Y-98862674D01*
X136372422Y-98862674D01*
X136549578Y-98862674D01*
X136549579Y-98862674D01*
X136724555Y-98834960D01*
X136893042Y-98780216D01*
X136893042Y-98780215D01*
X136893047Y-98780214D01*
X136970204Y-98740900D01*
X137038874Y-98728003D01*
X137103614Y-98754279D01*
X137143872Y-98811385D01*
X137150500Y-98851384D01*
X137150500Y-112528327D01*
X137130815Y-112595366D01*
X137078011Y-112641121D01*
X137073963Y-112642883D01*
X136975112Y-112683830D01*
X136975109Y-112683831D01*
X136975101Y-112683835D01*
X136776382Y-112798566D01*
X136594338Y-112938255D01*
X136432081Y-113100512D01*
X136292392Y-113282556D01*
X136177657Y-113481283D01*
X136177650Y-113481297D01*
X136089842Y-113693286D01*
X136030453Y-113914933D01*
X136030451Y-113914944D01*
X136000500Y-114142432D01*
X136000500Y-114371915D01*
X136023509Y-114546674D01*
X136030452Y-114599412D01*
X136081761Y-114790903D01*
X136089842Y-114821061D01*
X136177650Y-115033050D01*
X136177657Y-115033064D01*
X136292392Y-115231791D01*
X136432081Y-115413835D01*
X136432089Y-115413844D01*
X136478238Y-115459993D01*
X136511723Y-115521316D01*
X136506739Y-115591008D01*
X136464867Y-115646941D01*
X136399403Y-115671358D01*
X136393967Y-115671552D01*
X136392423Y-115671673D01*
X136217443Y-115699388D01*
X136048960Y-115754130D01*
X136048957Y-115754131D01*
X135891109Y-115834560D01*
X135856700Y-115859560D01*
X135747786Y-115938691D01*
X135747784Y-115938693D01*
X135747783Y-115938693D01*
X135622519Y-116063957D01*
X135622519Y-116063958D01*
X135622517Y-116063960D01*
X135598358Y-116097212D01*
X135518386Y-116207283D01*
X135437957Y-116365131D01*
X135437956Y-116365134D01*
X135383214Y-116533617D01*
X135355500Y-116708595D01*
X135355500Y-116885752D01*
X135383214Y-117060730D01*
X135437956Y-117229213D01*
X135437957Y-117229216D01*
X135518386Y-117387064D01*
X135622517Y-117530388D01*
X135747786Y-117655657D01*
X135891110Y-117759788D01*
X135940173Y-117784787D01*
X136048957Y-117840216D01*
X136048960Y-117840217D01*
X136125901Y-117865216D01*
X136217445Y-117894960D01*
X136392421Y-117922674D01*
X136392422Y-117922674D01*
X136569578Y-117922674D01*
X136569579Y-117922674D01*
X136744555Y-117894960D01*
X136913042Y-117840216D01*
X137070890Y-117759788D01*
X137214214Y-117655657D01*
X137339483Y-117530388D01*
X137443614Y-117387064D01*
X137524042Y-117229216D01*
X137578786Y-117060729D01*
X137606500Y-116885753D01*
X137606500Y-116708595D01*
X137597165Y-116649660D01*
X139310500Y-116649660D01*
X139310500Y-116944687D01*
X139332361Y-117110729D01*
X139349007Y-117237167D01*
X139397743Y-117419054D01*
X139425361Y-117522125D01*
X139425364Y-117522135D01*
X139538254Y-117794674D01*
X139538258Y-117794684D01*
X139685761Y-118050167D01*
X139865352Y-118284214D01*
X139865358Y-118284221D01*
X140073952Y-118492815D01*
X140073959Y-118492821D01*
X140308006Y-118672412D01*
X140563489Y-118819915D01*
X140563490Y-118819915D01*
X140563493Y-118819917D01*
X140836048Y-118932813D01*
X141121007Y-119009167D01*
X141413494Y-119047674D01*
X141413501Y-119047674D01*
X141708499Y-119047674D01*
X141708506Y-119047674D01*
X142000993Y-119009167D01*
X142285952Y-118932813D01*
X142558507Y-118819917D01*
X142813994Y-118672412D01*
X143048042Y-118492820D01*
X143256646Y-118284216D01*
X143436238Y-118050168D01*
X143583743Y-117794681D01*
X143696639Y-117522126D01*
X143772993Y-117237167D01*
X143811500Y-116944680D01*
X143811500Y-116708595D01*
X145515500Y-116708595D01*
X145515500Y-116885752D01*
X145543214Y-117060730D01*
X145597956Y-117229213D01*
X145597957Y-117229216D01*
X145678386Y-117387064D01*
X145782517Y-117530388D01*
X145907786Y-117655657D01*
X146051110Y-117759788D01*
X146100173Y-117784787D01*
X146208957Y-117840216D01*
X146208960Y-117840217D01*
X146285901Y-117865216D01*
X146377445Y-117894960D01*
X146552421Y-117922674D01*
X146552422Y-117922674D01*
X146729578Y-117922674D01*
X146729579Y-117922674D01*
X146904555Y-117894960D01*
X147073042Y-117840216D01*
X147230890Y-117759788D01*
X147374214Y-117655657D01*
X147499483Y-117530388D01*
X147603614Y-117387064D01*
X147684042Y-117229216D01*
X147738786Y-117060729D01*
X147766500Y-116885753D01*
X147766500Y-116708595D01*
X147738786Y-116533619D01*
X147702663Y-116422443D01*
X147684043Y-116365134D01*
X147684042Y-116365131D01*
X147629090Y-116257283D01*
X147603614Y-116207284D01*
X147499483Y-116063960D01*
X147374214Y-115938691D01*
X147230890Y-115834560D01*
X147211466Y-115824663D01*
X147073042Y-115754131D01*
X147073039Y-115754130D01*
X146904556Y-115699388D01*
X146817067Y-115685531D01*
X146729579Y-115671674D01*
X146552421Y-115671674D01*
X146494095Y-115680912D01*
X146377443Y-115699388D01*
X146208960Y-115754130D01*
X146208957Y-115754131D01*
X146051109Y-115834560D01*
X146016700Y-115859560D01*
X145907786Y-115938691D01*
X145907784Y-115938693D01*
X145907783Y-115938693D01*
X145782519Y-116063957D01*
X145782519Y-116063958D01*
X145782517Y-116063960D01*
X145758358Y-116097212D01*
X145678386Y-116207283D01*
X145597957Y-116365131D01*
X145597956Y-116365134D01*
X145543214Y-116533617D01*
X145515500Y-116708595D01*
X143811500Y-116708595D01*
X143811500Y-116649668D01*
X143772993Y-116357181D01*
X143696639Y-116072222D01*
X143688411Y-116052359D01*
X143653606Y-115968331D01*
X143583743Y-115799667D01*
X143583204Y-115798734D01*
X143436238Y-115544180D01*
X143256647Y-115310133D01*
X143256641Y-115310126D01*
X143048047Y-115101532D01*
X143048040Y-115101526D01*
X142813993Y-114921935D01*
X142558510Y-114774432D01*
X142558500Y-114774428D01*
X142285961Y-114661538D01*
X142285954Y-114661536D01*
X142285952Y-114661535D01*
X142000993Y-114585181D01*
X141952113Y-114578745D01*
X141708513Y-114546674D01*
X141708506Y-114546674D01*
X141413494Y-114546674D01*
X141413486Y-114546674D01*
X141135085Y-114583327D01*
X141121007Y-114585181D01*
X140881326Y-114649403D01*
X140836048Y-114661535D01*
X140836038Y-114661538D01*
X140563499Y-114774428D01*
X140563489Y-114774432D01*
X140308006Y-114921935D01*
X140073959Y-115101526D01*
X140073952Y-115101532D01*
X139865358Y-115310126D01*
X139865352Y-115310133D01*
X139685761Y-115544180D01*
X139538258Y-115799663D01*
X139538254Y-115799673D01*
X139425364Y-116072212D01*
X139425361Y-116072222D01*
X139375775Y-116257283D01*
X139349008Y-116357178D01*
X139349006Y-116357189D01*
X139310500Y-116649660D01*
X137597165Y-116649660D01*
X137578786Y-116533619D01*
X137542663Y-116422443D01*
X137524043Y-116365134D01*
X137524042Y-116365131D01*
X137469090Y-116257283D01*
X137443614Y-116207284D01*
X137432517Y-116192011D01*
X137409038Y-116126206D01*
X137424863Y-116058152D01*
X137474968Y-116009457D01*
X137543446Y-115995581D01*
X137548977Y-115996182D01*
X137636266Y-116007674D01*
X137636273Y-116007674D01*
X137865727Y-116007674D01*
X137865734Y-116007674D01*
X138093238Y-115977722D01*
X138314887Y-115918332D01*
X138526888Y-115830518D01*
X138725612Y-115715785D01*
X138907661Y-115576093D01*
X138907665Y-115576088D01*
X138907670Y-115576085D01*
X139069911Y-115413844D01*
X139069914Y-115413839D01*
X139069919Y-115413835D01*
X139209611Y-115231786D01*
X139324344Y-115033062D01*
X139412158Y-114821061D01*
X139471548Y-114599412D01*
X139501500Y-114371908D01*
X139501500Y-114142440D01*
X139471548Y-113914936D01*
X139412158Y-113693287D01*
X139362190Y-113572654D01*
X139324349Y-113481297D01*
X139324346Y-113481291D01*
X139324344Y-113481286D01*
X139209611Y-113282562D01*
X139209608Y-113282559D01*
X139209607Y-113282556D01*
X139089102Y-113125513D01*
X139069919Y-113100513D01*
X139069918Y-113100512D01*
X139069911Y-113100504D01*
X138907670Y-112938263D01*
X138907661Y-112938255D01*
X138725617Y-112798566D01*
X138526898Y-112683835D01*
X138526893Y-112683833D01*
X138526888Y-112683830D01*
X138428045Y-112642887D01*
X138373643Y-112599046D01*
X138351579Y-112532751D01*
X138351500Y-112528327D01*
X138351500Y-111602432D01*
X142350500Y-111602432D01*
X142350500Y-111831915D01*
X142371909Y-111994525D01*
X142380452Y-112059412D01*
X142393850Y-112109414D01*
X142439842Y-112281061D01*
X142527650Y-112493050D01*
X142527657Y-112493064D01*
X142572015Y-112569895D01*
X142638156Y-112684455D01*
X142642392Y-112691791D01*
X142782081Y-112873835D01*
X142782089Y-112873844D01*
X142944330Y-113036085D01*
X142944338Y-113036092D01*
X142944339Y-113036093D01*
X142994962Y-113074938D01*
X143126382Y-113175781D01*
X143126385Y-113175782D01*
X143126388Y-113175785D01*
X143325112Y-113290518D01*
X143325117Y-113290520D01*
X143325123Y-113290523D01*
X143385462Y-113315516D01*
X143537113Y-113378332D01*
X143758762Y-113437722D01*
X143986266Y-113467674D01*
X143986273Y-113467674D01*
X144215727Y-113467674D01*
X144215734Y-113467674D01*
X144443238Y-113437722D01*
X144664887Y-113378332D01*
X144876888Y-113290518D01*
X145075612Y-113175785D01*
X145257661Y-113036093D01*
X145257665Y-113036088D01*
X145257670Y-113036085D01*
X145419911Y-112873844D01*
X145419914Y-112873839D01*
X145419919Y-112873835D01*
X145559611Y-112691786D01*
X145674344Y-112493062D01*
X145762158Y-112281061D01*
X145821548Y-112059412D01*
X145851500Y-111831908D01*
X145851500Y-111789822D01*
X149765500Y-111789822D01*
X149765500Y-111994525D01*
X149797522Y-112196708D01*
X149860781Y-112391397D01*
X149912577Y-112493050D01*
X149951731Y-112569895D01*
X149953715Y-112573787D01*
X150074028Y-112739387D01*
X150218786Y-112884145D01*
X150327674Y-112963255D01*
X150384390Y-113004461D01*
X150495536Y-113061093D01*
X150566776Y-113097392D01*
X150566778Y-113097392D01*
X150566781Y-113097394D01*
X150671137Y-113131301D01*
X150761465Y-113160651D01*
X150857017Y-113175785D01*
X150963648Y-113192674D01*
X150963649Y-113192674D01*
X151168351Y-113192674D01*
X151168352Y-113192674D01*
X151370534Y-113160651D01*
X151565219Y-113097394D01*
X151747610Y-113004461D01*
X151892981Y-112898844D01*
X151913213Y-112884145D01*
X151913215Y-112884142D01*
X151913219Y-112884140D01*
X152057966Y-112739393D01*
X152057968Y-112739389D01*
X152057971Y-112739387D01*
X152129364Y-112641121D01*
X152178287Y-112573784D01*
X152271220Y-112391393D01*
X152334477Y-112196708D01*
X152366500Y-111994526D01*
X152366500Y-111789822D01*
X152334477Y-111587639D01*
X152271218Y-111392950D01*
X152237503Y-111326781D01*
X152178287Y-111210564D01*
X152154836Y-111178286D01*
X152057971Y-111044960D01*
X151913213Y-110900202D01*
X151747613Y-110779889D01*
X151747612Y-110779888D01*
X151747610Y-110779887D01*
X151674344Y-110742556D01*
X151565223Y-110686955D01*
X151370534Y-110623696D01*
X151195995Y-110596052D01*
X151168352Y-110591674D01*
X150963648Y-110591674D01*
X150939329Y-110595525D01*
X150761465Y-110623696D01*
X150566776Y-110686955D01*
X150384386Y-110779889D01*
X150218786Y-110900202D01*
X150074028Y-111044960D01*
X149953715Y-111210560D01*
X149860781Y-111392950D01*
X149797522Y-111587639D01*
X149765500Y-111789822D01*
X145851500Y-111789822D01*
X145851500Y-111602440D01*
X145821548Y-111374936D01*
X145762158Y-111153287D01*
X145712190Y-111032654D01*
X145674349Y-110941297D01*
X145674346Y-110941291D01*
X145674344Y-110941286D01*
X145559611Y-110742562D01*
X145559608Y-110742559D01*
X145559607Y-110742556D01*
X145439102Y-110585513D01*
X145419919Y-110560513D01*
X145419918Y-110560512D01*
X145419911Y-110560504D01*
X145257670Y-110398263D01*
X145257661Y-110398255D01*
X145075617Y-110258566D01*
X144876890Y-110143831D01*
X144876876Y-110143824D01*
X144664887Y-110056016D01*
X144629846Y-110046627D01*
X144443238Y-109996626D01*
X144405215Y-109991620D01*
X144215741Y-109966674D01*
X144215734Y-109966674D01*
X143986266Y-109966674D01*
X143986258Y-109966674D01*
X143769715Y-109995183D01*
X143758762Y-109996626D01*
X143683941Y-110016674D01*
X143537112Y-110056016D01*
X143325123Y-110143824D01*
X143325109Y-110143831D01*
X143126382Y-110258566D01*
X142944338Y-110398255D01*
X142782081Y-110560512D01*
X142642392Y-110742556D01*
X142527657Y-110941283D01*
X142527650Y-110941297D01*
X142439842Y-111153286D01*
X142380453Y-111374933D01*
X142380451Y-111374944D01*
X142350500Y-111602432D01*
X138351500Y-111602432D01*
X138351500Y-97589660D01*
X139290500Y-97589660D01*
X139290500Y-97884687D01*
X139316845Y-98084786D01*
X139329007Y-98177167D01*
X139403869Y-98456557D01*
X139405361Y-98462125D01*
X139405364Y-98462135D01*
X139518254Y-98734674D01*
X139518258Y-98734684D01*
X139665761Y-98990167D01*
X139845352Y-99224214D01*
X139845358Y-99224221D01*
X140053952Y-99432815D01*
X140053959Y-99432821D01*
X140288006Y-99612412D01*
X140543489Y-99759915D01*
X140543490Y-99759915D01*
X140543493Y-99759917D01*
X140816048Y-99872813D01*
X141101007Y-99949167D01*
X141393494Y-99987674D01*
X141393501Y-99987674D01*
X141688499Y-99987674D01*
X141688506Y-99987674D01*
X141980993Y-99949167D01*
X142265952Y-99872813D01*
X142538507Y-99759917D01*
X142793994Y-99612412D01*
X142921844Y-99514309D01*
X149725500Y-99514309D01*
X149725500Y-101210044D01*
X149725501Y-101210050D01*
X149731908Y-101269657D01*
X149782202Y-101404502D01*
X149782206Y-101404509D01*
X149868452Y-101519718D01*
X149868455Y-101519721D01*
X149983664Y-101605967D01*
X149983671Y-101605971D01*
X150118517Y-101656265D01*
X150118516Y-101656265D01*
X150125444Y-101657009D01*
X150178127Y-101662674D01*
X151873872Y-101662673D01*
X151933483Y-101656265D01*
X152068331Y-101605970D01*
X152183546Y-101519720D01*
X152269796Y-101404505D01*
X152320091Y-101269657D01*
X152326500Y-101210047D01*
X152326499Y-99514302D01*
X152320091Y-99454691D01*
X152317086Y-99446635D01*
X152269797Y-99319845D01*
X152269793Y-99319838D01*
X152183547Y-99204629D01*
X152183544Y-99204626D01*
X152068335Y-99118380D01*
X152068328Y-99118376D01*
X151933482Y-99068082D01*
X151933483Y-99068082D01*
X151873883Y-99061675D01*
X151873881Y-99061674D01*
X151873873Y-99061674D01*
X151873864Y-99061674D01*
X150178129Y-99061674D01*
X150178123Y-99061675D01*
X150118516Y-99068082D01*
X149983671Y-99118376D01*
X149983664Y-99118380D01*
X149868455Y-99204626D01*
X149868452Y-99204629D01*
X149782206Y-99319838D01*
X149782202Y-99319845D01*
X149731908Y-99454691D01*
X149726902Y-99501262D01*
X149725501Y-99514297D01*
X149725500Y-99514309D01*
X142921844Y-99514309D01*
X143028042Y-99432820D01*
X143032105Y-99428757D01*
X143037564Y-99423299D01*
X143236641Y-99224221D01*
X143236646Y-99224216D01*
X143416238Y-98990168D01*
X143563743Y-98734681D01*
X143676639Y-98462126D01*
X143752993Y-98177167D01*
X143791500Y-97884680D01*
X143791500Y-97648595D01*
X145495500Y-97648595D01*
X145495500Y-97825752D01*
X145523214Y-98000730D01*
X145577956Y-98169213D01*
X145577957Y-98169216D01*
X145611532Y-98235109D01*
X145658386Y-98327064D01*
X145762517Y-98470388D01*
X145887786Y-98595657D01*
X146031110Y-98699788D01*
X146086485Y-98728003D01*
X146188957Y-98780216D01*
X146188960Y-98780217D01*
X146219735Y-98790216D01*
X146357445Y-98834960D01*
X146532421Y-98862674D01*
X146532422Y-98862674D01*
X146709578Y-98862674D01*
X146709579Y-98862674D01*
X146884555Y-98834960D01*
X147053042Y-98780216D01*
X147210890Y-98699788D01*
X147354214Y-98595657D01*
X147479483Y-98470388D01*
X147583614Y-98327064D01*
X147664042Y-98169216D01*
X147718786Y-98000729D01*
X147746500Y-97825753D01*
X147746500Y-97648595D01*
X147718786Y-97473619D01*
X147666042Y-97311286D01*
X147664043Y-97305134D01*
X147664042Y-97305131D01*
X147588709Y-97157284D01*
X147583614Y-97147284D01*
X147479483Y-97003960D01*
X147354214Y-96878691D01*
X147210890Y-96774560D01*
X147162047Y-96749673D01*
X147053042Y-96694131D01*
X147053039Y-96694130D01*
X146884556Y-96639388D01*
X146770720Y-96621358D01*
X146709579Y-96611674D01*
X146532421Y-96611674D01*
X146474095Y-96620912D01*
X146357443Y-96639388D01*
X146188960Y-96694130D01*
X146188957Y-96694131D01*
X146031109Y-96774560D01*
X145949338Y-96833970D01*
X145887786Y-96878691D01*
X145887784Y-96878693D01*
X145887783Y-96878693D01*
X145762519Y-97003957D01*
X145762519Y-97003958D01*
X145762517Y-97003960D01*
X145749249Y-97022222D01*
X145658386Y-97147283D01*
X145577957Y-97305131D01*
X145577956Y-97305134D01*
X145523214Y-97473617D01*
X145495500Y-97648595D01*
X143791500Y-97648595D01*
X143791500Y-97589668D01*
X143752993Y-97297181D01*
X143676639Y-97012222D01*
X143563743Y-96739667D01*
X143543226Y-96704131D01*
X143416238Y-96484180D01*
X143236647Y-96250133D01*
X143236641Y-96250126D01*
X143028047Y-96041532D01*
X143028040Y-96041526D01*
X142793993Y-95861935D01*
X142538510Y-95714432D01*
X142538500Y-95714428D01*
X142265961Y-95601538D01*
X142265954Y-95601536D01*
X142265952Y-95601535D01*
X141980993Y-95525181D01*
X141932113Y-95518745D01*
X141688513Y-95486674D01*
X141688506Y-95486674D01*
X141393494Y-95486674D01*
X141393486Y-95486674D01*
X141115085Y-95523327D01*
X141101007Y-95525181D01*
X141010568Y-95549414D01*
X140816048Y-95601535D01*
X140816038Y-95601538D01*
X140543499Y-95714428D01*
X140543489Y-95714432D01*
X140288006Y-95861935D01*
X140053959Y-96041526D01*
X140053952Y-96041532D01*
X139845358Y-96250126D01*
X139845352Y-96250133D01*
X139665761Y-96484180D01*
X139518258Y-96739663D01*
X139518254Y-96739673D01*
X139405364Y-97012212D01*
X139405361Y-97012222D01*
X139369172Y-97147284D01*
X139329008Y-97297178D01*
X139329006Y-97297189D01*
X139290500Y-97589660D01*
X138351500Y-97589660D01*
X138351500Y-96917736D01*
X138371185Y-96850697D01*
X138423989Y-96804942D01*
X138428048Y-96803175D01*
X138506876Y-96770523D01*
X138506876Y-96770522D01*
X138506888Y-96770518D01*
X138705612Y-96655785D01*
X138887661Y-96516093D01*
X138887665Y-96516088D01*
X138887670Y-96516085D01*
X139049911Y-96353844D01*
X139049914Y-96353839D01*
X139049919Y-96353835D01*
X139189611Y-96171786D01*
X139304344Y-95973062D01*
X139392158Y-95761061D01*
X139451548Y-95539412D01*
X139481500Y-95311908D01*
X139481500Y-95082440D01*
X139451548Y-94854936D01*
X139392158Y-94633287D01*
X139308491Y-94431297D01*
X139304349Y-94421297D01*
X139304346Y-94421291D01*
X139304344Y-94421286D01*
X139189611Y-94222562D01*
X139189608Y-94222559D01*
X139189607Y-94222556D01*
X139057592Y-94050513D01*
X139049919Y-94040513D01*
X139049918Y-94040512D01*
X139049911Y-94040504D01*
X138887670Y-93878263D01*
X138887661Y-93878255D01*
X138705617Y-93738566D01*
X138506898Y-93623835D01*
X138506890Y-93623831D01*
X138506888Y-93623830D01*
X138506883Y-93623828D01*
X138506879Y-93623826D01*
X138428046Y-93591171D01*
X138373643Y-93547330D01*
X138351579Y-93481035D01*
X138351500Y-93476611D01*
X138351500Y-92542432D01*
X142330500Y-92542432D01*
X142330500Y-92771915D01*
X142355446Y-92961389D01*
X142360452Y-92999412D01*
X142363132Y-93009414D01*
X142419842Y-93221061D01*
X142507650Y-93433050D01*
X142507657Y-93433064D01*
X142546998Y-93501204D01*
X142597913Y-93589393D01*
X142622392Y-93631791D01*
X142762081Y-93813835D01*
X142762089Y-93813844D01*
X142924330Y-93976085D01*
X142924338Y-93976092D01*
X143106382Y-94115781D01*
X143106385Y-94115782D01*
X143106388Y-94115785D01*
X143305112Y-94230518D01*
X143305117Y-94230520D01*
X143305123Y-94230523D01*
X143396480Y-94268364D01*
X143517113Y-94318332D01*
X143738762Y-94377722D01*
X143966266Y-94407674D01*
X143966273Y-94407674D01*
X144195727Y-94407674D01*
X144195734Y-94407674D01*
X144423238Y-94377722D01*
X144644887Y-94318332D01*
X144856888Y-94230518D01*
X145055612Y-94115785D01*
X145237661Y-93976093D01*
X145237665Y-93976088D01*
X145237670Y-93976085D01*
X145399911Y-93813844D01*
X145399914Y-93813839D01*
X145399919Y-93813835D01*
X145539611Y-93631786D01*
X145654344Y-93433062D01*
X145742158Y-93221061D01*
X145801548Y-92999412D01*
X145831500Y-92771908D01*
X145831500Y-92639822D01*
X149725500Y-92639822D01*
X149725500Y-92844525D01*
X149757522Y-93046708D01*
X149820781Y-93241397D01*
X149858030Y-93314500D01*
X149908444Y-93413444D01*
X149913715Y-93423787D01*
X150034028Y-93589387D01*
X150178786Y-93734145D01*
X150302249Y-93823844D01*
X150344390Y-93854461D01*
X150460607Y-93913677D01*
X150526776Y-93947392D01*
X150526778Y-93947392D01*
X150526781Y-93947394D01*
X150631137Y-93981301D01*
X150721465Y-94010651D01*
X150822557Y-94026662D01*
X150923648Y-94042674D01*
X150923649Y-94042674D01*
X151128351Y-94042674D01*
X151128352Y-94042674D01*
X151330534Y-94010651D01*
X151525219Y-93947394D01*
X151707610Y-93854461D01*
X151800590Y-93786906D01*
X151873213Y-93734145D01*
X151873215Y-93734142D01*
X151873219Y-93734140D01*
X152017966Y-93589393D01*
X152017968Y-93589389D01*
X152017971Y-93589387D01*
X152070732Y-93516764D01*
X152138287Y-93423784D01*
X152231220Y-93241393D01*
X152294477Y-93046708D01*
X152326500Y-92844526D01*
X152326500Y-92639822D01*
X152294477Y-92437640D01*
X152231220Y-92242955D01*
X152231218Y-92242952D01*
X152231218Y-92242950D01*
X152160055Y-92103287D01*
X152138287Y-92060564D01*
X152130556Y-92049923D01*
X152017971Y-91894960D01*
X151873213Y-91750202D01*
X151707613Y-91629889D01*
X151707612Y-91629888D01*
X151707610Y-91629887D01*
X151650653Y-91600865D01*
X151525223Y-91536955D01*
X151330534Y-91473696D01*
X151155995Y-91446052D01*
X151128352Y-91441674D01*
X150923648Y-91441674D01*
X150901190Y-91445231D01*
X150721465Y-91473696D01*
X150526776Y-91536955D01*
X150344386Y-91629889D01*
X150178786Y-91750202D01*
X150034028Y-91894960D01*
X149913715Y-92060560D01*
X149820781Y-92242950D01*
X149757522Y-92437639D01*
X149725500Y-92639822D01*
X145831500Y-92639822D01*
X145831500Y-92542440D01*
X145801548Y-92314936D01*
X145742158Y-92093287D01*
X145658491Y-91891297D01*
X145654349Y-91881297D01*
X145654346Y-91881291D01*
X145654344Y-91881286D01*
X145539611Y-91682562D01*
X145539608Y-91682559D01*
X145539607Y-91682556D01*
X145427881Y-91536954D01*
X145399919Y-91500513D01*
X145399918Y-91500512D01*
X145399911Y-91500504D01*
X145237670Y-91338263D01*
X145237661Y-91338255D01*
X145055617Y-91198566D01*
X144856890Y-91083831D01*
X144856876Y-91083824D01*
X144644887Y-90996016D01*
X144423238Y-90936626D01*
X144385215Y-90931620D01*
X144195741Y-90906674D01*
X144195734Y-90906674D01*
X143966266Y-90906674D01*
X143966258Y-90906674D01*
X143749715Y-90935183D01*
X143738762Y-90936626D01*
X143645076Y-90961728D01*
X143517112Y-90996016D01*
X143305123Y-91083824D01*
X143305109Y-91083831D01*
X143106382Y-91198566D01*
X142924338Y-91338255D01*
X142762081Y-91500512D01*
X142622392Y-91682556D01*
X142507657Y-91881283D01*
X142507650Y-91881297D01*
X142419842Y-92093286D01*
X142360453Y-92314933D01*
X142360451Y-92314944D01*
X142330500Y-92542432D01*
X138351500Y-92542432D01*
X138351500Y-77697025D01*
X138371185Y-77629986D01*
X138423989Y-77584231D01*
X138428027Y-77582472D01*
X138456888Y-77570518D01*
X138655612Y-77455785D01*
X138837661Y-77316093D01*
X138837665Y-77316088D01*
X138837670Y-77316085D01*
X138999911Y-77153844D01*
X138999914Y-77153839D01*
X138999919Y-77153835D01*
X139139611Y-76971786D01*
X139254344Y-76773062D01*
X139295285Y-76674222D01*
X139339125Y-76619818D01*
X139405420Y-76597753D01*
X139409846Y-76597674D01*
X139956462Y-76597674D01*
X140023501Y-76617359D01*
X140069256Y-76670163D01*
X140079200Y-76739321D01*
X140050175Y-76802877D01*
X140031948Y-76820050D01*
X140003959Y-76841526D01*
X140003952Y-76841532D01*
X139795358Y-77050126D01*
X139795352Y-77050133D01*
X139615761Y-77284180D01*
X139468258Y-77539663D01*
X139468254Y-77539673D01*
X139355364Y-77812212D01*
X139355361Y-77812222D01*
X139287230Y-78066494D01*
X139279008Y-78097178D01*
X139279006Y-78097189D01*
X139240500Y-78389660D01*
X139240500Y-78684687D01*
X139257095Y-78810730D01*
X139279007Y-78977167D01*
X139321851Y-79137064D01*
X139355361Y-79262125D01*
X139355364Y-79262135D01*
X139468254Y-79534674D01*
X139468258Y-79534684D01*
X139615761Y-79790167D01*
X139795352Y-80024214D01*
X139795358Y-80024221D01*
X140003952Y-80232815D01*
X140003959Y-80232821D01*
X140238006Y-80412412D01*
X140493489Y-80559915D01*
X140493490Y-80559915D01*
X140493493Y-80559917D01*
X140766048Y-80672813D01*
X141051007Y-80749167D01*
X141343494Y-80787674D01*
X141343501Y-80787674D01*
X141638499Y-80787674D01*
X141638506Y-80787674D01*
X141930993Y-80749167D01*
X142215952Y-80672813D01*
X142488507Y-80559917D01*
X142743994Y-80412412D01*
X142978042Y-80232820D01*
X143036553Y-80174309D01*
X149895500Y-80174309D01*
X149895500Y-81870044D01*
X149895501Y-81870050D01*
X149901908Y-81929657D01*
X149952202Y-82064502D01*
X149952206Y-82064509D01*
X150038452Y-82179718D01*
X150038455Y-82179721D01*
X150153664Y-82265967D01*
X150153671Y-82265971D01*
X150288517Y-82316265D01*
X150288516Y-82316265D01*
X150295444Y-82317009D01*
X150348127Y-82322674D01*
X152043872Y-82322673D01*
X152103483Y-82316265D01*
X152238331Y-82265970D01*
X152353546Y-82179720D01*
X152439796Y-82064505D01*
X152490091Y-81929657D01*
X152496500Y-81870047D01*
X152496499Y-80174302D01*
X152490091Y-80114691D01*
X152470016Y-80060868D01*
X152439797Y-79979845D01*
X152439793Y-79979838D01*
X152353547Y-79864629D01*
X152353544Y-79864626D01*
X152238335Y-79778380D01*
X152238328Y-79778376D01*
X152103482Y-79728082D01*
X152103483Y-79728082D01*
X152043883Y-79721675D01*
X152043881Y-79721674D01*
X152043873Y-79721674D01*
X152043864Y-79721674D01*
X150348129Y-79721674D01*
X150348123Y-79721675D01*
X150288516Y-79728082D01*
X150153671Y-79778376D01*
X150153664Y-79778380D01*
X150038455Y-79864626D01*
X150038452Y-79864629D01*
X149952206Y-79979838D01*
X149952202Y-79979845D01*
X149901908Y-80114691D01*
X149895501Y-80174290D01*
X149895501Y-80174297D01*
X149895500Y-80174309D01*
X143036553Y-80174309D01*
X143036572Y-80174290D01*
X143127564Y-80083299D01*
X143186641Y-80024221D01*
X143186646Y-80024216D01*
X143366238Y-79790168D01*
X143513743Y-79534681D01*
X143626639Y-79262126D01*
X143702993Y-78977167D01*
X143741500Y-78684680D01*
X143741500Y-78448595D01*
X145445500Y-78448595D01*
X145445500Y-78625752D01*
X145473214Y-78800730D01*
X145527956Y-78969213D01*
X145527957Y-78969216D01*
X145606573Y-79123505D01*
X145608386Y-79127064D01*
X145712517Y-79270388D01*
X145837786Y-79395657D01*
X145981110Y-79499788D01*
X146049577Y-79534674D01*
X146138957Y-79580216D01*
X146138960Y-79580217D01*
X146169735Y-79590216D01*
X146307445Y-79634960D01*
X146482421Y-79662674D01*
X146482422Y-79662674D01*
X146659578Y-79662674D01*
X146659579Y-79662674D01*
X146834555Y-79634960D01*
X147003042Y-79580216D01*
X147160890Y-79499788D01*
X147304214Y-79395657D01*
X147429483Y-79270388D01*
X147533614Y-79127064D01*
X147614042Y-78969216D01*
X147668786Y-78800729D01*
X147696500Y-78625753D01*
X147696500Y-78448595D01*
X147668786Y-78273619D01*
X147626455Y-78143336D01*
X147614043Y-78105134D01*
X147614042Y-78105131D01*
X147538709Y-77957284D01*
X147533614Y-77947284D01*
X147429483Y-77803960D01*
X147304214Y-77678691D01*
X147160890Y-77574560D01*
X147112047Y-77549673D01*
X147003042Y-77494131D01*
X147003039Y-77494130D01*
X146834556Y-77439388D01*
X146696078Y-77417455D01*
X146659579Y-77411674D01*
X146482421Y-77411674D01*
X146445922Y-77417455D01*
X146307443Y-77439388D01*
X146138960Y-77494130D01*
X146138957Y-77494131D01*
X145981109Y-77574560D01*
X145926590Y-77614171D01*
X145837786Y-77678691D01*
X145837784Y-77678693D01*
X145837783Y-77678693D01*
X145712519Y-77803957D01*
X145712519Y-77803958D01*
X145712517Y-77803960D01*
X145699249Y-77822222D01*
X145608386Y-77947283D01*
X145527957Y-78105131D01*
X145527956Y-78105134D01*
X145473214Y-78273617D01*
X145445500Y-78448595D01*
X143741500Y-78448595D01*
X143741500Y-78389668D01*
X143702993Y-78097181D01*
X143626639Y-77812222D01*
X143513743Y-77539667D01*
X143493226Y-77504131D01*
X143366238Y-77284180D01*
X143186647Y-77050133D01*
X143186641Y-77050126D01*
X142978047Y-76841532D01*
X142978040Y-76841526D01*
X142950052Y-76820050D01*
X142908849Y-76763622D01*
X142904694Y-76693876D01*
X142938906Y-76632956D01*
X143000624Y-76600203D01*
X143025538Y-76597674D01*
X154520885Y-76597674D01*
X154520901Y-76597675D01*
X154528497Y-76597675D01*
X154686608Y-76597675D01*
X154686611Y-76597675D01*
X154839339Y-76556751D01*
X154912639Y-76514431D01*
X154947652Y-76494216D01*
X155015549Y-76477743D01*
X155081576Y-76500594D01*
X155124768Y-76555515D01*
X155129421Y-76569490D01*
X155129842Y-76571061D01*
X155129843Y-76571064D01*
X155129845Y-76571070D01*
X155217652Y-76783055D01*
X155217657Y-76783064D01*
X155257184Y-76851526D01*
X155326618Y-76971791D01*
X155332392Y-76981791D01*
X155472081Y-77163835D01*
X155472089Y-77163844D01*
X155518238Y-77209993D01*
X155551723Y-77271316D01*
X155546739Y-77341008D01*
X155504867Y-77396941D01*
X155439403Y-77421358D01*
X155433967Y-77421552D01*
X155432423Y-77421673D01*
X155257443Y-77449388D01*
X155088960Y-77504130D01*
X155088957Y-77504131D01*
X154931109Y-77584560D01*
X154868586Y-77629986D01*
X154787786Y-77688691D01*
X154787784Y-77688693D01*
X154787783Y-77688693D01*
X154662519Y-77813957D01*
X154662519Y-77813958D01*
X154662517Y-77813960D01*
X154619332Y-77873399D01*
X154558386Y-77957283D01*
X154477957Y-78115131D01*
X154477956Y-78115134D01*
X154423214Y-78283617D01*
X154404833Y-78399668D01*
X154395500Y-78458595D01*
X154395500Y-78635753D01*
X154409357Y-78723241D01*
X154423214Y-78810730D01*
X154477956Y-78979213D01*
X154477957Y-78979216D01*
X154551477Y-79123505D01*
X154558386Y-79137064D01*
X154662517Y-79280388D01*
X154787786Y-79405657D01*
X154931110Y-79509788D01*
X154979965Y-79534681D01*
X155088957Y-79590216D01*
X155088960Y-79590217D01*
X155171253Y-79616955D01*
X155257445Y-79644960D01*
X155432421Y-79672674D01*
X155432422Y-79672674D01*
X155609578Y-79672674D01*
X155609579Y-79672674D01*
X155784555Y-79644960D01*
X155953042Y-79590216D01*
X156010205Y-79561089D01*
X156078873Y-79548193D01*
X156143613Y-79574468D01*
X156183871Y-79631574D01*
X156190500Y-79671574D01*
X156190500Y-93459687D01*
X156170815Y-93526726D01*
X156118011Y-93572481D01*
X156113953Y-93574248D01*
X155970118Y-93633826D01*
X155970109Y-93633831D01*
X155771382Y-93748566D01*
X155589338Y-93888255D01*
X155427081Y-94050512D01*
X155287392Y-94232556D01*
X155172657Y-94431283D01*
X155172650Y-94431297D01*
X155084842Y-94643286D01*
X155069251Y-94701475D01*
X155028132Y-94854936D01*
X155025453Y-94864933D01*
X155025451Y-94864944D01*
X154995500Y-95092432D01*
X154995500Y-95321915D01*
X155017192Y-95486674D01*
X155025452Y-95549412D01*
X155069911Y-95715336D01*
X155084842Y-95771061D01*
X155172650Y-95983050D01*
X155172657Y-95983064D01*
X155208695Y-96045484D01*
X155286328Y-96179949D01*
X155287392Y-96181791D01*
X155427081Y-96363835D01*
X155427089Y-96363844D01*
X155473238Y-96409993D01*
X155506723Y-96471316D01*
X155501739Y-96541008D01*
X155459867Y-96596941D01*
X155394403Y-96621358D01*
X155388967Y-96621552D01*
X155387423Y-96621673D01*
X155212443Y-96649388D01*
X155043960Y-96704130D01*
X155043957Y-96704131D01*
X154886109Y-96784560D01*
X154842031Y-96816585D01*
X154742786Y-96888691D01*
X154742784Y-96888693D01*
X154742783Y-96888693D01*
X154617519Y-97013957D01*
X154617519Y-97013958D01*
X154617517Y-97013960D01*
X154572796Y-97075512D01*
X154513386Y-97157283D01*
X154432957Y-97315131D01*
X154432956Y-97315134D01*
X154378213Y-97483617D01*
X154366924Y-97554898D01*
X154336994Y-97618033D01*
X154277683Y-97654964D01*
X154244451Y-97659500D01*
X154175943Y-97659500D01*
X154023216Y-97700423D01*
X154023209Y-97700426D01*
X153886290Y-97779475D01*
X153886282Y-97779481D01*
X153774481Y-97891282D01*
X153774475Y-97891290D01*
X153695426Y-98028209D01*
X153695423Y-98028216D01*
X153654500Y-98180943D01*
X153654500Y-117243330D01*
X153654499Y-117243348D01*
X153654499Y-117409054D01*
X153654498Y-117409054D01*
X153695423Y-117561785D01*
X153706164Y-117580388D01*
X153706165Y-117580391D01*
X153774475Y-117698709D01*
X153774481Y-117698717D01*
X153893349Y-117817585D01*
X153893355Y-117817590D01*
X154488313Y-118412548D01*
X154488323Y-118412559D01*
X154492653Y-118416889D01*
X154492654Y-118416890D01*
X154604458Y-118528694D01*
X154604460Y-118528695D01*
X154604464Y-118528698D01*
X154736088Y-118604690D01*
X154741390Y-118607751D01*
X154853193Y-118637708D01*
X154894116Y-118648674D01*
X154894117Y-118648674D01*
X155902157Y-118648674D01*
X155902173Y-118648675D01*
X155909769Y-118648675D01*
X156067880Y-118648675D01*
X156067883Y-118648675D01*
X156220611Y-118607751D01*
X156270730Y-118578813D01*
X156357542Y-118528694D01*
X156469346Y-118416890D01*
X156469346Y-118416888D01*
X156479554Y-118406681D01*
X156479556Y-118406678D01*
X158098819Y-116787415D01*
X158160142Y-116753930D01*
X158229834Y-116758914D01*
X158285767Y-116800786D01*
X158310184Y-116866250D01*
X158310500Y-116875096D01*
X158310500Y-116969687D01*
X158342571Y-117213287D01*
X158349007Y-117262167D01*
X158420877Y-117530390D01*
X158425361Y-117547125D01*
X158425364Y-117547135D01*
X158538254Y-117819674D01*
X158538258Y-117819684D01*
X158685761Y-118075167D01*
X158865352Y-118309214D01*
X158865358Y-118309221D01*
X159073952Y-118517815D01*
X159073959Y-118517821D01*
X159308006Y-118697412D01*
X159563489Y-118844915D01*
X159563490Y-118844915D01*
X159563493Y-118844917D01*
X159836048Y-118957813D01*
X160121007Y-119034167D01*
X160413494Y-119072674D01*
X160413501Y-119072674D01*
X160708499Y-119072674D01*
X160708506Y-119072674D01*
X161000993Y-119034167D01*
X161285952Y-118957813D01*
X161558507Y-118844917D01*
X161813994Y-118697412D01*
X162048042Y-118517820D01*
X162256646Y-118309216D01*
X162436238Y-118075168D01*
X162583743Y-117819681D01*
X162696639Y-117547126D01*
X162772993Y-117262167D01*
X162811500Y-116969680D01*
X162811500Y-116733595D01*
X164515500Y-116733595D01*
X164515500Y-116910752D01*
X164543214Y-117085730D01*
X164597956Y-117254213D01*
X164597957Y-117254216D01*
X164614747Y-117287167D01*
X164678386Y-117412064D01*
X164782517Y-117555388D01*
X164907786Y-117680657D01*
X165051110Y-117784788D01*
X165115487Y-117817590D01*
X165208957Y-117865216D01*
X165208960Y-117865217D01*
X165285901Y-117890216D01*
X165377445Y-117919960D01*
X165552421Y-117947674D01*
X165552422Y-117947674D01*
X165729578Y-117947674D01*
X165729579Y-117947674D01*
X165904555Y-117919960D01*
X166073042Y-117865216D01*
X166230890Y-117784788D01*
X166374214Y-117680657D01*
X166499483Y-117555388D01*
X166603614Y-117412064D01*
X166684042Y-117254216D01*
X166738786Y-117085729D01*
X166766500Y-116910753D01*
X166766500Y-116733595D01*
X166738786Y-116558619D01*
X166700301Y-116440173D01*
X166684043Y-116390134D01*
X166684042Y-116390131D01*
X166616352Y-116257284D01*
X166603614Y-116232284D01*
X166499483Y-116088960D01*
X166374214Y-115963691D01*
X166230890Y-115859560D01*
X166211466Y-115849663D01*
X166073042Y-115779131D01*
X166073039Y-115779130D01*
X165904556Y-115724388D01*
X165783939Y-115705284D01*
X165729579Y-115696674D01*
X165552421Y-115696674D01*
X165498061Y-115705284D01*
X165377443Y-115724388D01*
X165208960Y-115779130D01*
X165208957Y-115779131D01*
X165051109Y-115859560D01*
X164970219Y-115918331D01*
X164907786Y-115963691D01*
X164907784Y-115963693D01*
X164907783Y-115963693D01*
X164782519Y-116088957D01*
X164782519Y-116088958D01*
X164782517Y-116088960D01*
X164758358Y-116122212D01*
X164678386Y-116232283D01*
X164597957Y-116390131D01*
X164597956Y-116390134D01*
X164543214Y-116558617D01*
X164515500Y-116733595D01*
X162811500Y-116733595D01*
X162811500Y-116674668D01*
X162772993Y-116382181D01*
X162696639Y-116097222D01*
X162583743Y-115824667D01*
X162572445Y-115805099D01*
X162436238Y-115569180D01*
X162256647Y-115335133D01*
X162256641Y-115335126D01*
X162048047Y-115126532D01*
X162048040Y-115126526D01*
X161813993Y-114946935D01*
X161558510Y-114799432D01*
X161558500Y-114799428D01*
X161285961Y-114686538D01*
X161285954Y-114686536D01*
X161285952Y-114686535D01*
X161000993Y-114610181D01*
X160952113Y-114603745D01*
X160708513Y-114571674D01*
X160708506Y-114571674D01*
X160413494Y-114571674D01*
X160413486Y-114571674D01*
X160135085Y-114608327D01*
X160121007Y-114610181D01*
X159929350Y-114661535D01*
X159836048Y-114686535D01*
X159836038Y-114686538D01*
X159563499Y-114799428D01*
X159563489Y-114799432D01*
X159308006Y-114946935D01*
X159101986Y-115105020D01*
X159036817Y-115130214D01*
X158968372Y-115116176D01*
X158918383Y-115067362D01*
X158902500Y-115006644D01*
X158902500Y-114239119D01*
X158902500Y-114239117D01*
X158861577Y-114086390D01*
X158791461Y-113964944D01*
X158782524Y-113949464D01*
X158782518Y-113949456D01*
X158670717Y-113837655D01*
X158670709Y-113837649D01*
X158533790Y-113758600D01*
X158533786Y-113758598D01*
X158533784Y-113758597D01*
X158533782Y-113758596D01*
X158533781Y-113758596D01*
X158474818Y-113742796D01*
X158415159Y-113706430D01*
X158392353Y-113670474D01*
X158324349Y-113506297D01*
X158324346Y-113506291D01*
X158324344Y-113506286D01*
X158209611Y-113307562D01*
X158209608Y-113307559D01*
X158209607Y-113307556D01*
X158108491Y-113175781D01*
X158069919Y-113125513D01*
X158069918Y-113125512D01*
X158069911Y-113125504D01*
X157907670Y-112963263D01*
X157907661Y-112963255D01*
X157725617Y-112823566D01*
X157526890Y-112708831D01*
X157526873Y-112708822D01*
X157468046Y-112684455D01*
X157413643Y-112640614D01*
X157391579Y-112574319D01*
X157391500Y-112569895D01*
X157391500Y-111627432D01*
X161350500Y-111627432D01*
X161350500Y-111856915D01*
X161368618Y-111994525D01*
X161380452Y-112084412D01*
X161433143Y-112281061D01*
X161439842Y-112306061D01*
X161527650Y-112518050D01*
X161527656Y-112518062D01*
X161631158Y-112697334D01*
X161642392Y-112716791D01*
X161782081Y-112898835D01*
X161782089Y-112898844D01*
X161944330Y-113061085D01*
X161944338Y-113061092D01*
X161944339Y-113061093D01*
X161991644Y-113097392D01*
X162126382Y-113200781D01*
X162126385Y-113200782D01*
X162126388Y-113200785D01*
X162325112Y-113315518D01*
X162325117Y-113315520D01*
X162325123Y-113315523D01*
X162385462Y-113340516D01*
X162537113Y-113403332D01*
X162758762Y-113462722D01*
X162986266Y-113492674D01*
X162986273Y-113492674D01*
X163215727Y-113492674D01*
X163215734Y-113492674D01*
X163443238Y-113462722D01*
X163664887Y-113403332D01*
X163876888Y-113315518D01*
X164075612Y-113200785D01*
X164257661Y-113061093D01*
X164257665Y-113061088D01*
X164257670Y-113061085D01*
X164419911Y-112898844D01*
X164419914Y-112898839D01*
X164419919Y-112898835D01*
X164559611Y-112716786D01*
X164674344Y-112518062D01*
X164762158Y-112306061D01*
X164821548Y-112084412D01*
X164851500Y-111856908D01*
X164851500Y-111789822D01*
X168785500Y-111789822D01*
X168785500Y-111994525D01*
X168817522Y-112196708D01*
X168880781Y-112391397D01*
X168932577Y-112493050D01*
X168971731Y-112569895D01*
X168973715Y-112573787D01*
X169094028Y-112739387D01*
X169238786Y-112884145D01*
X169347674Y-112963255D01*
X169404390Y-113004461D01*
X169515536Y-113061093D01*
X169586776Y-113097392D01*
X169586778Y-113097392D01*
X169586781Y-113097394D01*
X169691137Y-113131301D01*
X169781465Y-113160651D01*
X169877017Y-113175785D01*
X169983648Y-113192674D01*
X169983649Y-113192674D01*
X170188351Y-113192674D01*
X170188352Y-113192674D01*
X170390534Y-113160651D01*
X170585219Y-113097394D01*
X170767610Y-113004461D01*
X170912981Y-112898844D01*
X170933213Y-112884145D01*
X170933215Y-112884142D01*
X170933219Y-112884140D01*
X171077966Y-112739393D01*
X171077968Y-112739389D01*
X171077971Y-112739387D01*
X171149364Y-112641121D01*
X171198287Y-112573784D01*
X171291220Y-112391393D01*
X171354477Y-112196708D01*
X171386500Y-111994526D01*
X171386500Y-111789822D01*
X171354477Y-111587639D01*
X171291218Y-111392950D01*
X171257503Y-111326781D01*
X171198287Y-111210564D01*
X171174836Y-111178286D01*
X171077971Y-111044960D01*
X170933213Y-110900202D01*
X170767613Y-110779889D01*
X170767612Y-110779888D01*
X170767610Y-110779887D01*
X170694344Y-110742556D01*
X170585223Y-110686955D01*
X170390534Y-110623696D01*
X170215995Y-110596052D01*
X170188352Y-110591674D01*
X169983648Y-110591674D01*
X169959329Y-110595525D01*
X169781465Y-110623696D01*
X169586776Y-110686955D01*
X169404386Y-110779889D01*
X169238786Y-110900202D01*
X169094028Y-111044960D01*
X168973715Y-111210560D01*
X168880781Y-111392950D01*
X168817522Y-111587639D01*
X168785500Y-111789822D01*
X164851500Y-111789822D01*
X164851500Y-111627440D01*
X164821548Y-111399936D01*
X164762158Y-111178287D01*
X164684704Y-110991297D01*
X164674349Y-110966297D01*
X164674346Y-110966291D01*
X164674344Y-110966286D01*
X164559611Y-110767562D01*
X164559608Y-110767559D01*
X164559607Y-110767556D01*
X164439102Y-110610513D01*
X164419919Y-110585513D01*
X164419918Y-110585512D01*
X164419911Y-110585504D01*
X164257670Y-110423263D01*
X164257661Y-110423255D01*
X164075617Y-110283566D01*
X163876890Y-110168831D01*
X163876876Y-110168824D01*
X163664887Y-110081016D01*
X163443238Y-110021626D01*
X163405215Y-110016620D01*
X163215741Y-109991674D01*
X163215734Y-109991674D01*
X162986266Y-109991674D01*
X162986258Y-109991674D01*
X162769715Y-110020183D01*
X162758762Y-110021626D01*
X162665463Y-110046625D01*
X162537112Y-110081016D01*
X162325123Y-110168824D01*
X162325109Y-110168831D01*
X162126382Y-110283566D01*
X161944338Y-110423255D01*
X161782081Y-110585512D01*
X161642392Y-110767556D01*
X161527657Y-110966283D01*
X161527650Y-110966297D01*
X161439842Y-111178286D01*
X161405554Y-111306250D01*
X161387152Y-111374933D01*
X161380453Y-111399933D01*
X161380451Y-111399944D01*
X161350500Y-111627432D01*
X157391500Y-111627432D01*
X157391500Y-97599660D01*
X158305500Y-97599660D01*
X158305500Y-97894687D01*
X158325003Y-98042820D01*
X158344007Y-98187167D01*
X158419896Y-98470389D01*
X158420361Y-98472125D01*
X158420364Y-98472135D01*
X158533254Y-98744674D01*
X158533258Y-98744684D01*
X158680761Y-99000167D01*
X158860352Y-99234214D01*
X158860358Y-99234221D01*
X159068952Y-99442815D01*
X159068959Y-99442821D01*
X159303006Y-99622412D01*
X159558489Y-99769915D01*
X159558490Y-99769915D01*
X159558493Y-99769917D01*
X159831048Y-99882813D01*
X160116007Y-99959167D01*
X160408494Y-99997674D01*
X160408501Y-99997674D01*
X160703499Y-99997674D01*
X160703506Y-99997674D01*
X160995993Y-99959167D01*
X161280952Y-99882813D01*
X161553507Y-99769917D01*
X161808994Y-99622412D01*
X161949876Y-99514309D01*
X168755500Y-99514309D01*
X168755500Y-101210044D01*
X168755501Y-101210050D01*
X168761908Y-101269657D01*
X168812202Y-101404502D01*
X168812206Y-101404509D01*
X168898452Y-101519718D01*
X168898455Y-101519721D01*
X169013664Y-101605967D01*
X169013671Y-101605971D01*
X169148517Y-101656265D01*
X169148516Y-101656265D01*
X169155444Y-101657009D01*
X169208127Y-101662674D01*
X170903872Y-101662673D01*
X170963483Y-101656265D01*
X171098331Y-101605970D01*
X171213546Y-101519720D01*
X171299796Y-101404505D01*
X171350091Y-101269657D01*
X171356500Y-101210047D01*
X171356499Y-99514302D01*
X171350091Y-99454691D01*
X171347086Y-99446635D01*
X171299797Y-99319845D01*
X171299793Y-99319838D01*
X171213547Y-99204629D01*
X171213544Y-99204626D01*
X171098335Y-99118380D01*
X171098328Y-99118376D01*
X170963482Y-99068082D01*
X170963483Y-99068082D01*
X170903883Y-99061675D01*
X170903881Y-99061674D01*
X170903873Y-99061674D01*
X170903864Y-99061674D01*
X169208129Y-99061674D01*
X169208123Y-99061675D01*
X169148516Y-99068082D01*
X169013671Y-99118376D01*
X169013664Y-99118380D01*
X168898455Y-99204626D01*
X168898452Y-99204629D01*
X168812206Y-99319838D01*
X168812202Y-99319845D01*
X168761908Y-99454691D01*
X168756902Y-99501262D01*
X168755501Y-99514297D01*
X168755500Y-99514309D01*
X161949876Y-99514309D01*
X162043042Y-99442820D01*
X162043047Y-99442815D01*
X162062564Y-99423299D01*
X162251641Y-99234221D01*
X162251646Y-99234216D01*
X162431238Y-99000168D01*
X162578743Y-98744681D01*
X162691639Y-98472126D01*
X162767993Y-98187167D01*
X162806500Y-97894680D01*
X162806500Y-97658595D01*
X164510500Y-97658595D01*
X164510500Y-97835752D01*
X164538214Y-98010730D01*
X164592956Y-98179213D01*
X164592957Y-98179216D01*
X164668291Y-98327064D01*
X164673386Y-98337064D01*
X164777517Y-98480388D01*
X164902786Y-98605657D01*
X165046110Y-98709788D01*
X165114577Y-98744674D01*
X165203957Y-98790216D01*
X165203960Y-98790217D01*
X165269110Y-98811385D01*
X165372445Y-98844960D01*
X165547421Y-98872674D01*
X165547422Y-98872674D01*
X165724578Y-98872674D01*
X165724579Y-98872674D01*
X165899555Y-98844960D01*
X166068042Y-98790216D01*
X166225890Y-98709788D01*
X166369214Y-98605657D01*
X166494483Y-98480388D01*
X166598614Y-98337064D01*
X166679042Y-98179216D01*
X166733786Y-98010729D01*
X166761500Y-97835753D01*
X166761500Y-97658595D01*
X166733786Y-97483619D01*
X166679042Y-97315132D01*
X166679042Y-97315131D01*
X166598613Y-97157283D01*
X166494483Y-97013960D01*
X166369214Y-96888691D01*
X166225890Y-96784560D01*
X166198341Y-96770523D01*
X166068042Y-96704131D01*
X166068039Y-96704130D01*
X165899556Y-96649388D01*
X165759367Y-96627184D01*
X165724579Y-96621674D01*
X165547421Y-96621674D01*
X165512633Y-96627184D01*
X165372443Y-96649388D01*
X165203960Y-96704130D01*
X165203957Y-96704131D01*
X165046109Y-96784560D01*
X165002031Y-96816585D01*
X164902786Y-96888691D01*
X164902784Y-96888693D01*
X164902783Y-96888693D01*
X164777519Y-97013957D01*
X164777519Y-97013958D01*
X164777517Y-97013960D01*
X164732796Y-97075512D01*
X164673386Y-97157283D01*
X164592957Y-97315131D01*
X164592956Y-97315134D01*
X164538214Y-97483617D01*
X164510500Y-97658595D01*
X162806500Y-97658595D01*
X162806500Y-97599668D01*
X162767993Y-97307181D01*
X162691639Y-97022222D01*
X162578743Y-96749667D01*
X162572967Y-96739663D01*
X162431238Y-96494180D01*
X162251647Y-96260133D01*
X162251641Y-96260126D01*
X162043047Y-96051532D01*
X162043040Y-96051526D01*
X161808993Y-95871935D01*
X161553510Y-95724432D01*
X161553500Y-95724428D01*
X161280961Y-95611538D01*
X161280954Y-95611536D01*
X161280952Y-95611535D01*
X160995993Y-95535181D01*
X160947113Y-95528745D01*
X160703513Y-95496674D01*
X160703506Y-95496674D01*
X160408494Y-95496674D01*
X160408486Y-95496674D01*
X160130085Y-95533327D01*
X160116007Y-95535181D01*
X159868369Y-95601535D01*
X159831048Y-95611535D01*
X159831038Y-95611538D01*
X159558499Y-95724428D01*
X159558489Y-95724432D01*
X159303006Y-95871935D01*
X159068959Y-96051526D01*
X159068952Y-96051532D01*
X158860358Y-96260126D01*
X158860352Y-96260133D01*
X158680761Y-96494180D01*
X158533258Y-96749663D01*
X158533254Y-96749673D01*
X158420364Y-97022212D01*
X158420361Y-97022222D01*
X158344556Y-97305134D01*
X158344008Y-97307178D01*
X158344006Y-97307189D01*
X158305500Y-97599660D01*
X157391500Y-97599660D01*
X157391500Y-96917380D01*
X157411185Y-96850341D01*
X157463989Y-96804586D01*
X157468018Y-96802831D01*
X157521888Y-96780518D01*
X157720612Y-96665785D01*
X157902661Y-96526093D01*
X157902665Y-96526088D01*
X157902670Y-96526085D01*
X158064911Y-96363844D01*
X158064914Y-96363839D01*
X158064919Y-96363835D01*
X158204611Y-96181786D01*
X158319344Y-95983062D01*
X158407158Y-95771061D01*
X158466548Y-95549412D01*
X158496500Y-95321908D01*
X158496500Y-95092440D01*
X158466548Y-94864936D01*
X158407158Y-94643287D01*
X158319344Y-94431286D01*
X158204611Y-94232562D01*
X158204608Y-94232559D01*
X158204607Y-94232556D01*
X158064918Y-94050512D01*
X158064911Y-94050504D01*
X157902670Y-93888263D01*
X157902661Y-93888255D01*
X157720617Y-93748566D01*
X157703296Y-93738566D01*
X157535668Y-93641786D01*
X157521890Y-93633831D01*
X157521873Y-93633822D01*
X157468046Y-93611526D01*
X157413643Y-93567684D01*
X157391579Y-93501390D01*
X157391500Y-93496966D01*
X157391500Y-92552432D01*
X161345500Y-92552432D01*
X161345500Y-92781915D01*
X161370446Y-92971389D01*
X161375452Y-93009412D01*
X161432163Y-93221061D01*
X161434842Y-93231061D01*
X161522650Y-93443050D01*
X161522657Y-93443064D01*
X161541983Y-93476538D01*
X161631618Y-93631791D01*
X161637392Y-93641791D01*
X161777081Y-93823835D01*
X161777089Y-93823844D01*
X161939330Y-93986085D01*
X161939338Y-93986092D01*
X161939339Y-93986093D01*
X161989962Y-94024938D01*
X162121382Y-94125781D01*
X162121385Y-94125782D01*
X162121388Y-94125785D01*
X162320112Y-94240518D01*
X162320117Y-94240520D01*
X162320123Y-94240523D01*
X162411480Y-94278364D01*
X162532113Y-94328332D01*
X162753762Y-94387722D01*
X162981266Y-94417674D01*
X162981273Y-94417674D01*
X163210727Y-94417674D01*
X163210734Y-94417674D01*
X163438238Y-94387722D01*
X163659887Y-94328332D01*
X163871888Y-94240518D01*
X164070612Y-94125785D01*
X164252661Y-93986093D01*
X164252665Y-93986088D01*
X164252670Y-93986085D01*
X164414911Y-93823844D01*
X164414914Y-93823839D01*
X164414919Y-93823835D01*
X164554611Y-93641786D01*
X164669344Y-93443062D01*
X164757158Y-93231061D01*
X164816548Y-93009412D01*
X164846500Y-92781908D01*
X164846500Y-92639822D01*
X168755500Y-92639822D01*
X168755500Y-92844525D01*
X168787522Y-93046708D01*
X168850781Y-93241397D01*
X168888030Y-93314500D01*
X168938444Y-93413444D01*
X168943715Y-93423787D01*
X169064028Y-93589387D01*
X169208786Y-93734145D01*
X169332249Y-93823844D01*
X169374390Y-93854461D01*
X169490607Y-93913677D01*
X169556776Y-93947392D01*
X169556778Y-93947392D01*
X169556781Y-93947394D01*
X169661137Y-93981301D01*
X169751465Y-94010651D01*
X169852557Y-94026662D01*
X169953648Y-94042674D01*
X169953649Y-94042674D01*
X170158351Y-94042674D01*
X170158352Y-94042674D01*
X170360534Y-94010651D01*
X170555219Y-93947394D01*
X170737610Y-93854461D01*
X170830590Y-93786906D01*
X170903213Y-93734145D01*
X170903215Y-93734142D01*
X170903219Y-93734140D01*
X171047966Y-93589393D01*
X171047968Y-93589389D01*
X171047971Y-93589387D01*
X171100732Y-93516764D01*
X171168287Y-93423784D01*
X171261220Y-93241393D01*
X171324477Y-93046708D01*
X171356500Y-92844526D01*
X171356500Y-92639822D01*
X171324477Y-92437640D01*
X171261220Y-92242955D01*
X171261218Y-92242952D01*
X171261218Y-92242950D01*
X171190055Y-92103287D01*
X171168287Y-92060564D01*
X171160556Y-92049923D01*
X171047971Y-91894960D01*
X170903213Y-91750202D01*
X170737613Y-91629889D01*
X170737612Y-91629888D01*
X170737610Y-91629887D01*
X170680653Y-91600865D01*
X170555223Y-91536955D01*
X170360534Y-91473696D01*
X170185995Y-91446052D01*
X170158352Y-91441674D01*
X169953648Y-91441674D01*
X169931190Y-91445231D01*
X169751465Y-91473696D01*
X169556776Y-91536955D01*
X169374386Y-91629889D01*
X169208786Y-91750202D01*
X169064028Y-91894960D01*
X168943715Y-92060560D01*
X168850781Y-92242950D01*
X168787522Y-92437639D01*
X168755500Y-92639822D01*
X164846500Y-92639822D01*
X164846500Y-92552440D01*
X164816548Y-92324936D01*
X164757158Y-92103287D01*
X164669344Y-91891286D01*
X164554611Y-91692562D01*
X164554608Y-91692559D01*
X164554607Y-91692556D01*
X164414918Y-91510512D01*
X164414911Y-91510504D01*
X164252670Y-91348263D01*
X164252661Y-91348255D01*
X164070617Y-91208566D01*
X164053296Y-91198566D01*
X163871888Y-91093830D01*
X163871876Y-91093824D01*
X163659887Y-91006016D01*
X163622566Y-90996016D01*
X163438238Y-90946626D01*
X163400215Y-90941620D01*
X163210741Y-90916674D01*
X163210734Y-90916674D01*
X162981266Y-90916674D01*
X162981258Y-90916674D01*
X162764715Y-90945183D01*
X162753762Y-90946626D01*
X162660076Y-90971728D01*
X162532112Y-91006016D01*
X162320123Y-91093824D01*
X162320109Y-91093831D01*
X162121382Y-91208566D01*
X161939338Y-91348255D01*
X161777081Y-91510512D01*
X161637392Y-91692556D01*
X161522657Y-91891283D01*
X161522650Y-91891297D01*
X161438984Y-92093287D01*
X161434842Y-92103287D01*
X161378132Y-92314936D01*
X161375453Y-92324933D01*
X161375451Y-92324944D01*
X161345500Y-92552432D01*
X157391500Y-92552432D01*
X157391500Y-77736020D01*
X157411185Y-77668981D01*
X157463989Y-77623226D01*
X157468048Y-77621459D01*
X157566876Y-77580523D01*
X157566876Y-77580522D01*
X157566888Y-77580518D01*
X157765612Y-77465785D01*
X157947661Y-77326093D01*
X157947665Y-77326088D01*
X157947670Y-77326085D01*
X158109911Y-77163844D01*
X158109914Y-77163839D01*
X158109919Y-77163835D01*
X158249611Y-76981786D01*
X158364344Y-76783062D01*
X158405285Y-76684222D01*
X158449125Y-76629818D01*
X158515420Y-76607753D01*
X158519846Y-76607674D01*
X159066462Y-76607674D01*
X159133501Y-76627359D01*
X159179256Y-76680163D01*
X159189200Y-76749321D01*
X159160175Y-76812877D01*
X159141948Y-76830050D01*
X159113959Y-76851526D01*
X159113952Y-76851532D01*
X158905358Y-77060126D01*
X158905352Y-77060133D01*
X158725761Y-77294180D01*
X158578258Y-77549663D01*
X158578254Y-77549673D01*
X158465364Y-77822212D01*
X158465361Y-77822222D01*
X158389007Y-78107181D01*
X158387960Y-78115131D01*
X158350500Y-78399660D01*
X158350500Y-78694687D01*
X158382571Y-78938287D01*
X158389007Y-78987167D01*
X158464896Y-79270389D01*
X158465361Y-79272125D01*
X158465364Y-79272135D01*
X158578254Y-79544674D01*
X158578258Y-79544684D01*
X158725761Y-79800167D01*
X158905352Y-80034214D01*
X158905358Y-80034221D01*
X159113952Y-80242815D01*
X159113959Y-80242821D01*
X159348006Y-80422412D01*
X159603489Y-80569915D01*
X159603490Y-80569915D01*
X159603493Y-80569917D01*
X159876048Y-80682813D01*
X160161007Y-80759167D01*
X160453494Y-80797674D01*
X160453501Y-80797674D01*
X160748499Y-80797674D01*
X160748506Y-80797674D01*
X161040993Y-80759167D01*
X161325952Y-80682813D01*
X161598507Y-80569917D01*
X161853994Y-80422412D01*
X162088042Y-80242820D01*
X162156553Y-80174309D01*
X168835500Y-80174309D01*
X168835500Y-81870044D01*
X168835501Y-81870050D01*
X168841908Y-81929657D01*
X168892202Y-82064502D01*
X168892206Y-82064509D01*
X168978452Y-82179718D01*
X168978455Y-82179721D01*
X169093664Y-82265967D01*
X169093671Y-82265971D01*
X169228517Y-82316265D01*
X169228516Y-82316265D01*
X169235444Y-82317009D01*
X169288127Y-82322674D01*
X170983872Y-82322673D01*
X171043483Y-82316265D01*
X171178331Y-82265970D01*
X171293546Y-82179720D01*
X171379796Y-82064505D01*
X171430091Y-81929657D01*
X171436500Y-81870047D01*
X171436499Y-80174302D01*
X171430091Y-80114691D01*
X171410016Y-80060868D01*
X171379797Y-79979845D01*
X171379793Y-79979838D01*
X171293547Y-79864629D01*
X171293544Y-79864626D01*
X171178335Y-79778380D01*
X171178328Y-79778376D01*
X171043482Y-79728082D01*
X171043483Y-79728082D01*
X170983883Y-79721675D01*
X170983881Y-79721674D01*
X170983873Y-79721674D01*
X170983864Y-79721674D01*
X169288129Y-79721674D01*
X169288123Y-79721675D01*
X169228516Y-79728082D01*
X169093671Y-79778376D01*
X169093664Y-79778380D01*
X168978455Y-79864626D01*
X168978452Y-79864629D01*
X168892206Y-79979838D01*
X168892202Y-79979845D01*
X168841908Y-80114691D01*
X168835501Y-80174290D01*
X168835501Y-80174297D01*
X168835500Y-80174309D01*
X162156553Y-80174309D01*
X162156572Y-80174290D01*
X162247564Y-80083299D01*
X162296641Y-80034221D01*
X162296646Y-80034216D01*
X162476238Y-79800168D01*
X162623743Y-79544681D01*
X162736639Y-79272126D01*
X162812993Y-78987167D01*
X162851500Y-78694680D01*
X162851500Y-78458595D01*
X164555500Y-78458595D01*
X164555500Y-78635753D01*
X164569357Y-78723241D01*
X164583214Y-78810730D01*
X164637956Y-78979213D01*
X164637957Y-78979216D01*
X164711477Y-79123505D01*
X164718386Y-79137064D01*
X164822517Y-79280388D01*
X164947786Y-79405657D01*
X165091110Y-79509788D01*
X165139965Y-79534681D01*
X165248957Y-79590216D01*
X165248960Y-79590217D01*
X165331253Y-79616955D01*
X165417445Y-79644960D01*
X165592421Y-79672674D01*
X165592422Y-79672674D01*
X165769578Y-79672674D01*
X165769579Y-79672674D01*
X165944555Y-79644960D01*
X166113042Y-79590216D01*
X166270890Y-79509788D01*
X166414214Y-79405657D01*
X166539483Y-79280388D01*
X166643614Y-79137064D01*
X166724042Y-78979216D01*
X166778786Y-78810729D01*
X166806500Y-78635753D01*
X166806500Y-78458595D01*
X166778786Y-78283619D01*
X166724042Y-78115132D01*
X166724042Y-78115131D01*
X166643613Y-77957283D01*
X166539483Y-77813960D01*
X166414214Y-77688691D01*
X166270890Y-77584560D01*
X166243333Y-77570519D01*
X166113042Y-77504131D01*
X166113039Y-77504130D01*
X165944556Y-77449388D01*
X165857067Y-77435531D01*
X165769579Y-77421674D01*
X165592421Y-77421674D01*
X165534095Y-77430912D01*
X165417443Y-77449388D01*
X165248960Y-77504130D01*
X165248957Y-77504131D01*
X165091109Y-77584560D01*
X165028586Y-77629986D01*
X164947786Y-77688691D01*
X164947784Y-77688693D01*
X164947783Y-77688693D01*
X164822519Y-77813957D01*
X164822519Y-77813958D01*
X164822517Y-77813960D01*
X164779332Y-77873399D01*
X164718386Y-77957283D01*
X164637957Y-78115131D01*
X164637956Y-78115134D01*
X164583214Y-78283617D01*
X164564833Y-78399668D01*
X164555500Y-78458595D01*
X162851500Y-78458595D01*
X162851500Y-78399668D01*
X162812993Y-78107181D01*
X162736639Y-77822222D01*
X162623743Y-77549667D01*
X162623257Y-77548826D01*
X162476238Y-77294180D01*
X162296647Y-77060133D01*
X162296641Y-77060126D01*
X162088047Y-76851532D01*
X162088040Y-76851526D01*
X162060052Y-76830050D01*
X162018849Y-76773622D01*
X162014694Y-76703876D01*
X162048906Y-76642956D01*
X162110624Y-76610203D01*
X162135538Y-76607674D01*
X166771885Y-76607674D01*
X166804891Y-76614238D01*
X166805364Y-76612473D01*
X166813213Y-76614576D01*
X166813215Y-76614577D01*
X166965943Y-76655500D01*
X174519765Y-76655500D01*
X174586804Y-76675185D01*
X174630249Y-76723205D01*
X174657455Y-76776600D01*
X174784836Y-76951925D01*
X174938075Y-77105164D01*
X175018829Y-77163835D01*
X175102577Y-77224682D01*
X175145242Y-77280012D01*
X175151221Y-77349626D01*
X175118615Y-77411421D01*
X175102577Y-77425318D01*
X175069448Y-77449388D01*
X174938075Y-77544836D01*
X174938073Y-77544838D01*
X174938072Y-77544838D01*
X174784838Y-77698072D01*
X174657455Y-77873399D01*
X174559068Y-78066494D01*
X174492102Y-78272594D01*
X174492102Y-78272597D01*
X174458200Y-78486644D01*
X174458200Y-78703355D01*
X174492102Y-78917402D01*
X174492102Y-78917405D01*
X174559068Y-79123505D01*
X174565977Y-79137064D01*
X174657455Y-79316600D01*
X174784836Y-79491925D01*
X174938075Y-79645164D01*
X175043382Y-79721674D01*
X175102577Y-79764682D01*
X175145242Y-79820012D01*
X175151221Y-79889626D01*
X175118615Y-79951421D01*
X175102577Y-79965318D01*
X175036675Y-80013198D01*
X174938075Y-80084836D01*
X174938073Y-80084838D01*
X174938072Y-80084838D01*
X174784838Y-80238072D01*
X174657455Y-80413399D01*
X174559068Y-80606494D01*
X174492102Y-80812594D01*
X174492102Y-80812597D01*
X174458200Y-81026644D01*
X174458200Y-81243355D01*
X174492102Y-81457402D01*
X174492102Y-81457405D01*
X174559068Y-81663505D01*
X174657455Y-81856600D01*
X174784836Y-82031925D01*
X174938075Y-82185164D01*
X175049291Y-82265967D01*
X175102577Y-82304682D01*
X175145242Y-82360012D01*
X175151221Y-82429626D01*
X175118615Y-82491421D01*
X175102577Y-82505318D01*
X175036675Y-82553198D01*
X174938075Y-82624836D01*
X174938073Y-82624838D01*
X174938072Y-82624838D01*
X174784838Y-82778072D01*
X174657455Y-82953399D01*
X174559068Y-83146494D01*
X174492102Y-83352594D01*
X174492102Y-83352597D01*
X174458200Y-83566644D01*
X174458200Y-83783355D01*
X174492102Y-83997402D01*
X174492102Y-83997405D01*
X174559068Y-84203505D01*
X174559070Y-84203508D01*
X174657455Y-84396600D01*
X174784836Y-84571925D01*
X174938075Y-84725164D01*
X175051870Y-84807841D01*
X175102577Y-84844682D01*
X175145242Y-84900012D01*
X175151221Y-84969626D01*
X175118615Y-85031421D01*
X175102577Y-85045318D01*
X175036675Y-85093198D01*
X174938075Y-85164836D01*
X174938073Y-85164838D01*
X174938072Y-85164838D01*
X174784838Y-85318072D01*
X174657455Y-85493399D01*
X174559068Y-85686494D01*
X174492102Y-85892594D01*
X174492102Y-85892597D01*
X174458200Y-86106644D01*
X174458200Y-86323355D01*
X174492102Y-86537402D01*
X174492102Y-86537405D01*
X174559068Y-86743505D01*
X174559070Y-86743508D01*
X174657455Y-86936600D01*
X174784836Y-87111925D01*
X174938075Y-87265164D01*
X175051870Y-87347841D01*
X175102577Y-87384682D01*
X175145242Y-87440012D01*
X175151221Y-87509626D01*
X175118615Y-87571421D01*
X175102577Y-87585318D01*
X175036675Y-87633198D01*
X174938075Y-87704836D01*
X174938073Y-87704838D01*
X174938072Y-87704838D01*
X174784838Y-87858072D01*
X174657455Y-88033399D01*
X174559068Y-88226494D01*
X174492102Y-88432594D01*
X174492102Y-88432597D01*
X174458200Y-88646644D01*
X174458200Y-88863355D01*
X174492102Y-89077402D01*
X174492102Y-89077405D01*
X174559068Y-89283505D01*
X174559070Y-89283508D01*
X174657455Y-89476600D01*
X174784836Y-89651925D01*
X174938075Y-89805164D01*
X175113400Y-89932545D01*
X175306492Y-90030930D01*
X175306494Y-90030931D01*
X175512595Y-90097897D01*
X175512596Y-90097897D01*
X175512599Y-90097898D01*
X175726644Y-90131800D01*
X175726645Y-90131800D01*
X175943355Y-90131800D01*
X175943356Y-90131800D01*
X176157401Y-90097898D01*
X176157404Y-90097897D01*
X176157405Y-90097897D01*
X176363505Y-90030931D01*
X176363505Y-90030930D01*
X176363508Y-90030930D01*
X176556600Y-89932545D01*
X176731925Y-89805164D01*
X176885164Y-89651925D01*
X177012545Y-89476600D01*
X177110930Y-89283508D01*
X177177898Y-89077401D01*
X177211800Y-88863356D01*
X177211800Y-88646644D01*
X177177898Y-88432599D01*
X177177897Y-88432595D01*
X177177897Y-88432594D01*
X177110931Y-88226494D01*
X177012544Y-88033399D01*
X176885164Y-87858075D01*
X176731925Y-87704836D01*
X176731921Y-87704833D01*
X176567423Y-87585318D01*
X176524757Y-87529988D01*
X176518778Y-87460375D01*
X176551384Y-87398580D01*
X176567423Y-87384682D01*
X176614706Y-87350328D01*
X176731925Y-87265164D01*
X176885164Y-87111925D01*
X177012545Y-86936600D01*
X177110930Y-86743508D01*
X177177898Y-86537401D01*
X177211800Y-86323356D01*
X177211800Y-86106644D01*
X177177898Y-85892599D01*
X177177897Y-85892595D01*
X177177897Y-85892594D01*
X177110931Y-85686494D01*
X177012544Y-85493399D01*
X176885164Y-85318075D01*
X176731925Y-85164836D01*
X176731921Y-85164833D01*
X176567423Y-85045318D01*
X176524757Y-84989988D01*
X176518778Y-84920375D01*
X176551384Y-84858580D01*
X176567423Y-84844682D01*
X176614706Y-84810328D01*
X176731925Y-84725164D01*
X176885164Y-84571925D01*
X177012545Y-84396600D01*
X177110930Y-84203508D01*
X177177898Y-83997401D01*
X177211800Y-83783356D01*
X177211800Y-83566644D01*
X177177898Y-83352599D01*
X177177897Y-83352595D01*
X177177897Y-83352594D01*
X177110931Y-83146494D01*
X177012544Y-82953399D01*
X176885164Y-82778075D01*
X176731925Y-82624836D01*
X176731921Y-82624833D01*
X176567423Y-82505318D01*
X176524757Y-82449988D01*
X176518778Y-82380375D01*
X176551384Y-82318580D01*
X176567423Y-82304682D01*
X176620709Y-82265967D01*
X176731925Y-82185164D01*
X176885164Y-82031925D01*
X177012545Y-81856600D01*
X177110930Y-81663508D01*
X177122988Y-81626397D01*
X177177897Y-81457405D01*
X177177897Y-81457404D01*
X177177898Y-81457401D01*
X177211800Y-81243356D01*
X177211800Y-81026644D01*
X177177898Y-80812599D01*
X177177897Y-80812595D01*
X177177897Y-80812594D01*
X177110931Y-80606494D01*
X177087198Y-80559915D01*
X177012545Y-80413400D01*
X176885164Y-80238075D01*
X176731925Y-80084836D01*
X176731921Y-80084833D01*
X176567423Y-79965318D01*
X176524757Y-79909988D01*
X176518778Y-79840375D01*
X176551384Y-79778580D01*
X176567423Y-79764682D01*
X176617798Y-79728082D01*
X176731925Y-79645164D01*
X176885164Y-79491925D01*
X177012545Y-79316600D01*
X177110930Y-79123508D01*
X177149893Y-79003592D01*
X177177897Y-78917405D01*
X177177897Y-78917404D01*
X177177898Y-78917401D01*
X177211800Y-78703356D01*
X177211800Y-78486644D01*
X177177898Y-78272599D01*
X177177897Y-78272595D01*
X177177897Y-78272594D01*
X177110931Y-78066494D01*
X177051723Y-77950291D01*
X177012545Y-77873400D01*
X176885164Y-77698075D01*
X176731925Y-77544836D01*
X176724819Y-77539673D01*
X176567423Y-77425318D01*
X176524757Y-77369988D01*
X176518778Y-77300375D01*
X176551384Y-77238580D01*
X176567423Y-77224682D01*
X176614706Y-77190328D01*
X176731925Y-77105164D01*
X176885164Y-76951925D01*
X177012545Y-76776600D01*
X177110930Y-76583508D01*
X177115484Y-76569493D01*
X177177897Y-76377405D01*
X177177897Y-76377404D01*
X177177898Y-76377401D01*
X177211800Y-76163356D01*
X177211800Y-75946644D01*
X177177898Y-75732599D01*
X177177897Y-75732595D01*
X177177897Y-75732594D01*
X177110931Y-75526494D01*
X177063439Y-75433286D01*
X177012545Y-75333400D01*
X176885164Y-75158075D01*
X176731925Y-75004836D01*
X176609357Y-74915785D01*
X176567423Y-74885318D01*
X176524757Y-74829988D01*
X176518778Y-74760375D01*
X176551384Y-74698580D01*
X176567423Y-74684682D01*
X176614706Y-74650328D01*
X176731925Y-74565164D01*
X176885164Y-74411925D01*
X177012545Y-74236600D01*
X177110930Y-74043508D01*
X177114974Y-74031061D01*
X177177897Y-73837405D01*
X177177897Y-73837404D01*
X177177898Y-73837401D01*
X177211800Y-73623356D01*
X177211800Y-73406644D01*
X177177898Y-73192599D01*
X177177897Y-73192595D01*
X177177897Y-73192594D01*
X177110931Y-72986494D01*
X177068535Y-72903287D01*
X177012545Y-72793400D01*
X176885164Y-72618075D01*
X176731925Y-72464836D01*
X176656728Y-72410202D01*
X176567423Y-72345318D01*
X176524757Y-72289988D01*
X176518778Y-72220375D01*
X176551384Y-72158580D01*
X176567423Y-72144682D01*
X176626618Y-72101674D01*
X176731925Y-72025164D01*
X176885164Y-71871925D01*
X177012545Y-71696600D01*
X177110930Y-71503508D01*
X177177898Y-71297401D01*
X177211800Y-71083356D01*
X177211800Y-70866644D01*
X177177898Y-70652599D01*
X177177897Y-70652595D01*
X177177897Y-70652594D01*
X177147980Y-70560518D01*
X177145985Y-70490677D01*
X177182066Y-70430844D01*
X177244767Y-70400016D01*
X177265911Y-70398200D01*
X181977603Y-70398200D01*
X182044642Y-70417885D01*
G37*
%TD.AperFunction*%
M02*
