%TF.GenerationSoftware,KiCad,Pcbnew,9.0.3*%
%TF.CreationDate,2026-08-02T02:37:07-04:00*%
%TF.ProjectId,HackPad,4861636b-5061-4642-9e6b-696361645f70,rev?*%
%TF.SameCoordinates,Original*%
%TF.FileFunction,Soldermask,Top*%
%TF.FilePolarity,Negative*%
%FSLAX46Y46*%
G04 Gerber Fmt 4.6, Leading zero omitted, Abs format (unit mm)*
G04 Created by KiCad (PCBNEW 9.0.3) date 2026-08-02 02:37:07*
%MOMM*%
%LPD*%
G01*
G04 APERTURE LIST*
%ADD10R,1.600000X1.600000*%
%ADD11O,1.600000X1.600000*%
%ADD12R,1.700000X1.700000*%
%ADD13O,1.700000X1.700000*%
%ADD14C,1.750000*%
%ADD15C,4.000000*%
%ADD16C,2.500000*%
%ADD17C,1.700000*%
%ADD18R,1.752600X1.752600*%
%ADD19C,1.752600*%
%ADD20R,2.000000X2.000000*%
%ADD21C,2.000000*%
%ADD22R,3.200000X2.000000*%
%ADD23R,1.730000X2.030000*%
%ADD24O,1.730000X2.030000*%
G04 APERTURE END LIST*
D10*
%TO.C,D9*%
X170086000Y-119512174D03*
D11*
X170086000Y-111892174D03*
%TD*%
D12*
%TO.C,J1*%
X115385000Y-63695000D03*
D13*
X115385000Y-61155000D03*
X115385000Y-58615000D03*
X115385000Y-56075000D03*
%TD*%
D14*
%TO.C,S7*%
X117376000Y-116847174D03*
D15*
X122456000Y-116847174D03*
D14*
X127536000Y-116847174D03*
D16*
X118646000Y-114307174D03*
X124996000Y-111767174D03*
%TD*%
D10*
%TO.C,D4*%
X131926000Y-100362174D03*
D11*
X131926000Y-92742174D03*
%TD*%
D10*
%TO.C,D5*%
X151026000Y-100362174D03*
D11*
X151026000Y-92742174D03*
%TD*%
D10*
%TO.C,D8*%
X151066000Y-119512174D03*
D11*
X151066000Y-111892174D03*
%TD*%
D14*
%TO.C,S6*%
X155476000Y-97747174D03*
D15*
X160556000Y-97747174D03*
D14*
X165636000Y-97747174D03*
D16*
X156746000Y-95207174D03*
X163096000Y-92667174D03*
%TD*%
D10*
%TO.C,D7*%
X132006000Y-119512174D03*
D11*
X132006000Y-111892174D03*
%TD*%
D12*
%TO.C,J3*%
X187475000Y-107365000D03*
D17*
X187475000Y-104825000D03*
X187475000Y-102285000D03*
X187475000Y-99745000D03*
X187475000Y-97205000D03*
X187475000Y-94665000D03*
%TD*%
D18*
%TO.C,U1*%
X175835000Y-60815000D03*
D19*
X175835000Y-63355000D03*
X175835000Y-65895000D03*
X175835000Y-68435000D03*
X175835000Y-70975000D03*
X175835000Y-73515000D03*
X175835000Y-76055000D03*
X175835000Y-78595000D03*
X175835000Y-81135000D03*
X175835000Y-83675000D03*
X175835000Y-86215000D03*
X175835000Y-88755000D03*
X191075000Y-88755000D03*
X191075000Y-86215000D03*
X191075000Y-83675000D03*
X191075000Y-81135000D03*
X191075000Y-78595000D03*
X191075000Y-76055000D03*
X191075000Y-73515000D03*
X191075000Y-70975000D03*
X191075000Y-68435000D03*
X191075000Y-65895000D03*
X191075000Y-63355000D03*
X191075000Y-60815000D03*
%TD*%
D14*
%TO.C,S4*%
X117376000Y-97747174D03*
D15*
X122456000Y-97747174D03*
D14*
X127536000Y-97747174D03*
D16*
X118646000Y-95207174D03*
X124996000Y-92667174D03*
%TD*%
D20*
%TO.C,SW1*%
X155495000Y-58055000D03*
D21*
X155495000Y-63055000D03*
X155495000Y-60555000D03*
D22*
X162995000Y-54955000D03*
X162995000Y-66155000D03*
D21*
X169995000Y-63055000D03*
X169995000Y-58055000D03*
%TD*%
D12*
%TO.C,J4*%
X178055000Y-94795000D03*
D17*
X178055000Y-97335000D03*
X178055000Y-99875000D03*
X178055000Y-102415000D03*
X178055000Y-104955000D03*
X178055000Y-107495000D03*
%TD*%
D14*
%TO.C,S1*%
X117361000Y-78537174D03*
D15*
X122441000Y-78537174D03*
D14*
X127521000Y-78537174D03*
D16*
X118631000Y-75997174D03*
X124981000Y-73457174D03*
%TD*%
D10*
%TO.C,D1*%
X131966000Y-81022174D03*
D11*
X131966000Y-73402174D03*
%TD*%
D10*
%TO.C,D3*%
X170136000Y-81022174D03*
D11*
X170136000Y-73402174D03*
%TD*%
D14*
%TO.C,S3*%
X155521000Y-78547174D03*
D15*
X160601000Y-78547174D03*
D14*
X165681000Y-78547174D03*
D16*
X156791000Y-76007174D03*
X163141000Y-73467174D03*
%TD*%
D14*
%TO.C,S8*%
X136481000Y-116797174D03*
D15*
X141561000Y-116797174D03*
D14*
X146641000Y-116797174D03*
D16*
X137751000Y-114257174D03*
X144101000Y-111717174D03*
%TD*%
D14*
%TO.C,S5*%
X136461000Y-97737174D03*
D15*
X141541000Y-97737174D03*
D14*
X146621000Y-97737174D03*
D16*
X137731000Y-95197174D03*
X144081000Y-92657174D03*
%TD*%
D14*
%TO.C,S9*%
X155481000Y-116822174D03*
D15*
X160561000Y-116822174D03*
D14*
X165641000Y-116822174D03*
D16*
X156751000Y-114282174D03*
X163101000Y-111742174D03*
%TD*%
D10*
%TO.C,D2*%
X151196000Y-81022174D03*
D11*
X151196000Y-73402174D03*
%TD*%
D10*
%TO.C,D6*%
X170056000Y-100362174D03*
D11*
X170056000Y-92742174D03*
%TD*%
D23*
%TO.C,J2*%
X179435000Y-122035000D03*
D24*
X181975000Y-122035000D03*
X184515000Y-122035000D03*
%TD*%
D14*
%TO.C,S2*%
X136411000Y-78537174D03*
D15*
X141491000Y-78537174D03*
D14*
X146571000Y-78537174D03*
D16*
X137681000Y-75997174D03*
X144031000Y-73457174D03*
%TD*%
M02*
