M48
; DRILL file {KiCad 9.0.3} date 2026-08-02T02:37:20-0400
; FORMAT={-:-/ absolute / metric / decimal}
; #@! TF.CreationDate,2026-08-02T02:37:20-04:00
; #@! TF.GenerationSoftware,Kicad,Pcbnew,9.0.3
; #@! TF.FileFunction,NonPlated,1,2,NPTH
FMAT,2
METRIC
; #@! TA.AperFunction,NonPlated,NPTH,ComponentDrill
T1C1.750
; #@! TA.AperFunction,NonPlated,NPTH,ComponentDrill
T2C4.000
%
G90
G05
T1
X117.361Y-78.537
X117.376Y-97.747
X117.376Y-116.847
X127.521Y-78.537
X127.536Y-97.747
X127.536Y-116.847
X136.411Y-78.537
X136.461Y-97.737
X136.481Y-116.797
X146.571Y-78.537
X146.621Y-97.737
X146.641Y-116.797
X155.476Y-97.747
X155.481Y-116.822
X155.521Y-78.547
X165.636Y-97.747
X165.641Y-116.822
X165.681Y-78.547
T2
X122.441Y-78.537
X122.456Y-97.747
X122.456Y-116.847
X141.491Y-78.537
X141.541Y-97.737
X141.561Y-116.797
X160.556Y-97.747
X160.561Y-116.822
X160.601Y-78.547
M30
